<?xml version="1.0" encoding="iso-8859-1"?>
<!-- Generator: Adobe Illustrator 26.0.3, SVG Export Plug-In . SVG Version: 6.00 Build 0)  -->
<svg version="1.1" id="Layer_1" xmlns="http://www.w3.org/2000/svg" xmlns:xlink="http://www.w3.org/1999/xlink" x="0px" y="0px"
	 width="1920px" height="4705.185px" viewBox="0 0 1920 4705.185" enable-background="new 0 0 1920 4705.185" xml:space="preserve">
<g>
	<path fill="#212121" d="M120.507,0v980.261h0.679v57.089l59.96,7.064c59.96,7.597,179.881,20.925,299.802,7.197
		c119.921-14.261,239.842-56.912,359.763-56.912c119.921,0,239.842,42.651,359.763,56.912c119.921,13.728,239.842,0.4,359.763,0
		c119.921,0.4,239.842,13.728,299.802,21.325L1920,1080V909.398V0H120.507z"/>
</g>
<rect fill="#F2F2F2" width="120.507" height="1080"/>
<rect x="21.957" y="25.188" fill="#CCCCCC" width="74.638" height="74.638"/>
<rect x="21.957" y="217.942" fill="#CCCCCC" width="74.638" height="37.319"/>
<rect x="21.957" y="278.812" fill="#CCCCCC" width="74.638" height="37.319"/>
<rect x="21.957" y="339.681" fill="#CCCCCC" width="74.638" height="37.319"/>
<rect x="21.957" y="992.812" fill="#CCCCCC" width="74.638" height="37.319"/>
<g>
	<polyline fill="none" stroke="#58585A" stroke-width="6.1875" stroke-linecap="square" stroke-miterlimit="10" points="
		1045.004,903.546 1020.254,928.296 995.504,903.546 	"/>
</g>
<g>
	
		<circle fill="none" stroke="#58585A" stroke-width="13.6876" stroke-linecap="square" stroke-miterlimit="10" cx="983.799" cy="402.805" r="27.375"/>
	<polyline fill="none" stroke="#58585A" stroke-width="13.6876" stroke-miterlimit="10" points="1003.297,520.272 1086.456,430.18 
		1175.425,519.15 	"/>
	<polyline fill="none" stroke="#58585A" stroke-width="13.6876" stroke-miterlimit="10" points="874.298,553.369 956.424,478.087 
		1024.862,539.681 	"/>
	
		<rect x="874.298" y="334.367" fill="none" stroke="#58585A" stroke-width="13.6876" stroke-linecap="square" stroke-miterlimit="10" width="301.127" height="246.377"/>
</g>
<g>
	
		<circle fill="none" stroke="#58585A" stroke-width="2.0912" stroke-linecap="square" stroke-miterlimit="10" cx="53.002" cy="54.142" r="4.182"/>
	<polyline fill="none" stroke="#58585A" stroke-width="2.0912" stroke-miterlimit="10" points="55.981,72.089 68.686,58.325 
		82.278,71.918 	"/>
	<polyline fill="none" stroke="#58585A" stroke-width="2.0912" stroke-miterlimit="10" points="36.272,77.146 48.819,65.644 
		59.275,75.054 	"/>
	
		<rect x="36.272" y="43.687" fill="none" stroke="#58585A" stroke-width="2.0912" stroke-linecap="square" stroke-miterlimit="10" width="46.006" height="37.641"/>
</g>
<rect y="1080" fill="#FFFFFF" width="1920" height="1080"/>
<rect y="1080" fill="#F2F2F2" width="120.507" height="1080"/>
<rect x="21.957" y="1105.188" fill="#CCCCCC" width="74.638" height="74.638"/>
<rect x="21.957" y="1297.942" fill="#CCCCCC" width="74.638" height="37.319"/>
<rect x="922.681" y="1392.113" fill="#CCCCCC" width="228.683" height="37.319"/>
<rect x="922.681" y="1443.558" fill="#CCCCCC" width="228.683" height="37.319"/>
<rect x="922.681" y="1495.004" fill="#CCCCCC" width="228.683" height="37.319"/>
<rect x="922.681" y="1546.449" fill="#CCCCCC" width="228.683" height="37.319"/>
<rect x="922.681" y="1597.894" fill="#CCCCCC" width="228.683" height="37.319"/>
<rect x="922.681" y="1649.339" fill="#CCCCCC" width="228.683" height="37.319"/>
<rect x="922.681" y="1700.784" fill="#CCCCCC" width="228.683" height="37.319"/>
<rect x="922.681" y="1273.043" fill="#CCCCCC" width="910.605" height="86.258"/>
<rect x="21.957" y="1358.812" fill="#CCCCCC" width="74.638" height="37.319"/>
<rect x="21.957" y="1419.681" fill="#CCCCCC" width="74.638" height="37.319"/>
<rect x="21.957" y="2072.812" fill="#CCCCCC" width="74.638" height="37.319"/>
<g>
	
		<circle fill="none" stroke="#58585A" stroke-width="2.0912" stroke-linecap="square" stroke-miterlimit="10" cx="53.002" cy="1134.142" r="4.182"/>
	<polyline fill="none" stroke="#58585A" stroke-width="2.0912" stroke-miterlimit="10" points="55.981,1152.089 68.686,1138.325 
		82.278,1151.918 	"/>
	<polyline fill="none" stroke="#58585A" stroke-width="2.0912" stroke-miterlimit="10" points="36.272,1157.146 48.819,1145.644 
		59.275,1155.054 	"/>
	
		<rect x="36.272" y="1123.687" fill="none" stroke="#58585A" stroke-width="2.0912" stroke-linecap="square" stroke-miterlimit="10" width="46.006" height="37.641"/>
</g>
<g>
	<polyline fill="none" stroke="#58585A" stroke-width="6.1875" stroke-linecap="square" stroke-miterlimit="10" points="
		1045.004,2079.096 1020.254,2103.846 995.504,2079.096 	"/>
</g>
<g>
	
		<circle fill="none" stroke="#58585A" stroke-width="27.461" stroke-linecap="square" stroke-miterlimit="10" cx="447.481" cy="1365.283" r="54.922"/>
	<polyline fill="none" stroke="#58585A" stroke-width="27.461" stroke-miterlimit="10" points="486.6,1600.954 653.439,1420.205 
		831.935,1598.702 	"/>
	<polyline fill="none" stroke="#58585A" stroke-width="27.461" stroke-miterlimit="10" points="227.793,1667.355 392.559,1516.319 
		529.864,1639.894 	"/>
	
		<rect x="227.793" y="1227.978" fill="none" stroke="#58585A" stroke-width="27.461" stroke-linecap="square" stroke-miterlimit="10" width="604.142" height="494.298"/>
</g>
<g>
	
		<circle fill="none" stroke="#58585A" stroke-width="5.7261" stroke-linecap="square" stroke-miterlimit="10" cx="213.01" cy="1896.399" r="11.452"/>
	<polyline fill="none" stroke="#58585A" stroke-width="5.7261" stroke-miterlimit="10" points="221.167,1945.54 255.956,1907.851 
		293.175,1945.07 	"/>
	<polyline fill="none" stroke="#58585A" stroke-width="5.7261" stroke-miterlimit="10" points="167.202,1959.385 201.558,1927.892 
		230.188,1953.659 	"/>
	
		<rect x="167.202" y="1867.768" fill="none" stroke="#58585A" stroke-width="5.7261" stroke-linecap="square" stroke-miterlimit="10" width="125.973" height="103.069"/>
</g>
<g>
	
		<circle fill="none" stroke="#58585A" stroke-width="5.7261" stroke-linecap="square" stroke-miterlimit="10" cx="373.3" cy="1896.399" r="11.452"/>
	<polyline fill="none" stroke="#58585A" stroke-width="5.7261" stroke-miterlimit="10" points="381.456,1945.54 416.245,1907.851 
		453.464,1945.07 	"/>
	<polyline fill="none" stroke="#58585A" stroke-width="5.7261" stroke-miterlimit="10" points="327.491,1959.385 361.848,1927.892 
		390.478,1953.659 	"/>
	
		<rect x="327.491" y="1867.768" fill="none" stroke="#58585A" stroke-width="5.7261" stroke-linecap="square" stroke-miterlimit="10" width="125.973" height="103.069"/>
</g>
<g>
	
		<circle fill="none" stroke="#58585A" stroke-width="5.7261" stroke-linecap="square" stroke-miterlimit="10" cx="544.18" cy="1896.399" r="11.452"/>
	<polyline fill="none" stroke="#58585A" stroke-width="5.7261" stroke-miterlimit="10" points="552.336,1945.54 587.125,1907.851 
		624.344,1945.07 	"/>
	<polyline fill="none" stroke="#58585A" stroke-width="5.7261" stroke-miterlimit="10" points="498.371,1959.385 532.727,1927.892 
		561.358,1953.659 	"/>
	
		<rect x="498.371" y="1867.768" fill="none" stroke="#58585A" stroke-width="5.7261" stroke-linecap="square" stroke-miterlimit="10" width="125.973" height="103.069"/>
</g>
<g>
	
		<circle fill="none" stroke="#58585A" stroke-width="5.7261" stroke-linecap="square" stroke-miterlimit="10" cx="703.054" cy="1896.399" r="11.452"/>
	<polyline fill="none" stroke="#58585A" stroke-width="5.7261" stroke-miterlimit="10" points="711.211,1945.54 745.999,1907.851 
		783.219,1945.07 	"/>
	<polyline fill="none" stroke="#58585A" stroke-width="5.7261" stroke-miterlimit="10" points="657.246,1959.385 691.602,1927.892 
		720.232,1953.659 	"/>
	
		<rect x="657.246" y="1867.768" fill="none" stroke="#58585A" stroke-width="5.7261" stroke-linecap="square" stroke-miterlimit="10" width="125.973" height="103.069"/>
</g>
<g>
	
		<circle fill="none" stroke="#58585A" stroke-width="5.7261" stroke-linecap="square" stroke-miterlimit="10" cx="862.77" cy="1896.399" r="11.452"/>
	<polyline fill="none" stroke="#58585A" stroke-width="5.7261" stroke-miterlimit="10" points="870.926,1945.54 905.715,1907.851 
		942.934,1945.07 	"/>
	<polyline fill="none" stroke="#58585A" stroke-width="5.7261" stroke-miterlimit="10" points="816.961,1959.385 851.318,1927.892 
		879.948,1953.659 	"/>
	
		<rect x="816.961" y="1867.768" fill="none" stroke="#58585A" stroke-width="5.7261" stroke-linecap="square" stroke-miterlimit="10" width="125.973" height="103.069"/>
</g>
<g>
	
		<circle fill="none" stroke="#58585A" stroke-width="5.7261" stroke-linecap="square" stroke-miterlimit="10" cx="1022.924" cy="1896.399" r="11.452"/>
	<polyline fill="none" stroke="#58585A" stroke-width="5.7261" stroke-miterlimit="10" points="1031.08,1945.54 1065.869,1907.851 
		1103.088,1945.07 	"/>
	<polyline fill="none" stroke="#58585A" stroke-width="5.7261" stroke-miterlimit="10" points="977.115,1959.385 1011.471,1927.892 
		1040.102,1953.659 	"/>
	
		<rect x="977.115" y="1867.768" fill="none" stroke="#58585A" stroke-width="5.7261" stroke-linecap="square" stroke-miterlimit="10" width="125.973" height="103.069"/>
</g>
<g>
	
		<circle fill="none" stroke="#58585A" stroke-width="5.7261" stroke-linecap="square" stroke-miterlimit="10" cx="1181.445" cy="1896.399" r="11.452"/>
	<polyline fill="none" stroke="#58585A" stroke-width="5.7261" stroke-miterlimit="10" points="1189.602,1945.54 1224.391,1907.851 
		1261.61,1945.07 	"/>
	<polyline fill="none" stroke="#58585A" stroke-width="5.7261" stroke-miterlimit="10" points="1135.637,1959.385 
		1169.993,1927.892 1198.623,1953.659 	"/>
	
		<rect x="1135.637" y="1867.768" fill="none" stroke="#58585A" stroke-width="5.7261" stroke-linecap="square" stroke-miterlimit="10" width="125.973" height="103.069"/>
</g>
<g>
	
		<circle fill="none" stroke="#58585A" stroke-width="5.7261" stroke-linecap="square" stroke-miterlimit="10" cx="1338.355" cy="1896.399" r="11.452"/>
	<polyline fill="none" stroke="#58585A" stroke-width="5.7261" stroke-miterlimit="10" points="1346.512,1945.54 1381.3,1907.851 
		1418.52,1945.07 	"/>
	<polyline fill="none" stroke="#58585A" stroke-width="5.7261" stroke-miterlimit="10" points="1292.546,1959.385 
		1326.903,1927.892 1355.533,1953.659 	"/>
	
		<rect x="1292.546" y="1867.768" fill="none" stroke="#58585A" stroke-width="5.7261" stroke-linecap="square" stroke-miterlimit="10" width="125.973" height="103.069"/>
</g>
<g>
	
		<circle fill="none" stroke="#58585A" stroke-width="5.7261" stroke-linecap="square" stroke-miterlimit="10" cx="1489.341" cy="1896.399" r="11.452"/>
	<polyline fill="none" stroke="#58585A" stroke-width="5.7261" stroke-miterlimit="10" points="1497.498,1945.54 1532.287,1907.851 
		1569.506,1945.07 	"/>
	<polyline fill="none" stroke="#58585A" stroke-width="5.7261" stroke-miterlimit="10" points="1443.533,1959.385 
		1477.889,1927.892 1506.52,1953.659 	"/>
	
		<rect x="1443.533" y="1867.768" fill="none" stroke="#58585A" stroke-width="5.7261" stroke-linecap="square" stroke-miterlimit="10" width="125.973" height="103.069"/>
</g>
<g>
	
		<circle fill="none" stroke="#58585A" stroke-width="5.7261" stroke-linecap="square" stroke-miterlimit="10" cx="1641.519" cy="1896.399" r="11.452"/>
	<polyline fill="none" stroke="#58585A" stroke-width="5.7261" stroke-miterlimit="10" points="1649.675,1945.54 1684.464,1907.851 
		1721.683,1945.07 	"/>
	<polyline fill="none" stroke="#58585A" stroke-width="5.7261" stroke-miterlimit="10" points="1595.71,1959.385 1630.067,1927.892 
		1658.697,1953.659 	"/>
	
		<rect x="1595.71" y="1867.768" fill="none" stroke="#58585A" stroke-width="5.7261" stroke-linecap="square" stroke-miterlimit="10" width="125.973" height="103.069"/>
</g>
<g>
	
		<circle fill="none" stroke="#58585A" stroke-width="5.7261" stroke-linecap="square" stroke-miterlimit="10" cx="1793.141" cy="1896.399" r="11.452"/>
	<polyline fill="none" stroke="#58585A" stroke-width="5.7261" stroke-miterlimit="10" points="1801.297,1945.54 1836.086,1907.851 
		1873.305,1945.07 	"/>
	<polyline fill="none" stroke="#58585A" stroke-width="5.7261" stroke-miterlimit="10" points="1747.332,1959.385 
		1781.688,1927.892 1810.319,1953.659 	"/>
	
		<rect x="1747.332" y="1867.768" fill="none" stroke="#58585A" stroke-width="5.7261" stroke-linecap="square" stroke-miterlimit="10" width="125.973" height="103.069"/>
</g>
<rect y="2160" fill="#E6E6E6" width="1920" height="1080"/>
<rect y="2160" fill="#F2F2F2" width="120.507" height="1080"/>
<rect x="21.957" y="2185.188" fill="#CCCCCC" width="74.638" height="74.638"/>
<rect x="21.957" y="2377.942" fill="#CCCCCC" width="74.638" height="37.319"/>
<rect x="21.957" y="2438.812" fill="#CCCCCC" width="74.638" height="37.319"/>
<rect x="21.957" y="2499.681" fill="#CCCCCC" width="74.638" height="37.319"/>
<rect x="21.957" y="3152.812" fill="#CCCCCC" width="74.638" height="37.319"/>
<g>
	
		<circle fill="none" stroke="#58585A" stroke-width="2.0912" stroke-linecap="square" stroke-miterlimit="10" cx="53.002" cy="2214.143" r="4.182"/>
	<polyline fill="none" stroke="#58585A" stroke-width="2.0912" stroke-miterlimit="10" points="55.981,2232.089 68.686,2218.325 
		82.278,2231.917 	"/>
	<polyline fill="none" stroke="#58585A" stroke-width="2.0912" stroke-miterlimit="10" points="36.272,2237.146 48.819,2225.644 
		59.275,2235.054 	"/>
	
		<rect x="36.272" y="2203.687" fill="none" stroke="#58585A" stroke-width="2.0912" stroke-linecap="square" stroke-miterlimit="10" width="46.006" height="37.641"/>
</g>
<g>
	<polyline fill="none" stroke="#58585A" stroke-width="6.1875" stroke-linecap="square" stroke-miterlimit="10" points="
		1045.004,3159.096 1020.254,3183.846 995.504,3159.096 	"/>
</g>
<g>
	<polyline fill="none" stroke="#58585A" stroke-width="3.8736" stroke-linecap="square" stroke-miterlimit="10" points="
		1667.884,2665.759 1652.39,2681.254 1636.895,2665.759 	"/>
</g>
<g>
	<path d="M300.629,2733.113h-23.695v-31.513h58.871v178.079h-35.176V2733.113z"/>
	<path d="M429.366,2697.448c36.642,0,56.184,20.764,56.184,47.146c0,22.229-13.924,35.909-26.87,40.306v0.978
		c18.076,5.618,30.046,20.275,30.046,44.459c0,29.068-20.519,50.565-57.894,50.565c-35.176,0-61.803-17.588-63.268-54.963h33.222
		c0.733,15.39,10.993,26.382,29.313,26.382c17.099,0,25.893-10.748,25.893-24.916c0-20.031-12.702-27.359-38.107-27.359h-7.084
		v-28.092h7.084c20.031,0,34.688-5.618,34.688-23.206c0-13.924-8.55-22.229-24.184-22.229c-16.611,0-23.695,10.748-24.917,21.984
		h-33.466C371.716,2715.525,395.167,2697.448,429.366,2697.448z"/>
	<path d="M635.541,2701.112v30.046h-79.146v41.772c6.595-8.062,20.031-14.413,34.932-14.413c41.527,0,55.695,31.268,55.695,58.871
		c0,36.397-21.008,62.291-61.558,62.291c-38.352,0-60.336-21.252-63.268-50.321h33.222c2.932,12.458,12.947,21.496,29.558,21.496
		c20.031,0,29.069-14.168,29.069-32.978c0-20.03-10.016-31.022-29.313-31.022c-14.168,0-23.206,7.816-26.871,18.809h-32.733
		v-104.551H635.541z"/>
</g>
<g>
	<path d="M679.954,2805.675h14.001v74.005h-14.001V2805.675z"/>
	<path d="M740.056,2823.376c14.201,0,25.302,11.101,25.302,28.402c0,17.301-11.101,28.802-25.302,28.802
		c-8.7,0-14.9-4.001-18.301-8.801v7.9h-14.001v-74.005h14.001v26.702C725.155,2827.276,731.655,2823.376,740.056,2823.376z
		 M736.355,2835.677c-7.5,0-14.601,5.801-14.601,16.301c0,10.501,7.101,16.302,14.601,16.302c7.601,0,14.701-6.001,14.701-16.501
		C751.057,2841.277,743.956,2835.677,736.355,2835.677z"/>
	<path d="M796.755,2880.58c-13.9,0-23.601-8.101-24.201-18.401h14.101c0.5,4.2,4.4,7.4,10.001,7.4c5.5,0,8.501-2.5,8.501-5.7
		c0-9.9-31.303-3.601-31.303-23.901c0-9.201,8.201-16.602,21.901-16.602c13.401,0,21.502,7.301,22.302,18.302h-13.401
		c-0.399-4.301-3.8-7.201-9.3-7.201c-5.2,0-7.9,2.101-7.9,5.301c0,10.101,30.701,3.8,31.102,24.102
		C818.557,2873.379,810.256,2880.58,796.755,2880.58z"/>
</g>
<rect x="638.75" y="2273.498" fill="#CCCCCC" width="760" height="79.002"/>
<rect x="1135.797" y="2627.659" fill="none" stroke="#808080" stroke-miterlimit="10" width="565.445" height="85.319"/>
<rect x="1135.797" y="2742.659" fill="none" stroke="#808080" stroke-miterlimit="10" width="565.445" height="85.319"/>
<rect x="1489.341" y="2857.659" fill="#808080" width="211.9" height="85.319"/>
<rect y="3240" fill="#FFFFFF" width="1920" height="1165.301"/>
<rect x="120.507" y="4405.301" fill="#E6E6E6" width="1799.493" height="299.884"/>
<rect x="0" y="3240" fill="#F2F2F2" width="120.507" height="1465.185"/>
<rect x="21.957" y="3265.188" fill="#CCCCCC" width="74.638" height="74.638"/>
<rect x="21.957" y="3457.942" fill="#CCCCCC" width="74.638" height="37.319"/>
<rect x="209.402" y="4554.68" fill="#CCCCCC" width="74.638" height="37.319"/>
<rect x="422.409" y="4554.68" fill="#CCCCCC" width="74.638" height="37.319"/>
<rect x="611.558" y="4554.68" fill="#CCCCCC" width="74.638" height="37.319"/>
<rect x="841.605" y="4554.68" fill="#CCCCCC" width="74.638" height="37.319"/>
<rect x="1086.989" y="4554.68" fill="#CCCCCC" width="74.638" height="37.319"/>
<rect x="1317.035" y="4554.68" fill="#CCCCCC" width="74.638" height="37.319"/>
<rect x="21.957" y="3518.812" fill="#CCCCCC" width="74.638" height="37.319"/>
<rect x="21.957" y="3579.681" fill="#CCCCCC" width="74.638" height="37.319"/>
<rect x="21.957" y="4628.151" fill="#CCCCCC" width="74.638" height="37.319"/>
<g>
	
		<circle fill="none" stroke="#58585A" stroke-width="2.0912" stroke-linecap="square" stroke-miterlimit="10" cx="53.002" cy="3294.143" r="4.182"/>
	<polyline fill="none" stroke="#58585A" stroke-width="2.0912" stroke-miterlimit="10" points="55.981,3312.089 68.686,3298.325 
		82.278,3311.917 	"/>
	<polyline fill="none" stroke="#58585A" stroke-width="2.0912" stroke-miterlimit="10" points="36.272,3317.146 48.819,3305.644 
		59.275,3315.054 	"/>
	
		<rect x="36.272" y="3283.687" fill="none" stroke="#58585A" stroke-width="2.0912" stroke-linecap="square" stroke-miterlimit="10" width="46.006" height="37.641"/>
</g>
<g>
	
		<circle fill="none" stroke="#58585A" stroke-width="9.5307" stroke-linecap="square" stroke-miterlimit="10" cx="1702.74" cy="4522.913" r="19.061"/>
	<polyline fill="none" stroke="#58585A" stroke-width="9.5307" stroke-miterlimit="10" points="1716.317,4604.705 1774.22,4541.974 
		1836.169,4603.923 	"/>
	<polyline fill="none" stroke="#58585A" stroke-width="9.5307" stroke-miterlimit="10" points="1626.495,4627.75 1683.679,4575.331 
		1731.332,4618.219 	"/>
	
		<rect x="1626.495" y="4475.259" fill="none" stroke="#58585A" stroke-width="9.5307" stroke-linecap="square" stroke-miterlimit="10" width="209.674" height="171.552"/>
</g>
<rect x="638.75" y="3353.498" fill="#CCCCCC" width="760" height="79.002"/>
<g>
	<polygon fill="none" stroke="#58585A" stroke-width="32.2575" stroke-linecap="square" stroke-miterlimit="10" points="
		941.356,3698.758 1151.03,3827.788 941.356,3956.818 	"/>
	<path fill="none" stroke="#58585A" stroke-width="32.2575" stroke-linecap="square" stroke-miterlimit="10" d="M731.683,3537.471
		h580.635c35.631,0,64.515,28.884,64.515,64.515v451.605c0,35.631-28.884,64.515-64.515,64.515H731.683
		c-35.631,0-64.515-28.884-64.515-64.515v-451.605C667.168,3566.355,696.052,3537.471,731.683,3537.471z"/>
</g>
<path fill="#E6E6E6" d="M1560.237,4376.912c-119.921,0.399-239.842,13.728-359.763,0C1080.554,4362.65,960.633,4320,840.712,4320
	c-119.921,0-239.842,42.65-359.763,56.912c-119.921,13.728-239.842,0.399-299.802-7.197l-59.96-7.064l-0.679,42.651H1920
	l-59.96-7.064C1800.079,4390.64,1680.158,4377.312,1560.237,4376.912z"/>
<g>
</g>
<g>
</g>
<g>
</g>
<g>
</g>
<g>
</g>
<g>
</g>
<g>
</g>
<g>
</g>
<g>
</g>
<g>
</g>
<g>
</g>
<g>
</g>
<g>
</g>
<g>
</g>
<g>
</g>
</svg>
