<?xml version="1.0" encoding="iso-8859-1"?>
<!-- Generator: Adobe Illustrator 26.0.3, SVG Export Plug-In . SVG Version: 6.00 Build 0)  -->
<svg version="1.1" id="Layer_1" xmlns="http://www.w3.org/2000/svg" xmlns:xlink="http://www.w3.org/1999/xlink" x="0px" y="0px"
	 width="1600px" height="1000px" viewBox="0 0 1600 1000" enable-background="new 0 0 1600 1000" xml:space="preserve">
<rect x="-0.5" y="0" fill="#FFFFFF" width="1601" height="1000"/>
<g>
	<g>
		<g>
			<g>
				<g>
					<path fill="#FFFFFF" d="M848.844,664.888c62.344,4.747,171.711,4.911,181.161-56.55c1.229-8.05,1.931-16.835,2.135-26.087
						c1.431-61.407-18.428-143.159-42.826-163.179c-13.931-11.425-39.843-14.852-68.281-12.134
						c-56.512,5.404-123.065,35.026-125.627,74.276C792.916,518.987,786.5,660.141,848.844,664.888z"/>
				</g>
			</g>
			<g opacity="0.35">
				<g>
					<path fill="#371A45" d="M848.844,664.888c62.344,4.747,171.711,4.911,181.161-56.55c1.229-8.05,1.931-16.835,2.135-26.087
						c-17.837,12.798-41.331-0.322-43.499-17.022c-13.39-103.102-49.766-144.042-67.607-158.291
						c-56.512,5.404-123.065,35.026-125.627,74.276C792.916,518.987,786.5,660.141,848.844,664.888z"/>
				</g>
			</g>
			<g>
				<g>
					<path fill="#371A45" d="M895.34,673.123c-15.81,0-31.7-0.733-46.976-1.897c-62.168-4.733-63.842-121.344-59.307-190.433
						c1.562-23.784,23.004-45.805,60.376-62.008c47.057-20.401,115.456-27.972,143.911-4.629l0,0
						c32.12,26.352,52.059,135.754,42.94,195.149C1028.537,659.753,962.796,673.123,895.34,673.123z M938.601,412.329
						c-25.674,0-56.571,6.181-84.111,18.121c-32.306,14.006-51.53,32.659-52.746,51.175c-2.656,40.453-7.073,172.762,47.585,176.925
						c61.475,4.679,165.877,4.25,174.388-51.174c9.096-59.241-12.456-162.077-38.437-183.391l0,0
						C975.724,416.146,958.774,412.329,938.601,412.329z"/>
				</g>
			</g>
			<g>
				<g>
					<path fill="#FFFFFF" d="M978.627,522.424l28.193-9.828c6.372-2.221,13.264,1.634,14.669,8.234
						c4.834,22.709,11.753,69.643-11.259,78.177c-27.889,10.343-36.207-21.67-39.113-65.278
						C970.783,528.706,973.873,524.081,978.627,522.424z"/>
				</g>
			</g>
			<g opacity="0.35">
				<g>
					<path fill="#371A45" d="M971.177,533.662c2.802,43.613,11.05,75.655,38.961,65.366c11.464-4.209,15.532-17.972,16.127-33.522
						c-2.479,4.349-5.904,7.651-10.571,9.363c-24.988,9.198-34.227-15.519-37.874-52.12
						C973.554,524.604,970.861,528.964,971.177,533.662z"/>
				</g>
			</g>
			<g>
				<g>
					<path fill="#371A45" d="M1000.36,607.328c-4.846,0-9.281-1.296-13.264-3.888c-13.026-8.476-19.685-29.221-22.268-69.366
						c-0.505-7.845,4.346-15.126,11.8-17.704l28.215-9.765c4.773-1.65,10.03-1.173,14.424,1.315
						c4.381,2.48,7.489,6.727,8.525,11.649c7.106,33.757,10.192,75.98-15.459,85.426
						C1008.109,606.552,1004.11,607.328,1000.36,607.328z M1010.602,518.344c-0.492,0-1.031,0.078-1.603,0.275l-28.215,9.765
						c-2.064,0.715-3.408,2.718-3.27,4.872c0.81,12.593,3.276,50.913,16.516,59.528c3.569,2.32,8.119,2.417,13.908,0.281
						c15.282-5.627,13.848-40.302,7.413-70.877c-0.39-1.853-1.638-2.803-2.347-3.205
						C1012.512,518.707,1011.667,518.344,1010.602,518.344z M978.705,522.378h0.019H978.705z"/>
				</g>
			</g>
			<g>
				<g>
					<path fill="#371A45" d="M997.444,431.308c-3.138,1.695-6.497,2.888-9.887,3.925c-3.392,1.049-6.897,1.777-10.402,2.521
						c-3.505,0.743-7.045,1.396-10.618,1.986c-3.586,0.557-7.184,1.094-10.914,1.382c-0.491,0.041-0.922-0.325-0.963-0.816
						c-0.025-0.299,0.108-0.581,0.32-0.761c2.891-2.396,5.947-4.46,9.038-6.443c3.109-1.935,6.268-3.765,9.481-5.452
						c3.214-1.682,6.442-3.344,9.796-4.647c3.357-1.31,6.755-2.438,10.393-3.007c3.296-0.516,6.387,1.737,6.904,5.034
						c0.406,2.595-0.904,5.062-3.088,6.247L997.444,431.308z"/>
				</g>
			</g>
			<g>
				<g>
					<path fill="#FFFFFF" d="M883.581,638.516l-22.985-6.983c-25.946-7.883-54.116-6.57-78.724,4.683
						c-8.524,3.898-16.762,9.03-23.576,15.787c-24.903,24.698-25.601,74.288-8.693,94.388c6.667,7.925,13.837,16.725,13.837,16.725
						c-4.737,6.788-37.367,61.849-11.11,83.738c22.995,19.169,65.434,16.023,87.794-14.124
						c14.778-19.926,17.778-42.914,16.937-60.483c-0.983-20.543-11.419-48.277,5.58-55.506
						c25.345-10.777,48.364-4.803,85.014-32.823c42.889-32.789,49.606-103.412,30.55-163.117
						c-13.705-42.94-97.122-124.249-97.122-124.249l26.316,241.462L883.581,638.516z"/>
				</g>
			</g>
			<g>
				<g>
					<path fill="#FFFFFF" d="M754.103,532.75l-83.925,76.409l-0.874-1.398l-35.963-57.91c42.463-18.085,68.859-71.832,68.859-71.832
						l3.369,3.56L754.103,532.75z"/>
				</g>
			</g>
			<g opacity="0.35">
				<g>
					<path fill="#371A45" d="M754.103,532.75l-83.925,76.409l-0.874-1.398c24.219-37.187,33.548-102.249,36.266-126.182
						L754.103,532.75z"/>
				</g>
			</g>
			<g>
				<g>
					<path fill="#371A45" d="M668.799,619.007l-44.762-72.104l6.819-2.904c39.822-16.965,65.393-68.265,65.646-68.781l4.03-8.203
						l62.641,66.074L668.799,619.007z M642.498,552.535l29.043,46.781l73.482-66.895l-41.409-43.679
						C694.904,503.808,673.437,536.334,642.498,552.535z"/>
				</g>
			</g>
			<g>
				<g>
					<path fill="#FFFFFF" d="M659.147,541.77c0,0-50.295-45.245-82.333-57.376l-8.957,21.014l67.175,66.142L659.147,541.77z"/>
				</g>
			</g>
			<g>
				<g>
					<path fill="#371A45" d="M635.032,577.907c-1.664,0-3.268-0.654-4.46-1.827l-67.175-66.142
						c-1.861-1.833-2.412-4.619-1.388-7.023l8.957-21.014c1.338-3.136,4.915-4.658,8.099-3.452
						c32.775,12.411,82.244,56.716,84.333,58.596c2.515,2.262,2.818,6.097,0.689,8.726l-24.114,29.78
						c-1.128,1.394-2.793,2.245-4.583,2.346C635.27,577.903,635.15,577.907,635.032,577.907z M575.402,503.917l59.098,58.188
						l15.858-19.584c-12.009-10.374-45.382-38.242-70.184-49.801L575.402,503.917z"/>
				</g>
			</g>
			<g>
				<g>
					<path fill="#FFFFFF" d="M708.409,418.597c25.268,100.746-4.634,192.914-4.634,192.914
						c-97.835,35.138-44.455,131.595-44.455,131.595s-67.457,39.029-35.655,78.027c27.693,33.959,120.703-5.057,125.201-54.602
						c0,0-15.998-50.295,8.805-67.52"/>
				</g>
			</g>
			<g>
				<g>
					<path fill="#FFFFFF" d="M988.287,587.244c-0.54,39.19-13.19,75.677-40.636,96.671c-36.647,28.018-59.658,22.042-85.006,32.817
						c-8.693,3.703-10.219,12.745-9.488,23.457c-1.033,11.982,3.29,28.033,3.91,41.208c0.016,0.254,0.016,0.509,0.032,0.763
						c-0.652,15.781-4.831,34.215-16.973,50.568c-21.581,29.098-61.883,33.039-85.324,16.019c-0.842-0.604-1.669-1.24-2.463-1.907
						c-6.102-5.07-9.026-11.951-9.853-19.579c1.812-19.658,12.698-41.224,18.26-50.822c1.192-2.066,2.145-3.576,2.702-4.402
						c0,0-1.224-1.542-3.131-3.909c-1.446-1.812-3.29-4.1-5.308-6.595c-1.732-2.145-3.592-4.418-5.403-6.627
						c-1.812-2.209-3.432-4.768-4.831-7.612c1.462,10.966,4.1,19.229,4.1,19.229c-4.498,49.551-97.513,88.566-125.213,54.605
						c-5.038-6.166-7.58-12.332-8.296-18.339c-3.862-32.022,43.957-59.69,43.957-59.69s-26.603-48.057-7.835-88.693
						c7.819-16.925,23.52-32.563,52.284-42.892c0,0,7.072-21.788,11.426-55.765c1.113-8.709,2.05-18.212,2.654-28.351
						c1.112-19.023,1.033-40.286-1.351-62.741L881.08,396.54c0,0,0.079,0.079,0.238,0.238c0.079,0.08,0.175,0.175,0.302,0.302
						l0.381,0.381c0.143,0.159,0.302,0.318,0.493,0.493c0.842,0.858,2.034,2.066,3.544,3.623
						c7.024,7.231,20.723,21.629,35.55,38.729c23.361,26.937,49.472,60.564,56.623,83.512c2.05,6.563,3.798,13.27,5.229,20.04
						C986.507,558.209,988.16,572.861,988.287,587.244z"/>
				</g>
			</g>
			<g>
				<g>
					<path fill="#371A45" d="M745.909,707.797c-2.024,0-3.902-1.298-4.544-3.331c-17.188-54.353-88.728-44.909-89.448-44.816
						c-2.613,0.386-5.02-1.447-5.387-4.054c-0.368-2.607,1.447-5.019,4.054-5.387c0.802-0.105,80.279-10.575,99.871,51.383
						c0.794,2.51-0.598,5.189-3.108,5.983C746.869,707.726,746.385,707.797,745.909,707.797z"/>
				</g>
			</g>
			<g>
				<g>
					<path fill="#FFFFFF" d="M716.501,464.66l-8.089-46.071C712.337,434.258,714.927,449.721,716.501,464.66z"/>
				</g>
			</g>
			<g>
				<g>
					<path fill="#371A45" d="M656.229,840.283c-16.133,0.002-29.357-5.16-37.491-15.133c-8.327-10.212-11.455-21.366-9.297-33.153
						c4.421-24.148,30.436-43.765,41.631-51.205c-6.27-13.543-20.25-50.06-7.445-84.05c8.48-22.511,26.964-39.35,54.963-50.087
						c4.654-16.28,25.699-98.613,3.654-186.512c-0.854-3.405,1.214-6.858,4.62-7.712c3.404-0.85,6.858,1.214,7.712,4.62
						c25.419,101.351-3.51,192.588-4.754,196.421l-0.963,2.966l-2.935,1.055c-26.007,9.341-42.955,24.032-50.376,43.668
						c-13.717,36.296,9.105,78.451,9.337,78.872l3.002,5.453l-5.383,3.121c-0.357,0.208-36.094,21.203-40.56,45.699
						c-1.47,8.058,0.704,15.519,6.648,22.808c9.028,11.073,29.105,13.523,52.397,6.4c28.354-8.672,58.257-30.725,61.421-56.378
						c-2.52-8.648-14.568-55.148,11.637-73.345c2.883-2.004,6.845-1.29,8.847,1.595c2.002,2.883,1.288,6.844-1.596,8.846
						c-17.133,11.9-10.409,47.618-6.372,60.377l0.385,1.22l-0.114,1.276c-3.016,33.219-38.655,58.83-70.491,68.567
						C674.59,838.764,664.981,840.283,656.229,840.283z M703.776,611.509h0.019H703.776z"/>
				</g>
			</g>
			<g>
				<g>
					<path fill="#FFFFFF" d="M888.406,617.915l-19.007,16.146l-202.336-92.284c0,0,13.746-8.073,51.045-19.055
						c24.903-7.342,60.31-15.987,109.146-24.41l10.664,20.85L888.406,617.915z"/>
				</g>
			</g>
			<g>
				<g>
					<path fill="#371A45" d="M870.432,641.524l-217.131-99.047l10.552-6.189c1.602-0.94,40.635-23.254,162.324-44.231l4.61-0.795
						l65.565,128.237L870.432,641.524z M682.322,541.741l186.035,84.861l12.094-10.278L823.73,505.386
						C743.854,519.426,701.124,534.037,682.322,541.741z"/>
				</g>
			</g>
			<g>
				<g>
					<path fill="#FFFFFF" d="M840.125,778.996"/>
				</g>
			</g>
			<g>
				<g>
					<path fill="#32B1D1" d="M850.649,465.867"/>
				</g>
			</g>
			<g>
				<g>
					<polygon fill="#73BEFD" points="733.677,668.475 873.419,633.041 815.545,519.342 675.803,549.847 					"/>
				</g>
			</g>
			<g>
				<g>
					<polygon fill="#73BEFD" points="733.677,668.475 873.419,633.041 815.545,519.342 675.803,549.847 					"/>
				</g>
			</g>
			<g opacity="0.35">
				<g>
					<path fill="#371A45" d="M867.063,648.936l-107.239,27.191c-1.271,24.76-3.48,66.969-4.815,85.403
						c-1.732-2.145-3.592-4.418-5.403-6.627c-1.812-2.209-3.432-4.768-4.831-7.612c1.462,10.966,4.1,19.229,4.1,19.229
						c-4.498,49.551-97.513,88.566-125.213,54.605c-5.038-6.166-7.58-12.332-8.296-18.339c22.249,32.022,85.832,1.843,96.957-8.296
						c12.109-11.029,13.73-16.925,6.15-58.578c-4.1-22.503,1.542-39.491,9.917-51.824l-1.065,0.27h-21.136l-45.483-16.305
						l-9.217-13.651c7.819-16.925,23.52-32.563,52.284-42.892c0,0,7.072-21.788,11.426-55.765l93.985-20.517L867.063,648.936z"/>
				</g>
			</g>
			<g>
				<g>
					<polygon fill="#1F9FFF" points="873.42,633.044 733.682,668.467 729.836,660.601 675.804,549.85 815.542,519.337 
						828.843,545.464 					"/>
				</g>
			</g>
			<g opacity="0.7">
				<g>
					<path fill="#FFFFFF" d="M696.112,569.21l41.098,98.368l-3.528,0.89l-3.846-7.867L675.804,549.85l139.738-30.513l2.368,4.641
						l-114.73,30.832C696.953,556.483,693.626,563.26,696.112,569.21z"/>
				</g>
			</g>
			<g opacity="0.35">
				<g>
					<path fill="#371A45" d="M873.42,633.044l-139.738,35.423l-3.846-7.867c2.4-31.943,68.446-48.327,68.446-48.327
						c-11.363-40.318,19.404-60.834,30.56-66.81L873.42,633.044z"/>
				</g>
			</g>
			<g>
				<g>
					<path fill="#371A45" d="M733.676,674.435c-2.236,0-4.339-1.263-5.355-3.346L670.447,552.46
						c-0.802-1.644-0.804-3.565-0.008-5.211c0.797-1.646,2.307-2.835,4.093-3.225l139.742-30.505
						c2.645-0.57,5.351,0.703,6.581,3.119l57.874,113.697c0.823,1.616,0.865,3.515,0.116,5.166
						c-0.748,1.649-2.206,2.869-3.962,3.315l-139.742,35.435C734.654,674.376,734.161,674.435,733.676,674.435z M684.485,554.052
						l52.424,107.455l127.815-32.41l-52.403-102.95L684.485,554.052z"/>
				</g>
			</g>
			<g>
				<g>
					<polygon fill="#1F9FFF" points="675.803,549.847 649.156,550.054 712.543,668.475 733.677,668.475 					"/>
				</g>
			</g>
			<g opacity="0.7">
				<g>
					<polygon fill="#FFFFFF" points="681.398,561.308 655.287,561.515 649.153,550.056 675.804,549.85 					"/>
				</g>
			</g>
			<g>
				<g>
					<path fill="#371A45" d="M733.677,674.435h-21.135c-2.198,0-4.217-1.209-5.254-3.147l-63.386-118.422
						c-0.985-1.839-0.935-4.06,0.13-5.855c1.065-1.793,2.991-2.9,5.078-2.917l26.647-0.207c2.233,0,4.396,1.284,5.403,3.346
						l57.874,118.628c0.901,1.847,0.787,4.027-0.302,5.771C737.642,673.375,735.732,674.435,733.677,674.435z M716.112,662.516
						h8.026l-52.045-106.68l-13.03,0.101L716.112,662.516z"/>
				</g>
			</g>
			<g>
				<g>
					<polygon fill="#1F9FFF" points="712.546,668.467 667.063,652.162 648.66,624.923 637.377,608.237 608.374,565.36 567.85,505.4 
						649.153,550.056 712.133,667.689 					"/>
				</g>
			</g>
			<g opacity="0.7">
				<g>
					<polygon fill="#FFFFFF" points="712.546,668.467 704.155,665.464 642.303,557.955 578.164,520.656 567.85,505.4 
						649.153,550.056 712.133,667.689 					"/>
				</g>
			</g>
			<g>
				<g>
					<path fill="#371A45" d="M712.541,674.435c-0.673,0-1.353-0.114-2.012-0.349l-45.472-16.315
						c-1.191-0.429-2.215-1.224-2.924-2.272L562.92,508.746c-1.541-2.28-1.321-5.319,0.534-7.352
						c1.854-2.033,4.861-2.535,7.272-1.209l81.299,44.646c1.013,0.556,1.841,1.393,2.386,2.411l63.386,118.42
						c1.163,2.175,0.868,4.84-0.742,6.706C715.9,673.705,714.242,674.435,712.541,674.435z M670.916,647.209l29.065,10.427
						l-55.245-103.211l-58.127-31.921L670.916,647.209z"/>
				</g>
			</g>
			<g>
				<g>
					<path fill="#371A45" d="M649.156,550.054c0,0,0.467-14.766,12.488-16.484c9.947-1.421,16.932,15.672,16.932,15.672
						L649.156,550.054z"/>
				</g>
			</g>
			<g>
				<g>
					<path fill="#FFFFFF" d="M988.287,586.099c0.016,0.381,0,0.763,0,1.144c-0.54,39.19-13.19,75.677-40.636,96.671
						c-36.647,28.018-59.658,22.042-85.006,32.817c-8.693,3.703-10.219,12.745-9.488,23.457c0.684,10.25,3.417,22.01,3.91,32.054
						c0.143,3.147,0.175,6.468,0.032,9.917c-0.652,15.781-4.831,34.215-16.973,50.568c-22.36,30.147-64.792,33.294-87.787,14.112
						c-6.102-5.07-9.026-11.951-9.853-19.579c-0.032-0.254-0.048-0.524-0.064-0.779c-1.891-20.787,11.236-46.977,17.894-58.355
						c1.398-2.384,2.511-4.132,3.131-5.022c0,0-7.167-8.788-13.842-16.718c-16.909-20.103-16.21-69.686,8.693-94.398
						c6.818-6.754,15.05-11.887,23.584-15.781c13.143-6.007,27.302-9.186,41.589-9.63c12.475-0.413,25.046,1.271,37.124,4.942
						l22.996,6.992l23.806-0.509l-11.76-107.922c5.673-5.594,10.155-14.525,9.424-28.415l-3.02-14.605l-14.414-69.591l-1.049-5.022
						c0,0,19.007,14.525,40.318,36.551c20.866,21.534,43.941,50.25,53.619,79.555c0,0.048,0.016,0.095,0.048,0.159
						c1.526,5.435,2.813,10.95,3.878,16.496C987.079,558.797,988.398,572.607,988.287,586.099z"/>
				</g>
			</g>
			<g opacity="0.35">
				<g>
					<path fill="#371A45" d="M988.287,586.099c0.016,0.381,0,0.763,0,1.144c-0.54,39.19-13.19,75.677-40.636,96.671
						c-36.647,28.018-59.658,22.042-85.006,32.817c-8.693,3.703-10.219,12.745-9.488,23.457c0.684,10.25,3.417,22.01,3.91,32.054
						c0.143,3.147,0.175,6.468,0.032,9.917c-0.652,15.781-4.831,34.215-16.973,50.568c-22.36,30.147-64.792,33.294-87.787,14.112
						c-6.102-5.07-9.026-11.951-9.853-19.579c-0.032-0.254-0.048-0.524-0.064-0.779c24.235,20.262,65.634,27.286,88.582-15.447
						c26.238-48.9-3.528-68.908-4.132-92.332c-0.62-23.425,42.702-17.561,105.062-46.166
						C968.867,655.611,982.947,615.77,988.287,586.099z"/>
				</g>
			</g>
			<g>
				<g>
					<path fill="#371A45" d="M882.966,640.543c-5.381-0.686-10.684-1.628-15.956-2.673c-2.639-0.509-5.273-1.049-7.884-1.639
						c-2.529-0.485-5.036-0.989-7.558-1.393c-10.078-1.612-20.223-2.241-30.27-1.513c-10.03,0.775-19.935,2.778-29.346,6.173
						c-9.41,3.374-18.464,7.995-25.882,14.219c-1.876,1.543-3.58,3.243-5.107,5.024c-0.768,0.899-1.643,1.695-2.336,2.67
						l-2.087,2.919l-1.049,1.458l-0.894,1.58l-1.803,3.153c-1.071,2.183-2.085,4.419-3.006,6.689
						c-3.458,9.216-5.199,19.216-5.319,29.172c-0.163,9.945,1.652,19.945,5.408,28.533c1.13,1.98,2.078,4.139,3.471,5.802
						l0.954,1.342c0.309,0.446,0.823,1.015,1.225,1.516l2.569,3.105l10.274,12.419l3.018,3.648l-2.733,4.006
						c-0.873,1.278-1.874,2.923-2.791,4.48c-0.929,1.588-1.834,3.206-2.712,4.84c-1.758,3.269-3.412,6.603-4.942,9.978
						c-3.043,6.753-5.673,13.68-7.438,20.671c-1.724,6.954-2.741,14.084-1.876,20.523c0.422,3.208,1.3,6.199,2.7,8.79
						c1.439,2.628,3.218,4.728,5.82,6.669c10.532,8.231,25.232,11.142,38.962,9.14c13.862-1.876,26.777-9.054,35.845-19.535
						c1.083-1.369,2.266-2.617,3.286-4.07c1.014-1.46,2.066-2.894,2.964-4.431c1.923-2.992,3.51-6.189,5.001-9.424
						c2.863-6.534,4.895-13.462,6.053-20.589c1.181-7.115,1.52-14.433,1.161-21.676c-0.396-7.065-1.829-14.591-2.896-22.413
						c-0.537-3.924-1.001-7.959-1.125-12.205c-0.062-4.251,0.059-8.761,1.666-13.618c0.806-2.404,2.044-4.882,3.838-7.062
						c1.779-2.189,4.085-3.98,6.482-5.207c0.573-0.276,1.268-0.635,1.75-0.822l1.452-0.565l2.906-1.127
						c1.947-0.687,3.914-1.304,5.871-1.911c7.864-2.269,15.614-3.623,22.973-5.234c7.377-1.577,14.407-3.513,21.164-6.221
						c6.768-2.655,13.201-6.149,19.382-10.131c3.133-1.915,6.08-4.176,9.086-6.33c1.469-1.097,2.787-2.245,4.192-3.359
						c1.299-1.224,2.659-2.381,3.918-3.649c10.14-10.091,17.657-22.86,22.479-36.684c4.871-13.831,7.327-28.61,7.945-43.473
						c0.609-14.878-0.611-29.883-3.376-44.586c-1.386-7.352-3.165-14.633-5.33-21.791l-0.815-2.684
						c-0.279-0.871-0.587-1.649-0.877-2.478c-0.528-1.635-1.317-3.274-2-4.914c-0.721-1.637-1.581-3.262-2.361-4.895l-2.649-4.847
						c-7.41-12.857-16.504-25.12-26.022-36.981c-19.216-23.743-41.629-44.605-58.732-70.864c-0.654-1.005-0.371-2.35,0.635-3.005
						c0.723-0.471,1.632-0.45,2.323-0.03c6.804,4.153,12.887,9.033,18.776,14.131c5.901,5.084,11.382,10.589,16.759,16.197
						c10.755,11.223,20.439,23.43,30.197,35.6c9.695,12.234,19.114,24.766,27.106,38.652l2.896,5.301
						c0.887,1.842,1.828,3.631,2.663,5.519c0.806,1.915,1.683,3.762,2.358,5.794c0.348,0.989,0.737,2.011,1.045,2.975l0.866,2.849
						c2.298,7.6,4.184,15.319,5.655,23.118c2.932,15.597,4.236,31.526,3.585,47.465c-0.667,15.922-3.285,31.907-8.664,47.19
						c-5.324,15.251-13.764,29.789-25.523,41.481c-1.458,1.465-3.031,2.82-4.545,4.229c-1.606,1.291-3.21,2.665-4.829,3.875
						c-3.256,2.342-6.438,4.77-9.884,6.888c-6.768,4.362-13.957,8.265-21.552,11.249c-7.565,3.036-15.462,5.188-23.158,6.831
						c-7.702,1.675-15.164,3.001-22.124,5.018c-1.721,0.538-3.436,1.075-5.123,1.667l-2.485,0.966l-1.243,0.481
						c-0.417,0.161-0.565,0.277-0.865,0.406c-2.028,1.072-3.214,2.498-4.093,5.017c-0.862,2.482-1.086,5.813-1.009,9.238
						c0.099,3.463,0.501,7.102,1.012,10.813c0.998,7.451,2.504,15.108,2.995,23.453c0.406,8.154,0.029,16.326-1.311,24.427
						c-2.628,16.185-9.227,31.997-20.233,44.765c-11.072,12.819-26.87,21.522-43.63,23.799c-8.362,1.198-16.953,0.961-25.286-0.905
						c-8.316-1.863-16.418-5.397-23.341-10.803l-1.317-0.981l-1.311-1.213c-0.878-0.805-1.744-1.623-2.489-2.57
						c-0.772-0.918-1.572-1.816-2.198-2.84c-0.653-1.003-1.364-1.979-1.866-3.054c-2.265-4.199-3.531-8.744-4.11-13.17
						c-1.142-8.914,0.215-17.327,2.158-25.286c2.018-7.966,4.9-15.506,8.186-22.805c1.653-3.646,3.427-7.223,5.321-10.744
						c0.946-1.761,1.923-3.508,2.941-5.248c1.043-1.761,2.034-3.421,3.333-5.327l0.285,7.653l-10.181-12.305l-2.545-3.077
						c-0.434-0.541-0.825-0.961-1.296-1.602l-1.395-1.909c-2.002-2.507-3.272-5.255-4.741-7.945c-1.079-2.772-2.396-5.518-3.1-8.354
						c-0.398-1.41-0.86-2.816-1.193-4.233l-0.858-4.268c-0.323-1.421-0.508-2.849-0.661-4.279l-0.505-4.287
						c-0.111-2.859-0.352-5.725-0.284-8.579c0.14-11.419,2.098-22.804,6.158-33.626c1.092-2.675,2.241-5.346,3.507-7.962l2.128-3.84
						l1.072-1.916l1.259-1.823l2.546-3.63c0.854-1.207,1.93-2.269,2.891-3.406c1.004-1.097,1.952-2.282,3.014-3.295
						c1.046-1.037,2.136-2.019,3.235-2.986c8.867-7.701,19.048-13.229,29.704-17.161c5.339-1.972,10.834-3.531,16.41-4.63
						c5.587-1.046,11.234-1.727,16.897-1.96c11.314-0.33,22.691,0.817,33.45,4.068c2.71,0.72,5.335,1.727,7.956,2.684
						c2.507,0.961,4.99,1.979,7.468,3.023c4.963,2.063,9.894,4.231,14.747,6.655c1.062,0.53,1.493,1.821,0.963,2.883
						C884.742,640.209,883.845,640.654,882.966,640.543z"/>
				</g>
			</g>
			<g opacity="0.35">
				<g>
					<path fill="#371A45" d="M985.029,559.751c-0.35,5.53-1.383,10.981-3.226,16.321c-14.795,42.813-66.667,68.129-106.794,68.129
						c-24.14,0-39.666-4.068-51.537-17.624c-2.098-2.4-4.084-5.101-5.991-8.137c-13.953-22.217-6.913-51.728,22.63-65.57
						c2.4-1.128,7.612-1.732,7.612-1.732l-8.232-16.083l-2.749-5.387c0,0,3.909,0.89,9.456,2.082
						c12.459,2.702,33.151,6.945,36.138,6.087c3.925-1.128,8.963-3.464,13.302-7.755c5.673-5.594,10.155-14.525,9.424-28.415
						l7.978-15.147l-20.377-67.922l-6.084-6.148c0,0,19.007,14.525,40.318,36.551c20.866,21.534,43.941,50.25,53.619,79.555
						c0,0.048,0.016,0.095,0.048,0.159c1.796,5.483,3.131,10.997,3.878,16.496C985.124,550.072,985.331,554.935,985.029,559.751z"/>
				</g>
			</g>
			<g>
				<g>
					<path fill="#FFFFFF" d="M983.44,543.859c-0.35,5.53-1.383,10.981-3.226,16.321c-14.795,42.813-66.667,68.129-106.794,68.129
						c-28.431,0-44.895-5.642-57.529-25.761c-13.953-22.217-6.913-51.728,22.63-65.57c2.4-1.128,7.612-1.732,7.612-1.732
						l-8.232-16.083l-2.749-5.387c0,0,3.909,0.89,9.456,2.082c12.459,2.702,33.151,6.945,36.138,6.087
						c9.042-2.606,24.029-11.633,22.726-36.17l-3.02-14.605l-14.414-69.591l-1.049-5.022c0,0,19.007,14.525,40.318,36.551
						C953.595,462.317,985.951,504.717,983.44,543.859z"/>
				</g>
			</g>
			<g opacity="0.35">
				<g>
					<path fill="#371A45" d="M983.44,543.859c-0.35,5.53-1.383,10.981-3.226,16.321c-14.795,42.813-66.667,68.129-106.794,68.129
						c-28.431,0-44.895-5.642-57.529-25.761c-3.608-5.737-5.8-11.967-6.579-18.292c12.014,14.795,27.779,19.182,52.825,19.182
						c40.127,0,91.998-25.316,106.794-68.129c1.843-5.34,2.877-10.791,3.226-16.321c0.667-10.33-1.097-20.882-4.577-31.355
						C977.957,505.94,984.632,525.265,983.44,543.859z"/>
				</g>
			</g>
			<g>
				<g>
					<path fill="#371A45" d="M886.283,394.866c4.94,2.07,9.397,4.707,13.727,7.558c4.35,2.82,8.438,5.969,12.398,9.266
						c7.863,6.658,15.331,13.797,22.296,21.43c6.944,7.651,13.559,15.618,19.877,23.852c6.289,8.254,12.289,16.797,17.546,25.888
						c5.256,9.08,9.855,18.679,13.124,28.918c3.253,10.211,5.147,21.163,4.469,32.283c-0.03,2.781-0.546,5.539-0.996,8.298
						c-0.315,2.785-1.303,5.44-2.005,8.15c-0.203,0.667-0.359,1.363-0.604,2.006l-0.773,1.91l-1.558,3.815
						c-0.935,2.597-2.373,4.932-3.643,7.356c-5.309,9.567-12.32,18.012-20.26,25.246c-7.933,7.27-16.858,13.285-26.294,18.182
						c-9.434,4.911-19.386,8.765-29.677,11.466c-10.271,2.698-20.986,4.217-31.739,4.152c-5.224-0.004-10.532-0.275-15.889-0.877
						c-5.353-0.621-10.804-1.639-16.177-3.472c-5.363-1.817-10.614-4.53-15.201-8.079c-4.603-3.536-8.498-7.812-11.746-12.326
						c-3.174-4.391-6.058-9.663-7.9-15.112c-1.929-5.474-2.725-11.364-2.538-17.192c0.223-5.818,1.336-11.674,3.662-17.026
						c2.284-5.355,5.423-10.304,9.236-14.605c0.96-1.063,2.008-2.035,3.014-3.051c0.513-0.497,1.008-1.017,1.539-1.49l1.652-1.34
						c1.113-0.875,2.188-1.817,3.342-2.624l3.53-2.313c1.158-0.814,2.405-1.435,3.638-2.084l1.852-0.973l0.927-0.484l0.464-0.242
						l0.232-0.12l0.386-0.17c2.069-0.854,3.431-1.107,4.914-1.436c1.466-0.296,2.761-0.505,4.283-0.697l-4.916,9.206l-10.976-21.467
						l-6.172-12.073l13.245,2.981c7.471,1.682,15.02,3.314,22.525,4.814c3.755,0.758,7.508,1.466,11.224,2.106
						c1.865,0.319,3.696,0.571,5.504,0.812c0.839,0.064,1.785,0.176,2.533,0.208l1.03,0.028l0.129,0.005
						c0.023-0.001-0.044-0.012-0.063-0.015c-0.06-0.009-0.122-0.009-0.183-0.002c-0.111,0.008-0.27,0.071-0.323,0.117
						c2.871-0.98,5.641-2.481,7.988-4.346c2.402-1.821,4.427-3.992,6.207-6.466c1.72-2.513,3.167-5.346,4.489-8.506
						c1.389-3.159,2.292-6.664,3.729-10.447l0.077-0.204c0.437-1.149,1.723-1.727,2.872-1.29c0.609,0.232,1.06,0.709,1.283,1.271
						c0.772,1.975,1.502,4.014,1.799,6.14c0.144,1.059,0.342,2.135,0.432,3.221c0.037,1.088,0.045,2.187,0.033,3.294
						c-0.194,4.415-1.321,8.981-3.541,13.13c-2.136,4.194-5.37,7.885-9.127,10.738c-3.786,2.859-8.076,4.809-12.613,6.041
						c-0.532,0.11-1.174,0.204-1.766,0.26l-0.905,0.064l-0.424,0.013l-0.234-0.015l-1.866-0.131c-1.18-0.112-2.15-0.276-3.234-0.415
						c-2.021-0.301-4.015-0.627-5.96-0.972c-3.907-0.673-7.755-1.402-11.582-2.172c-7.665-1.533-15.237-3.171-22.858-4.886
						l7.072-9.092l10.976,21.468l4.126,8.069l-9.042,1.138c-0.995,0.125-2.206,0.317-3.227,0.528
						c-0.996,0.193-2.124,0.51-2.396,0.641l-2.893,1.52c-1.012,0.531-2.046,1.029-2.961,1.692l-2.84,1.854
						c-0.924,0.643-1.751,1.395-2.636,2.081l-1.311,1.048c-0.415,0.371-0.789,0.779-1.187,1.165
						c-0.773,0.792-1.601,1.537-2.341,2.353c-2.919,3.307-5.254,7.029-6.964,10.997c-1.748,3.966-2.52,8.274-2.697,12.557
						c-0.136,4.29,0.419,8.646,1.885,12.745c1.443,4.148,3.421,7.896,6.176,11.742c5.329,7.498,12.204,12.967,20.733,15.787
						c36.265,10.166,78.643-1.435,107.12-26.842c7.048-6.423,13.139-13.807,17.678-21.986c1.076-2.072,2.342-4.062,3.106-6.267
						l1.321-3.231l0.666-1.614c0.209-0.539,0.317-1.092,0.482-1.638c0.542-2.204,1.4-4.328,1.624-6.612
						c0.355-2.25,0.811-4.485,0.813-6.797c0.562-9.16-0.996-18.555-3.894-27.644c-2.903-9.105-7.102-17.93-12.009-26.399
						c-9.842-16.97-22.464-32.548-36.367-46.806c-6.906-7.185-13.896-14.31-20.934-21.431c-3.521-3.559-6.973-7.204-10.338-10.979
						c-3.379-3.748-6.705-7.628-9.778-11.786l-0.033-0.045c-0.719-0.973-0.513-2.344,0.46-3.063
						C884.777,394.651,885.596,394.581,886.283,394.866z"/>
				</g>
			</g>
			<g>
				<g>
					<g>
						<path fill="#FFFFFF" d="M620.177,449.357c176.671,166.334,416.371-70.718,264.457-248.286
							C707.827,26.513,460.285,271.781,620.177,449.357z"/>
					</g>
				</g>
				<g>
					<g>
						<path fill="#FFFFFF" d="M620.177,449.357c176.671,166.334,416.371-70.718,264.457-248.286
							C707.827,26.513,460.285,271.781,620.177,449.357z"/>
					</g>
				</g>
				<g opacity="0.35">
					<g>
						<path fill="#371A45" d="M925.307,433.108c-1.176,2.431-2.416,4.831-3.719,7.199c-5.96,10.981-13.063,21.327-21.136,30.862
							c-15.495,18.339-34.533,33.659-55.844,44.688c-2.209,1.144-4.434,2.257-6.69,3.306l-10.664-20.85
							c-48.836,8.423-84.243,17.068-109.146,24.41c0.826-17.799,0.588-37.426-1.605-58.069L881.08,396.54
							c0,0,0.079,0.079,0.238,0.238c0.079,0.08,0.175,0.175,0.302,0.302l0.381,0.381c0.143,0.159,0.302,0.318,0.493,0.493
							c0.842,0.858,2.034,2.066,3.544,3.623l-1.049-5.022C884.989,396.556,903.996,411.081,925.307,433.108z"/>
					</g>
				</g>
				<g>
					<g>
						<path fill="#FFFFFF" d="M620.177,449.357c176.671,166.334,416.371-70.718,264.457-248.286
							C707.827,26.513,460.285,271.781,620.177,449.357z"/>
					</g>
				</g>
				<g>
					<g>
						<path fill="#371A45" d="M751.376,510.345c-47.817,0-94.132-19.866-134.306-57.688l-0.261-0.268
							c-38.128-42.346-56.148-91.486-52.111-142.109c3.602-45.165,24.543-88.143,58.965-121.019
							c34.352-32.809,78.01-51.472,122.927-52.552c50.605-1.228,99.484,19.924,141.227,61.136l0.26,0.279
							c36.279,42.405,53.098,91.133,48.64,140.917c-3.988,44.522-24.81,86.802-58.632,119.053
							c-33.742,32.174-76.721,50.697-121.016,52.156C755.172,510.313,753.269,510.345,751.376,510.345z M623.42,446.187
							c88.357,83.074,188.414,62.556,248.412,5.348c58.619-55.894,86.564-157.129,9.483-247.373
							c-87.95-86.71-191.95-65.12-251.391-8.346C569.893,253.151,542.27,355.931,623.42,446.187z"/>
					</g>
				</g>
				<g opacity="0.35">
					<g>
						<path fill="#371A45" d="M620.175,449.351c150.093,146.324,376.905-19.003,294.827-202.992
							c6.206,65.407-14.544,74.031-38.256,115.021c-70.858,132.515-250.455,101.354-306.281-18.441
							C574.794,383.553,592.741,420.815,620.175,449.351z"/>
					</g>
				</g>
				<g>
					<g>
						<path fill="#293856" d="M751.372,512.17c-48.288,0-95.035-20.037-135.552-58.184l-0.367-0.375
							c-38.473-42.727-56.652-92.34-52.574-143.475c3.638-45.613,24.778-89.009,59.524-122.194
							c34.682-33.124,78.771-51.967,124.144-53.057c51.172-1.186,100.449,20.094,142.553,61.662l0.365,0.392
							c36.606,42.787,53.574,91.982,49.071,142.265c-4.026,44.965-25.047,87.656-59.189,120.211
							c-34.068,32.484-77.471,51.186-122.216,52.66C755.21,512.139,753.287,512.17,751.372,512.17z M624.726,444.909
							c87.472,82.188,186.486,61.907,245.847,5.305c58.006-55.31,85.663-155.477,9.406-244.807
							c-87.067-85.779-189.982-64.442-248.795-8.271C571.785,253.867,544.461,355.574,624.726,444.909z"/>
					</g>
				</g>
				<g>
					<g>
						<path fill="#371A45" d="M751.372,512.17c-48.288,0-95.035-20.037-135.552-58.184l-0.367-0.375
							c-38.473-42.727-56.652-92.34-52.574-143.475c3.638-45.613,24.778-89.009,59.524-122.194
							c34.682-33.124,78.771-51.967,124.144-53.057c51.172-1.186,100.449,20.094,142.553,61.662l0.365,0.392
							c36.606,42.787,53.574,91.982,49.071,142.265c-4.026,44.965-25.047,87.656-59.189,120.211
							c-34.068,32.484-77.471,51.186-122.216,52.66C755.21,512.139,753.287,512.17,751.372,512.17z M624.726,444.909
							c87.472,82.188,186.486,61.907,245.847,5.305c58.006-55.31,85.663-155.477,9.406-244.807
							c-87.067-85.779-189.982-64.442-248.795-8.271C571.785,253.867,544.461,355.574,624.726,444.909z"/>
					</g>
				</g>
				<g>
					<g>
						<path fill="#371A46" d="M656.417,478.46c202.809,65.233,307.64-177.901,144.552-268.422
							C612.135,119.746,476.647,357.429,656.417,478.46z"/>
					</g>
				</g>
				<g opacity="0.35">
					<g>
						<path fill="#111A28" d="M838.516,237.77c54.029,106.782-45.896,255.702-209.91,202.947
							c-14.527-9.781-26.984-20.327-37.532-31.397c13.639,24.945,34.992,48.706,65.343,69.14
							C841.025,537.838,944.44,341.722,838.516,237.77z"/>
					</g>
				</g>
				<g>
					<g>
						<path fill="#371A45" d="M740.656,508.982c-1.695,0-3.386-0.029-5.082-0.087c-42.272-1.454-83.384-20.822-118.893-56.01
							l-0.026-0.027c-58.331-58.689-76.083-171.808-9.539-246.661l0.611-0.58c38.336-30.635,90.229-43.829,142.369-36.205
							c51.96,7.601,97.665,34.906,125.393,74.913c25.852,39.425,35.028,83.181,26.609,126.641
							c-7.631,39.394-29.235,75.309-60.831,101.131C812.034,495.988,776.487,508.982,740.656,508.982z M623.688,445.845
							c78.067,77.352,162.613,58.345,211.295,18.56c55.955-45.726,85.008-134.098,32.272-214.528
							c-26.095-37.648-69.348-63.434-118.596-70.638c-49.272-7.208-98.239,5.138-134.401,33.873
							C551.754,283.789,568.625,390.433,623.688,445.845z"/>
					</g>
				</g>
				<g>
					<g>
						<path fill="#371A45" d="M722.717,495.773c-21.968,0-44.889-3.749-68.247-11.261l-0.856-0.275l-0.747-0.503
							c-43.511-29.293-72.107-67.513-82.7-110.527c-9.492-38.547-3.886-78.729,15.787-113.146
							c19.228-33.637,50.003-58.353,86.657-69.593c40.723-12.488,86.056-7.704,131.101,13.837l0.343,0.177
							c38.406,21.317,64.934,52.316,76.717,89.645c10.67,33.803,8.473,71.045-6.185,104.867
							c-15.867,36.611-44.662,65.768-81.081,82.097C771.69,490.872,747.828,495.773,722.717,495.773z M659.221,472.683
							c102.948,32.714,176.46-15.894,203.7-78.746c24.717-57.031,14.227-134.242-64.869-178.248
							c-93.406-44.57-168.276-6.677-201.062,50.68C563.303,325.304,569.545,411.856,659.221,472.683z"/>
					</g>
				</g>
				<g>
					<g>
						<path fill="#FFFFFF" d="M959.654,314.633c7.349,85.244-77.467,99.784-92.686,19.11
							C855.987,244.684,946.649,229.131,959.654,314.633z"/>
					</g>
				</g>
				<g opacity="0.35">
					<g>
						<path fill="#371A45" d="M920.938,386.844c-25.392,4.545-50.834-21.747-54.544-57.374
							c24.306,32.516,48.285-36.263,46.918-54.028C981.519,276.5,967.755,379.496,920.938,386.844z"/>
					</g>
				</g>
				<g>
					<g>
						<path fill="#371A45" d="M914.973,393.403c-22.364,0-46.505-17.419-54.251-58.48l-0.062-0.401
							c-6.069-49.221,17.851-78.705,44.617-82.39c24.188-3.329,53.507,14.506,60.663,61.545l0.049,0.41
							c4.257,49.383-20.441,75.526-45.191,78.918C918.878,393.269,916.932,393.403,914.973,393.403z M873.253,332.765
							c6.915,36.299,27.971,50.089,45.817,47.645c18.949-2.598,37.733-24.05,34.269-65.025
							c-5.908-38.372-28.13-53.167-46.329-50.658C886.45,267.557,868.276,291.834,873.253,332.765z"/>
					</g>
				</g>
				<g>
					<g>
						<path fill="#FFFFFF" d="M963.977,318.461c5.882,69.086-57.473,81.052-69.793,15.804
							C884.846,261.326,953.713,248.398,963.977,318.461z"/>
					</g>
				</g>
				<g>
					<g>
						<path fill="#371A45" d="M930.759,383.627c-17.414,0-36.438-14.377-42.821-48.183l-0.059-0.372
							c-5.299-41.397,13.457-66.012,34.725-68.931c18.954-2.614,41.946,12.376,47.663,51.399l0.045,0.382
							c3.504,41.154-15.841,62.759-35.299,65.418C933.61,383.53,932.189,383.627,930.759,383.627z M900.466,333.269
							c5.39,28.245,20.356,39.172,32.826,37.473c14.097-1.926,26.975-20.247,24.368-51.551
							c-4.501-30.319-20.425-42.225-33.328-40.455C909.295,280.799,896.289,300.191,900.466,333.269z"/>
					</g>
				</g>
				<g opacity="0.7">
					<g>
						<path fill="#FFFFFF" d="M842.399,301.651c-1.5,35.988-42.429,34.918-46.377,3.59
							C793.275,265.448,841.535,265.93,842.399,301.651z"/>
					</g>
				</g>
				<g opacity="0.7">
					<g>
						<path fill="#FFFFFF" d="M834.511,359.472c-1.369,13.73-19.278,13.608-19.173-1.448
							C816.707,344.295,834.616,344.417,834.511,359.472z"/>
					</g>
				</g>
				<g opacity="0.7">
					<g>
						<path fill="#FFFFFF" d="M602.335,375.106c-54.681-126.303,77.726-176.994,126.016-159.203
							C642.267,243.441,616.789,307.038,602.335,375.106z"/>
					</g>
				</g>
				<g opacity="0.35">
					<g>
						<path fill="#371A45" d="M894.529,350.174c-3.507-9.101-4.53-19.197-3.411-28.931c22.908,42.099,63.317,11.135,65.899-23.73
							C983.335,361.631,923.296,409.33,894.529,350.174z"/>
					</g>
				</g>
				<g>
					<g>
						<path fill="#371A45" d="M857.341,284.732c-0.842,0-1.622-0.1-2.324-0.254c-8.603-1.888-12.117-13.561-12.99-17.094
							c-0.841-3.408,1.24-6.854,4.648-7.696c3.401-0.844,6.844,1.234,7.692,4.634l0,0c0.672,2.67,2.051,5.771,3.126,7.204
							c0.273-0.26,0.621-0.629,1.035-1.147c2.191-2.744,6.192-3.189,8.934-0.998c2.743,2.191,3.189,6.191,0.998,8.934
							C864.428,283.361,860.46,284.732,857.341,284.732z"/>
					</g>
				</g>
			</g>
			<g opacity="0.35">
				<g>
					<path fill="#371A45" d="M712.546,668.467l-45.483-16.305l-18.403-27.239l-11.283-16.687l-29.003-42.876
						c-0.222-2.273-0.413-4.609-0.54-7.04c0,0,26.349,5.896,43.306,30.926c7.882,11.649,9.36,24.68,6.023,31.355
						c12.682,14.446,21.414,33.562,54.97,47.088L712.546,668.467z"/>
				</g>
			</g>
			<g>
				<g>
					<path fill="#FFFFFF" d="M594.826,542.421c0,0,26.352,5.902,43.307,30.938c11.023,16.277,9.521,35.306-0.133,35.803
						C628.347,609.658,597.656,595.836,594.826,542.421z"/>
				</g>
			</g>
			<g opacity="0.35">
				<g>
					<path fill="#371A45" d="M637.997,609.159c-9.201,0.477-37.6-12.094-42.622-59.706c9.964,28.749,30.163,37.012,37.664,36.631
						c4.021-0.206,6.643-3.639,7.501-8.772C648.867,592.567,646.88,608.698,637.997,609.159z"/>
				</g>
			</g>
			<g>
				<g>
					<path fill="#371A45" d="M637.432,615.532c-14.778,0-46.036-17.712-48.953-72.775l-0.444-8.372l8.181,1.832
						c1.177,0.263,29.022,6.761,47.181,33.575c8.572,12.657,11.228,28.18,6.462,37.75c-2.395,4.809-6.598,7.713-11.531,7.965
						C638.036,615.525,637.736,615.532,637.432,615.532z M602.039,551.687c5.456,42.031,30.139,51.131,35.429,51.131
						c0.073,0,0.141-0.002,0.206-0.004c0.302-0.016,0.633-0.596,0.805-0.939c1.929-3.874,1.481-14.483-5.609-24.952
						C623.362,562.883,610.46,555.368,602.039,551.687z"/>
				</g>
			</g>
			<g>
				<g>
					<path fill="#371A45" d="M965.343,590.868c-0.692,0-1.394-0.151-2.058-0.469c-2.375-1.139-3.377-3.987-2.238-6.36
						c10.162-21.193-4.342-38.767-13.894-47.357c-18.311-16.469-42.841-22.869-51.725-17.388c-2.244,1.382-5.179,0.687-6.562-1.553
						c-1.382-2.241-0.688-5.179,1.553-6.562c15.124-9.334,44.844,1.984,63.111,18.413c19.626,17.651,25.5,38.999,16.115,58.569
						C968.825,589.871,967.119,590.868,965.343,590.868z"/>
				</g>
			</g>
			<g>
				<g>
					<path fill="#371A45" d="M853.215,736.272c-0.259,0-0.521-0.021-0.785-0.064c-2.598-0.431-4.355-2.887-3.924-5.484
						c7.591-45.835-13.803-66.681-27.231-75.029c-18.551-11.533-43.356-12.464-57.697-2.173c-2.136,1.536-5.118,1.048-6.653-1.092
						c-1.535-2.138-1.047-5.118,1.093-6.652c17.578-12.617,46.298-11.855,68.291,1.82c26.291,16.342,37.81,47.208,31.603,84.686
						C857.526,734.617,855.505,736.272,853.215,736.272z"/>
				</g>
			</g>
			<g>
				<g>
					<path fill="#371A45" d="M762.228,754.222c1.589,0.97,3.527,2.218,5.336,3.278c1.84,1.098,3.708,2.15,5.6,3.14
						c3.795,1.948,7.667,3.72,11.737,4.927c4.067,1.265,8.293,1.731,12.62,1.655l3.277-0.182l3.26-0.606
						c0.549-0.107,1.118-0.178,1.664-0.316l1.613-0.513l3.329-1.007l0.09-0.028c0.361-0.109,0.742,0.095,0.851,0.456
						c0.084,0.276-0.018,0.566-0.232,0.735c-0.937,0.735-1.891,1.486-2.879,2.209l-1.491,1.096c-0.522,0.32-1.076,0.58-1.62,0.874
						c-1.093,0.576-2.206,1.15-3.344,1.688l-3.579,1.196c-4.853,1.33-10.105,1.85-15.179,1.187
						c-5.074-0.612-10.065-1.947-14.651-4.074c-1.149-0.523-2.295-1.063-3.379-1.702c-1.107-0.602-2.195-1.238-3.232-1.954
						c-2.145-1.406-4.029-2.848-6.033-4.848c-1.865-1.86-1.868-4.879-0.008-6.744c1.588-1.592,4.021-1.826,5.859-0.704
						L762.228,754.222z"/>
				</g>
			</g>
			<g>
				<g>
					<path fill="#371A45" d="M661.164,736.08c-0.003-0.068,0.182,0.174,0.289,0.291l0.426,0.474
						c0.259,0.334,0.623,0.656,0.925,0.995c0.653,0.659,1.319,1.331,2.064,1.945c1.425,1.281,3.058,2.382,4.716,3.47
						c3.387,2.082,7.224,3.747,11.354,4.902c4.112,1.266,8.54,1.771,13.044,2.264l6.87,0.327c2.307-0.044,4.644-0.042,7.026,0.016
						l0.049,0.001c0.38,0.01,0.681,0.325,0.672,0.705c-0.007,0.289-0.191,0.532-0.445,0.628c-2.229,0.84-4.501,1.626-6.804,2.365
						c-2.325,0.627-4.7,1.118-7.094,1.632c-4.828,0.658-9.818,1.149-14.89,0.514c-5.04-0.539-10.242-1.769-14.956-4.397
						c-2.335-1.332-4.616-2.839-6.581-4.792c-1.029-0.911-1.92-2-2.797-3.1c-0.424-0.577-0.838-1.132-1.222-1.777
						c-0.198-0.321-0.377-0.607-0.564-0.973c-0.195-0.382-0.334-0.629-0.605-1.215c-1.18-2.354-0.229-5.218,2.125-6.399
						C657.119,732.775,659.984,733.726,661.164,736.08z"/>
				</g>
			</g>
		</g>
	</g>
</g>
<g>
</g>
<g>
</g>
<g>
</g>
<g>
</g>
<g>
</g>
<g>
</g>
<g>
</g>
<g>
</g>
<g>
</g>
<g>
</g>
<g>
</g>
</svg>
