<?xml version="1.0" encoding="iso-8859-1"?>
<!-- Generator: Adobe Illustrator 26.0.3, SVG Export Plug-In . SVG Version: 6.00 Build 0)  -->
<svg version="1.1" id="Layer_1" xmlns="http://www.w3.org/2000/svg" xmlns:xlink="http://www.w3.org/1999/xlink" x="0px" y="0px"
	 width="753.19px" height="1076.19px" viewBox="0 0 753.19 1076.19" enable-background="new 0 0 753.19 1076.19"
	 xml:space="preserve">
<g>
	<g>
		<g>
			<g>
				<g>
					<path fill="#FFFFFF" d="M443.475,763.869c85.365,6.499,235.117,6.725,248.056-77.431c1.683-11.022,2.644-23.051,2.923-35.72
						c1.959-84.082-25.233-196.021-58.639-223.434c-19.076-15.643-54.556-20.336-93.494-16.614
						c-77.379,7.4-168.507,47.959-172.016,101.703C366.895,564.093,358.11,757.37,443.475,763.869z"/>
				</g>
			</g>
			<g opacity="0.35">
				<g>
					<path fill="#371A45" d="M443.475,763.869c85.365,6.499,235.117,6.725,248.056-77.431c1.683-11.022,2.644-23.051,2.923-35.72
						c-24.423,17.524-56.592-0.441-59.562-23.308c-18.334-141.173-68.143-197.231-92.571-216.74
						c-77.379,7.4-168.507,47.959-172.016,101.703C366.895,564.093,358.11,757.37,443.475,763.869z"/>
				</g>
			</g>
			<g>
				<g>
					<path fill="#371A45" d="M507.14,775.145c-21.649,0-43.406-1.004-64.323-2.598c-85.124-6.481-87.416-166.151-81.206-260.751
						c2.138-32.566,31.498-62.718,82.67-84.905c64.433-27.935,158.089-38.301,197.051-6.338l0,0
						c43.981,36.083,71.282,185.882,58.795,267.209C689.521,756.838,599.504,775.145,507.14,775.145z M566.375,418.051
						c-35.154,0-77.461,8.463-115.169,24.812c-44.235,19.178-70.558,44.718-72.223,70.072
						c-3.636,55.39-9.685,236.555,65.156,242.256c84.174,6.407,227.128,5.82,238.781-70.07
						c12.455-81.116-17.056-221.924-52.63-251.109l0,0C617.207,423.277,593.998,418.051,566.375,418.051z"/>
				</g>
			</g>
			<g>
				<g>
					<path fill="#FFFFFF" d="M621.182,568.799l38.604-13.457c8.725-3.042,18.162,2.237,20.086,11.274
						c6.62,31.095,16.093,95.359-15.417,107.045c-38.187,14.162-49.577-29.672-53.555-89.382
						C610.441,577.401,614.672,571.069,621.182,568.799z"/>
				</g>
			</g>
			<g opacity="0.35">
				<g>
					<path fill="#371A45" d="M610.981,584.187c3.837,59.718,15.13,103.591,53.347,89.503c15.698-5.763,21.268-24.608,22.082-45.9
						c-3.394,5.955-8.084,10.476-14.474,12.821c-34.215,12.595-46.866-21.25-51.859-71.366
						C614.236,571.785,610.548,577.754,610.981,584.187z"/>
				</g>
			</g>
			<g>
				<g>
					<path fill="#371A45" d="M650.939,685.055c-6.635,0-12.708-1.774-18.162-5.323c-17.836-11.605-26.954-40.011-30.491-94.98
						c-0.692-10.742,5.951-20.711,16.157-24.241l38.634-13.37c6.536-2.259,13.734-1.606,19.751,1.801
						c5.999,3.396,10.255,9.211,11.673,15.951c9.73,46.222,13.956,104.037-21.168,116.97
						C661.549,683.993,656.075,685.055,650.939,685.055z M664.964,563.214c-0.673,0-1.412,0.106-2.195,0.377l-38.634,13.37
						c-2.826,0.979-4.667,3.721-4.477,6.671c1.109,17.243,4.485,69.712,22.614,81.509c4.886,3.177,11.117,3.31,19.044,0.385
						c20.925-7.705,18.962-55.184,10.15-97.048c-0.534-2.537-2.243-3.838-3.214-4.388
						C667.579,563.71,666.422,563.214,664.964,563.214z M621.288,568.736h0.027H621.288z"/>
				</g>
			</g>
			<g>
				<g>
					<path fill="#371A45" d="M646.946,444.039c-4.296,2.32-8.896,3.954-13.537,5.375c-4.644,1.436-9.444,2.433-14.243,3.452
						c-4.799,1.017-9.646,1.911-14.539,2.719c-4.91,0.762-9.837,1.498-14.944,1.893c-0.673,0.056-1.263-0.445-1.319-1.117
						c-0.034-0.409,0.148-0.796,0.438-1.043c3.959-3.28,8.143-6.107,12.376-8.821c4.257-2.65,8.583-5.156,12.982-7.465
						c4.401-2.303,8.82-4.579,13.413-6.363c4.597-1.794,9.249-3.338,14.231-4.117c4.514-0.707,8.746,2.379,9.453,6.893
						c0.557,3.553-1.237,6.932-4.228,8.553L646.946,444.039z"/>
				</g>
			</g>
			<g>
				<g>
					<path fill="#FFFFFF" d="M491.04,727.759l-31.473-9.562c-35.526-10.794-74.099-8.996-107.793,6.412
						c-11.672,5.337-22.952,12.365-32.282,21.616c-34.098,33.818-35.055,101.719-11.903,129.241
						c9.129,10.852,18.947,22.901,18.947,22.901c-6.486,9.295-51.165,84.687-15.212,114.659
						c31.486,26.247,89.597,21.94,120.212-19.34c20.235-27.283,24.342-58.76,23.191-82.817
						c-1.345-28.129-15.635-66.104,7.641-76.002c34.703-14.757,66.223-6.577,116.406-44.943
						c58.726-44.897,67.924-141.597,41.831-223.349c-18.766-58.796-132.985-170.129-132.985-170.129l36.033,330.623L491.04,727.759z
						"/>
				</g>
			</g>
			<g>
				<g>
					<path fill="#FFFFFF" d="M313.751,582.938L198.836,687.561l-1.197-1.915l-49.243-79.294
						c58.143-24.763,94.286-98.356,94.286-98.356l4.613,4.874L313.751,582.938z"/>
				</g>
			</g>
			<g opacity="0.35">
				<g>
					<path fill="#371A45" d="M313.751,582.938L198.836,687.561l-1.197-1.915c33.162-50.919,45.936-140.005,49.657-172.776
						L313.751,582.938z"/>
				</g>
			</g>
			<g>
				<g>
					<path fill="#371A45" d="M196.948,701.046l-61.291-98.728l9.337-3.976c54.527-23.229,89.54-93.473,89.887-94.179l5.518-11.232
						l85.772,90.472L196.948,701.046z M160.934,610.029l39.767,64.056l100.615-91.596l-56.699-59.807
						C232.692,543.309,203.298,587.846,160.934,610.029z"/>
				</g>
			</g>
			<g>
				<g>
					<path fill="#FFFFFF" d="M183.731,595.289c0,0-68.867-61.952-112.735-78.562L58.732,545.5l91.98,90.565L183.731,595.289z"/>
				</g>
			</g>
			<g>
				<g>
					<path fill="#371A45" d="M150.712,644.77c-2.279,0-4.474-0.895-6.107-2.502l-91.98-90.565c-2.549-2.51-3.303-6.325-1.901-9.616
						l12.264-28.774c1.831-4.294,6.73-6.378,11.09-4.727c44.878,16.993,112.612,77.659,115.473,80.233
						c3.444,3.097,3.858,8.349,0.943,11.948l-33.019,40.776c-1.545,1.909-3.824,3.075-6.275,3.213
						C151.037,644.765,150.874,644.77,150.712,644.77z M69.063,543.459l80.921,79.675l21.714-26.815
						c-16.444-14.204-62.139-52.363-96.1-68.19L69.063,543.459z"/>
				</g>
			</g>
			<g>
				<g>
					<path fill="#FFFFFF" d="M251.183,426.633c34.599,137.947-6.346,264.149-6.346,264.149
						c-133.961,48.113-60.871,180.187-60.871,180.187s-92.365,53.441-48.82,106.839c37.919,46.499,165.273-6.925,171.432-74.763
						c0,0-21.905-68.867,12.057-92.452"/>
				</g>
			</g>
			<g>
				<g>
					<path fill="#FFFFFF" d="M634.408,657.554c-0.74,53.661-18.061,103.622-55.641,132.367
						c-50.179,38.363-81.687,30.182-116.395,44.935c-11.903,5.07-13.992,17.452-12.991,32.118
						c-1.414,16.407,4.505,38.385,5.353,56.424c0.022,0.348,0.022,0.696,0.044,1.044c-0.892,21.608-6.615,46.85-23.24,69.241
						c-29.55,39.843-84.734,45.239-116.83,21.934c-1.153-0.827-2.285-1.697-3.373-2.611c-8.356-6.942-12.36-16.364-13.491-26.809
						c2.48-26.917,17.386-56.446,25.002-69.589c1.632-2.829,2.938-4.896,3.699-6.028c0,0-1.676-2.111-4.287-5.353
						c-1.98-2.481-4.505-5.614-7.268-9.031c-2.372-2.938-4.918-6.049-7.398-9.074c-2.481-3.025-4.7-6.528-6.615-10.423
						c2.002,15.015,5.614,26.33,5.614,26.33c-6.158,67.848-133.521,121.269-171.448,74.768c-6.898-8.443-10.38-16.886-11.359-25.111
						c-5.288-43.847,60.188-81.731,60.188-81.731s-36.426-65.803-10.728-121.443c10.706-23.175,32.205-44.587,71.591-58.731
						c0,0,9.683-29.833,15.646-76.356c1.523-11.924,2.807-24.937,3.634-38.82c1.523-26.047,1.414-55.162-1.85-85.909l225.348-93.264
						c0,0,0.109,0.109,0.326,0.326c0.109,0.109,0.239,0.239,0.414,0.413l0.522,0.522c0.196,0.218,0.413,0.435,0.674,0.675
						c1.153,1.175,2.785,2.829,4.852,4.961c9.618,9.901,28.375,29.616,48.677,53.029c31.987,36.884,67.739,82.928,77.531,114.35
						c2.807,8.987,5.201,18.17,7.159,27.44C631.971,617.798,634.234,637.861,634.408,657.554z"/>
				</g>
			</g>
			<g>
				<g>
					<path fill="#371A45" d="M302.531,822.623c-2.772,0-5.343-1.777-6.222-4.561c-23.535-74.423-121.491-61.493-122.477-61.365
						c-3.578,0.529-6.873-1.982-7.376-5.552c-0.503-3.57,1.982-6.872,5.552-7.376c1.098-0.143,109.923-14.479,136.749,70.357
						c1.088,3.437-0.818,7.106-4.255,8.192C303.846,822.525,303.183,822.623,302.531,822.623z"/>
				</g>
			</g>
			<g>
				<g>
					<path fill="#FFFFFF" d="M262.263,489.705l-11.076-63.083C256.562,448.078,260.109,469.251,262.263,489.705z"/>
				</g>
			</g>
			<g>
				<g>
					<path fill="#371A45" d="M179.736,1004.031c-22.091,0.003-40.197-7.066-51.335-20.722
						c-11.402-13.983-15.685-29.256-12.73-45.396c6.054-33.065,41.674-59.925,57.003-70.112
						c-8.585-18.543-27.727-68.545-10.195-115.085c11.612-30.823,36.921-53.88,75.259-68.582
						c6.372-22.291,35.189-135.026,5.003-255.383c-1.169-4.662,1.663-9.39,6.326-10.56c4.66-1.163,9.39,1.663,10.56,6.326
						c34.805,138.775-4.807,263.702-6.509,268.951l-1.319,4.061l-4.019,1.445c-35.61,12.79-58.816,32.906-68.978,59.793
						c-18.783,49.699,12.467,107.419,12.785,107.996l4.111,7.467l-7.371,4.274c-0.489,0.284-49.421,29.033-55.537,62.574
						c-2.013,11.034,0.964,21.25,9.103,31.23c12.362,15.162,39.852,18.517,71.744,8.763c38.824-11.874,79.769-42.07,84.101-77.196
						c-3.45-11.842-19.947-75.512,15.934-100.428c3.947-2.744,9.373-1.766,12.114,2.183c2.741,3.947,1.764,9.371-2.185,12.113
						c-23.46,16.294-14.252,65.201-8.725,82.671l0.527,1.671l-0.155,1.748c-4.129,45.486-52.929,80.554-96.521,93.886
						C204.877,1001.951,191.719,1004.031,179.736,1004.031z M244.839,690.779h0.027H244.839z"/>
				</g>
			</g>
			<g>
				<g>
					<path fill="#FFFFFF" d="M497.646,699.551l-26.025,22.108l-277.05-126.361c0,0,18.822-11.054,69.893-26.091
						c34.098-10.053,82.58-21.891,149.449-33.424l14.601,28.549L497.646,699.551z"/>
				</g>
			</g>
			<g>
				<g>
					<path fill="#371A45" d="M473.035,731.877L175.727,596.256l14.449-8.475c2.194-1.287,55.64-31.841,222.263-60.564l6.313-1.089
						l89.775,175.59L473.035,731.877z M215.464,595.249l254.729,116.196l16.561-14.073L409.088,545.47
						C299.716,564.694,241.208,584.7,215.464,595.249z"/>
				</g>
			</g>
			<g>
				<g>
					<path fill="#FFFFFF" d="M431.536,920.112"/>
				</g>
			</g>
			<g>
				<g>
					<path fill="#32B1D1" d="M445.947,491.359"/>
				</g>
			</g>
			<g>
				<g>
					<polygon fill="#73BEFD" points="285.782,768.781 477.125,720.263 397.88,564.58 206.537,606.349 					"/>
				</g>
			</g>
			<g>
				<g>
					<polygon fill="#73BEFD" points="285.782,768.781 477.125,720.263 397.88,564.58 206.537,606.349 					"/>
				</g>
			</g>
			<g opacity="0.35">
				<g>
					<path fill="#371A45" d="M468.422,742.027l-146.837,37.232c-1.741,33.902-4.765,91.697-6.593,116.939
						c-2.372-2.938-4.918-6.049-7.398-9.074c-2.481-3.025-4.7-6.528-6.615-10.423c2.002,15.015,5.614,26.33,5.614,26.33
						c-6.158,67.848-133.521,121.269-171.448,74.768c-6.898-8.443-10.38-16.886-11.359-25.111
						c30.464,43.847,117.527,2.524,132.759-11.359c16.581-15.102,18.801-23.174,8.421-80.208
						c-5.614-30.812,2.111-54.074,13.579-70.96l-1.458,0.37h-28.941l-62.277-22.326l-12.621-18.692
						c10.706-23.175,32.205-44.587,71.591-58.731c0,0,9.683-29.833,15.646-76.356l128.69-28.092L468.422,742.027z"/>
				</g>
			</g>
			<g>
				<g>
					<polygon fill="#1F9FFF" points="477.126,720.267 285.789,768.77 280.523,757.999 206.539,606.352 397.876,564.573 
						416.089,600.347 					"/>
				</g>
			</g>
			<g opacity="0.7">
				<g>
					<path fill="#FFFFFF" d="M234.346,632.861l56.274,134.69l-4.831,1.219l-5.266-10.771l-73.985-151.646l191.337-41.779
						l3.242,6.354l-157.094,42.216C235.497,615.435,230.942,624.714,234.346,632.861z"/>
				</g>
			</g>
			<g opacity="0.35">
				<g>
					<path fill="#371A45" d="M477.126,720.267L285.789,768.77l-5.266-10.771c3.286-43.738,93.721-66.173,93.721-66.173
						c-15.559-55.206,26.569-83.298,41.845-91.48L477.126,720.267z"/>
				</g>
			</g>
			<g>
				<g>
					<path fill="#371A45" d="M285.78,776.941c-3.061,0-5.941-1.729-7.333-4.582l-79.244-162.432
						c-1.098-2.251-1.101-4.881-0.011-7.135c1.092-2.254,3.158-3.882,5.605-4.416l191.343-41.768
						c3.622-0.781,7.327,0.963,9.011,4.271l79.244,155.68c1.126,2.213,1.185,4.813,0.159,7.074c-1.024,2.258-3.02,3.929-5.425,4.54
						l-191.343,48.519C287.119,776.861,286.444,776.941,285.78,776.941z M218.425,612.106l71.782,147.133l175.012-44.378
						l-71.754-140.966L218.425,612.106z"/>
				</g>
			</g>
			<g>
				<g>
					<polygon fill="#1F9FFF" points="206.537,606.349 170.051,606.631 256.844,768.781 285.782,768.781 					"/>
				</g>
			</g>
			<g opacity="0.7">
				<g>
					<polygon fill="#FFFFFF" points="214.198,622.042 178.446,622.324 170.047,606.635 206.539,606.352 					"/>
				</g>
			</g>
			<g>
				<g>
					<path fill="#371A45" d="M285.782,776.941h-28.939c-3.01,0-5.775-1.655-7.195-4.308l-86.792-162.151
						c-1.348-2.518-1.28-5.56,0.178-8.017c1.458-2.456,4.096-3.971,6.953-3.994l36.486-0.283c3.057,0,6.019,1.758,7.398,4.582
						l79.244,162.432c1.234,2.529,1.077,5.514-0.413,7.902C291.211,775.491,288.596,776.941,285.782,776.941z M261.731,760.621
						h10.99l-71.262-146.072l-17.841,0.138L261.731,760.621z"/>
				</g>
			</g>
			<g>
				<g>
					<polygon fill="#1F9FFF" points="256.848,768.77 194.571,746.444 169.372,709.147 153.923,686.299 114.21,627.59 
						58.722,545.489 170.047,606.635 256.282,767.704 					"/>
				</g>
			</g>
			<g opacity="0.7">
				<g>
					<polygon fill="#FFFFFF" points="256.848,768.77 245.359,764.658 160.668,617.45 72.844,566.379 58.722,545.489 
						170.047,606.635 256.282,767.704 					"/>
				</g>
			</g>
			<g>
				<g>
					<path fill="#371A45" d="M256.842,776.941c-0.922,0-1.853-0.157-2.755-0.478l-62.263-22.339
						c-1.631-0.587-3.033-1.676-4.004-3.11L51.972,550.07c-2.11-3.122-1.809-7.283,0.73-10.067c2.538-2.784,6.657-3.472,9.957-1.655
						l111.319,61.131c1.387,0.761,2.521,1.907,3.267,3.302l86.792,162.148c1.592,2.978,1.189,6.627-1.016,9.183
						C261.441,775.942,259.17,776.941,256.842,776.941z M199.846,739.663l39.798,14.277L164,612.617L84.409,568.91L199.846,739.663z
						"/>
				</g>
			</g>
			<g>
				<g>
					<path fill="#371A45" d="M170.051,606.631c0,0,0.64-20.219,17.1-22.57c13.62-1.946,23.184,21.459,23.184,21.459L170.051,606.631
						z"/>
				</g>
			</g>
			<g>
				<g>
					<path fill="#FFFFFF" d="M634.408,655.987c0.022,0.522,0,1.045,0,1.567c-0.74,53.661-18.061,103.622-55.641,132.367
						c-50.179,38.363-81.687,30.182-116.395,44.935c-11.903,5.07-13.992,17.452-12.991,32.118
						c0.936,14.035,4.679,30.138,5.353,43.89c0.196,4.309,0.239,8.856,0.044,13.578c-0.892,21.608-6.615,46.85-23.24,69.241
						c-30.616,41.279-88.716,45.588-120.203,19.323c-8.356-6.942-12.36-16.364-13.491-26.809c-0.044-0.348-0.065-0.718-0.087-1.066
						c-2.589-28.462,15.385-64.323,24.502-79.903c1.915-3.264,3.438-5.658,4.287-6.876c0,0-9.814-12.033-18.953-22.892
						c-23.153-27.527-22.195-95.418,11.903-129.255c9.335-9.248,20.607-16.277,32.292-21.608
						c17.996-8.225,37.384-12.577,56.946-13.187c17.082-0.566,34.294,1.741,50.832,6.767l31.487,9.575l32.597-0.696l-16.103-147.773
						c7.768-7.659,13.905-19.889,12.904-38.907l-4.135-19.998L496.58,425.09l-1.436-6.876c0,0,26.025,19.889,55.206,50.048
						c28.571,29.485,60.167,68.806,73.419,108.931c0,0.065,0.022,0.131,0.065,0.218c2.089,7.442,3.851,14.993,5.309,22.587
						C632.755,618.603,634.561,637.513,634.408,655.987z"/>
				</g>
			</g>
			<g opacity="0.35">
				<g>
					<path fill="#371A45" d="M634.408,655.987c0.022,0.522,0,1.045,0,1.567c-0.74,53.661-18.061,103.622-55.641,132.367
						c-50.179,38.363-81.687,30.182-116.395,44.935c-11.903,5.07-13.992,17.452-12.991,32.118
						c0.936,14.035,4.679,30.138,5.353,43.89c0.196,4.309,0.239,8.856,0.044,13.578c-0.892,21.608-6.615,46.85-23.24,69.241
						c-30.616,41.279-88.716,45.588-120.203,19.323c-8.356-6.942-12.36-16.364-13.491-26.809c-0.044-0.348-0.065-0.718-0.087-1.066
						c33.184,27.744,89.869,37.362,121.291-21.151c35.926-66.956-4.831-94.352-5.658-126.427
						c-0.849-32.074,58.47-24.045,143.856-63.213C607.818,751.166,627.097,696.614,634.408,655.987z"/>
				</g>
			</g>
			<g>
				<g>
					<path fill="#371A45" d="M490.196,730.535c-7.368-0.939-14.63-2.229-21.848-3.66c-3.614-0.697-7.22-1.436-10.795-2.245
						c-3.463-0.664-6.896-1.355-10.349-1.907c-13.799-2.207-27.691-3.068-41.447-2.072c-13.734,1.061-27.296,3.804-40.183,8.452
						c-12.885,4.619-25.282,10.946-35.439,19.469c-2.569,2.113-4.902,4.44-6.993,6.88c-1.051,1.231-2.25,2.322-3.198,3.656
						l-2.857,3.996l-1.436,1.996l-1.224,2.164l-2.469,4.318c-1.467,2.99-2.854,6.051-4.117,9.159
						c-4.734,12.619-7.118,26.312-7.283,39.944c-0.223,13.617,2.262,27.31,7.404,39.068c1.547,2.711,2.846,5.667,4.753,7.945
						l1.306,1.838c0.423,0.611,1.127,1.389,1.677,2.076l3.517,4.251l14.068,17.004l4.132,4.995l-3.742,5.485
						c-1.195,1.751-2.567,4.002-3.821,6.135c-1.271,2.174-2.511,4.389-3.713,6.627c-2.407,4.476-4.672,9.041-6.767,13.663
						c-4.166,9.246-7.768,18.732-10.185,28.304c-2.36,9.521-3.754,19.284-2.569,28.102c0.577,4.392,1.78,8.488,3.697,12.036
						c1.97,3.598,4.406,6.473,7.969,9.131c14.422,11.271,34.55,15.256,53.349,12.515c18.981-2.569,36.664-12.397,49.081-26.749
						c1.483-1.874,3.102-3.583,4.5-5.573c1.388-1.999,2.829-3.963,4.058-6.067c2.633-4.097,4.807-8.475,6.848-12.904
						c3.92-8.946,6.702-18.433,8.288-28.191c1.618-9.742,2.082-19.763,1.589-29.68c-0.543-9.674-2.504-19.979-3.965-30.689
						c-0.735-5.372-1.371-10.897-1.541-16.712c-0.085-5.821,0.081-11.996,2.281-18.647c1.104-3.291,2.799-6.684,5.255-9.67
						c2.435-2.998,5.594-5.449,8.876-7.129c0.785-0.379,1.737-0.87,2.397-1.125l1.988-0.774l3.978-1.543
						c2.667-0.94,5.359-1.785,8.04-2.616c10.767-3.107,21.38-4.961,31.455-7.167c10.101-2.159,19.726-4.81,28.979-8.519
						c9.267-3.635,18.076-8.419,26.539-13.872c4.29-2.622,8.326-5.718,12.441-8.667c2.011-1.502,3.816-3.073,5.74-4.599
						c1.779-1.676,3.64-3.261,5.364-4.996c13.885-13.817,24.177-31.302,30.779-50.23c6.669-18.938,10.033-39.175,10.879-59.526
						c0.833-20.372-0.836-40.917-4.623-61.049c-1.898-10.067-4.334-20.036-7.298-29.838l-1.116-3.675
						c-0.382-1.193-0.804-2.258-1.2-3.393c-0.724-2.239-1.803-4.482-2.739-6.728c-0.988-2.242-2.165-4.467-3.233-6.703l-3.627-6.637
						c-10.146-17.604-22.599-34.396-35.63-50.636c-26.312-32.51-57.001-61.076-80.419-97.031c-0.896-1.376-0.507-3.218,0.869-4.115
						c0.99-0.645,2.235-0.616,3.181-0.041c9.317,5.687,17.646,12.369,25.709,19.35c8.081,6.961,15.585,14.499,22.948,22.177
						c14.727,15.366,27.986,32.081,41.348,48.745c13.275,16.752,26.172,33.911,37.115,52.925l3.966,7.258
						c1.214,2.522,2.503,4.971,3.646,7.557c1.103,2.622,2.305,5.151,3.228,7.933c0.476,1.355,1.009,2.753,1.431,4.073l1.186,3.901
						c3.147,10.406,5.73,20.975,7.743,31.655c4.015,21.356,5.8,43.167,4.909,64.992c-0.913,21.801-4.498,43.689-11.863,64.615
						c-7.29,20.882-18.847,40.788-34.947,56.798c-1.997,2.005-4.15,3.861-6.224,5.791c-2.199,1.768-4.395,3.65-6.612,5.306
						c-4.458,3.207-8.815,6.532-13.534,9.431c-9.267,5.973-19.11,11.317-29.51,15.402c-10.358,4.157-21.171,7.104-31.709,9.354
						c-10.546,2.294-20.763,4.109-30.294,6.87c-2.356,0.737-4.705,1.472-7.015,2.283l-3.402,1.323l-1.702,0.659
						c-0.571,0.22-0.773,0.38-1.185,0.556c-2.777,1.468-4.4,3.42-5.604,6.869c-1.181,3.399-1.488,7.959-1.381,12.649
						c0.136,4.741,0.686,9.725,1.386,14.806c1.366,10.203,3.429,20.687,4.1,32.113c0.556,11.164,0.039,22.354-1.795,33.446
						c-3.599,22.161-12.634,43.813-27.704,61.295c-15.161,17.553-36.791,29.469-59.74,32.587c-11.45,1.64-23.213,1.316-34.624-1.239
						c-11.386-2.551-22.48-7.39-31.96-14.793l-1.804-1.343l-1.796-1.661c-1.203-1.102-2.388-2.222-3.409-3.52
						c-1.058-1.256-2.153-2.486-3.01-3.889c-0.893-1.373-1.868-2.709-2.555-4.182c-3.101-5.75-4.834-11.973-5.627-18.033
						c-1.564-12.206,0.294-23.724,2.955-34.623c2.763-10.908,6.71-21.232,11.209-31.226c2.264-4.992,4.693-9.891,7.286-14.712
						c1.296-2.412,2.634-4.804,4.027-7.187c1.428-2.412,2.784-4.684,4.564-7.294l0.39,10.479l-13.94-16.849l-3.485-4.213
						c-0.595-0.741-1.13-1.316-1.774-2.194l-1.91-2.614c-2.741-3.433-4.48-7.196-6.492-10.879
						c-1.477-3.796-3.281-7.556-4.245-11.439c-0.544-1.931-1.177-3.856-1.634-5.796l-1.174-5.844
						c-0.443-1.946-0.696-3.901-0.904-5.858l-0.691-5.87c-0.152-3.914-0.482-7.839-0.389-11.747
						c0.192-15.636,2.873-31.224,8.432-46.042c1.495-3.663,3.069-7.321,4.802-10.903l2.914-5.258l1.468-2.623l1.724-2.496
						l3.487-4.97c1.169-1.652,2.643-3.107,3.959-4.663c1.375-1.502,2.673-3.125,4.128-4.512c1.432-1.42,2.924-2.765,4.429-4.088
						c12.14-10.544,26.081-18.114,40.672-23.497c7.311-2.7,14.834-4.834,22.47-6.339c7.649-1.432,15.382-2.364,23.136-2.684
						c15.492-0.452,31.07,1.118,45.802,5.57c3.71,0.985,7.305,2.365,10.893,3.675c3.432,1.316,6.832,2.709,10.225,4.14
						c6.795,2.825,13.547,5.793,20.192,9.112c1.454,0.725,2.044,2.493,1.318,3.947C492.628,730.078,491.401,730.686,490.196,730.535
						z"/>
				</g>
			</g>
			<g opacity="0.35">
				<g>
					<path fill="#371A45" d="M629.948,619.909c-0.479,7.572-1.893,15.036-4.417,22.348c-20.259,58.622-91.284,93.286-146.228,93.286
						c-33.054,0-54.313-5.571-70.568-24.132c-2.872-3.286-5.593-6.985-8.204-11.141c-19.105-30.421-9.466-70.829,30.986-89.782
						c3.286-1.545,10.423-2.372,10.423-2.372l-11.272-22.021l-3.764-7.377c0,0,5.353,1.219,12.947,2.851
						c17.06,3.699,45.392,9.509,49.483,8.334c5.375-1.545,12.272-4.744,18.213-10.619c7.768-7.659,13.905-19.889,12.904-38.907
						l10.924-20.74l-27.901-93.002l-8.33-8.419c0,0,26.025,19.889,55.206,50.048c28.571,29.485,60.167,68.806,73.419,108.931
						c0,0.065,0.022,0.131,0.065,0.218c2.459,7.507,4.287,15.058,5.309,22.587C630.078,606.657,630.361,613.316,629.948,619.909z"/>
				</g>
			</g>
			<g>
				<g>
					<path fill="#FFFFFF" d="M627.772,598.149c-0.479,7.573-1.893,15.036-4.417,22.348c-20.259,58.622-91.284,93.286-146.228,93.286
						c-38.929,0-61.472-7.725-78.772-35.273c-19.105-30.421-9.466-70.829,30.986-89.782c3.286-1.545,10.423-2.372,10.423-2.372
						l-11.272-22.021l-3.764-7.377c0,0,5.353,1.219,12.947,2.851c17.06,3.699,45.392,9.509,49.483,8.334
						c12.381-3.569,32.901-15.928,31.117-49.526l-4.135-19.998l-19.736-95.288l-1.436-6.876c0,0,26.025,19.889,55.206,50.048
						C586.906,486.498,631.21,544.554,627.772,598.149z"/>
				</g>
			</g>
			<g opacity="0.35">
				<g>
					<path fill="#371A45" d="M627.772,598.149c-0.479,7.573-1.893,15.036-4.417,22.348c-20.259,58.622-91.284,93.286-146.228,93.286
						c-38.929,0-61.472-7.725-78.772-35.273c-4.94-7.855-7.942-16.385-9.008-25.046c16.451,20.259,38.037,26.265,72.331,26.265
						c54.944,0,125.969-34.664,146.228-93.286c2.524-7.312,3.939-14.775,4.417-22.348c0.914-14.144-1.502-28.593-6.267-42.933
						C620.264,546.229,629.404,572.69,627.772,598.149z"/>
				</g>
			</g>
			<g>
				<g>
					<path fill="#371A45" d="M494.739,394.14c6.764,2.834,12.867,6.445,18.796,10.349c5.957,3.861,11.553,8.173,16.977,12.688
						c10.767,9.116,20.992,18.891,30.529,29.342c9.508,10.476,18.566,21.386,27.216,32.66c8.611,11.302,16.827,22.999,24.025,35.448
						c7.197,12.433,13.494,25.576,17.97,39.596c4.454,13.981,7.047,28.977,6.119,44.204c-0.041,3.808-0.748,7.584-1.363,11.362
						c-0.431,3.813-1.784,7.45-2.745,11.159c-0.278,0.914-0.491,1.866-0.827,2.747l-1.059,2.615l-2.133,5.224
						c-1.28,3.555-3.25,6.754-4.988,10.073c-7.269,13.099-16.869,24.663-27.741,34.569c-10.862,9.954-23.082,18.19-36.003,24.896
						c-12.918,6.724-26.544,12.001-40.636,15.7c-14.063,3.695-28.735,5.775-43.458,5.686c-7.154-0.005-14.421-0.377-21.756-1.201
						c-7.33-0.85-14.794-2.245-22.151-4.755c-7.344-2.488-14.534-6.202-20.814-11.062c-6.303-4.842-11.636-10.697-16.083-16.878
						c-4.346-6.013-8.295-13.231-10.817-20.692c-2.641-7.496-3.731-15.56-3.475-23.54c0.306-7.966,1.83-15.984,5.014-23.313
						c3.127-7.333,7.426-14.109,12.646-19.998c1.315-1.456,2.749-2.786,4.128-4.177c0.703-0.68,1.38-1.392,2.107-2.04l2.262-1.835
						c1.524-1.198,2.995-2.488,4.576-3.593l4.833-3.168c1.585-1.114,3.292-1.964,4.982-2.854l2.536-1.332l1.269-0.663l0.635-0.332
						l0.317-0.165l0.528-0.232c2.833-1.169,4.698-1.515,6.728-1.966c2.007-0.405,3.781-0.692,5.865-0.955l-6.731,12.605
						l-15.029-29.394l-8.452-16.531l18.135,4.081c10.23,2.303,20.566,4.538,30.842,6.592c5.142,1.037,10.281,2.007,15.369,2.883
						c2.554,0.437,5.061,0.782,7.537,1.112c1.149,0.088,2.445,0.24,3.468,0.284l1.411,0.039l0.176,0.007
						c0.031-0.001-0.06-0.016-0.086-0.02c-0.082-0.012-0.166-0.012-0.25-0.003c-0.152,0.011-0.369,0.097-0.443,0.161
						c3.931-1.341,7.724-3.397,10.938-5.951c3.289-2.493,6.061-5.467,8.499-8.853c2.354-3.441,4.336-7.321,6.146-11.646
						c1.902-4.326,3.138-9.124,5.106-14.304l0.106-0.279c0.598-1.574,2.359-2.364,3.933-1.766c0.834,0.317,1.452,0.971,1.756,1.74
						c1.057,2.704,2.056,5.496,2.463,8.407c0.198,1.45,0.468,2.923,0.591,4.411c0.051,1.49,0.061,2.995,0.045,4.51
						c-0.266,6.046-1.809,12.297-4.849,17.979c-2.924,5.743-7.353,10.796-12.497,14.702c-5.184,3.915-11.058,6.585-17.27,8.272
						c-0.728,0.15-1.608,0.279-2.418,0.356l-1.239,0.088l-0.58,0.017l-0.32-0.02l-2.555-0.179c-1.616-0.154-2.944-0.378-4.428-0.568
						c-2.768-0.412-5.497-0.858-8.16-1.331c-5.349-0.922-10.619-1.919-15.859-2.974c-10.495-2.098-20.864-4.342-31.299-6.69
						l9.683-12.449l15.029,29.396l5.65,11.049l-12.381,1.558c-1.362,0.171-3.021,0.434-4.418,0.723
						c-1.364,0.264-2.908,0.699-3.28,0.878l-3.961,2.081c-1.385,0.727-2.802,1.409-4.054,2.316l-3.889,2.538
						c-1.265,0.88-2.397,1.91-3.609,2.849l-1.795,1.434c-0.568,0.507-1.08,1.067-1.625,1.595c-1.058,1.084-2.192,2.105-3.205,3.222
						c-3.997,4.528-7.194,9.625-9.535,15.058c-2.393,5.431-3.451,11.329-3.693,17.194c-0.187,5.874,0.574,11.839,2.581,17.452
						c1.976,5.679,4.684,10.812,8.457,16.078c7.297,10.266,16.711,17.755,28.389,21.617c49.656,13.92,107.682-1.964,146.674-36.754
						c9.65-8.795,17.99-18.906,24.205-30.105c1.473-2.837,3.207-5.562,4.253-8.581l1.809-4.424l0.912-2.21
						c0.286-0.738,0.434-1.495,0.659-2.243c0.742-3.018,1.917-5.926,2.224-9.054c0.487-3.081,1.111-6.141,1.113-9.306
						c0.769-12.543-1.364-25.407-5.333-37.852c-3.975-12.467-9.725-24.551-16.444-36.146
						c-13.476-23.236-30.759-44.567-49.796-64.089c-9.456-9.839-19.027-19.594-28.664-29.345c-4.82-4.873-9.548-9.864-14.155-15.033
						c-4.626-5.132-9.181-10.444-13.389-16.138l-0.045-0.061c-0.984-1.332-0.702-3.21,0.63-4.194
						C492.677,393.845,493.798,393.749,494.739,394.14z"/>
				</g>
			</g>
			<g>
				<g>
					<g>
						<path fill="#FFFFFF" d="M130.372,468.752c241.907,227.754,570.118-96.831,362.11-339.968
							C250.386-110.23-88.562,225.605,130.372,468.752z"/>
					</g>
				</g>
				<g>
					<g>
						<path fill="#FFFFFF" d="M130.372,468.752c241.907,227.754,570.118-96.831,362.11-339.968
							C250.386-110.23-88.562,225.605,130.372,468.752z"/>
					</g>
				</g>
				<g opacity="0.35">
					<g>
						<path fill="#371A45" d="M548.173,446.502c-1.61,3.329-3.308,6.615-5.092,9.857c-8.16,15.036-17.887,29.202-28.941,42.258
							c-21.216,25.111-47.285,46.088-76.465,61.19c-3.025,1.567-6.071,3.09-9.161,4.526l-14.601-28.549
							c-66.869,11.533-115.351,23.37-149.449,33.424c1.132-24.371,0.805-51.245-2.198-79.512l225.348-93.264
							c0,0,0.109,0.109,0.326,0.326c0.109,0.109,0.239,0.239,0.414,0.413l0.522,0.522c0.196,0.218,0.413,0.435,0.674,0.675
							c1.153,1.175,2.785,2.829,4.852,4.961l-1.436-6.876C492.967,396.454,518.993,416.343,548.173,446.502z"/>
					</g>
				</g>
				<g>
					<g>
						<path fill="#FFFFFF" d="M130.372,468.752c241.907,227.754,570.118-96.831,362.11-339.968
							C250.386-110.23-88.562,225.605,130.372,468.752z"/>
					</g>
				</g>
				<g>
					<g>
						<path fill="#371A45" d="M310.016,552.26c-65.474,0-128.891-27.201-183.899-78.989l-0.357-0.367
							c-52.208-57.982-76.882-125.268-71.353-194.584c4.933-61.842,33.606-120.69,80.739-165.706
							c47.037-44.924,106.815-70.479,168.318-71.957c69.291-1.681,136.219,27.281,193.376,83.711l0.356,0.382
							c49.675,58.063,72.705,124.785,66.601,192.951c-5.46,60.963-33.971,118.855-80.282,163.014
							c-46.202,44.054-105.05,69.418-165.702,71.415C315.214,552.217,312.609,552.26,310.016,552.26z M134.811,464.411
							c120.984,113.749,257.987,85.655,340.14,7.323c80.264-76.534,118.528-215.15,12.985-338.717
							C367.511,14.289,225.109,43.852,143.718,121.59C61.52,200.095,23.697,340.828,134.811,464.411z"/>
					</g>
				</g>
				<g opacity="0.35">
					<g>
						<path fill="#371A45" d="M130.369,468.744c205.516,200.356,516.08-26.021,403.693-277.948
							c8.497,89.559-19.914,101.368-52.382,157.493c-97.023,181.446-342.937,138.78-419.378-25.25
							C68.231,378.649,92.805,429.671,130.369,468.744z"/>
					</g>
				</g>
				<g>
					<g>
						<path fill="#293856" d="M310.011,554.759c-66.118,0-130.127-27.435-185.605-79.668l-0.502-0.514
							c-52.679-58.504-77.571-126.437-71.988-196.454c4.982-62.455,33.927-121.876,81.504-167.314
							c47.489-45.356,107.858-71.156,169.985-72.649c70.067-1.624,137.54,27.514,195.192,84.431l0.499,0.537
							c50.122,58.587,73.357,125.947,67.19,194.797c-5.513,61.568-34.296,120.023-81.045,164.6
							c-46.648,44.479-106.078,70.087-167.345,72.104C315.266,554.716,312.633,554.759,310.011,554.759z M136.6,462.662
							c119.771,112.537,255.347,84.767,336.628,7.264c79.425-75.733,117.294-212.888,12.879-335.204
							C366.889,17.268,225.973,46.484,145.443,123.397C64.111,201.076,26.697,340.339,136.6,462.662z"/>
					</g>
				</g>
				<g>
					<g>
						<path fill="#371A45" d="M310.011,554.759c-66.118,0-130.127-27.435-185.605-79.668l-0.502-0.514
							c-52.679-58.504-77.571-126.437-71.988-196.454c4.982-62.455,33.927-121.876,81.504-167.314
							c47.489-45.356,107.858-71.156,169.985-72.649c70.067-1.624,137.54,27.514,195.192,84.431l0.499,0.537
							c50.122,58.587,73.357,125.947,67.19,194.797c-5.513,61.568-34.296,120.023-81.045,164.6
							c-46.648,44.479-106.078,70.087-167.345,72.104C315.266,554.716,312.633,554.759,310.011,554.759z M136.6,462.662
							c119.771,112.537,255.347,84.767,336.628,7.264c79.425-75.733,117.294-212.888,12.879-335.204
							C366.889,17.268,225.973,46.484,145.443,123.397C64.111,201.076,26.697,340.339,136.6,462.662z"/>
					</g>
				</g>
				<g>
					<g>
						<path fill="#371A46" d="M179.993,508.602c277.698,89.32,421.238-243.591,197.929-367.538
							C119.36,17.429-66.158,342.878,179.993,508.602z"/>
					</g>
				</g>
				<g opacity="0.35">
					<g>
						<path fill="#111A28" d="M429.334,179.035c73.98,146.212-62.843,350.121-287.421,277.887
							c-19.892-13.393-36.948-27.832-51.391-42.99c18.675,34.156,47.913,66.691,89.471,94.671
							C432.768,589.905,574.371,321.372,429.334,179.035z"/>
					</g>
				</g>
				<g>
					<g>
						<path fill="#371A45" d="M295.338,550.394c-2.32,0-4.637-0.04-6.958-0.12c-57.881-1.991-114.174-28.511-162.795-76.692
							l-0.036-0.037c-79.87-80.36-104.178-235.25-13.061-337.742l0.837-0.794c52.492-41.948,123.547-60.013,194.94-49.574
							c71.147,10.407,133.729,47.796,171.696,102.576c35.397,53.983,47.963,113.895,36.435,173.404
							c-10.448,53.941-40.03,103.118-83.293,138.474C393.072,532.601,344.4,550.394,295.338,550.394z M135.179,463.943
							c106.894,105.915,222.659,79.89,289.317,25.414c76.616-62.611,116.398-183.615,44.188-293.743
							c-35.731-51.55-94.955-86.857-162.388-96.721c-67.467-9.869-134.515,7.035-184.029,46.381
							C36.682,242.047,59.784,388.07,135.179,463.943z"/>
					</g>
				</g>
				<g>
					<g>
						<path fill="#371A45" d="M270.775,532.308c-30.08,0-61.465-5.133-93.448-15.42l-1.173-0.377l-1.023-0.689
							c-59.577-40.11-98.734-92.442-113.238-151.34c-12.997-52.78-5.32-107.801,21.617-154.926
							c26.328-46.058,68.467-79.901,118.655-95.291c55.76-17.1,117.833-10.548,179.511,18.946l0.47,0.242
							c52.587,29.188,88.912,71.634,105.045,122.747c14.609,46.285,11.601,97.279-8.468,143.59
							c-21.726,50.13-61.154,90.053-111.021,112.412C337.831,525.597,305.158,532.308,270.775,532.308z M183.833,500.692
							c140.963,44.794,241.619-21.763,278.917-107.823c33.844-78.09,19.48-183.811-88.822-244.067
							c-127.897-61.028-230.413-9.143-275.305,69.394C52.496,298.892,61.043,417.403,183.833,500.692z"/>
					</g>
				</g>
				<g>
					<g>
						<path fill="#FFFFFF" d="M595.203,284.281c10.062,116.721-106.072,136.629-126.911,26.167
							C453.256,188.502,577.396,167.206,595.203,284.281z"/>
					</g>
				</g>
				<g opacity="0.35">
					<g>
						<path fill="#371A45" d="M542.19,383.156c-34.768,6.223-69.605-29.777-74.685-78.559
							c33.281,44.523,66.114-49.653,64.243-73.978C625.142,232.067,606.295,373.095,542.19,383.156z"/>
					</g>
				</g>
				<g>
					<g>
						<path fill="#371A45" d="M534.023,392.137c-30.621,0-63.677-23.851-74.284-80.075l-0.085-0.549
							c-8.31-67.396,24.443-107.767,61.092-112.813c33.12-4.558,73.265,19.862,83.063,84.271l0.066,0.562
							c5.829,67.618-27.989,103.414-61.878,108.06C539.37,391.953,536.705,392.137,534.023,392.137z M476.898,309.108
							c9.468,49.703,38.299,68.585,62.736,65.238c25.946-3.557,51.666-32.931,46.923-89.035
							c-8.09-52.541-38.517-72.799-63.437-69.364C494.967,219.822,470.083,253.062,476.898,309.108z"/>
					</g>
				</g>
				<g>
					<g>
						<path fill="#FFFFFF" d="M601.122,289.521c8.054,94.596-78.696,110.98-95.564,21.639
							C492.771,211.289,587.068,193.588,601.122,289.521z"/>
					</g>
				</g>
				<g>
					<g>
						<path fill="#371A45" d="M555.637,378.75c-23.844,0-49.893-19.686-58.633-65.975l-0.081-0.51
							c-7.256-56.683,18.427-90.388,47.547-94.384c25.953-3.579,57.435,16.946,65.263,70.378l0.061,0.523
							c4.797,56.35-21.691,85.933-48.333,89.573C559.542,378.617,557.596,378.75,555.637,378.75z M514.158,309.798
							c7.38,38.675,27.872,53.637,44.947,51.31c19.303-2.638,36.935-27.723,33.367-70.586
							c-6.163-41.515-27.967-57.816-45.635-55.394C526.248,237.953,508.439,264.506,514.158,309.798z"/>
					</g>
				</g>
				<g opacity="0.7">
					<g>
						<path fill="#FFFFFF" d="M434.65,266.505c-2.053,49.277-58.097,47.812-63.502,4.915
							C367.387,216.934,433.467,217.594,434.65,266.505z"/>
					</g>
				</g>
				<g opacity="0.7">
					<g>
						<path fill="#FFFFFF" d="M423.85,345.677c-1.874,18.8-26.396,18.633-26.253-1.983
							C399.471,324.895,423.993,325.063,423.85,345.677z"/>
					</g>
				</g>
				<g opacity="0.7">
					<g>
						<path fill="#FFFFFF" d="M105.941,367.083c-74.872-172.941,106.427-242.35,172.548-217.99
							C160.619,186.8,125.733,273.881,105.941,367.083z"/>
					</g>
				</g>
				<g opacity="0.35">
					<g>
						<path fill="#371A45" d="M506.03,332.945c-4.802-12.462-6.203-26.285-4.671-39.614c31.367,57.644,86.697,15.247,90.233-32.493
							C627.628,348.632,545.419,413.945,506.03,332.945z"/>
					</g>
				</g>
				<g>
					<g>
						<path fill="#371A45" d="M455.109,243.338c-1.153,0-2.221-0.137-3.182-0.348c-11.779-2.585-16.591-18.569-17.786-23.406
							c-1.151-4.667,1.697-9.385,6.364-10.537c4.656-1.155,9.371,1.689,10.532,6.346l0,0c0.92,3.656,2.808,7.902,4.281,9.864
							c0.375-0.356,0.85-0.861,1.417-1.571c3-3.757,8.479-4.367,12.233-1.367c3.756,3,4.367,8.477,1.367,12.233
							C464.814,241.461,459.381,243.338,455.109,243.338z"/>
					</g>
				</g>
			</g>
			<g opacity="0.35">
				<g>
					<path fill="#371A45" d="M256.848,768.77l-62.277-22.326l-25.198-37.297l-15.45-22.848L114.21,627.59
						c-0.305-3.112-0.566-6.31-0.74-9.64c0,0,36.078,8.073,59.296,42.345c10.793,15.95,12.816,33.793,8.247,42.933
						c17.365,19.78,29.321,45.956,75.268,64.475L256.848,768.77z"/>
				</g>
			</g>
			<g>
				<g>
					<path fill="#FFFFFF" d="M95.66,596.18c0,0,36.083,8.081,59.298,42.361c15.093,22.288,13.036,48.343-0.182,49.023
						C141.558,688.245,99.535,669.32,95.66,596.18z"/>
				</g>
			</g>
			<g opacity="0.35">
				<g>
					<path fill="#371A45" d="M154.771,687.561c-12.599,0.653-51.485-16.559-58.361-81.753c13.644,39.364,41.301,50.68,51.572,50.157
						c5.505-0.283,9.096-4.983,10.271-12.012C169.655,664.844,166.935,686.93,154.771,687.561z"/>
				</g>
			</g>
			<g>
				<g>
					<path fill="#371A45" d="M153.998,696.289c-20.235,0-63.035-24.252-67.03-99.647l-0.608-11.463l11.201,2.509
						c1.611,0.36,39.739,9.257,64.603,45.973c11.737,17.331,15.374,38.586,8.848,51.69c-3.279,6.585-9.034,10.561-15.789,10.907
						C154.825,696.278,154.415,696.289,153.998,696.289z M105.535,608.868c7.471,57.551,41.268,70.011,48.511,70.011
						c0.1,0,0.193-0.003,0.282-0.005c0.413-0.021,0.867-0.815,1.102-1.286c2.642-5.305,2.028-19.83-7.681-34.166
						C134.733,624.199,117.066,613.908,105.535,608.868z"/>
				</g>
			</g>
			<g>
				<g>
					<path fill="#371A45" d="M602.992,662.517c-0.947,0-1.909-0.207-2.818-0.643c-3.251-1.559-4.623-5.459-3.064-8.709
						c13.915-29.018-5.946-53.082-19.024-64.844c-25.072-22.55-58.66-31.313-70.825-23.808c-3.072,1.893-7.091,0.94-8.985-2.126
						c-1.893-3.068-0.942-7.091,2.126-8.985c20.708-12.781,61.402,2.716,86.415,25.212c26.874,24.168,34.915,53.399,22.066,80.195
						C607.76,661.151,605.424,662.517,602.992,662.517z"/>
				</g>
			</g>
			<g>
				<g>
					<path fill="#371A45" d="M449.46,861.612c-0.355,0-0.713-0.029-1.074-0.088c-3.557-0.59-5.963-3.953-5.374-7.509
						c10.394-62.76-18.899-91.304-37.286-102.734c-25.401-15.792-59.365-17.066-79.001-2.975c-2.924,2.104-7.007,1.434-9.11-1.495
						c-2.102-2.927-1.433-7.007,1.497-9.108c24.068-17.276,63.393-16.232,93.507,2.492c35.999,22.376,51.772,64.64,43.273,115.957
						C455.363,859.346,452.595,861.612,449.46,861.612z"/>
				</g>
			</g>
			<g>
				<g>
					<path fill="#371A45" d="M324.875,886.191c2.175,1.328,4.829,3.037,7.307,4.488c2.519,1.503,5.077,2.944,7.667,4.299
						c5.197,2.667,10.498,5.093,16.071,6.747c5.569,1.732,11.355,2.371,17.28,2.266l4.486-0.25l4.464-0.83
						c0.752-0.146,1.531-0.244,2.279-0.433l2.209-0.703l4.559-1.379l0.124-0.039c0.494-0.149,1.016,0.13,1.165,0.624
						c0.115,0.379-0.025,0.776-0.318,1.007c-1.284,1.007-2.589,2.035-3.942,3.024l-2.042,1.501
						c-0.715,0.438-1.474,0.794-2.218,1.197c-1.496,0.789-3.021,1.575-4.579,2.311l-4.9,1.638
						c-6.646,1.821-13.836,2.533-20.783,1.626c-6.947-0.838-13.781-2.666-20.06-5.578c-1.573-0.716-3.143-1.456-4.627-2.331
						c-1.516-0.825-3.006-1.695-4.425-2.676c-2.937-1.926-5.516-3.899-8.261-6.638c-2.553-2.547-2.558-6.681-0.011-9.235
						c2.174-2.179,5.505-2.501,8.022-0.964L324.875,886.191z"/>
				</g>
			</g>
			<g>
				<g>
					<path fill="#371A45" d="M186.494,861.349c-0.004-0.093,0.25,0.238,0.395,0.398l0.583,0.649
						c0.355,0.457,0.853,0.898,1.266,1.363c0.895,0.902,1.806,1.822,2.826,2.663c1.951,1.755,4.187,3.262,6.457,4.751
						c4.638,2.85,9.892,5.131,15.547,6.712c5.63,1.733,11.694,2.425,17.861,3.1l9.407,0.448c3.159-0.06,6.359-0.057,9.62,0.021
						l0.068,0.001c0.521,0.013,0.932,0.445,0.92,0.966c-0.01,0.396-0.262,0.728-0.61,0.859c-3.051,1.15-6.163,2.226-9.316,3.238
						c-3.183,0.858-6.435,1.531-9.713,2.235c-6.611,0.9-13.444,1.574-20.388,0.704c-6.901-0.738-14.024-2.422-20.479-6.02
						c-3.197-1.823-6.321-3.887-9.011-6.561c-1.409-1.247-2.629-2.739-3.83-4.245c-0.581-0.79-1.147-1.55-1.673-2.433
						c-0.271-0.44-0.517-0.831-0.773-1.332c-0.267-0.523-0.458-0.861-0.829-1.664c-1.616-3.223-0.314-7.145,2.909-8.762
						C180.955,856.824,184.877,858.126,186.494,861.349z"/>
				</g>
			</g>
		</g>
	</g>
</g>
<g>
</g>
<g>
</g>
<g>
</g>
<g>
</g>
<g>
</g>
<g>
</g>
<g>
</g>
<g>
</g>
<g>
</g>
<g>
</g>
<g>
</g>
</svg>
