<?xml version="1.0" encoding="iso-8859-1"?>
<!-- Generator: Adobe Illustrator 26.0.3, SVG Export Plug-In . SVG Version: 6.00 Build 0)  -->
<svg version="1.1" id="Layer_1" xmlns="http://www.w3.org/2000/svg" xmlns:xlink="http://www.w3.org/1999/xlink" x="0px" y="0px"
	 width="1150px" height="1000px" viewBox="0 0 1150 1000" enable-background="new 0 0 1150 1000" xml:space="preserve">
<rect y="0" fill="none" width="1150" height="1000"/>
<g>
	<g>
		<g>
			<path fill="#285662" d="M336.223,124.086c2.115-0.674,4.311-1.136,6.568-1.412c2.262-0.251,4.559-0.327,6.947-0.461
				c-4.459-1.626-9.541-1.837-14.226-0.327c-2.335,0.748-4.54,1.952-6.402,3.546c-1.859,1.587-3.352,3.621-4.157,5.867
				c1.628-1.744,3.339-3.229,5.234-4.428C332.081,125.68,334.111,124.769,336.223,124.086z"/>
		</g>
		<g>
			<path fill="#285662" d="M339.149,124.262c-2.084,0.834-4.007,2.08-5.602,3.645c-1.59,1.558-2.876,3.467-3.477,5.57
				c1.442-1.635,2.972-3.01,4.632-4.192c1.66-1.176,3.445-2.126,5.31-2.878c1.869-0.744,3.819-1.294,5.84-1.641
				c2.023-0.35,4.097-0.505,6.277-0.649C348.084,122.521,343.32,122.592,339.149,124.262z"/>
		</g>
		<g>
			<path fill="#285662" d="M512.359,459.852c1.734,2.014,1.851,2.777,4.028,2.318c2.177-0.459,3.298-1.984,6.289-2.829
				c2.99-0.846,7.372-0.116,8.283-1.477c0.911-1.361,0.794-5.938-2.085-6.228c-1.821-0.183-0.845,2.627-5.542,2.154
				c-4.698-0.473-4.965-2.63-6.806-2.621c-1.841,0.008-3.098,1.916-5.4,2.653c-2.301,0.737-3.576-0.07-4.42,0.62
				C505.049,455.795,510.625,457.838,512.359,459.852z"/>
		</g>
		<g>
			<path fill="#285662" d="M521.332,477.993c3.977-1.271,9.377-0.8,10.823-2.18c1.446-1.38,1.852-3.493-1.433-4.042
				c-3.286-0.548-4.964,0.493-10.273,3.445c-5.309,2.952-8.833,4.776-7.864,6.69C514.397,485.48,517.355,479.263,521.332,477.993z"
				/>
		</g>
		<g>
			<path fill="#285662" d="M535.577,465.868c-4.113-0.51-7.839-0.66-12.732-0.506c-8.063,0.254-14.251,5.926-14.08,9.042
				c0.142,2.604,1.111,2.436,2.165,2.542c1.054,0.106-1.59-3.452,7.703-7.263c9.293-3.81,16.599-0.395,19.052-0.713
				C540.139,468.651,539.69,466.378,535.577,465.868z"/>
		</g>
		<g>
			<path fill="#285662" d="M446.883,592.813c-14.757,2.292-26.406,2.573-26.406,2.573c-19.914,16.009-60.388,71.786-61.887,78.026
				C384.208,641.127,427.262,600.136,446.883,592.813z"/>
		</g>
		<g>
			<path fill="#285662" d="M414.333,634.279c7.266-6.73,56.3-43.632,74.643-56.499c-30.458,13.972-69.484,39.877-80.225,50.418
				c-7,6.868-39.38,48.523-61.092,76.712c2.147,1.366,4.313,2.707,6.488,4.034C384.789,664.765,408.745,639.464,414.333,634.279z"/>
		</g>
		<g>
			<path fill="#285662" d="M422.549,641.207c-9.893,12.343-31.177,44.588-51.953,77.291c3.589,1.968,7.231,3.85,10.885,5.713
				c20.351-34.428,37.22-61.774,47.851-75.349c9.56-12.205,34.118-48.385,117.613-89.038
				C509.845,566.702,443.812,614.677,422.549,641.207z"/>
		</g>
		<g>
			<path fill="#285662" d="M337.925,698.497c2.255-5.999,4.831-12.268,7.693-18.307c0.82-1.294,1.639-2.561,2.45-3.739l0.022-0.032
				l0.003,0.003c0.047-0.07,0.098-0.148,0.145-0.218l0.808-1.174l-0.009-0.027c1.793-2.687,3.671-5.536,5.676-8.586
				c6.795-10.337,14.497-22.053,23.285-33.909c5.846-7.887,10.832-16.253,15.231-23.635c4.518-7.581,8.785-14.742,11.242-16.363
				c6.394-4.22,35.951-11.962,64.536-19.449c18.196-4.766,36.958-9.684,51.131-14.033l0.176,0.068l1.273-0.516
				c0.18-0.073,18.107-7.305,30.687-9.005c8.653-1.17,16.148-0.345,22.754,0.384c2.985,0.33,5.804,0.64,8.347,0.704
				c3.33,0.085,7.263-0.561,12.242-1.378c2.015-0.331,4.173-0.681,6.467-1.017c-0.501,3.114,0.647,6.501,2.888,9.223
				c-7.233,3.442-25.338,12.242-40.756,21.271c-19.758,11.57-63.944,54.19-68.377,59.748c-4.433,5.558-8.93,23.312-18.931,39.931
				c-10,16.619-38.836,41.415-38.012,42.853c0.823,1.439,36.865-16.047,45.174-27.413c8.31-11.366,12.511-45.419,15.592-51.016
				c3.081-5.597,10.162-14.376,18.603-21.273c8.441-6.898,9.684-1.931,12.447-4.365c2.762-2.433,16.041-16.98,30.132-28.055
				c13.139-10.326,29.547-21.212,46.734-29.215c0.691,0.513,1.416,0.989,2.201,1.377c0.715,0.354,1.354,0.558,2.029,0.847
				c-11.603,8.861-51.654,39.647-51.016,41.948c0.746,2.69,24.555-10.168,25.56-7.162c1.005,3.006-12.502,7.313-12.907,11.34
				c-0.405,4.026,14.017,9.399,11.599,11.771s-21.15-9.246-23.826-7.191c-2.676,2.055,1.116,9.119,8.948,19.348
				c-4.917,20.243,20.598,70.063,47.4,90.273c-6.952-6.894-37.533-69.879-29.607-70.761c8.227-0.916,38.42,59.936,42.688,89.709
				c11.645-47.142,4.028-153.09-1.103-178.494c2.057-0.49,4.32-1.108,6.927-1.89c12.408-3.723,61.678,1.507,74.514,5.969
				c0.968,0.495,2.653,1.568,5.461,3.981c2.565,2.198,5.595,5.112,8.932,8.511l17.99,30.034l-1.017,0.658
				c-2.281,0.496-4.274,1.393-5.868,2.745c-5.42-5.015-43.129-39.839-45.933-40.476c-3.032-0.7-0.926,9.203-0.926,9.203
				s-9.928-13.015-12.686-12.513c-2.77,0.5,8.604,41.539,8.604,41.539s-27.157-36.631-35.998-41.971
				c10.3,14.4,48.509,100.462,53.465,134.952l-5.504,17.168c0,0-49.735-123.63-52.466-134.945
				c-2.95,21.586,8.04,43.225,6.257,80.233c-0.614,12.734-2.117,50.95-3.825,95.601c14.588-2.786,28.896-6.342,42.885-10.613
				l34.267-78.391l7.895,9.274c2.982,3.933,6.215,7.715,9.517,11.18l0.256,0.3l-21.433,46.995
				c18.25-7.186,35.838-15.648,52.68-25.242c-6.918-7.88-12.47-16.721-13.873-23.149c0,0,6.415,10.822,17.82,20.91
				c18.013-10.526,35.128-22.384,51.22-35.421c-1.695-7.355-6.867-23.028-12.095-36.69l18.809-42.984
				c0.513-1.171,0.339-2.53-0.45-3.535l-1.732-2.203l3.093-7.359c0.476-1.133,0.317-2.433-0.417-3.419l-22.237-29.805
				c-0.136-0.182-0.303-0.331-0.468-0.481c-0.04-0.036-0.069-0.079-0.111-0.114c-0.337-0.278-0.725-0.471-1.138-0.605
				c-0.044-0.015-0.077-0.052-0.122-0.065l-22.169-6.256c-1.694-0.481-3.464,0.381-4.141,1.999l-2.89,6.905l-2.149-0.587
				c-1.659-0.456-3.405,0.38-4.093,1.961l-12.655,29.042c-5.475-0.826-10.372,0.622-13.506,4.228
				c-1.418,1.631-2.295,3.563-2.729,5.668c-10.58-12.013-19.891-21.853-26.541-27.551c-2.855-2.454-5.178-4.104-7.111-5.048
				c-13.562-6.578-35.378-12.71-55.243-16.628c5.801-5.452,6.639-8.796,6.419-11.235l-0.027-0.218
				c-0.256-1.657-0.875-2.81-1.567-3.608c3.68-5.372,8.862-15.465,7.14-27.976l-0.087-0.634l-16.276-29.685l1.451-2.487
				c1.54-2.64,2.939-5.666,4.522-9.786c0.249-0.634,0.489-1.281,0.718-1.936c5.011-14.417,4.435-30.017-1.448-45.16l84.672-40.329
				l-96.617,19.339c-4.967-6.536-10.86-12.503-17.491-17.829l52.754-77.02l-74.775,63.158c-4.314-2.092-8.744-4.025-13.374-5.633
				c-3.551-1.234-7.108-2.246-10.662-3.131l-4.603-101.403l-29.198,98.056c-11.161,0.576-21.729,2.879-31.269,6.693l-52.292-72.902
				l32.623,84.169c-7.655,6.068-13.872,13.5-18.072,22.207c-31.305-7.115-85.235-19.357-86.051-19.439l80.045,44.219
				c-0.008,0.296-0.02,0.592-0.024,0.888c-0.009,0.617-0.014,1.234-0.005,1.853c0.018,1.115,0.046,2.231,0.122,3.352l0.403,5.944
				l0.291-0.192c0.081,0.518,0.127,1.033,0.221,1.551c-0.367,4.039-0.455,7.683-0.342,11.025
				c-12.835,5.794-31.279,14.252-45.592,20.836c-2.728-1.226-6.057-2.28-9.822-2.879c-0.856-3.539-1.395-6.81-1.319-9.278
				c0.38-12.247-27.569-62.928-36.145-78.174c-1.631-2.889-3.378-6.044-5.054-9.128c-0.092-0.189-0.187-0.363-0.282-0.522
				l-0.12-0.214c-14.186-26.237-22.139-45.342-22.394-53.801c-0.484-15.711-9.781-46.269-19.539-58.211
				c-0.418-0.512-0.803-0.932-1.212-1.417c11.572-5.147,19.802-13.242,22.192-23.056l0.269,0.027l0.347-3.45c0,0,0-0.001,0-0.002
				c0,0,0-0.001,0-0.002l1.084-10.777h0c0-0.001,0-0.001,0-0.002l1.192-11.846c0.318-3.158,0.079-6.277-0.573-9.33l13.434-13.747
				l-10.678,0.003c1.215-1.769,2.353-3.589,3.224-5.401c1.059-2.193,1.897-4.16,2.637-5.894c1.934-4.535,2.948-6.751,4.861-7.557
				c0.326-0.137,0.741-0.289,1.226-0.468c0.446-0.166,0.943-0.349,1.482-0.559l0.078-0.03c15.031-5.717,23.109-16.351,24.01-31.607
				l0.706-11.951l-6.986,9.722c-3.575,4.975-11.716,7.698-16.753,7.03c-1.412-0.186-2.877-0.583-4.427-1.004
				c-2.016-0.547-4.222-1.153-6.695-1.358c2.522-4.72,2.625-8.969,2.629-9.254l0.174-9.111l-6.141,6.658
				c-0.057,0.056-5.715,5.471-20.965,2.77c-0.22-0.051-0.443-0.09-0.677-0.119c-0.175-0.034-0.349-0.067-0.526-0.102
				c3.355-6.901,1.369-12.942,1.264-13.248l-1.488-4.349l-4.777,3.323c-4.581,3.201-10.855,7.585-15.412,7.272
				c-1.063-0.07-2.539-0.376-4.24-0.726c-2.966-0.611-6.838-1.355-11.247-1.418c-1.033-0.195-2.193-0.171-3.47,0.12
				c-4.884,0.382-10.282,1.75-15.917,5.243c-10.023,6.209-16.945,16.277-18.065,26.276c-0.279,2.494-0.158,4.926,0.269,7.29
				l-6.352-5.803l0.437,17.46l-12.788-6.995l4.163,15.353l-13.72-2.185l8.099,10.219c-2.001,3.629-3.296,7.552-3.714,11.713
				l-1.192,11.847c0,0,0,0.001,0,0.002h0l-1.432,14.231l0.269,0.027c0.385,10.013,6.743,19.512,16.915,26.838
				c-0.808,1.855-1.385,3.804-1.518,5.621c-0.166,2.275,0.49,4.036,1.401,5.407c-0.883,2.14-1.519,4.362-1.67,6.409
				c-0.223,3.016,0.739,5.271,1.989,6.934c-0.666,3.208-0.302,7.027,2.283,10.894c2.057,3.068,5.101,4.181,7.294,4.582l0.033,2.194
				c-1.504,2.063-2.459,4.401-2.716,6.948l-1.229,12.218c-0.088,0.881,0.142,1.731,0.58,2.463c0.295,3.562,2.009,6.924,4.826,9.777
				l-0.537,5.337c-0.446,4.436,2.075,8.573,6.347,11.576l-0.163,1.62c-0.527,5.24,4.709,9.912,11.919,10.638
				c7.211,0.725,13.271-2.811,13.798-8.051l0.163-1.62c4.779-2.089,8.069-5.635,8.522-10.063c0-0.006,0.005-0.011,0.005-0.017
				l0.537-5.337c1.467-0.985,2.726-2.12,3.786-3.363c-2.555,23.088-6.36,61.401-1.669,91.73l-1.098,0.952l1.56,1.909
				c0.171,0.994,0.352,1.979,0.546,2.947c8.155,40.923,23.855,62.95,27.155,67.235c0.756,4.194,4.145,22.004,9.92,39.266
				c-2.165,2.898-4.403,5.782-6.948,8.769c-13.517,15.849-24.452,42.526-14.61,69.852c0.586,1.643,1.253,3.291,2.027,5.001
				c-0.374,0.75-0.744,1.487-1.109,2.211c-5.355,10.656-9.979,19.859-2.48,27.13c4.86,4.711,12.191,4.673,17.158,3.93
				c-0.863,5.713-2.156,15.371-2.633,24.696c-0.425,8.32-0.127,14.477,0.91,18.821c0.002,0.01,0.005,0.019,0.007,0.029
				c-3.566,5.354-7.388,12.112-11.064,19.502C332.86,695.12,335.405,696.792,337.925,698.497z M682.53,752.776l-18.212-88.99
				l28.996,66.054C693.256,730.415,682.53,752.776,682.53,752.776z M345.726,471.19l-0.585-0.711
				c-0.176-0.214-17.711-21.879-26.289-64.922c-0.124-0.615-0.241-1.234-0.354-1.858l-0.305-1.81
				c-1.769-10.482-2.418-22.104-2.425-33.776c0.89-6.697,2.146-13.601,3.81-20.235c4.523-18.044,5.674-41.754,1.784-54.48
				c0.191-2.611,0.159-4.034-0.097-4.985l-0.372-1.383l-1.241-0.717c-14.235-8.237-6.872-28.362-6.552-29.209l0.763-2.013
				l-1.463-1.579c-5.12-5.521-10.455-13.368-10.149-16.418l0.233-2.32l-2.06-1.092c-10.405-5.516-14.304-10.954-13.664-12.893
				c0.054-0.166,0.105-0.272,0.139-0.334c0.947-0.133,3.553,1.016,4.83,1.579c0.514,0.227,1.01,0.446,1.478,0.64
				c1.763,0.727,3.779,1.237,5.729,1.732c2.436,0.616,4.956,1.255,6.557,2.219c1.217,0.736,1.657,1.273,2.454,2.249
				c0.918,1.124,2.174,2.661,4.839,4.699c1.194,0.909,2.342,1.661,3.452,2.388c2.892,1.895,5.881,3.855,10.712,9.222
				c0.568,0.631,1.19,1.388,1.791,2.094c-0.228,4.341,1.705,6.801,4.536,14.437c3.658,9.851-1.739,23.067-0.564,26.857
				c1.163,3.801,11.823-0.158,14.184,9.178c2.35,9.335-2.371,15.833,0.503,23.874c1.584,4.451,8.578,13.162,15.156,21.229
				c2.606,5.268,5.5,10.887,8.809,17.005l0.372,0.679c1.708,3.142,3.489,6.359,5.149,9.299c3.776,6.712,7.601,13.702,11.282,20.613
				c5.364,14.32,9.753,28.734,7.725,32.506c-4.058,7.529-14.824-4.78-14.824-4.78s0,13.515,6.734,21.665
				c6.733,8.161,11.473,5.28,14.32,7.821c0.666,0.599,1.62,3.164,2.682,6.677c-9.577,2.081-19.821,7.823-28.638,20.091
				c-6.602,9.183-11.449,16.402-15.726,22.772c-2.206,3.285-4.245,6.285-6.271,9.206c-5.32-17.311-8.247-34.077-8.286-34.307
				L345.726,471.19z M259.883,252.992c0.412-5.545,4.865-11.703,6.453-12.144c3.333-0.924,8.741-3.229,12.056-5.137
				c1.989-1.146,2.677-1.457,3.122-1.412c0.2,0.02,0.351,0.111,0.549,0.232h0.001c0.612,0.373,0.718,1.412,0.727,1.998
				c0.036,2.381-1.23,4.73-1.764,5.078c-0.332,0.184-0.884,0.544-1.572,1.012c-3.139,0.038-7.988,3.425-8.041,3.463
				c-0.949,0.684-2.862,1.815-4.712,2.908c-2.029,1.199-3.945,2.331-5.064,3.14c-0.571,0.412-1.15,1.028-1.712,1.726
				C259.906,253.571,259.86,253.302,259.883,252.992z M272.997,135.988c0.686-6.126,4.438-12.53,9.936-17.448
				c-3.386,6.484-5.694,16.208-2.088,29.453c-1.437,0.304-2.866,0.623-4.249,1.006C273.698,145.07,272.469,140.713,272.997,135.988z
				 M306.48,110.631c2.522,0.254,4.844,0.731,6.922,1.16c0.048,0.01,0.087,0.017,0.135,0.026c-4.722,1.753-8.668,4.773-11.555,9.168
				c-2.765,4.21-4.839,10.409-5.924,17.271c-0.002-0.009-0.005-0.017-0.007-0.025c-0.701-3.127-1.09-6.365-1.035-9.668
				c0.06-3.299,0.56-6.668,1.728-9.979c-2.472,2.478-4.559,5.518-6.207,8.829c-1.653,3.316-2.881,6.905-3.734,10.608
				c-0.198,0.86-0.308,1.743-0.467,2.615c-1.369-9.435,0.942-16.239,3.857-20.823c3.91-6.152,8.963-8.693,11.185-9.299
				C303.151,110.419,304.861,110.468,306.48,110.631z M338.828,119.668l0.516,0.089c8.515,1.525,14.714,0.899,19.039-0.339
				c-1.116,1.801-2.781,3.654-5.262,5.15l0.028,0.049c-0.344,0.22-0.67,0.471-0.994,0.725c-1.152-0.223-2.332-0.329-3.513-0.233
				c-2.019,0.16-4.014,0.727-5.826,1.644c-1.816,0.91-3.457,2.161-4.805,3.666c-1.341,1.497-2.413,3.289-2.822,5.234
				c1.271-1.515,2.612-2.79,4.057-3.928c1.447-1.131,2.993-2.092,4.608-2.906c1.619-0.805,3.307-1.468,5.079-1.928
				c0.602-0.157,1.224-0.262,1.844-0.376c-0.425,0.431-0.815,0.922-1.206,1.41c-1.067,0.366-2.104,0.813-3.054,1.409
				c-1.543,0.958-2.908,2.193-4.015,3.624c-1.1,1.424-1.963,3.094-2.193,4.873c1.111-1.39,2.27-2.561,3.506-3.646
				c1.003-0.871,2.086-1.616,3.18-2.341c-1.701,3.104-3.113,6.666-4.489,10.199c-1.04,2.671-2.025,5.188-3.085,7.38
				c-3.345,2.914-8.252,3.833-13.61,1.499c-5.156-2.238-3.415-10.07-4.282-10.808c-0.866-0.75-2.588-0.261-5.168,1.583
				c-0.646-3.052,5.67-9.458,5.67-9.458s-4.958,0.884-8.232,4.552c4.372-9.974,11.227-14.545,20.277-18.221
				C335.716,118.989,337.344,119.391,338.828,119.668z M373.381,144.279l-0.614-0.057l-0.683,0.557
				c-0.336,0.128-0.652,0.245-0.945,0.353c-0.6,0.222-1.112,0.412-1.514,0.582c-3.043,1.281-4.83,3.534-6.34,6.412
				c-0.824,0.991-1.61,2.066-2.269,3.337c-3.155,6.08-8.274,10.974-13.049,7.496c-2.041-1.484-3.812-3.9-3.402-8.438
				c0.38-0.665,0.731-1.312,1.029-1.923c1.21-2.479,2.31-5.306,3.375-8.039c2.314-5.943,4.933-12.61,8.299-14.307
				c4.793-2.385,8.42-1.442,12.572-0.316c0.397,0.108,0.811,0.208,1.216,0.314c-0.563,0.261-1.086,0.582-1.673,0.803
				c-2.919,1.071-6.122,1.641-9.436,1.443c3.089,1.202,6.591,1.63,10.048,1.232c2.874-0.3,5.729-1.159,8.34-2.503
				c0.039-0.001,0.073,0.005,0.113,0.004c-1.18,1.028-2.412,2.001-3.741,2.851c-2.128,1.346-4.458,2.411-6.953,3.049
				c-0.616,0.215-1.256,0.276-1.895,0.406l-0.966,0.191l-0.978,0.083c-1.319,0.176-2.639,0.071-4.008,0.074
				c2.543,0.916,5.328,1.388,8.146,1.264c2.82-0.102,5.646-0.788,8.272-1.916c2.645-1.104,5.101-2.641,7.336-4.465
				c1.126-0.956,2.182-2.012,3.091-3.21c1.267-0.455,2.522-0.987,3.732-1.62C387.109,137.54,379.56,141.83,373.381,144.279z
				 M257.124,209.648c0.821,0.394,1.515,0.949,2.093,1.575c0.572,0.64,1.054,1.331,1.4,2.207c-0.938-0.109-1.726-0.424-2.465-0.733
				c-0.733-0.321-1.398-0.66-2.037-0.969c-0.64-0.311-1.259-0.597-1.94-0.873c-0.681-0.292-1.423-0.536-2.282-0.926
				C253.379,208.808,255.489,208.84,257.124,209.648z M332.399,111.116c-1.398-0.3-2.774-0.556-4.111-0.719
				c2.019-0.955,3.989-2.122,5.865-3.343C333.858,108.302,333.315,109.689,332.399,111.116z M330.325,117.712
				c-8.409,2.808-19.585,9.549-27.273,20.732c0.945-5.514,2.602-10.412,4.729-13.65C313.216,116.52,322.573,116.162,330.325,117.712
				z M304.429,153.639c23.38,2.352,42.089,14.82,46.943,29.758c-9.212-12.454-26.705-21.912-47.522-24.006
				c-20.817-2.094-39.844,3.689-51.352,14.059C260.231,159.779,281.048,151.287,304.429,153.639z M320.043,230.159
				c-1.055-0.692-2.053-1.346-3.047-2.102c-0.231-0.176-0.398-0.326-0.6-0.489l1.575-5.887c2.117,2.666,3.231,5.656,2.926,8.679
				c-0.01,0.105-0.055,0.212-0.07,0.317C320.565,230.503,320.3,230.327,320.043,230.159z M290.473,292.365
				c0.961,0.097,1.878,0.249,2.752,0.442c2.833,1.598,3.991,4.469,3.819,6.175c-0.172,1.711-1.195,3.232-3.789,3.692
				c-1.21-0.277-2.456-0.505-3.755-0.636c-5.205-0.523-9.971,0.341-13.743,2.13l0.609-6.051
				C276.703,294.759,282.58,291.571,290.473,292.365z M281.813,318.63c0.063-0.627,2.294-2.235,6.202-1.841
				c1.382,0.139,2.417,0.505,3.293,0.917c0.102,0.258,0.178,0.518,0.144,0.759c-0.062,0.432-0.616,0.8-1.282,1.092
				c-0.77-0.182-1.564-0.33-2.392-0.414c-2.176-0.219-4.219-0.01-6.065,0.477L281.813,318.63z M267.413,226.101
				c-0.002,0.003-0.509,0.157-1.922-0.545c-2.007-0.997-3.151-2.213-3.223-3.426c-0.066-1.113,0.741-2.359,2.105-3.253
				c0.498-0.326,0.984-0.383,1.374-0.343c0.311,0.031,0.562,0.124,0.707,0.19c0.332,0.151,1.12,0.619,1.268,1.699
				C268.285,224.532,267.617,225.951,267.413,226.101z M303.338,193.72c0.012-1.196,0.172-2.412,0.54-3.595
				c0.723-2.376,2.338-4.528,4.573-5.612c-0.416,1.184-0.897,2.213-1.294,3.243c-0.412,1.02-0.755,2.022-1.072,3.054l-0.951,3.186
				c-0.352,1.09-0.717,2.208-1.316,3.311C303.454,196.106,303.34,194.92,303.338,193.72z M311.491,194.902
				c0.107-1.077,0.361-2.158,0.811-3.188c0.887-2.068,2.602-3.847,4.783-4.481c-0.476,1.044-0.994,1.92-1.435,2.801
				c-0.455,0.869-0.847,1.722-1.228,2.602l-1.172,2.726c-0.433,0.932-0.885,1.89-1.566,2.814
				C311.416,197.062,311.397,195.984,311.491,194.902z M319.401,197.761c0.207-0.961,0.559-1.91,1.092-2.786
				c1.053-1.759,2.876-3.148,4.959-3.318c-0.55,0.901-1.11,1.626-1.599,2.359c-0.5,0.72-0.941,1.427-1.384,2.159
				c-0.441,0.732-0.885,1.491-1.383,2.27c-0.511,0.773-1.046,1.571-1.805,2.307C319.122,199.707,319.207,198.73,319.401,197.761z
				 M326.009,204.664c-0.032-0.986,0.165-1.868,0.468-2.727c0.314-0.85,0.769-1.667,1.388-2.387
				c1.224-1.449,3.154-2.422,5.083-2.129c-0.639,0.75-1.247,1.321-1.788,1.91c-0.549,0.574-1.04,1.137-1.542,1.725
				c-0.5,0.587-1.012,1.198-1.585,1.82C327.451,203.489,326.837,204.125,326.009,204.664z M267.218,190.807
				c1.948,0.098,3.645,1.436,4.557,3.099c0.463,0.829,0.746,1.72,0.885,2.617c0.126,0.902,0.143,1.806-0.085,2.765
				c-0.703-0.693-1.179-1.437-1.628-2.156c-0.437-0.723-0.818-1.425-1.191-2.099c-0.374-0.676-0.744-1.325-1.168-1.998
				C268.177,192.351,267.695,191.67,267.218,190.807z M275.713,186.654c2.007,0.581,3.517,2.305,4.199,4.239
				c0.347,0.965,0.503,1.965,0.515,2.948c-0.002,0.988-0.114,1.962-0.478,2.954c-0.597-0.872-0.963-1.761-1.309-2.62
				c-0.333-0.862-0.617-1.695-0.903-2.499c-0.288-0.805-0.58-1.586-0.926-2.392C276.477,188.467,276.072,187.646,275.713,186.654z
				 M286.932,192.715l-0.605-2.905c-0.198-0.939-0.412-1.853-0.685-2.795c-0.257-0.951-0.59-1.913-0.848-3.031
				c2.01,1.056,3.337,3.14,3.794,5.343c0.235,1.099,0.269,2.209,0.16,3.286c-0.124,1.079-0.356,2.131-0.841,3.171
				C287.422,194.745,287.171,193.714,286.932,192.715z M295.157,192.991l-0.297-3.311c-0.105-1.074-0.241-2.125-0.442-3.207
				c-0.184-1.088-0.45-2.193-0.621-3.435c1.975,1.507,3.129,3.938,3.364,6.41c0.124,1.233,0.04,2.456-0.187,3.631
				c-0.241,1.176-0.59,2.315-1.186,3.42C295.419,195.298,295.284,194.129,295.157,192.991z M264.824,198.151
				c0.581,0.69,0.997,1.473,1.273,2.283c0.265,0.82,0.424,1.657,0.358,2.596c-0.798-0.502-1.38-1.103-1.929-1.681
				c-0.537-0.585-1.012-1.16-1.47-1.71c-0.459-0.551-0.91-1.073-1.413-1.615c-0.497-0.554-1.061-1.095-1.667-1.815
				C261.802,195.842,263.675,196.762,264.824,198.151z M299.229,205.325c-12.347-1.242-23.533,3.047-29.233,10.256
				c-0.486-0.419-1.019-0.79-1.623-1.065c-0.854-0.389-1.757-0.543-2.658-0.565c3.568-9.16,17.769-15.011,33.993-13.379
				c18.094,1.82,31.914,12.257,30.806,23.265c-0.241,2.395-1.203,4.608-2.694,6.609
				C328.605,218.207,315.961,207.008,299.229,205.325z M331.262,209.55c0.122-0.934,0.445-1.723,0.868-2.473
				c0.432-0.739,0.995-1.424,1.703-1.984c1.403-1.132,3.422-1.661,5.138-0.936c-0.738,0.585-1.399,1.002-1.996,1.447
				c-0.601,0.43-1.147,0.852-1.706,1.301c-0.559,0.447-1.139,0.915-1.782,1.382C332.834,208.744,332.144,209.217,331.262,209.55z
				 M254.648,202.625c1.659-0.781,3.671-0.302,5.067,0.8c0.701,0.546,1.255,1.218,1.678,1.94c0.414,0.734,0.73,1.503,0.857,2.421
				c-0.877-0.305-1.563-0.762-2.207-1.203c-0.635-0.452-1.204-0.905-1.75-1.335c-0.549-0.427-1.079-0.831-1.67-1.241
				C256.038,203.582,255.386,203.186,254.648,202.625z M277.387,217.808l0.242,3.968c-1.278,0.138-2.56,0.73-4.124,1.588
				C274.196,221.294,275.539,219.416,277.387,217.808z M294.91,268.573c-0.667-0.101-1.333-0.203-2.017-0.272
				c-1.16-0.117-2.299-0.166-3.426-0.184l2.83-27.913c1.958,1.239,3.801,3.783,4.76,6.854L294.91,268.573z M281.875,255.683
				c3.46-2.787,3.535-5.832,3.216-7.494c-0.123-0.621-0.341-1.224-0.626-1.795c0.692-1.327,1.357-2.716,2.009-4.251
				c0.568-1.336,1.33-2.122,2.184-2.497l0.103,28.472c-2.63,0.005-5.148,0.269-7.508,0.769L281.875,255.683z M279.795,257.266
				l0.719,11.784c-2.476,0.585-4.76,1.425-6.791,2.495l-0.131-8.739C275.04,260.975,277.138,259.233,279.795,257.266z
				 M305.917,256.676c-1.162,3.749-2.025,8.661-1.848,13.756l-0.103,0.665c-2.544-1.083-5.339-1.921-8.345-2.428l3.559-17.188
				c0.774-0.24,1.721-0.156,2.727,0.199C303.388,253.685,304.841,255.443,305.917,256.676z M284.009,214.128
				c-0.057,0.025-0.122,0.072-0.18,0.1l0.008-0.18c1.478-0.567,3.058-1.023,4.724-1.354l0.003,0.971
				C287.03,213.422,285.483,213.473,284.009,214.128z M295.149,212.071c1.116,0.004,2.243,0.042,3.386,0.157
				c0.667,0.067,1.322,0.164,1.974,0.267l-0.501,5.019c-1.546-0.394-3.008-0.781-4.149-1.252c-0.344-0.142-0.714-0.306-1.087-0.471
				L295.149,212.071z M306.907,214.158c1.979,0.728,3.808,1.622,5.456,2.648l-0.878,5.675c-0.627-0.58-1.377-1.175-2.406-1.796
				c-0.996-0.599-2.091-1.061-3.219-1.472L306.907,214.158z M341.738,219.663c-0.723,0.135-1.386,0.293-2.075,0.47
				c-0.687,0.176-1.406,0.375-2.189,0.544c-0.787,0.155-1.621,0.307-2.562,0.227c0.514-0.79,1.124-1.37,1.812-1.883
				c0.691-0.499,1.481-0.904,2.364-1.126c1.763-0.466,3.836-0.078,5.071,1.317C343.239,219.422,342.463,219.513,341.738,219.663z
				 M340.701,212.465c-0.66,0.285-1.26,0.574-1.883,0.883c-0.621,0.312-1.268,0.644-1.98,0.959c-0.72,0.304-1.483,0.615-2.403,0.74
				c0.308-0.875,0.77-1.565,1.322-2.202c0.559-0.624,1.235-1.171,2.031-1.566c1.587-0.802,3.655-0.87,5.125,0.225
				C342.078,211.908,341.36,212.166,340.701,212.465z M303.156,166.294c23.482,2.362,42.269,14.684,47.056,29.372
				c-9.268-11.753-26.845-20.753-47.711-22.853c-20.868-2.099-39.885,3.22-51.309,12.892
				C258.807,172.265,279.672,163.932,303.156,166.294z M292.084,276.354c6.684,0.673,11.901,3.253,14.914,6.282
				c0.704,1.398,1.559,2.739,2.574,4.008c0.16,0.537,0.207,1.061,0.214,1.582c-4.405-3.734-10.789-6.388-18.18-7.131
				c-7.39-0.744-14.176,0.585-19.236,3.367C273.405,279.679,281.408,275.28,292.084,276.354z M265.326,231.645
				c2.858-0.75,7.495-2.63,10.335-4.191c1.391-0.764,2.224-1.146,2.475-1.133c0.001,0,0.097,0.016,0.378,0.18
				c0.337,0.198,0.417,0.811,0.435,1.16c0.053,1.038-0.274,2.075-0.625,2.834c-0.699,0.333-1.435,0.745-2.239,1.208
				c-3.292,1.895-8.337,3.954-10.984,4.689c-1.567,0.435-3.266,1.896-4.805,3.896C260.976,236.259,264.134,232.008,265.326,231.645z
				 M264.344,255.88c0.95-0.684,2.862-1.815,4.711-2.908c2.028-1.199,3.945-2.332,5.064-3.14c1.674-1.208,4.162-2.359,5.125-2.588
				c0.564,0.337,1.151,1.045,1.314,1.866c0.064,0.332,0.039,0.652-0.044,0.957c-0.007,0.022-0.016,0.042-0.023,0.065
				c-0.069,0.228-0.189,0.442-0.316,0.651c-0.131,0.193-0.267,0.384-0.51,0.505c-5.619,2.806-12.866,6.169-13.912,8.427
				c-0.705,1.522-1.212,6.169-0.684,9.817c-0.616-0.393-1.204-0.912-1.684-1.626C259.217,261.671,263.402,256.56,264.344,255.88z
				 M366.203,501.07c4.248-6.327,9.063-13.497,15.598-22.591c15.553-21.639,35.918-19.871,45.826-15.298
				c0.159,0.261,0.464,0.931,0.613,2.081c-0.095,0.048-0.189,0.092-0.285,0.14c-1.183,0.614-2.33,1.277-3.44,1.983
				c-2.214,1.413-4.283,3.049-5.988,4.913c2.361-0.906,4.765-1.395,7.169-1.651c0.842-0.088,1.68-0.116,2.517-0.151l-0.001,0.027
				l3.531,0.047c0.666,0.02,1.976,0.641,3.465,2.402c1.983,2.343,2.809,4.937,2.698,5.657l-0.674,3.058l2.975,0.983
				c1.51,0.499,2.612,1.421,3.19,2.666c0.291,0.629,0.418,1.333,0.433,2.077c-20.788-4.51-51.542,15.406-67.847,32.184
				c-13.215,13.598-34.006,53.042-42.2,69.099c-8.217-24.196,1.586-47.834,13.673-62.007
				C354.737,518.147,359.797,510.611,366.203,501.07z M592.347,359.594c22.766,7.905,41.746,22.21,53.444,40.278
				c1.823,2.816,3.356,5.68,4.753,8.558c-11.848-19.804-32.582-36.689-58.7-45.769c-23.795-8.273-48.797-8.941-70.405-1.882
				c-4.488,1.466-8.66,3.303-12.628,5.344C530.228,352.304,561.573,348.898,592.347,359.594z M575.788,543.062
				c-6.661-0.733-14.947-1.646-24.444-0.363c-7.645,1.033-16.803,3.846-23.433,6.139l2.275-22.609
				c6.029,2.163,13.387,3.309,22.247,2.154c17.605-2.296,28.832-16.983,39.943-6.254c4.339,4.192,0.09,12.436-14.502,21.151
				C577.18,543.206,576.532,543.143,575.788,543.062z M497.764,554.881c-1.567,2.099-3.609,3.893-5.022,4.722
				c-0.479,0.129-0.962,0.259-1.444,0.388c-0.835-0.622-0.593-5.914-0.728-8.685c-3.801,7.462-6.866,10.494-8.304,10.35
				c-1.438-0.145-0.543-6.156-1.092-9.262c-7.052,12.007-21.046,15.194-27.21,16.004c10.703-9.212,27.294-24.936,29.089-35.232
				c0.197,0.093,0.402,0.166,0.597,0.265c2.976,1.509,4.571,3.557,6.778,6.391c1.346,1.727,2.872,3.686,4.956,5.831
				c3.184,3.261,9.433,6.622,14.735,9.112c-3.726,1.077-7.653,2.18-11.737,3.301C498.005,557.023,497.718,555.877,497.764,554.881z
				 M424.185,508.946c2.044-2.779,6.981-6.287,18.97-6.14c-4.477-3.205-12.314-5.004-21.519-3.606
				c1.058-0.795,2.104-2.017,3.375-3.301c7.443-2.37,14.38-3.021,19.824-0.958c3.593,2.319,8.707,13.604,7.404,17.772
				C441.811,506.94,431.156,506.053,424.185,508.946z M384.457,521.746c2.099,2.245-14.81,20.148-20.713,35.394
				c-5.88,15.248-12.694,39.548-13.968,39.268c-0.852-0.189,0.14-15.122,2.207-27.223c9.296-16.914,20.86-36.405,28.973-44.752
				c0.876-0.902,1.816-1.814,2.777-2.728C384.066,521.611,384.324,521.604,384.457,521.746z M331.421,609.112
				c0.887-1.985,1.992-4.217,3.262-6.743c0.609-1.211,1.235-2.46,1.866-3.745h0c0.081-0.165,2.465-4.978,6.186-12.131
				c-0.145,1.54-0.301,3.091-0.569,4.699c-2.613,15.809-5.828,30.442-9.921,29.309C329.86,619.842,330.04,614.792,331.421,609.112z
				 M350.603,647.914c0,0,0.516-35.973,9.769-60.608c0.53-1.41,1.108-2.872,1.719-4.37c-2.281,20.612-3.021,46.385-3.228,55.95
				C353.619,645.156,350.603,647.914,350.603,647.914z M483.032,425.748c5.864-11.76,15.591-21.279,28.184-27.745
				c-2.763,6.905-13.155,12.872-19.391,24.146c-6.074,10.971-7.95,23.034-4.143,32.375
				C482.609,446.988,482.171,435.46,483.032,425.748z M631.7,540.12c-2.485-0.202-4.841-0.347-6.913-0.377
				c-1.965-0.029-3.847-0.002-5.689,0.049c-9.703-22.395-9.084-54.075-4.679-62.979c-0.61,11.329,2.912,25.263,7.314,37.83
				c0-0.001-0.001-0.003-0.001-0.004c-2.102-14.067-3.267-21.742,0.081-36.135c-0.369,7.989,6.853,44.438,26.01,63.641
				c-4.054-0.653-7.909-1.183-11.5-1.579c-3.81-5.495-8.699-12.957-11.735-19.162C626.093,527.702,629.166,534.836,631.7,540.12z
				 M516.54,550.047c-0.919-0.403-1.871-0.833-2.868-1.296c1.22-7.948,3.299-17.178,6.288-22.894
				c0.874,0.552,1.761,1.044,2.656,1.492C520.939,533.749,518.869,541.522,516.54,550.047z M489.38,465.636
				c0.883,0.542,1.768,1.028,2.641,1.424c0.129,0.06,0.258,0.119,0.388,0.177c-0.328,8.217,1.856,18.675,5.672,28.55
				C491.314,487.643,488.083,475.579,489.38,465.636z M514.423,521.557c-3.448,6.094-5.789,15.459-7.216,23.948
				c-1.379-0.759-2.636-1.526-3.776-2.288c1.513-7.207,4.194-15.899,8.912-23.725C513.029,520.213,513.72,520.907,514.423,521.557z
				 M537.156,485.255c-6.086-0.031-4.929,4.292-12.662,7.581c-7.745,3.288-9.632,0.333-11.426,2.337
				c-1.794,2.004-1.182,13.245,9.236,20.824c0,0-2.071-0.278-4.776-1.209c-0.002-0.002-0.004-0.003-0.005-0.004
				c-0.186-0.14-0.344-0.316-0.526-0.461c-1.149-1.24-2.283-2.557-3.376-4.035c-0.075-0.106-0.15-0.204-0.228-0.301
				c-0.295-0.403-0.587-0.813-0.875-1.229l0.018-0.184l-0.795-0.973c-3.803-5.805-6.708-12.382-8.781-18.807
				c-2.652-11.433-2.315-22.273-0.594-24.911c-4.364-6.633,0.685-16.398,6.112-18.362c2.042-14.518-7.529-11.797-11.14-6.745
				c4.964-3.138,7.733,2.138,7.733,2.138s-5.941,0.782-8.853,8.987c-0.789,2.225-1.993,5.651-2.437,10.241
				c-0.019-0.01-0.039-0.021-0.058-0.031c-3.635-8.184-4.422-17.751,4.069-31.399c12.683-20.374,16.035-21.001,16.353-26.013
				c3.408,6.549,53.266,13.447,53.266,13.447s-3.851,5.47-13.036,4.359c-9.184-1.121-8.979-6.051-21.305,0.03
				c-12.324,6.07-8.894,9.517-9.508,10.769c-0.613,1.24-6.645,3.445-7.385,12.76c3.872,1.935,7.021,1.485,7.156,0.139
				c0.135-1.346-4.027-5.251,1.535-8.561c5.563-3.31,3.677,1.915,11.589,3.2c-2.884-3.103-4.229-7.979,4.892-10.165
				c9.132-2.172,11.125,1.119,8.764,5.298c4.447,1.075,10.409-2.392,13.862-4.95c3.453-2.558,10.749-4.729,16.969,1.707
				c6.232,6.437,13.151,12.746,14.486,16.808c1.336,4.051-16.163,29.205-27.764,33.394
				C556.066,485.112,543.265,485.289,537.156,485.255z M643.48,493.573c-1.849-1.832-10.095-6.028-12.638,1.44
				c-2.638-13.242-3.363-19.513,1.46-20.287C637.125,473.953,639.105,482.19,643.48,493.573z M636.097,498.533
				c-1.818-0.183-3.465,1.058-3.804,2.813c-0.348-0.697-0.511-1.504-0.427-2.344c0.241-2.393,2.368-4.131,4.761-3.89
				c2.393,0.241,4.132,2.368,3.891,4.76c-0.106,1.059-0.583,1.987-1.291,2.671c0.017-0.057,0.022-0.103,0.028-0.16
				C639.449,500.45,638.03,498.727,636.097,498.533z M561.514,407.277c-8.697-3.582-40.733-4.463-47.117-10.814
				c19.746-9.006,43.849-9.751,66.37-1.928c30.11,10.47,52.111,34.072,57.367,60.979c-3.485-3.744-5.973-6.653-6.675-8.022
				c-3.403-6.606-8.507-10.013-12.61-9.659c-4.104,0.366-6.117,5.009-10.856,3.951c-4.728-1.056-18.733-17.585-16.458-21.027
				c2.288-3.454,15.265-1.567,19.796-4.214C597.692,417.308,570.264,410.865,561.514,407.277z M604.025,467.979
				c2.564-1.417,3.278-3.708,7.564-2.987c5.607,2.985,5.878-0.668,4.526-2.631c-1.352-1.964-6.024-9.431,0.141-9.101
				c6.165,0.329,5.141,13.397,2.243,17.173c6.838-3.461,6.949-12.278,4.057-18.185c-2.892-5.907-10.585,0.291-11.513-2.998
				s7.693-7.167,14.727-0.068c7.033,7.099,1.128,21.516-2.424,24.097c-3.552,2.581-10.227,0.584-12.643,0.535
				c-2.416-0.049-8.067,7.032-10.893,3.359C596.982,473.498,601.462,469.397,604.025,467.979z M651.032,451.228
				c-0.668,0.513-1.454,0.632-2.32,0.449c1.209-2.434,2.487-4.662,3.653-6.033c1.251-1.466,1.067-3.681-0.4-4.921
				c-1.478-1.253-3.68-1.079-4.933,0.398c-1.316,1.543-2.622,3.711-3.842,6.02c-0.153-0.509-0.338-1.009-0.502-1.515
				c-0.08-0.246-0.132-0.497-0.215-0.743c-0.076-0.225-0.175-0.445-0.253-0.67c-0.384-1.113-0.785-2.22-1.22-3.317
				c1.537-4.047,3.496-8.56,5.265-10.869c1.204-1.576,0.909-3.837-0.667-5.041c-1.575-1.204-3.825-0.908-5.04,0.666
				c-1.276,1.668-2.522,3.997-3.667,6.458c-0.924-1.693-1.915-3.356-2.961-4.994c1.365-4.104,3.099-8.609,4.739-10.985
				c1.156-1.674,0.748-3.969-0.936-5.138c-1.673-1.156-3.97-0.736-5.138,0.935c-1.395,2.024-2.72,4.923-3.886,7.904
				c-1.187-1.494-2.418-2.959-3.709-4.388c1.214-4.271,2.804-9.007,4.38-11.521c1.109-1.782,0.577-4.114-1.195-5.222
				c-1.77-1.119-4.114-0.576-5.222,1.195c-1.519,2.409-2.893,5.938-4.026,9.446c-0.11-0.101-0.223-0.207-0.332-0.307
				c-0.87-0.795-1.748-1.582-2.653-2.349c-0.1-0.085-0.203-0.18-0.303-0.264c-0.106-0.09-0.227-0.167-0.334-0.257
				c-0.352-0.293-0.708-0.581-1.064-0.87c1.052-4.423,2.462-9.332,3.972-11.988c1.058-1.858,0.403-4.236-1.466-5.296
				c-1.869-1.06-4.236-0.403-5.296,1.466c-1.562,2.751-2.903,6.838-3.963,10.771c-1.214-0.824-2.469-1.602-3.727-2.38
				c-0.404-0.249-0.784-0.53-1.192-0.772c-0.13-0.078-0.268-0.14-0.398-0.217c-0.24-0.142-0.466-0.3-0.708-0.44
				c0.896-4.505,2.118-9.456,3.518-12.192c1.01-1.955,0.241-4.357-1.727-5.357c-1.955-1.01-4.345-0.24-5.356,1.716
				c-1.574,3.073-2.83,7.68-3.769,11.984c-2.019-0.969-4.081-1.877-6.184-2.726c-0.261-0.105-0.519-0.242-0.779-0.344
				c-0.244-0.098-0.519-0.2-0.773-0.299c0.742-4.627,1.799-9.711,3.115-12.55c0.949-2.043,0.066-4.468-1.977-5.417
				c-2.055-0.95-4.468-0.066-5.417,1.977c-1.595,3.425-2.752,8.634-3.549,13.326c-1.524-0.461-3.075-0.891-4.651-1.284
				c-0.206-0.051-0.412-0.091-0.619-0.141c-1.199-0.292-2.402-0.576-3.615-0.825c1.242-4.813,2.431-10.59,2.307-14.734
				c-0.065-2.238-1.934-3.994-4.16-3.928c-2.237,0.065-3.994,1.934-3.928,4.16c0.095,3.283-1.046,8.593-2.254,13.191
				c-0.16-0.019-0.326-0.06-0.486-0.079c-1.986-0.252-3.916-0.399-5.801-0.511c-0.147-0.009-0.295-0.037-0.442-0.046
				c0.992-4.688,1.881-10.181,1.613-14.145c-0.153-2.177-2.033-3.818-4.22-3.678c-2.177,0.153-3.82,2.045-3.667,4.221
				c0.227,3.326-0.75,8.824-1.794,13.479c-0.308,0.008-0.627-0.02-0.932-0.01c-1.725,0.058-3.522,0.178-5.43,0.342
				c0.694-4.363,1.212-9.232,0.825-12.783c-0.24-2.116-2.143-3.644-4.258-3.415c-2.116,0.241-3.644,2.144-3.404,4.26
				c0.348,3.192-0.354,8.48-1.172,13.023c-0.444,0.08-0.911,0.145-1.345,0.23c-0.894,0.168-1.766,0.4-2.654,0.597
				c-0.58,0.129-1.162,0.248-1.738,0.388c0.371-3.803,0.526-7.798,0.066-10.79c-0.316-2.054-2.244-3.457-4.286-3.139
				c-2.054,0.316-3.455,2.232-3.139,4.286c0.447,2.907,0.075,7.652-0.473,11.921c-0.325,0.112-0.636,0.252-0.959,0.368
				c-0.265,0.095-0.538,0.154-0.801,0.251c-1.149,0.424-2.172,0.866-3.218,1.305c0.072-2.962-0.029-5.884-0.487-8.179
				c-0.405-1.981-2.321-3.267-4.313-2.874c-1.98,0.393-3.267,2.321-2.874,4.313c0.507,2.527,0.434,6.505,0.168,10.323
				c-0.258,0.141-0.517,0.28-0.773,0.423c-0.361,0.202-0.733,0.391-1.09,0.596c-0.075,0.044-0.157,0.083-0.232,0.127
				c-0.825,0.478-1.601,0.998-2.399,1.504c-0.129-1.95-0.349-3.802-0.731-5.336c-0.469-1.918-2.41-3.078-4.316-2.607
				c-1.908,0.482-3.078,2.41-2.596,4.318c0.523,2.118,0.661,5.331,0.638,8.589c-0.463,0.374-0.89,0.78-1.342,1.164
				c-0.355,0.301-0.729,0.582-1.077,0.889c-0.368,0.325-0.738,0.704-1.103,1.04c-0.114,0.106-0.236,0.203-0.349,0.309
				c-0.165-0.913-0.338-1.813-0.571-2.59c-0.547-1.833-2.488-2.877-4.321-2.329c-0.826,0.247-1.458,0.8-1.89,1.474
				c6.973-15.164,20.744-26.791,39.311-32.856c20.17-6.591,43.601-5.938,65.971,1.84c37.36,12.989,62.924,42.742,64.852,72.976
				C653.838,446.391,652.769,449.892,651.032,451.228z M568.114,501.252c3.44-1.079,6.777-1.835,9.869-3.122
				c1.526-0.62,3.104-1.372,4.652-2.132c1.547-0.758,3.061-1.559,4.544-2.402c2.951-1.716,5.631-3.766,7.911-6.583
				c-0.495,1.74-1.371,3.38-2.471,4.877c-1.126,1.472-2.461,2.786-3.903,3.926c-1.425,1.169-2.965,2.159-4.529,3.078
				c-1.568,0.909-3.163,1.726-4.906,2.453c-3.461,1.422-7.109,2.017-10.546,2.535c-3.449,0.532-6.738,1.215-10.043,2.709
				C561.14,503.902,564.691,502.274,568.114,501.252z M657.866,528.65l-0.21,2.09L657.866,528.65z M655.143,528.388l-0.285,0.305
				l-11.039-0.471l-8.574-20.177c4.687,2.505,10.125-1.015,10.125-1.015l10.367,20.683
				C655.471,528.026,655.255,528.268,655.143,528.388z M504.764,509.478c0.215,0.352,0.408,0.736,0.626,1.081l-0.023,0.276
				l0.828,0.967c0.476,0.713,0.966,1.404,1.461,2.086c-5.064,7.705-8.178,16.238-10.089,23.764c-0.577-0.708-1.135-1.41-1.667-2.093
				c-2.445-3.14-4.755-6.105-9.102-8.31c-0.049-0.025-0.098-0.05-0.147-0.075l0.013-0.13l-2.454-0.958
				c-3.446-1.346-6.649-1.856-8.563-2.05c-1.265-1.472-3.578-3.465-7.32-4.411c-1.333-0.345-2.754-0.526-4.255-0.54
				c-0.673-2.438-2.507-4.618-4.774-6.25c0.213-1.938-0.007-4.109-0.501-6.335l30.326-11.417
				C492.905,501.387,498.186,506.579,504.764,509.478z M400.649,586.718c-3.782,2.497-7.807,9.252-13.378,18.602
				c-0.252,0.423-0.526,0.877-0.782,1.306c-7.954,8.576-16.774,18.356-21.194,24.173c-0.155,0.205-0.302,0.392-0.455,0.593
				c0.642-20.877,2.421-53.718,6.215-67.409c11.285-21.024,27.771-43.028,45.929-49.377l0.084-0.034
				c-3.527,4.601-4.145,9.449-7.537,13.474c-4.289,5.089-12.607,15.582-11.939,26.259c3.361-6.495,14.085-7.16,21.335-9.916
				c7.25-2.757,25.242-14.113,28.736-19.968c-6.177,3.644-19.578,5.979-19.578,5.979s5.52-6.812,7.524-11.259
				c-4.374,3.046-16.059,7.495-16.059,7.495s2.044-12.577,12.951-13.223c9.462-0.56,17.858,3.774,24.852,7.697
				c-0.003,0.095,0.01,0.194-0.03,0.278l-2.827,6.023l6.557-1.131c2.108-0.363,3.969-0.344,5.555,0.067
				c2.982,0.753,4.109,2.633,4.119,2.646l0.968,1.831l1.402,0.021c-4.895,10.289-31.16,34.678-43.164,45.51
				C415.587,580.422,404.841,583.951,400.649,586.718z M634.477,554.426c-13.63,4.089-16.201,3.37-21.624,0.689
				c-2.679-1.325-4.22-4.107-3.927-5.775c0.282-1.604,2.674-2.128,4.148-2.302c3.576-0.266,7.42-0.419,11.608-0.358
				c10.707,0.158,28.302,2.954,45.653,7.082C655.547,552.568,641.234,552.399,634.477,554.426z M777.215,659.165
				c-2.086,0.522-15.4-15.925-21.68-22.809c-5.148-5.643-11.476-9.986-16.91-11.719c0.003-0.187,0.004-0.367,0.017-0.576
				c0.429-7.013,5.117-7.544,8.608-7.333c3.839,0.224,8.368,2.325,13.43,6.226l0.347,0.274c1.178,0.92,2.344,1.918,3.501,2.953
				c-0.885,2.617-3.329,5.193-5.907,6.999C763.004,638.712,779.301,658.643,777.215,659.165z M745.444,686.731
				c-12.41-13.501-21.719-29.829-21.192-37.967c0.146-2.252,1.064-2.924,1.358-3.14l0.261-0.194c0.305-0.227,0.618-0.46,0.947-0.632
				l0.171-0.075c0.427-0.189,0.834-0.216,1.353-0.093l2.262,0.536c1.26,0.795,2.446,1.753,3.321,2.477
				c3.596,2.975,6.007,5.893,8.028,10.686c2.815,6.675-8.035,8.101-8.035,8.101S739.27,677.53,745.444,686.731z M765.641,618.03
				l-0.351-0.281c-2.398-1.877-4.703-3.401-6.936-4.609l1.003-2.302l1.325-2.418c2.547,1.83,7.217,6.257,12.911,16.486l-0.107,0.235
				C770.965,622.602,768.343,620.168,765.641,618.03z M766.993,591.521c6.414,2.754,13.399,9.285,20.797,16.198l0.785,0.734
				c0.462,0.431,0.849,0.864,1.295,1.295c-2.44,5.071-8.4,8.741-8.4,8.741s8.8,14.723,9.823,29.531l-1.306-3.506
				c-3.141-8.436-6.474-15.907-9.926-22.242l-0.191-0.338l0.001,0l-0.095-0.184c-10.308-18.62-18.348-21.046-19.854-21.344
				l-2.493-0.492l-1.495,2.729c-2.256-4.331-2.448-8.17-0.466-10.45C757.632,589.702,762.155,589.439,766.993,591.521z
				 M806.114,555.942l-1.36,3.094l-15.369-4.196l1.354-3.236L806.114,555.942z M800.944,565.186l-14.563,31.796
				c-5.405-4.864-10.667-9.069-15.974-11.505l11.149-25.585L800.944,565.186z M765.417,682.533
				c-1.784,0.401-12.912-17.429-16.811-23.492c-3.301-5.136-6.975-11.256-15.639-17.765l-0.675-1.468
				c-0.466-1.016-0.816-1.985-1.039-2.879l-0.134-0.523c-0.358-1.71-0.212-3.056,0.435-4.005c1.029-1.51,3.301-2.095,4.061-2.19
				l3.513-0.392c0.755,0.116,1.62,0.324,2.612,0.633c1.286,0.401,2.505,1.522,3.659,2.701c3.968,4.051,6.203,10.653,0.515,13.718
				C752.712,654.376,767.2,682.132,765.417,682.533z M483.368,460.341c-1.27,4.917-1.517,10.451-0.746,16.055l-27.873,20
				c-1.331-2.287-2.809-4.33-4.309-5.797c0.642-2.876,0.394-5.709-0.748-8.175c-1.037-2.242-2.757-4.068-4.957-5.306
				c-0.446-2.951-2.159-6.029-3.823-8.128c-1.761-2.222-3.741-3.803-5.78-4.648c-0.038-0.302-0.131-0.527-0.184-0.81l46.688-5.579
				C482.19,458.811,482.768,459.606,483.368,460.341z"/>
		</g>
		<g>
			<path fill="#285662" d="M425.687,685.102c-5.74,7.887-18.521,22.624-32.758,44.726c4.263,2.009,8.554,3.965,12.897,5.831
				c1.934-3.231,3.887-6.415,5.858-9.55c35.048-55.741,36.467-51.412,61.213-73.252c16.154-14.257,20.644-51.186,47.682-67.737
				C494.051,597.559,440.858,664.257,425.687,685.102z"/>
		</g>
		<g>
			<path fill="#285662" d="M481.061,609.646c5.796-5.291,11.763-10.403,17.709-15.68c-7.034,3.701-13.698,8.081-20.01,12.917
				c-6.32,4.827-12.335,10.072-17.959,15.711c-5.636,5.627-10.881,11.651-15.645,18.03c-4.77,6.37-9.093,13.078-12.668,20.177
				c5.18-6.034,10.239-12.037,15.459-17.888c5.206-5.859,10.612-11.512,16.127-17.052
				C469.602,620.329,475.257,614.924,481.061,609.646z"/>
		</g>
		<g>
			<path fill="#285662" d="M533.322,570.482c-5.502,2.804-10.83,6.016-15.569,9.996c5.723-2.322,11.334-4.595,17.021-6.676
				c5.672-2.103,11.372-4.071,17.112-5.9c5.742-1.824,11.52-3.52,17.364-4.999c5.85-1.49,11.732-2.742,17.844-3.63
				c-6.108-1.055-12.402-0.745-18.534,0.06c-6.143,0.846-12.188,2.286-18.079,4.165C544.59,565.38,538.843,567.704,533.322,570.482z
				"/>
		</g>
		<g>
			<path fill="#285662" d="M618.262,723.068c-0.233-0.171-0.463-0.385-0.695-0.56C617.83,722.769,618.07,722.974,618.262,723.068z"
				/>
		</g>
		<g>
			<path fill="#285662" d="M539.685,582.097c-2.149,2.652-3.784,5.526-5.482,8.22c-1.693,2.703-3.453,5.281-5.522,7.667
				c-2.048,2.412-4.384,4.592-6.801,6.925c3.161-1.082,6.121-2.796,8.726-4.992c2.607-2.198,4.768-4.919,6.536-7.759
				c1.781-2.845,3.187-5.782,4.773-8.506c1.565-2.743,3.419-5.249,5.907-7.509C544.598,577.132,541.817,579.466,539.685,582.097z"/>
		</g>
		<g>
			<path fill="#285662" d="M439.268,748.31c2.111-3.478,4.999-6.441,8.503-8.596c19.617-12.066,62.139-37.781,71.946-46.508
				c9.07-8.073,18.293-34.175,21.628-44.317c2.237,2.732,4.087,5.477,4.33,7.32c0.275,2.09-4.372,50.599-8.437,111.668
				c5.995,0.456,12.028,0.777,18.093,0.977c-1.625-50.845,2.846-95.408,2.846-95.408l9.197,12.546c0,0-0.659,41.139-1.163,83.09
				c0.993,0.007,1.974,0.062,2.969,0.062c5.431,0,10.827-0.141,16.207-0.348c0.364-3,1.463-6.177,3.675-9.595
				c-0.473,3.164-0.247,6.301,0.465,9.428c7.165-0.346,14.279-0.88,21.342-1.584c-13.77-12.615-24.199-13.81-28.997-8.566
				c-0.553-14.721,4.875-48.457,4.875-48.457c8.941,6.419,14.537,28.771,15.478,42.521c2.73,1.919,8.369,6.896,13.544,13.998
				c5.858-0.654,11.674-1.441,17.454-2.338c2.564-3.907,5.586-10.251,6.298-19.436c-3.037,5.121-8.138,11.581-11.149,12.638
				c-8.492-17.705-97.384-134.804-101.723-133.032c-3.877-0.39-24.107,15.877-21.781,21.632c2.326,5.754,27.667-6.444,27.667-6.444
				s3.828,3.574,7.356,7.611c-6.039,4.768-14.259,8.119-19.438,6.598c-0.495,9.731-4.439,32.576-14.156,40.605
				c-9.09,7.51-61.735,37.835-79.285,49.672C431.067,745.527,435.151,746.952,439.268,748.31z"/>
		</g>
		<g>
			<path fill="#285662" d="M461.229,531.068c-15.518,1.199-21.386,26.32-21.386,26.32
				C441.313,551.434,470.254,530.371,461.229,531.068z"/>
		</g>
		<g>
			<path fill="#285662" d="M441.541,540.505c-7.217,2.915-21.024,11.165-21.024,11.165s2.921,13.315-10.24,24.774
				C423.262,570.585,441.541,540.505,441.541,540.505z"/>
		</g>
		<g>
			<path fill="#285662" d="M414.676,554.856c-4.283-3.627-11.492,1.604-18.013,6.032c7.49-2.006,12.757,5.786,12.757,5.786
				S418.96,558.482,414.676,554.856z"/>
		</g>
		<g>
			<path fill="#285662" d="M390.321,569.546c1.943,0.196,4.023,4.036,7.374,3.938c-4.628-4.533-7.252-17.435-4.933-24.607
				c-10.632,6.052-8.557,24.412-6.129,28.433C385.7,574.311,388.378,569.351,390.321,569.546z"/>
		</g>
		<g>
			<path fill="#285662" d="M383.71,583.989c-4.443-0.593-7.59-5.412-8.042-11.026c-2.772,1.561-3.976,26.522-2.864,42.903
				c1.198-6.126,20.054-33.281,25.076-35.56C395.294,580.021,388.154,584.581,383.71,583.989z"/>
		</g>
		<g>
			<path fill="#285662" d="M382.825,500.858c0.725,2.584,20.299-18.876,41.871-19.611c-4.927-1.077-7.334-0.254-11.025-1.109
				c-3.691-0.855-4.908-2.237-4.908-2.237S381.399,495.776,382.825,500.858z"/>
		</g>
		<g>
			<path fill="#285662" d="M390.678,485.368c7.752-6.785,19.57-14.59,17.382-16.835c-2.721-2.791-11.595,5.516-19.634,13.229
				c-8.039,7.713-18.356,24.591-17.186,25.483C372.408,508.138,382.926,492.152,390.678,485.368z"/>
		</g>
	</g>
	<g>
		<path fill="#285662" d="M502.218,936.988c3.708-0.655,8.676-1.062,13.902-1.062c8.696,0,14.465,1.703,18.864,5.191
			c5.017,3.949,8.021,10.325,8.021,19.594c0,9.938-3.27,16.858-8.025,20.939c-4.796,4.117-12.052,6.099-21.137,6.099
			c-5.138,0-9.061-0.346-11.625-0.698V936.988z M513.239,978.82c0.862,0.178,2.206,0.186,3.35,0.186
			c8.746,0.062,14.794-5.377,14.794-18.127c0.016-10.558-5.142-16.363-13.883-16.363c-1.975,0-3.364,0.159-4.26,0.38V978.82z"/>
		<path fill="#285662" d="M563.502,974.601l-3.188,12.656h-11.229l14.213-50.985h14.123l14.088,50.985h-11.594l-3.399-12.656
			H563.502z M575.058,966.281l-2.734-10.787c-0.761-3.039-1.596-7.25-2.296-10.349h-0.164c-0.687,3.114-1.453,7.407-2.185,10.364
			l-2.697,10.773H575.058z"/>
		<path fill="#285662" d="M606.056,987.257v-20.482l-14.634-30.502h12.416l4.673,12.232c1.379,3.55,2.447,6.599,3.552,10.08h0.152
			c0.986-3.325,2.095-6.529,3.409-10.157l4.493-12.154h12.183l-15.195,30.114v20.871H606.056z"/>
	</g>
	<g>
		<path fill="#285662" d="M887.304,482.07c2.628-7.992,6.274-17.249,10.935-27.775c1.477-3.329,2.554-5.827,3.221-7.493l3.773-8.991
			h-26.977v-15.887h48.18v12.789c-0.373,3.13-1.129,6.112-2.276,8.941c-1.15,2.832-2.758,6.278-4.829,10.339
			c-1.629,3.065-2.885,5.631-3.773,7.694c-3.184,7.393-5.774,14.837-7.771,22.33c-2.001,7.493-3.294,15.436-3.888,23.828h-21.534
			C883.031,498.655,884.677,490.063,887.304,482.07z"/>
		<path fill="#285662" d="M953.629,505.649c-3.773-1.999-6.438-4.997-7.993-8.993c-1.555-3.996-2.333-9.192-2.333-15.586v-23.177
			c0-8.858,0.61-15.835,1.833-20.93c1.219-5.097,3.72-8.993,7.493-11.69c3.773-2.697,9.437-4.047,16.983-4.047
			c4.146,0,7.956,0.634,11.434,1.899c3.479,1.267,6.253,3.166,8.324,5.695c2.075,2.533,3.11,5.594,3.11,9.192v9.292h-18.428v-1.799
			c0-2.93-0.278-5.195-0.831-6.793c-0.557-1.598-1.87-2.398-3.941-2.398c-2.075,0-3.536,0.499-4.387,1.5
			c-0.851,0.999-1.276,2.531-1.276,4.596v17.284c0.888-1.6,2.259-2.848,4.108-3.746c1.85-0.901,4.031-1.351,6.548-1.351
			c5.181,0,9.196,0.935,12.048,2.799c2.844,1.864,4.829,4.629,5.938,8.291c1.109,3.665,1.666,8.459,1.666,14.387
			c0,9.126-1.928,16.169-5.775,21.131c-3.847,4.962-10.21,7.444-19.095,7.444C962.546,508.646,957.402,507.646,953.629,505.649z
			 M972.224,490.711c0.552-1.43,0.831-3.779,0.831-7.043v-6.893c0-4.661-1.481-6.994-4.44-6.994c-3.331,0-4.996,2.032-4.996,6.096
			v10.589c0,4.264,1.592,6.394,4.776,6.394C970.391,492.86,971.668,492.146,972.224,490.711z"/>
	</g>
	<g>
		<path fill="#285662" d="M159.97,441.705c-1.26,1.398-3.016,2.531-5.273,3.397c-2.259,0.865-4.424,1.299-6.495,1.299v-13.689
			c3.256-0.464,6.495-1.631,9.713-3.495c3.219-1.864,5.531-4.297,6.939-7.295h15.32v85.921H159.97V441.705z"/>
		<path fill="#285662" d="M207.535,482.068c2.625-7.992,6.272-17.249,10.935-27.775c1.479-3.329,2.554-5.827,3.219-7.493
			l3.775-8.991h-26.975v-15.886h48.177v12.789c-0.372,3.13-1.129,6.112-2.275,8.942c-1.15,2.832-2.758,6.277-4.829,10.339
			c-1.629,3.065-2.887,5.631-3.775,7.694c-3.181,7.393-5.772,14.837-7.769,22.33c-1.999,7.493-3.294,15.436-3.885,23.828h-21.536
			C203.261,498.653,204.908,490.061,207.535,482.068z"/>
	</g>
	<g>
		<g>
			<path fill="#285662" d="M581.146,121.734c0,14.495-7.581,21.957-17.849,21.958c-10.75,0-17.225-8.959-17.225-21.303
				c0-12.727,7.092-21.71,17.846-21.71C575.071,100.679,581.146,109.995,581.146,121.734z M553.774,122.301
				c0,8.688,3.528,15.387,9.895,15.387c6.45,0,9.772-7.055,9.773-15.672c-0.001-7.786-3.114-15.336-9.777-15.336
				C557.133,106.68,553.772,113.674,553.774,122.301z"/>
		</g>
		<g>
			<path fill="#285662" d="M592.461,101.303c7.35,0,14.7,0,22.05,0c0,2.039,0,4.077,0,6.116c-4.907,0-9.814,0-14.72,0
				c0,3.937,0,7.875,0,11.813c4.572,0,9.143,0,13.714,0c0,2.005,0,4.01,0,6.016c-4.571,0-9.142,0-13.714,0
				c0,5.939,0,11.879,0,17.818c-2.443,0-4.886,0-7.329,0C592.461,129.144,592.461,115.224,592.461,101.303z"/>
		</g>
	</g>
	<g>
		<g>
			<path fill="#285662" d="M489.483,160.638c4.853,0,9.707,0,14.561,0c0,14.491,0,28.981,0,43.471
				c-0.001,19.158-9.221,24.724-22.397,24.724c-3.277,0-7.23-0.514-9.758-1.414c0.508-3.953,1.016-7.905,1.524-11.858
				c1.817,0.557,4.142,0.978,6.695,0.978c5.602,0,9.376-2.47,9.376-12.377C489.483,189.654,489.483,175.146,489.483,160.638z"/>
		</g>
		<g>
			<path fill="#285662" d="M535.485,160.638c0,13.381,0,26.763,0,40.144c-0.001,11.085,3.99,16.14,10.436,16.14
				c6.707,0,10.59-4.751,10.591-16.14c0-13.381,0-26.763,0-40.144c4.854,0,9.707,0,14.561,0c0,12.933,0,25.865,0,38.798
				c0,19.703-9.302,29.398-25.495,29.398c-16.086,0-24.653-9.5-24.652-29.484c0-12.904,0-25.808,0-38.712
				C525.778,160.638,530.632,160.638,535.485,160.638z"/>
		</g>
		<g>
			<path fill="#285662" d="M588.602,160.638c4.854,0,9.707,0,14.561,0c0,18.317,0,36.635,0,54.952c7.957,0,15.913,0,23.87,0
				c0,4.079,0,8.157,0,12.236c-12.811,0-25.621,0-38.431,0C588.602,205.43,588.602,183.034,588.602,160.638z"/>
		</g>
		<g>
			<path fill="#285662" d="M645.895,227.826c0-8.998,0-17.995,0-26.993c-6.429-13.398-12.858-26.797-19.287-40.195
				c5.454,0,10.908,0,16.361,0c2.053,5.373,4.106,10.745,6.159,16.118c1.82,4.678,3.23,8.698,4.685,13.284c0.067,0,0.134,0,0.201,0
				c1.299-4.381,2.754-8.604,4.489-13.384c1.975-5.339,3.951-10.678,5.926-16.018c5.35,0,10.7,0,16.05,0
				c-6.675,13.228-13.349,26.456-20.024,39.684c0,9.169,0,18.337,0,27.505C655.602,227.826,650.749,227.826,645.895,227.826z"/>
		</g>
	</g>
	<g>
		<g>
			<path fill="#AA2B28" d="M398.09,12.896c12.498,0,24.996,0,37.494,0c0,4.037,0,8.074,0,12.111c-7.644,0-15.288,0-22.932,0
				c0,5.322,0,10.643,0,15.964c7.155,0,14.31,0,21.465,0c0,3.962,0,7.924,0,11.886c-7.155,0-14.31,0-21.465,0
				c0,9.076,0,18.151,0,27.227c-4.854,0-9.708,0-14.563,0C398.09,57.688,398.09,35.292,398.09,12.896z"/>
		</g>
		<g>
			<path fill="#AA2B28" d="M506.487,45.665c0,23.032-12.011,35.425-29.586,35.425c-18.506,0-28.516-15.383-28.516-34.329
				c0-19.565,11.231-34.873,29.544-34.873C497.226,11.889,506.487,28.033,506.487,45.665z M463.707,46.608
				c-0.001,13.785,5.192,22.621,13.875,22.62c8.853,0,13.581-9.793,13.582-23.016c0-12.035-4.552-22.463-13.638-22.463
				C468.764,23.75,463.708,33.136,463.707,46.608z"/>
		</g>
		<g>
			<path fill="#AA2B28" d="M535.387,12.896c0,13.381,0,26.763,0,40.144c0,11.084,3.989,16.14,10.435,16.14
				c6.707,0,10.592-4.751,10.591-16.14c0-13.381,0-26.763,0-40.144c4.854,0,9.707,0,14.561,0c0,12.933,0,25.865,0,38.798
				c0,19.702-9.302,29.397-25.495,29.397c-16.087,0-24.653-9.5-24.652-29.483c0-12.904,0-25.808,0-38.712
				C525.68,12.896,530.534,12.896,535.387,12.896z"/>
		</g>
		<g>
			<path fill="#AA2B28" d="M588.504,13.839c4.648-0.829,11.263-1.4,18.411-1.4c9.122,0,15.941,1.377,20.597,5.226
				c4.027,3.344,5.951,7.995,5.95,14.051c-0.002,8.115-5.315,14.192-11.41,16.592c0,0.094,0,0.189,0,0.282
				c4.629,1.872,7.162,6.255,8.729,12.754c1.845,7.554,3.806,16.183,5.087,18.739c-4.994,0-9.988,0-14.982,0
				c-0.974-1.917-2.597-7.735-4.243-15.786c-1.652-8.385-4.269-10.663-9.949-10.718c-1.25,0-2.499,0-3.748,0
				c0,8.835,0,17.669,0,26.504c-4.814,0-9.628,0-14.442,0C588.504,58.002,588.504,35.92,588.504,13.839z M602.946,42.864
				c1.626,0,3.252,0,4.878,0c6.977,0,11.103-4.076,11.103-9.916c0-6.03-3.633-9.445-10.243-9.519c-2.894,0-4.771,0.194-5.737,0.475
				C602.946,30.224,602.946,36.544,602.946,42.864z"/>
		</g>
		<g>
			<path fill="#AA2B28" d="M660.202,25.451c-5.417,0-10.834,0-16.251,0c0-4.185,0-8.37,0-12.555c15.755,0,31.509,0,47.263,0
				c0,4.185,0,8.37,0,12.555c-5.483,0-10.967,0-16.451,0c0,18.211,0,36.422,0,54.633c-4.854,0-9.707,0-14.561,0
				C660.202,61.873,660.202,43.662,660.202,25.451z"/>
		</g>
		<g>
			<path fill="#AA2B28" d="M718.474,12.896c0,8.724,0,17.447,0,26.171c7.208,0,14.416,0,21.624,0c0-8.724,0-17.447,0-26.171
				c4.854,0,9.707,0,14.561,0c0,22.396,0,44.792,0,67.188c-4.854,0-9.707,0-14.561,0c0-9.374,0-18.747,0-28.121
				c-7.208,0-14.416,0-21.624,0c0,9.373,0,18.747,0,28.121c-4.854,0-9.707,0-14.561,0c0-22.396,0-44.792,0-67.188
				C708.766,12.896,713.62,12.896,718.474,12.896z"/>
		</g>
	</g>
	<g>
		<path fill="#AA2B28" d="M116.566,670.037l96.885-69.666l13.464,18.723l-96.885,69.666L116.566,670.037z"/>
		<path fill="#AA2B28" d="M154.854,720.455l85.629-83.114l17.125,17.644l-33.326,47.641l40.971-39.766l16.06,16.548l-85.627,83.114
			l-16.255-16.748l34.542-50.177l-42.863,41.605L154.854,720.455z"/>
		<path fill="#AA2B28" d="M297.817,693.492l26.889,18.999c6.957,4.917,10.814,10.534,11.567,16.85
			c0.753,6.314-1.504,13.282-6.773,20.9l-32,45.767c-6.714,9.66-13.48,15.708-20.304,18.144c-6.824,2.435-14.17,0.874-22.035-4.686
			l-26.207-18.518L297.817,693.492z M264.17,789.978c3.554,2.511,6.56,2.028,9.019-1.453l35.516-50.258
			c1.549-2.194,2.542-3.96,2.975-5.296c0.434-1.336,0.331-2.515-0.307-3.536c-0.642-1.019-1.907-2.198-3.798-3.534l-2.155-1.522
			l-44.656,63.192L264.17,789.978z"/>
		<path fill="#AA2B28" d="M313.704,845.671l50.938-107.913l43.217,20.4l-9.845,20.853l-21.231-10.02l-9.904,20.98l20.352,9.607
			l-9.607,20.352l-20.351-9.607l-11.682,24.749l22.612,10.673l-9.901,20.98L313.704,845.671z"/>
		<path fill="#AA2B28" d="M427.649,765.776l30.4,8.379c9.192,2.535,14.937,7.313,17.229,14.332
			c2.292,7.022,1.866,16.246-1.285,27.672c-3.151,11.43-7.268,19.565-12.343,24.409c-5.083,4.845-12.138,6.022-21.151,3.538
			l-9.376-2.584l-12.551,45.534l-22.633-6.236L427.649,765.776z M438.185,821.131c2.766,0.763,4.939,0.81,6.517,0.139
			c1.576-0.667,2.83-1.907,3.763-3.718c0.933-1.807,1.891-4.498,2.873-8.07c1.326-4.821,1.752-8.451,1.269-10.888
			c-0.475-2.439-2.325-4.101-5.539-4.987l-2.543-0.702l-7.68,27.857L438.185,821.131z"/>
		<path fill="#AA2B28" d="M491.161,902.87l11.61-118.765l47.561,4.649l-2.243,22.952l-23.367-2.286l-2.255,23.089l22.397,2.192
			l-2.19,22.397l-22.397-2.19l-2.664,27.237l24.886,2.433l-2.259,23.089L491.161,902.87z"/>
		<path fill="#AA2B28" d="M580.487,908.407l-8.891-119l24.524-1.831l15.199,56.119l-4.256-56.937l22.999-1.717l8.889,119
			l-23.273,1.737l-16.365-58.678l4.448,59.568L580.487,908.407z"/>
		<path fill="#AA2B28" d="M651.42,781.413l31.806-8.508c8.23-2.202,15.015-1.571,20.351,1.891
			c5.337,3.462,9.245,9.656,11.729,18.577l14.7,53.876c3.127,11.34,3.445,20.411,0.949,27.212
			c-2.492,6.803-8.393,11.45-17.699,13.938l-31,8.291L651.42,781.413z M704.044,869.005c4.203-1.125,5.758-3.744,4.657-7.862
			l-15.903-59.45c-0.696-2.594-1.416-4.487-2.165-5.676c-0.749-1.189-1.723-1.864-2.918-2.026c-1.191-0.16-2.91,0.06-5.144,0.657
			l-2.55,0.683l19.995,74.749L704.044,869.005z"/>
		<path fill="#AA2B28" d="M778.553,866.513L728.09,758.377l43.302-20.208l9.752,20.896l-21.272,9.93l9.81,21.022l20.392-9.517
			l9.518,20.392l-20.392,9.517l11.574,24.8l22.659-10.575l9.809,21.025L778.553,866.513z"/>
		<path fill="#AA2B28" d="M858.379,825.674l-68.498-97.713l20.135-14.115l41.758,40.453l-32.772-46.753l18.882-13.237l68.498,97.713
			l-19.111,13.396L843.2,763.363l34.29,48.914L858.379,825.674z"/>
		<path fill="#AA2B28" d="M939.35,753.828c-7.567-0.098-14.749-3.491-21.554-10.178l-39.229-38.566
			c-8.455-8.31-13.169-16.257-14.156-23.846c-0.978-7.59,2.067-14.982,9.143-22.183c6.167-6.273,12.854-9.635,20.052-10.092
			c7.198-0.454,14.037,2.498,20.511,8.862l14.659,14.411l-16.652,16.943l-12.58-12.369c-2.443-2.4-4.42-3.759-5.93-4.074
			c-1.51-0.315-2.979,0.256-4.408,1.706c-1.494,1.52-1.985,3.081-1.481,4.68c0.503,1.6,1.78,3.407,3.826,5.418l42.7,41.973
			c2.247,2.208,4.207,3.484,5.877,3.83c1.674,0.348,3.159-0.141,4.461-1.463c2.595-2.64,1.747-6.071-2.545-10.292l-15.354-15.095
			l16.848-17.139l16.046,15.776c14.266,14.025,14.356,28.203,0.266,42.534C953.747,750.873,946.913,753.93,939.35,753.828z"/>
		<path fill="#AA2B28" d="M1005.315,691.141l-98.036-68.042l27.251-39.258l18.944,13.149l-13.386,19.287l19.058,13.227
			l12.834-18.488l18.485,12.832l-12.829,18.487l22.479,15.604l14.258-20.541l19.062,13.228L1005.315,691.141z"/>
	</g>
	<g>
		<polygon fill="#285662" points="427.419,932.008 434.382,953.437 456.914,953.437 438.685,966.682 445.648,988.111 
			427.419,974.867 409.189,988.111 416.152,966.682 397.923,953.437 420.456,953.437 		"/>
	</g>
	<g>
		<polygon fill="#285662" points="695.649,932.008 702.611,953.437 725.144,953.437 706.915,966.682 713.878,988.111 
			695.649,974.867 677.419,988.111 684.382,966.682 666.153,953.437 688.686,953.437 		"/>
	</g>
</g>
<g>
</g>
<g>
</g>
<g>
</g>
<g>
</g>
<g>
</g>
<g>
</g>
<g>
</g>
<g>
</g>
<g>
</g>
<g>
</g>
<g>
</g>
<g>
</g>
<g>
</g>
<g>
</g>
<g>
</g>
</svg>
