<?xml version="1.0" encoding="utf-8"?>
<!-- Generator: Adobe Illustrator 26.0.3, SVG Export Plug-In . SVG Version: 6.00 Build 0)  -->
<svg version="1.1" id="Layer_1" xmlns="http://www.w3.org/2000/svg" xmlns:xlink="http://www.w3.org/1999/xlink" x="0px" y="0px"
	 viewBox="0 0 48 48" style="enable-background:new 0 0 48 48;" xml:space="preserve">
<style type="text/css">
	.st0{fill:none;}
	.st1{fill:#FFFFFF;}
</style>
<g>
	<rect x="5.5" y="3.7" class="st0" width="8" height="8"/>
	<rect x="5.5" y="35.7" class="st0" width="8" height="8"/>
	<rect x="20.5" y="6.7" class="st1" width="25" height="2"/>
	<rect x="20.5" y="22.7" class="st1" width="25" height="2"/>
	<rect x="20.5" y="38.7" class="st1" width="25" height="2"/>
	<path class="st1" d="M15.5,1.7h-12v12h12V1.7z M13.5,11.7h-8v-8h8V11.7z"/>
	<path class="st1" d="M3.5,45.7h12v-12h-12V45.7z M5.5,35.7h8v8h-8V35.7z"/>
	<polygon class="st1" points="14.5,17.3 9.5,22.3 4.5,17.3 3.1,18.7 8.1,23.7 3.1,28.7 4.5,30.1 9.5,25.1 14.5,30.1 15.9,28.7 
		10.9,23.7 15.9,18.7 	"/>
</g>
</svg>
