<svg xmlns="http://www.w3.org/2000/svg" viewBox="0 0 1500 1500" xml:space="preserve"><path fill="#5B5B5B" d="M1100.767 880.503c0 31.559-139.099 57.521-316.909 60.447-11.054.186-22.247.279-33.579.279-145.926 0-271.046-15.443-323.759-37.434-4.041-1.672-7.663-3.39-10.821-5.178-10.334-5.713-15.884-11.797-15.884-18.113 0-1.37.255-2.694.766-4.041a52.518 52.518 0 0 1 1.811-3.367c.023-.023.046-.07.046-.07 1.718-2.415 4.226-4.76 7.501-7.083 3.205-2.253 7.176-4.482 11.82-6.618 49.625-23.106 177.996-39.547 328.52-39.547h1.927c142.745.139 265.24 15.048 319.184 36.342 9.985 3.971 17.649 8.128 22.618 12.447 2.183 1.881 3.855 3.832 4.969 5.782.023.023.047.07.07.093 1.14 1.997 1.72 4.017 1.72 6.061z"/><path fill="#8930E8" d="M1100.767 880.503c0 14.142-27.889 27.146-74.635 37.457-57.66 12.726-144.068 21.364-242.273 22.99-11.054.186-22.247.279-33.579.279-111.953 0-211.667-9.08-275.829-23.268-19.46-4.296-35.669-9.056-47.93-14.165-4.041-1.672-7.663-3.39-10.821-5.178-10.334-5.713-15.884-11.797-15.884-18.113 0-1.37.255-2.694.766-4.041a52.518 52.518 0 0 1 1.811-3.367c.023-.023.046-.07.046-.07 1.718-2.415 4.226-4.76 7.501-7.083 3.205-2.253 7.176-4.482 11.82-6.618 49.625-23.106 177.996-39.547 328.52-39.547h1.927c142.745.139 265.24 15.048 319.184 36.342 9.985 3.971 17.649 8.128 22.618 12.447 2.183 1.881 3.855 3.832 4.969 5.782.023.023.047.07.07.093 1.139 1.996 1.719 4.016 1.719 6.06z"/><path fill="#FFF" d="M1096.293 870.774a21.827 21.827 0 0 0-1.131-.478c-53.944-21.291-176.437-36.198-319.191-36.323h-1.91c-150.521 0-278.896 16.44-328.517 39.541-4.65 2.137-8.622 4.374-11.84 6.611-3.268 2.338-5.781 4.676-7.491 7.089 0 0-.025.05-.05.075a43.286 43.286 0 0 0-1.81 3.368 11.274 11.274 0 0 0-.754 4.022c0 3.318 1.533 6.586 4.474 9.753-.528-.201-1.056-.427-1.558-.628-4.047-1.684-7.667-3.394-10.809-5.178-10.331-5.731-15.887-11.814-15.887-18.124 0-1.357.251-2.69.754-4.047.553-1.131 1.181-2.237 1.81-3.368l.05-.05c1.734-2.438 4.223-4.776 7.516-7.089 3.192-2.262 7.164-4.5 11.815-6.611 49.621-23.126 177.996-39.566 328.517-39.566h1.936c142.728.151 265.221 15.057 319.165 36.348 10.005 3.972 17.646 8.119 22.623 12.443a27.44 27.44 0 0 1 2.288 2.212z" opacity=".7"/><path fill="#3A3A3A" d="M1026.132 924.015c-57.66 12.726-144.068 21.364-242.273 22.99-11.054.186-22.247.279-33.579.279-111.953 0-211.667-9.08-275.829-23.268 64.162-14.165 163.853-23.268 275.829-23.268h1.927c111.21.115 210.135 9.171 273.925 23.267z"/><path fill="#371A45" d="M750.28 956.128c-109.039 0-210.271-8.557-277.738-23.477a8.845 8.845 0 0 1 .002-17.273c67.579-14.92 168.809-23.48 277.735-23.48h1.928c108.293.114 208.827 8.671 275.833 23.48a8.843 8.843 0 0 1 6.937 8.639 8.84 8.84 0 0 1-6.94 8.634c-59.635 13.162-148.581 21.615-244.032 23.198-10.999.185-22.347.279-33.725.279zM524.02 924.02c62.346 9.267 141.862 14.416 226.26 14.416 11.28 0 22.527-.092 33.431-.275 71.259-1.18 138.719-6.21 192.685-14.168-61.844-9.173-140.608-14.314-224.197-14.401h-1.919c-84.338 0-163.856 5.154-226.26 14.428z"/><path fill="#371A45" d="M750.288 950.079c-143.201 0-271.624-14.96-327.174-38.113-4.495-1.87-8.341-3.712-11.75-5.631-13.513-7.471-20.394-16.172-20.394-25.831 0-2.458.46-4.892 1.366-7.236.093-.24.197-.477.31-.71a54.971 54.971 0 0 1 2.153-4.001c.151-.255.315-.5.491-.737 2.27-3.175 5.482-6.237 9.547-9.103 3.614-2.547 8.064-5.045 13.226-7.427 52.649-24.511 183.064-40.359 332.224-40.359 140.184 0 267.499 14.515 324.35 36.975 11.209 4.437 19.439 9.007 25.162 13.971 2.882 2.503 5.143 5.151 6.732 7.879.057.092.113.183.166.275h.001c1.928 3.339 2.905 6.863 2.905 10.474.002 55.032-235.035 69.574-359.315 69.574zM408.746 879.91a2.137 2.137 0 0 0-.085.594c0 1.531 2.384 5.441 11.321 10.382 2.814 1.583 6.138 3.171 9.934 4.751 53.57 22.327 179.322 36.75 320.373 36.75 93.124 0 180.598-6.269 246.309-17.655 78.193-13.548 95.317-29.301 95.317-34.228 0-.166 0-.65-.459-1.494a11.837 11.837 0 0 1-.174-.292c-.416-.732-1.287-1.929-3.077-3.485-4.126-3.576-10.883-7.239-20.073-10.879-54.942-21.706-179.706-35.731-317.844-35.731-144.523 0-275.043 15.558-324.783 38.714-4.222 1.949-7.738 3.91-10.479 5.839-2.879 2.03-4.421 3.687-5.226 4.768a38.19 38.19 0 0 0-1.054 1.966z"/><path fill="#FFF" d="M980.364 675.319v307.369c0 37.21-30.145 67.355-67.336 67.355h-323.58c-37.19 0-67.335-30.145-67.335-67.355V675.319c0-20.064 8.777-38.085 22.691-50.443 11.891-10.509 27.537-16.892 44.644-16.892h323.58c17.184 0 32.851 6.422 44.76 17.009 13.857 12.338 22.576 30.32 22.576 50.326z"/><path fill="#371A45" d="M903.849 1058.883H598.627c-47.068 0-85.36-38.293-85.36-85.361V684.491c0-47.068 38.292-85.361 85.36-85.361h305.222c47.068 0 85.36 38.293 85.36 85.361v289.031c0 47.068-38.292 85.361-85.36 85.361zM598.627 616.822c-37.313 0-67.67 30.355-67.67 67.669v289.031c0 37.314 30.357 67.669 67.67 67.669h305.222c37.313 0 67.67-30.355 67.67-67.669V684.491c0-37.314-30.357-67.669-67.67-67.669H598.627z"/><path fill="#FFF" d="m669.921 604.646-4.913 19.927-15.522 63.196-3.091 12.593-23.064 93.756s-3.113 1.384-8.81 3.437c-15.568 5.535-50.511 15.891-94.702 15.937-36.027.023-78.234-6.804-121.064-28.715-95.278-48.712-122.84-194.431-122.84-194.431l81.093-35.196 58.906-25.578c12.455 69.377 70.83 89.65 128.491 91.865 10.333.415 20.666.231 30.699-.346 51.225-2.976 94.817-16.445 94.817-16.445z"/><path fill="#D2D2D2" d="m669.921 604.646-4.913 19.927-15.522 63.196c-47.927-14.023-85.614-37.641-105.081-66.333 10.333.415 20.666.231 30.699-.346 51.225-2.975 94.817-16.444 94.817-16.444zM958.362 621.437c-19.49 28.692-57.176 52.31-105.081 66.333l-15.545-63.196-4.913-19.927s43.615 13.469 94.84 16.445c10.033.575 20.366.76 30.699.345z"/><path fill="#D2D2D2" d="M907.597 665.397c-40.062 22.465-95.278 36.349-156.214 36.349-59.044 0-112.714-13.031-152.431-34.273 7.681-27.677 46.289-137.324 177.525-143.09 121.295-5.305 131.628 100.121 131.12 141.014zM614.518 797.54c-28.253 10.073-120.394 35.979-215.767-12.763-95.282-48.706-122.849-194.428-122.849-194.428l81.111-35.203c30.618 15.237 54.537 27.242 54.537 27.242s-30.672 75.497 6.607 133.103c54.754 84.595 165.399 10.2 165.399 10.2l30.962 71.849z"/><path fill="#371A45" d="M519.829 822.512c-37.131 0-80.644-7.137-125.109-29.865-98.01-50.095-126.344-194.539-127.502-200.662l-1.313-6.944 156.738-68.05 1.975 11.003c5.191 28.93 19.514 50.721 42.569 64.768 70.144 42.73 198.828 3.833 200.121 3.438l14.921-4.595-51.344 208.814-3.941 1.766c-2.883 1.289-46.487 20.327-107.115 20.327zM286.114 595.553c6.834 28.918 37.934 141.103 116.657 181.34 97.52 49.85 192.855 18.407 213.047 10.708l41.912-170.443c-37.496 9.42-136.909 28.965-199.717-9.272-24.591-14.972-40.846-37.124-48.426-65.943l-123.473 53.61z"/><path fill="#371A45" d="M398.735 793.616c-4.266 0-8.023-3.094-8.721-7.442-.775-4.825 2.505-9.363 7.329-10.137 87.456-14.06 100.648-158.263 100.77-159.72.413-4.865 4.696-8.503 9.555-8.07a8.841 8.841 0 0 1 8.073 9.549c-.544 6.504-14.481 159.453-115.591 175.706a8.84 8.84 0 0 1-1.415.114z"/><path fill="#FFF" d="M444.296 526.003c-22.213 92.189-115.215 83.598-140.816 77.367-53.393-13.004-71.712-63.322-71.712-63.322l43.065-56.917 19.148-30.8 22.874-6.877c17.973-32.756 56.257-69.906 78.241-56.8-.001.001 68.353 57.885 49.2 137.349z"/><path fill="#D2D2D2" d="M223.837 510.289c0 28.723 37.623 54.782 118.619 45.341 28.53-3.326 52.007-23.284 52.007-52.007s-23.285-52.007-52.007-52.007c-28.723-.001-118.619 29.95-118.619 58.673z"/><path fill="#FFF" d="m366.533 417.105-40.275 98.38-59.679-61.094s-18.223-15.392-39.2-36.394c-35.057-35.083-77.849-85.847-56.06-106.43 36.971-34.952 129.269 88.102 129.269 88.102s-38.256-152.264 19.561-155.856c31.806-1.993 41.848 73.549 44.968 125.519 1.651 27.085 1.416 47.773 1.416 47.773z"/><path fill="#D2D2D2" d="m366.533 417.105-40.275 98.38-59.679-61.094s-18.223-15.392-39.2-36.394c27.112 5.611 62.746 10.174 83.33 1.39 18.931-8.076 30.836-42.163 54.408-50.056 1.651 27.086 1.416 47.774 1.416 47.774z"/><path fill="#371A45" d="M326.258 524.338a8.841 8.841 0 0 1-6.326-2.666l-59.393-60.786c-11.971-10.147-102.719-88.529-103.978-133.738-.246-8.799 2.753-16.407 8.671-22.003 6.787-6.418 15.602-9.363 25.486-8.525 30.391 2.587 69.412 41.395 93.974 69.548-6.101-36.515-10.908-90.661 7.778-116.218 6.656-9.106 16.037-14.282 27.126-14.972 8.023-.482 15.652 2.461 22.063 8.554 34.306 32.608 33.876 159.339 33.716 173.681a8.88 8.88 0 0 1-.659 3.252l-40.272 98.377a8.837 8.837 0 0 1-6.493 5.329 8.6 8.6 0 0 1-1.693.167zM187.369 314.167c-4.034 0-7.24 1.239-9.984 3.833-1.415 1.338-3.278 3.69-3.141 8.653.889 32.012 71.072 98.194 98.04 120.996.214.181.42.371.616.574l50.274 51.455 34.527-84.342c.263-38.128-4.238-136.181-28.229-158.981-3.776-3.588-6.816-3.851-8.78-3.72-5.911.366-10.34 2.829-13.938 7.751-19.546 26.727-4.883 108.055 2.416 137.136a8.846 8.846 0 0 1-15.653 7.464c-18.258-24.325-72.584-88.045-104.302-90.738a21.754 21.754 0 0 0-1.846-.081zM366.53 417.114h.025-.025z"/><path fill="#FFF" d="M220.847 529.404c14.16 23.022 74.284 33.772 96.598 16.467 18.984-14.736.026-33.51-5.375-38.282-.839-.761-1.364-1.154-1.364-1.154s23.101-7.08 27.139-26.535c.262-1.259.446-2.57.524-3.959 1.416-22.445-58.525-41.822-85.742-37.443-20.347 3.278-28.109 11.563-30.023 20.426-2.045 9.439 2.543 19.534 5.611 24.936 1.416 2.465 2.491 3.933 2.491 3.933s-21.212 23.177-9.859 41.611z"/><path fill="#371A45" d="M228.216 483.858c16.073 8.233 48.298 22.235 83.854 23.73-.839-.761-1.364-1.154-1.364-1.154s23.101-7.08 27.139-26.535c-21.318 4.667-80.21 13.556-115.24-20.977-2.046 9.44 2.543 19.535 5.611 24.936zM220.847 529.404c14.16 23.022 74.284 33.772 96.598 16.467 9.335-7.237 9.492-15.444 6.608-22.497a28.6 28.6 0 0 1-3.644 3.356c-22.288 17.306-82.412 6.555-96.571-16.44-1.469-2.386-2.412-4.851-2.885-7.342-3.541 7.891-5.48 17.698-.106 26.456z" opacity=".35"/><path fill="#371A45" d="M284.782 563.284c-6.708 0-13.82-.65-21.146-1.981-23.647-4.293-42.458-14.482-50.324-27.254-10.987-17.841-.045-37.561 6.614-46.855-4.261-7.751-9.899-21.793-4.45-35.059 4.851-11.814 16.876-19.345 35.739-22.379 22.349-3.589 65.425 6.667 85.392 24.808 9.358 8.503 10.917 16.629 10.579 21.951-1.066 16.686-12.249 26.915-21.491 32.571 4.502 5.686 8.871 13.431 8.852 22.062-.012 5.78-2.05 14.24-11.692 21.716-8.806 6.829-22.324 10.42-38.073 10.42zm-30.758-116.062c-8.486 1.365-19.222 4.486-22.171 11.601-3.319 8.008 3.401 20.153 6.016 23.776 2.456 3.401 2.202 8.085-.632 11.176-.151.168-16.431 18.706-8.861 31 5.116 8.307 20.198 15.813 38.421 19.122 19.079 3.462 36.823 1.494 45.218-5.01 4.333-3.361 4.839-6.047 4.842-7.775.014-6.514-7.81-14.745-11.6-17.71a8.844 8.844 0 0 1 2.86-15.425c.169-.054 20.394-6.616 21.413-22.589.129-2.013-1.627-4.83-4.819-7.728-15.322-13.922-52.815-23.324-70.687-20.438z"/><path fill="#371A45" d="M303.162 515.499c-42.396 0-75.472-19.214-76.942-20.082a8.844 8.844 0 0 1-3.122-12.113 8.847 8.847 0 0 1 12.106-3.126c.586.341 34.495 19.792 74.984 17.428 4.845-.336 9.061 3.435 9.348 8.31.286 4.877-3.435 9.064-8.312 9.348-2.718.161-5.411.235-8.062.235z"/><path fill="#FFF" d="M395.09 388.664c-29.183-17.401-87.023 53.677-88.086 85.576-.812 24.351 32.72 33.349 61.111 1.305 31.178-35.19 72.803-59.554 26.975-86.881z"/><path fill="#FFF" d="M231.764 540.061s18.33 50.302 71.704 63.304c25.608 6.238 118.613 14.831 140.832-77.368 19.148-79.457-49.209-137.333-49.209-137.333-29.183-17.401-87.023 53.677-88.086 85.576-.812 24.351 35.378 38.159 65.691-4.689 0 0-15.97 38.92 18.126 65.475l-80.339 46.276-60.754-11.859-17.965-29.382z"/><path fill="#FFF" d="m374.947 516.372 1.6-.918a52.792 52.792 0 0 1-3.356-2.832 52.677 52.677 0 0 0 1.756 3.75z"/><path fill="#371A45" d="M371.434 462.331c4.274-15.732-40.914 24.32-64.425 14.028 1.127 19.771 27.165 31.255 53.15 7.578 1.547-12.665 11.275-21.606 11.275-21.606z" opacity=".35"/><path fill="#D2D2D2" d="m259.969 571.435-10.253-1.993c11.328 13.477 28.686 27.82 53.753 33.93 25.618 6.241 118.623 14.815 140.832-77.378 13.031-54.067-14.474-98.171-33.38-120.799 15.392 24.543 29.053 59.993 19.115 101.239-22.209 92.192-115.214 83.618-140.832 77.378-11.248-2.753-20.949-7.132-29.235-12.377z"/><path fill="#FFF" d="M231.782 540.102c.183.498 1.652 4.353 4.72 9.99l1.573.315-6.293-10.305zM235.452 549.882a90.42 90.42 0 0 0 2.622 3.015c-.551-.97-1.075-1.914-1.573-2.806l-1.049-.209z"/><path fill="#371A45" d="M402.619 583.726c6.336-6.658 11.911-13.46 16.601-20.814 4.697-7.339 8.465-15.188 11.583-23.384 6.156-16.58 8.688-34.34 7.006-51.717-.833-8.704-2.714-17.313-5.37-25.722-2.715-8.398-6.337-16.549-10.608-24.387-4.298-7.825-9.288-15.33-14.836-22.406a169.378 169.378 0 0 0-8.662-10.323c-1.515-1.649-3.045-3.286-4.614-4.853-1.518-1.535-3.253-3.195-4.609-4.392l1.24.886c-2.033-1.193-4.447-1.648-7.613-1.274-3.129.375-6.702 1.637-10.219 3.405-3.537 1.749-7.045 4.081-10.421 6.646-3.396 2.547-6.666 5.413-9.81 8.446-12.521 12.149-23.511 26.847-30.963 42.355-1.804 3.868-3.337 7.809-4.345 11.604-.503 1.888-.881 3.762-1.013 5.432-.245 1.778-.085 3.048.143 4.478.477 2.769 1.944 5.119 3.969 6.984 2.104 1.791 4.844 3.079 7.991 3.468 6.295.914 13.69-1.521 20.137-5.996 6.544-4.423 12.269-10.75 17.252-17.699l.015-.02.747-.95a8.75 8.75 0 0 1 14.656 9.416c-.355.689-.918 2.097-1.321 3.257a47.221 47.221 0 0 0-1.17 3.777c-.721 2.565-1.196 5.199-1.583 7.853-.687 5.311-.565 10.697.43 15.925.363 2.663 1.306 5.158 2.101 7.728 1.098 2.437 2.05 4.993 3.581 7.261 1.261 2.437 3.068 4.533 4.766 6.742.786 1.16 1.891 2.054 2.859 3.075l2.997 3.009.394.396a4.404 4.404 0 0 1-5.829 6.582l-3.847-3c-1.26-1.036-2.641-1.94-3.751-3.17-2.328-2.335-4.767-4.61-6.699-7.37-2.186-2.569-3.804-5.539-5.534-8.474-1.426-3.061-2.973-6.153-3.879-9.443-2.091-6.506-3.08-13.367-3.041-20.176.063-3.402.265-6.809.773-10.194.236-1.693.535-3.389.913-5.086.398-1.767.746-3.26 1.473-5.407l15.402 8.465-.017.024c-5.88 8.177-12.786 16.002-21.732 22.099-4.461 3.024-9.394 5.65-14.894 7.316-5.482 1.641-11.495 2.47-17.638 1.581-6.11-.784-12.285-3.391-17.242-7.709-4.908-4.347-8.497-10.44-9.649-16.893-.597-3.148-.759-6.595-.394-9.452.255-2.978.83-5.698 1.518-8.316 1.388-5.228 3.303-9.999 5.402-14.603 4.272-9.15 9.481-17.521 15.22-25.491 5.813-7.912 12.144-15.427 19.281-22.335 3.555-3.464 7.297-6.787 11.348-9.868 4.043-3.083 8.289-6.028 13.094-8.482 4.785-2.444 10.061-4.564 16.2-5.407 1.494-.271 3.115-.307 4.738-.311 1.588-.093 3.297.198 4.959.411 1.664.173 3.342.823 4.991 1.289 1.625.588 3.175 1.428 4.728 2.203.338.169.645.374.92.608l.321.279c2.22 1.914 3.909 3.533 5.751 5.339 1.802 1.764 3.529 3.571 5.238 5.394a187.804 187.804 0 0 1 9.729 11.349 184.071 184.071 0 0 1 16.573 24.92c4.816 8.789 8.949 18.022 12.086 27.659a133.245 133.245 0 0 1 6.041 29.86c1.837 20.406-1.697 41.058-9.13 59.833-1.851 4.742-4.144 9.342-6.698 13.787-2.649 4.4-5.623 8.623-8.956 12.539-6.667 7.825-14.868 14.364-23.99 18.675a4.489 4.489 0 0 1-5.177-7.145l.087-.086zM240.074 537.033c.654 1.258 1.568 3.103 2.451 4.688.861 1.663 1.833 3.29 2.776 4.935.924 1.653 2.005 3.23 2.963 4.868l3.161 4.755c4.293 6.298 9.193 12.144 14.525 17.567 2.593 2.816 5.587 5.145 8.41 7.749l4.585 3.438c1.481 1.244 3.117 2.235 4.743 3.263 6.375 4.397 13.495 7.563 20.826 10.77l.346.151a4.432 4.432 0 0 1-2.44 8.443c-8.545-1.293-17.283-3.236-25.322-7.038-4.171-1.613-7.929-3.997-11.848-6.167-3.679-2.494-7.466-4.936-10.823-7.881-6.931-5.65-13.099-12.228-18.334-19.447l-3.736-5.549c-1.14-1.922-2.303-3.822-3.359-5.797a92.646 92.646 0 0 1-2.978-6.047 67.058 67.058 0 0 1-2.568-6.646 8.828 8.828 0 0 1 16.216-6.837l.406.782z"/><path fill="#FFF" d="m832.829 604.652 4.91 19.93 18.63 75.785 23.053 93.748s3.105 1.39 8.81 3.43c15.561 5.542 50.512 15.904 94.705 15.941 36.033.018 78.223-6.806 121.062-28.704 95.283-48.706 122.849-194.428 122.849-194.428l-81.111-35.203-58.906-25.581c-14.677 81.833-93.242 95.355-159.171 91.528-51.233-2.979-94.831-16.446-94.831-16.446z"/><path fill="#D2D2D2" d="M958.362 621.437c-19.49 28.692-57.176 52.31-105.081 66.333l-15.545-63.196-4.913-19.927s43.615 13.469 94.84 16.445c10.033.575 20.366.76 30.699.345zM888.237 797.54c28.253 10.073 120.394 35.979 215.767-12.763 95.282-48.706 122.849-194.428 122.849-194.428l-81.111-35.203c-30.618 15.237-54.537 27.242-54.537 27.242s30.672 75.497-6.607 133.103c-54.754 84.595-165.399 10.2-165.399 10.2l-30.962 71.849z"/><path fill="#371A45" d="M982.926 822.512c-60.638.003-104.234-19.038-107.116-20.329l-3.941-1.766-51.346-208.816 14.924 4.597c1.292.398 129.976 39.297 200.121-3.438 23.057-14.047 37.38-35.838 42.571-64.768l1.975-11.003 156.738 68.05-1.313 6.944c-1.157 6.123-29.492 150.567-127.503 200.662-44.459 22.725-87.982 29.864-125.11 29.867zm-95.991-34.91c20.171 7.694 115.516 39.147 213.047-10.708 78.839-40.294 109.854-152.432 116.663-181.34l-123.479-53.609c-7.58 28.819-23.833 50.971-48.424 65.943-62.806 38.237-162.219 18.697-199.719 9.272l41.912 170.442z"/><path fill="#371A45" d="M1104.02 793.616a8.84 8.84 0 0 1-1.415-.114c-101.11-16.253-115.049-169.202-115.593-175.706a8.841 8.841 0 0 1 8.073-9.549c4.842-.438 9.142 3.205 9.555 8.07.122 1.457 13.315 145.661 100.771 159.72 4.824.774 8.104 5.312 7.329 10.137-.697 4.348-4.454 7.442-8.72 7.442z"/><path fill="#FFF" d="M1058.458 526.003c22.213 92.189 115.215 83.598 140.816 77.367 53.393-13.004 71.712-63.322 71.712-63.322l-43.065-56.917-19.148-30.8-22.874-6.877c-17.973-32.756-56.257-69.906-78.241-56.8.001.001-68.352 57.885-49.2 137.349z"/><path fill="#D2D2D2" d="M1278.918 510.289c0 28.723-37.624 54.782-118.619 45.341-28.53-3.326-52.007-23.284-52.007-52.007s23.285-52.007 52.007-52.007 118.619 29.95 118.619 58.673z"/><path fill="#FFF" d="m1136.222 417.105 40.275 98.38 59.679-61.094s18.223-15.392 39.2-36.394c35.057-35.083 77.849-85.847 56.06-106.43-36.971-34.952-129.269 88.102-129.269 88.102s38.256-152.264-19.561-155.856c-31.805-1.993-41.848 73.549-44.968 125.519-1.652 27.085-1.416 47.773-1.416 47.773z"/><path fill="#D2D2D2" d="m1136.222 417.105 40.275 98.38 59.679-61.094s18.223-15.392 39.2-36.394c-27.113 5.611-62.746 10.174-83.33 1.39-18.931-8.076-30.836-42.163-54.408-50.056-1.652 27.086-1.416 47.774-1.416 47.774z"/><path fill="#371A45" d="M1176.496 524.338a8.682 8.682 0 0 1-1.693-.166 8.841 8.841 0 0 1-6.493-5.329l-40.271-98.377a8.86 8.86 0 0 1-.659-3.252c-.161-14.342-.59-141.073 33.716-173.681 6.413-6.094 14.051-9.019 22.062-8.554 11.089.69 20.47 5.866 27.126 14.97 18.685 25.559 13.879 79.705 7.778 116.221 24.56-28.154 63.583-66.962 93.974-69.548 9.891-.841 18.699 2.107 25.485 8.525 5.918 5.594 8.917 13.204 8.672 22.003-1.259 45.206-91.998 123.583-103.979 133.735l-59.393 60.789a8.842 8.842 0 0 1-6.325 2.664zm-31.442-109.002 34.526 84.342 50.274-51.455a8.14 8.14 0 0 1 .616-.574c26.968-22.802 97.152-88.984 98.04-120.996.138-4.964-1.726-7.315-3.141-8.653-3.151-2.978-6.904-4.175-11.83-3.752-31.716 2.693-86.043 66.413-104.3 90.738a8.846 8.846 0 0 1-15.653-7.464c7.299-29.081 21.962-110.409 2.416-137.136-3.6-4.921-8.028-7.385-13.938-7.751-1.972-.131-5.003.131-8.78 3.72-23.992 22.8-28.493 120.853-28.23 158.981z"/><path fill="#FFF" d="M1281.907 529.404c-14.16 23.022-74.284 33.772-96.598 16.467-18.984-14.736-.026-33.51 5.375-38.282.839-.761 1.364-1.154 1.364-1.154s-23.101-7.08-27.139-26.535a26.811 26.811 0 0 1-.524-3.959c-1.416-22.445 58.525-41.822 85.742-37.443 20.347 3.278 28.109 11.563 30.023 20.426 2.045 9.439-2.543 19.534-5.611 24.936-1.416 2.465-2.491 3.933-2.491 3.933s21.212 23.177 9.859 41.611z"/><path fill="#371A45" d="M1274.539 483.858c-16.073 8.233-48.298 22.235-83.854 23.73.839-.761 1.364-1.154 1.364-1.154s-23.101-7.08-27.139-26.535c21.318 4.667 80.21 13.556 115.24-20.977 2.045 9.44-2.543 19.535-5.611 24.936zM1281.907 529.404c-14.16 23.022-74.284 33.772-96.598 16.467-9.335-7.237-9.492-15.444-6.608-22.497a28.6 28.6 0 0 0 3.644 3.356c22.288 17.306 82.412 6.555 96.571-16.44 1.469-2.386 2.412-4.851 2.885-7.342 3.541 7.891 5.481 17.698.106 26.456z" opacity=".35"/><path fill="#371A45" d="M1217.973 563.284c-15.75 0-29.268-3.591-38.073-10.419-9.643-7.476-11.68-15.937-11.693-21.716-.017-8.631 4.35-16.377 8.854-22.062-9.242-5.656-20.427-15.885-21.492-32.571-.339-5.322 1.22-13.449 10.579-21.951 19.968-18.14 63.039-28.401 85.392-24.808 18.864 3.034 30.888 10.565 35.74 22.379 5.447 13.266-.189 27.308-4.45 35.059 6.659 9.294 17.601 29.014 6.614 46.855-7.865 12.771-26.677 22.96-50.323 27.254-7.326 1.33-14.439 1.98-21.148 1.98zm23.42-116.582c-19.351 0-49.897 8.735-63.351 20.957-3.192 2.898-4.947 5.715-4.819 7.728 1.019 15.974 21.245 22.535 21.449 22.599a8.879 8.879 0 0 1 6.062 6.865 8.844 8.844 0 0 1-3.236 8.55c-3.006 2.382-11.636 10.785-11.6 17.735.009 1.721.519 4.397 4.842 7.751 8.392 6.507 26.144 8.475 45.219 5.01 18.223-3.309 33.304-10.815 38.42-19.122 7.57-12.294-8.71-30.832-8.877-31.018-2.819-3.111-3.08-7.795-.6-11.183 2.599-3.598 9.319-15.744 5.999-23.752-2.949-7.115-13.685-10.236-22.171-11.601-2.179-.35-4.651-.519-7.337-.519z"/><path fill="#371A45" d="M1199.592 515.499c-2.652 0-5.341-.074-8.061-.235-4.877-.284-8.598-4.471-8.312-9.348.286-4.877 4.495-8.656 9.348-8.31 40.857 2.369 74.641-17.228 74.978-17.423 4.207-2.485 9.63-1.083 12.112 3.121a8.844 8.844 0 0 1-3.122 12.113c-1.47.869-34.551 20.082-76.943 20.082z"/><path fill="#FFF" d="M1107.664 388.664c29.183-17.401 87.023 53.677 88.087 85.576.812 24.351-32.72 33.349-61.111 1.305-31.179-35.19-72.804-59.554-26.976-86.881z"/><path fill="#FFF" d="M1270.991 540.061s-18.33 50.302-71.704 63.304c-25.608 6.238-118.613 14.831-140.832-77.368-19.148-79.457 49.209-137.333 49.209-137.333 29.183-17.401 87.023 53.677 88.087 85.576.812 24.351-35.378 38.159-65.691-4.689 0 0 15.97 38.92-18.126 65.475l80.339 46.276 60.754-11.859 17.964-29.382z"/><path fill="#FFF" d="m1127.808 516.372-1.6-.918a52.792 52.792 0 0 0 3.356-2.832 53.12 53.12 0 0 1-1.756 3.75z"/><path fill="#371A45" d="M1131.321 462.331c-4.274-15.732 40.914 24.32 64.425 14.028-1.127 19.771-27.165 31.255-53.15 7.578-1.547-12.665-11.275-21.606-11.275-21.606z" opacity=".35"/><path fill="#D2D2D2" d="m1242.785 571.435 10.253-1.993c-11.328 13.477-28.686 27.82-53.753 33.93-25.618 6.241-118.623 14.815-140.832-77.378-13.031-54.067 14.474-98.171 33.38-120.799-15.392 24.543-29.053 59.993-19.115 101.239 22.209 92.192 115.214 83.618 140.832 77.378 11.248-2.753 20.95-7.132 29.235-12.377z"/><path fill="#FFF" d="M1270.973 540.102c-.183.498-1.652 4.353-4.72 9.99l-1.573.315 6.293-10.305z"/><path fill="#FFF" d="M1267.302 549.882a90.42 90.42 0 0 1-2.622 3.015c.551-.97 1.075-1.914 1.573-2.806l1.049-.209z"/><path fill="#371A45" d="M1095.039 590.955c-9.121-4.311-17.322-10.85-23.99-18.675-3.333-3.915-6.306-8.139-8.956-12.539-2.555-4.444-4.847-9.044-6.698-13.787-7.433-18.775-10.967-39.426-9.13-59.833a133.256 133.256 0 0 1 6.041-29.86c3.137-9.637 7.27-18.869 12.087-27.659a184.065 184.065 0 0 1 16.572-24.92 188.215 188.215 0 0 1 9.729-11.349c1.709-1.824 3.436-3.63 5.238-5.394 1.841-1.806 3.531-3.425 5.751-5.339l.304-.262a4.76 4.76 0 0 1 .937-.624c1.552-.775 3.103-1.615 4.728-2.203 1.65-.466 3.328-1.116 4.991-1.289 1.662-.213 3.37-.504 4.958-.411 1.623.004 3.245.041 4.739.311 6.139.843 11.415 2.963 16.2 5.407 4.806 2.455 9.052 5.399 13.094 8.482 4.052 3.081 7.793 6.404 11.348 9.868 7.137 6.908 13.468 14.423 19.281 22.335 5.74 7.97 10.949 16.342 15.22 25.491 2.099 4.605 4.014 9.375 5.402 14.603.688 2.618 1.263 5.338 1.518 8.316.365 2.858.203 6.304-.394 9.452-1.152 6.453-4.74 12.545-9.648 16.893-4.957 4.318-11.133 6.925-17.242 7.709-6.143.889-12.156.061-17.638-1.581-5.5-1.667-10.432-4.293-14.894-7.316-8.946-6.097-15.852-13.922-21.732-22.099l-.017-.024 15.402-8.465c.726 2.148 1.075 3.64 1.473 5.407a63.5 63.5 0 0 1 .913 5.086c.509 3.385.71 6.792.773 10.194.04 6.81-.95 13.67-3.041 20.176-.906 3.29-2.453 6.382-3.879 9.443-1.729 2.935-3.348 5.905-5.533 8.474-1.932 2.76-4.371 5.035-6.699 7.37-1.11 1.23-2.491 2.134-3.751 3.17l-3.847 3a4.405 4.405 0 0 1-5.83-6.582l.395-.396 2.998-3.009c.968-1.021 2.072-1.915 2.858-3.075 1.697-2.209 3.505-4.305 4.766-6.742 1.531-2.268 2.483-4.823 3.581-7.261.795-2.571 1.738-5.066 2.101-7.728.995-5.228 1.117-10.615.43-15.925-.388-2.653-.863-5.288-1.583-7.853a47.221 47.221 0 0 0-1.17-3.777c-.403-1.16-.966-2.568-1.321-3.257a8.75 8.75 0 0 1 14.654-9.418l.749.954.016.02c4.983 6.949 10.708 13.276 17.252 17.699 6.447 4.476 13.843 6.91 20.137 5.996 3.146-.388 5.887-1.677 7.99-3.468 2.026-1.865 3.492-4.215 3.969-6.984.228-1.43.388-2.7.143-4.478-.131-1.671-.509-3.544-1.013-5.432-1.008-3.796-2.541-7.736-4.345-11.604-7.453-15.508-18.442-30.206-30.963-42.355-3.144-3.033-6.414-5.899-9.81-8.446-3.376-2.565-6.884-4.897-10.421-6.646-3.517-1.769-7.09-3.03-10.219-3.405-3.165-.374-5.58.081-7.613 1.274l1.24-.886c-1.355 1.197-3.09 2.857-4.609 4.392-1.569 1.566-3.099 3.204-4.614 4.853a169.074 169.074 0 0 0-8.662 10.323c-5.548 7.076-10.537 14.581-14.835 22.406-4.271 7.838-7.894 15.99-10.608 24.387-2.656 8.409-4.537 17.018-5.37 25.722-1.682 17.378.85 35.137 7.006 51.717 3.118 8.196 6.886 16.045 11.583 23.384 4.691 7.355 10.265 14.156 16.601 20.814l.073.077a4.488 4.488 0 0 1-.157 6.346c-1.376 1.312-3.382 1.569-5.009.805zM1279.301 543.09a66.811 66.811 0 0 1-2.568 6.646 92.389 92.389 0 0 1-2.978 6.047c-1.056 1.975-2.219 3.876-3.359 5.797l-3.736 5.549c-5.235 7.219-11.403 13.797-18.334 19.447-3.357 2.945-7.144 5.387-10.823 7.881-3.919 2.17-7.677 4.554-11.848 6.167-8.039 3.802-16.777 5.745-25.322 7.038a4.432 4.432 0 0 1-2.444-8.442l.35-.152c7.331-3.207 14.451-6.373 20.826-10.77 1.626-1.029 3.261-2.019 4.743-3.263l4.585-3.438c2.824-2.604 5.817-4.934 8.41-7.749 5.331-5.423 10.232-11.269 14.524-17.567l3.161-4.755c.958-1.638 2.04-3.215 2.963-4.868.943-1.645 1.915-3.272 2.776-4.935.883-1.586 1.798-3.43 2.451-4.688l.404-.778a8.828 8.828 0 0 1 11.904-3.763c3.901 2.023 5.652 6.554 4.315 10.596z"/><g><path fill="#371A45" d="M684.883 1301.882a8.811 8.811 0 0 1-4.696-1.355c-37.783-23.734-93.429-13.219-93.988-13.115-4.795.957-9.439-2.186-10.38-6.974-.94-4.79 2.174-9.437 6.963-10.382 2.551-.502 63.013-12.019 106.814 15.489 4.136 2.599 5.384 8.06 2.785 12.195a8.833 8.833 0 0 1-7.498 4.142z"/></g><g><path fill="#FFF" d="M906.711 681.266c22.016 104.863 56.067 247.188 41.065 388.19-9.621 90.426-29.773 209.281-29.773 209.281s59.931 19.751 55.641 62.296c-.107 1.151 2.537 45.62-116.146 41.172-50.313-1.886-84.529-11.519-96.773-37.989-10.971-23.72-9.398-129.208-9.398-129.208v-149.235h-.156v149.235s1.573 105.488-9.398 129.208c-12.244 26.47-40.867 36.103-91.18 37.989-118.684 4.449-121.632-40.021-121.739-41.172-4.29-42.545 55.641-62.296 55.641-62.296s-20.152-118.855-29.773-209.281c-15.363-144.39 20.146-290.65 42.65-395.666 0 0 28.813-142.803 179.105-149.397s130.234 156.873 130.234 156.873z"/></g><g><path fill="#D2D2D2" d="M907.597 665.397c-40.062 22.465-95.278 36.349-156.214 36.349-59.044 0-112.714-13.031-152.431-34.273 7.681-27.677 46.289-137.324 177.525-143.09 121.295-5.305 131.628 100.121 131.12 141.014z"/></g><g><path fill="#371A45" d="M911.039 680.357c16.47 47.842 25.177 97.6 34.132 147.385 8.49 49.862 14.572 100.364 15.977 151.269.32 12.723.223 25.465-.062 38.205-.399 12.741-1.048 25.483-2.103 38.207-1.102 12.772-2.524 25.321-4.016 37.853a2572.676 2572.676 0 0 1-4.754 37.559c-3.295 25.008-7.155 49.915-11.028 74.81-3.894 24.902-7.998 49.723-12.461 74.57l-5.952-9.879.009.003c3.605 1.245 6.549 2.479 9.714 3.888a141.649 141.649 0 0 1 9.144 4.508c5.99 3.238 11.801 6.928 17.288 11.262 5.471 4.342 10.639 9.345 15.012 15.28 4.35 5.922 7.853 12.888 9.551 20.47a50.914 50.914 0 0 1 1.214 11.523c-.038.955-.038 1.934-.119 2.87l-.111 1.411-.023.308.027-.315c.006-.169.003-.144.001-.029l-.033.888a29.278 29.278 0 0 1-1.168 6.691c-2.469 8.382-7.769 14.887-13.537 19.769-5.842 4.875-12.249 8.368-18.722 11.038-6.483 2.682-13.064 4.658-19.647 6.127-13.174 3.004-26.354 4.307-39.444 4.955-13.104.614-26.087.379-39.074-.226-13.001-.706-26.092-1.904-39.235-4.574-13.066-2.717-26.5-6.683-38.69-14.882-6.055-4.062-11.622-9.388-15.888-15.694-1.074-1.571-2.03-3.214-2.949-4.876l-1.268-2.543c-.412-.892-.798-1.901-1.183-2.851-1.335-3.719-2.209-7.166-2.883-10.526-2.67-13.417-3.624-26.244-4.515-39.176-1.595-25.789-1.941-51.375-1.799-77.047l.038-152.814 8.845 8.845h-.156l8.845-8.845.036 152.585c.148 25.635-.198 51.182-1.775 76.931-.874 12.908-1.841 25.725-4.447 39.099-.682 3.36-1.517 6.788-2.776 10.449l-1.166 2.884-1.214 2.504c-.849 1.636-1.742 3.259-2.746 4.828-3.947 6.312-9.203 11.934-15.153 16.295-12.018 8.762-25.674 12.849-38.766 15.464-13.197 2.568-26.277 3.583-39.25 4.153-12.958.491-25.963.554-39.043-.215-13.071-.749-26.225-2.339-39.323-5.505-13.016-3.291-26.295-7.917-38.019-17.134-5.762-4.656-11.131-10.576-14.338-18.457-.792-1.993-1.436-4.038-1.835-6.536l-.127-.999-.062-.723-.109-1.409c-.068-.941-.08-1.913-.109-2.869-.014-3.847.381-7.734 1.247-11.503 1.71-7.569 5.229-14.508 9.576-20.415 4.373-5.919 9.538-10.907 15.002-15.239 5.48-4.325 11.284-8.006 17.266-11.238a142.003 142.003 0 0 1 9.131-4.5c3.161-1.406 6.099-2.638 9.703-3.882l.009-.003-5.952 9.879c-4.516-25.163-8.67-50.301-12.606-75.521-3.92-25.213-7.807-50.44-11.146-75.767a2728.406 2728.406 0 0 1-4.787-38.043l-2.163-19.076c-.619-6.407-1.337-12.858-1.787-19.297-2.062-25.773-2.548-51.609-1.934-77.374 1.594-51.536 7.896-102.656 16.635-153.127 4.361-25.246 9.373-50.338 14.668-75.324 5.355-24.977 11.609-49.697 20.393-73.823a4.463 4.463 0 0 1 8.649 1.854c-1.915 25.672-6.668 50.683-11.669 75.577-5.036 24.887-9.772 49.798-13.852 74.783-8.185 49.949-13.875 100.25-14.996 150.581-.634 25.151-.194 50.305 1.773 75.313.428 6.264 1.115 12.474 1.709 18.741l2.114 18.885c1.478 12.59 3.041 25.18 4.698 37.766 3.329 25.168 6.688 50.359 10.37 75.51l5.62 37.716 5.753 37.671 1.156 7.564-7.108 2.315-.003.001c-2.409.831-5.357 2.032-8.001 3.222a124.858 124.858 0 0 0-7.983 3.933c-5.208 2.812-10.18 5.983-14.688 9.543-9.012 7.08-16.138 15.956-18.302 25.711-.56 2.431-.806 4.914-.805 7.426.027.633.025 1.252.074 1.897l.077.969.037.465.025.184c.102.644.38 1.664.775 2.619 1.583 3.964 4.876 7.943 8.989 11.216 8.342 6.637 19.596 10.885 31.139 13.737 11.646 2.819 23.849 4.332 36.17 5.03 12.322.726 24.79.671 37.254.199 12.43-.539 24.795-1.535 36.587-3.838 11.743-2.298 23.028-5.978 31.657-12.333a41.764 41.764 0 0 0 10.686-11.48c.715-1.108 1.351-2.277 1.97-3.461l.868-1.787.619-1.54c.801-2.359 1.512-5.112 2.087-7.987 2.281-11.612 3.303-24.234 4.128-36.694 1.538-25.047 1.889-50.415 1.74-75.66l-.037-152.737-.002-8.845h17.851l-.003 8.845-.038 152.961c-.143 25.283.208 50.69 1.763 75.77.838 12.471 1.855 25.126 4.183 36.714.565 2.887 1.315 5.619 2.122 7.896.226.519.387 1.009.64 1.563l.863 1.733c.63 1.122 1.269 2.237 1.997 3.295 2.887 4.242 6.65 7.93 11.17 10.963 9.018 6.134 20.49 9.777 32.275 12.179 11.84 2.413 24.199 3.573 36.628 4.242 24.887 1.147 50.155.894 73.642-4.305 5.85-1.298 11.512-3.026 16.803-5.215 5.3-2.169 10.163-4.926 14.113-8.227 3.919-3.288 6.823-7.242 7.953-11.165.292-.962.454-1.936.495-2.697l.077-1.533.075-.971c.062-.651.048-1.268.082-1.903a33.113 33.113 0 0 0-.783-7.44c-2.143-9.774-9.263-18.67-18.284-25.766-4.513-3.567-9.491-6.745-14.706-9.562a125.195 125.195 0 0 0-7.993-3.94c-2.649-1.191-5.598-2.394-8.015-3.228l-5.952-9.88 5.679-37.198 5.552-37.241c3.642-24.834 6.951-49.71 10.268-74.559a2542.385 2542.385 0 0 0 4.666-37.291c1.464-12.44 2.852-24.884 3.893-37.167 1.006-12.341 1.619-24.72 1.991-37.114.268-12.399.314-24.81.03-37.228-.907-49.691-6.399-99.37-14.331-148.714-3.953-24.683-8.563-49.294-13.435-73.891-2.345-12.318-4.671-24.653-6.586-37.091-1.959-12.428-3.69-24.923-4.627-37.588l-.003-.037a4.457 4.457 0 0 1 4.116-4.774 4.45 4.45 0 0 1 4.541 2.989z"/></g><g><path fill="#371A45" d="M916.29 1287.412c-3.683-.353-7.96-.814-11.994-1.093a298.332 298.332 0 0 0-12.3-.728c-8.211-.369-16.414-.309-24.591.109-8.177.492-16.233 1.663-24.214 3.348-7.97 1.758-15.629 4.447-23.234 7.733l-.264.114a4.434 4.434 0 0 1-4.44-7.604c7.239-5.496 15.284-10.148 23.831-13.446 2.117-.899 4.303-1.509 6.465-2.276a62.384 62.384 0 0 1 6.572-1.927c2.21-.539 4.419-1.169 6.646-1.63l6.713-1.216c8.971-1.444 18.039-2.05 27.07-1.924 4.515.114 9.024.353 13.519.87 4.554.497 8.839 1.15 13.646 2.313a8.846 8.846 0 0 1-2.923 17.405l-.502-.048z"/></g><g><path fill="#371A45" d="M583.671 1270.056c4.805-1.173 9.091-1.814 13.642-2.352 4.496-.507 9.001-.808 13.52-.91 9.034-.222 18.107.387 27.102 1.741a128.846 128.846 0 0 1 26.444 7.063c8.551 3.335 16.622 8.019 23.755 13.693a4.445 4.445 0 0 1-4.424 7.604l-.28-.114c-7.712-3.108-15.344-5.766-23.311-7.486-7.978-1.616-15.999-2.863-24.167-3.333-8.152-.508-16.351-.565-24.558-.292-4.102.163-8.211.359-12.299.688-4.037.237-8.313.711-11.998 1.054l-.508.047a8.846 8.846 0 0 1-2.918-17.403z"/></g><g><path fill="#371A45" d="M960.37 960.868a28.898 28.898 0 0 1-11.641 4.106c-24.617 3.09-59.308 5.27-85.385-1.842v13.081c0 18.076-14.245 32.871-31.622 32.871H658.939c-17.399 0-31.623-14.795-31.623-32.871v-10.435c-23.96 3.789-52.027 1.821-72.897-.804a28.953 28.953 0 0 1-12.277-4.509c.212-18.203.868-36.3 1.926-54.186 4.212-2.307 8.975-3.598 13.97-3.598.466 0 .931.021 1.397.042 19.198.953 45.444 1.524 67.881-.487v-23.452c0-18.076 14.224-32.85 31.623-32.85H831.72c13.885 0 25.781 9.44 29.993 22.457a33.607 33.607 0 0 1 1.63 10.393v21.95c24.553 3.704 57.467 3.111 80.369 1.99.466-.021.931-.042 1.397-.042 4.762 0 9.271 1.164 13.314 3.238 1.058 18.139 1.756 36.491 1.947 54.948z" opacity=".25"/><path fill="#FFF" d="M650.06 931.346c-26.544 11.16-67.624 8.825-95.63 5.305-16.797-2.111-28.588-18.209-26.114-35.592 2.258-15.862 15.702-27.397 31.125-26.647 26.196 1.275 65.488 1.872 90.372-3.861"/><path fill="#D2D2D2" d="M650.068 931.342c-26.544 11.16-67.641 8.839-95.642 5.307-16.789-2.099-28.584-18.203-26.116-35.598.524-3.693 1.652-7.164 3.304-10.292 4.469 8.597 12.747 14.873 22.813 16.144 27.962 3.511 68.982 5.852 95.525-5.267l.116 29.706z"/><path fill="#371A45" d="M597.247 948.4c-15.448 0-30.786-1.321-43.92-2.97-10.272-1.293-19.451-6.616-25.846-14.992-6.578-8.614-9.466-19.777-7.923-30.624 2.918-20.49 20.267-35.227 40.312-34.235 38.401 1.872 69.635.576 87.957-3.645 4.105-.947 14.283-1.16 20.215 17.225 6.459 20.017 4.994 52.123-14.554 60.341-15.846 6.662-36.136 8.9-56.241 8.9zm-39.232-65.176c-10.46 0-19.371 8.038-20.942 19.082-.894 6.274.694 12.452 4.468 17.396 3.495 4.575 8.464 7.479 13.993 8.174 39.698 4.988 72.05 3.326 91.098-4.684h.001c2.997-1.261 5.356-5.72 6.47-12.239 2.121-12.413-1.059-26.551-3.895-31.215-25.454 5.27-62.855 4.845-90.196 3.509a20.878 20.878 0 0 0-.997-.023z"/><path fill="#FFF" d="M853.093 931.346c26.544 11.16 67.624 8.825 95.63 5.305 16.797-2.111 28.588-18.209 26.114-35.592-2.258-15.862-15.702-27.397-31.125-26.647-26.196 1.275-65.488 1.872-90.372-3.861"/><path fill="#D2D2D2" d="M948.73 936.649c-28.02 3.532-69.099 5.852-95.642-5.307l.117-29.645c26.543 11.119 67.544 8.778 95.525 5.267 10.065-1.271 18.363-7.588 22.832-16.185a32.14 32.14 0 0 1 3.284 10.272c2.468 17.396-9.327 33.499-26.116 35.598z"/><path fill="#371A45" d="M905.907 948.4c-20.108 0-40.394-2.238-56.242-8.901-19.55-8.218-21.013-40.326-14.552-60.344 5.932-18.383 16.113-18.172 20.213-17.223 18.322 4.219 49.557 5.515 87.956 3.645 20.058-1.016 37.396 13.743 40.313 34.235 1.543 10.847-1.344 22.011-7.923 30.624-6.395 8.376-15.573 13.698-25.845 14.992-13.133 1.651-28.475 2.972-43.92 2.972zm-51.961-68.663c-2.835 4.664-6.015 18.805-3.894 31.218 1.114 6.517 3.471 10.978 6.468 12.237 19.049 8.013 51.402 9.672 91.1 4.684 5.529-.695 10.497-3.598 13.992-8.174 3.775-4.941 5.362-11.122 4.468-17.396-1.621-11.394-11.044-19.572-21.939-19.06-27.334 1.331-64.737 1.761-90.195-3.509z"/><path fill="#FFF" d="M863.348 850.459v97.43c0 18.081-14.243 32.874-31.635 32.874H658.948c-17.411 0-31.634-14.792-31.634-32.874v-97.43c0-18.061 14.224-32.853 31.634-32.853h172.766c13.893 0 25.786 9.444 30.002 22.461a33.957 33.957 0 0 1 1.632 10.392z"/><path fill="#D2D2D2" d="M863.348 850.459v97.43c0 18.081-14.243 32.874-31.635 32.874H658.948c-17.411 0-31.634-14.792-31.634-32.874v-32.793c29.808 17.133 88.86 42.863 148.126 21.633 28.952-10.379 62.148-45.949 62.148-45.949s1.279 37.321 6.61 36.732c14.825-1.638 14.715-77.15 17.518-87.447a33.98 33.98 0 0 1 1.632 10.394z"/><path fill="#371A45" d="M829.665 989.599h-168.68c-23.449 0-42.525-19.078-42.525-42.527v-95.786c0-23.447 19.076-42.525 42.525-42.525h168.68c23.449 0 42.526 19.078 42.526 42.525v95.786c0 23.45-19.078 42.527-42.526 42.527zm-168.68-163.145c-13.694 0-24.835 11.139-24.835 24.832v95.786c0 13.694 11.141 24.835 24.835 24.835h168.68c13.695 0 24.836-11.141 24.836-24.835v-95.786c0-13.694-11.141-24.832-24.836-24.832h-168.68z"/><ellipse fill="#3080E8" cx="806.531" cy="899.18" rx="27.282" ry="28.334"/><path fill="#FFF" d="M833.82 899.189c0 1.93-.179 3.805-.536 5.624-2.52-12.975-13.548-22.739-26.757-22.739-13.209 0-24.237 9.764-26.739 22.739a29.061 29.061 0 0 1-.536-5.624c0-15.648 12.208-28.345 27.276-28.345s27.292 12.696 27.292 28.345z"/><path fill="#197BDD" d="M833.812 899.175c0 15.66-12.222 28.333-27.282 28.333s-27.282-12.673-27.282-28.333c0-2.623.35-5.186.991-7.588 3.206 11.947 13.777 20.725 26.291 20.725 12.514 0 23.084-8.779 26.291-20.725.641 2.401.991 4.964.991 7.588z"/><path fill="#371A45" d="M806.53 934.148c-18.702 0-33.916-15.687-33.916-34.967s15.214-34.967 33.916-34.967c18.702 0 33.917 15.687 33.917 34.967s-15.215 34.967-33.917 34.967zm0-56.669c-11.385 0-20.648 9.737-20.648 21.701 0 11.965 9.263 21.701 20.648 21.701 11.386 0 20.649-9.737 20.649-21.701s-9.263-21.701-20.649-21.701zM729.216 989.599a8.846 8.846 0 0 1-8.845-8.846v-49.868c0-9.576-4.369-18.709-11.685-24.432l-4.385-3.425c-11.574-9.049-18.481-23.393-18.481-38.368v-47.053a8.846 8.846 0 1 1 17.69 0v47.053c0 9.576 4.369 18.709 11.685 24.432l4.385 3.425c11.574 9.049 18.482 23.393 18.482 38.368v49.868c-.001 4.884-3.96 8.846-8.846 8.846z"/></g><g><path fill="#371A45" d="M655.812 1153.633c-31.201 0-66.091-5.621-98.892-23.218a8.846 8.846 0 0 1 8.364-15.59c81.604 43.779 181.791 5.179 182.794 4.783 4.542-1.781 9.678.44 11.473 4.981a8.844 8.844 0 0 1-4.97 11.473c-2.776 1.097-45.365 17.571-98.769 17.571z"/></g><g><path fill="#371A45" d="M846.709 1153.633c-53.389 0-95.944-16.476-98.717-17.574a8.843 8.843 0 0 1-4.966-11.48c1.798-4.538 6.931-6.766 11.474-4.968 1 .393 101.113 38.993 182.715-4.785a8.846 8.846 0 0 1 8.363 15.59c-32.796 17.593-67.685 23.217-98.869 23.217z"/></g><g><path fill="#FFF" d="M675.217 1061.998s30.836 13.781 76.032 13.781 76.188-13.781 76.188-13.781-20.48-16.175-76.188-16.175-76.032 16.175-76.032 16.175z"/></g><g><path fill="#371A45" d="M665.615 1056.763c6.882 1.844 14.236 3.568 21.439 4.921 7.233 1.43 14.507 2.584 21.788 3.552 7.304.814 14.575 1.761 21.901 2.098 3.653.252 7.309.402 10.964.57 3.655.144 7.315.1 10.971.156 7.311-.073 14.632-.192 21.931-.802 7.327-.315 14.592-1.304 21.896-2.114 3.645-.464 7.276-1.023 10.91-1.609 3.637-.563 7.273-1.188 10.88-1.93 7.211-1.326 14.563-3.046 21.467-4.844l.273-.071a4.44 4.44 0 0 1 3.321 8.153c-7.071 4.036-14.198 6.864-21.583 9.536-7.382 2.521-14.892 4.705-22.529 6.331-7.623 1.7-15.359 2.888-23.129 3.755-7.778.819-15.603 1.144-23.429 1.259-15.652-.127-31.299-1.689-46.553-5.057-7.637-1.622-15.146-3.811-22.529-6.328-7.39-2.652-14.513-5.486-21.596-9.5a4.438 4.438 0 0 1 3.333-8.15l.274.074z"/></g><g opacity=".3"><path fill="#371A45" d="M973.622 1341.041c-.113 1.143-3.054 45.609-121.742 41.167-50.312-1.892-78.925-11.524-91.18-38.001-4.291-9.294-6.671-29.213-7.964-49.993l-1.106-79.707-1.893 79.707c-1.293 20.781-3.673 40.699-7.964 49.993-12.255 26.477-40.868 36.108-91.18 38.001-118.687 4.441-121.629-40.025-121.742-41.167-.618-6.165.112-11.861 1.799-17.071 4.291 7.064 17.108 17.239 54.734 22.411 61.068 8.376 126.651.918 137.781-39.687 8.376-30.562 22.167-194.797-24.247-214.622-71.767-30.674-98.113-55.334-78.157-59.306 10.137-2.024 36.86 6.39 130.474 6.39s120.336-8.413 130.474-6.39c19.956 3.973-6.39 28.632-78.157 59.306-46.414 19.825-32.623 184.06-24.247 214.622 11.13 40.606 76.714 48.063 137.781 39.687 37.626-5.172 50.443-15.346 54.734-22.411 1.689 5.209 2.42 10.906 1.802 17.071z"/></g><g><path fill="#FFF" d="m1066.049 469.03-11.747-.739a5.516 5.516 0 0 1-5.159-5.852l11.958-190.075a5.516 5.516 0 0 1 5.852-5.159l11.747.739c31.899 2.007 56.132 29.493 54.125 61.393l-5.383 85.569c-2.007 31.898-29.494 56.131-61.393 54.124z"/><path fill="#371A45" d="M1069.767 470.926c-1.272 0-2.548-.04-3.829-.121l-11.746-.739a7.247 7.247 0 0 1-5.016-2.456 7.26 7.26 0 0 1-1.809-5.283l11.959-190.075a7.244 7.244 0 0 1 2.457-5.015 7.244 7.244 0 0 1 5.282-1.808l11.746.739c15.902.999 30.464 8.134 41 20.084 10.538 11.952 15.79 27.293 14.789 43.195l-5.383 85.569c-1 15.902-8.134 30.464-20.085 40.999-10.99 9.691-24.843 14.911-39.365 14.911zm-3.607-3.672c14.96.955 29.379-3.997 40.619-13.906 11.239-9.907 17.946-23.601 18.887-38.553l5.383-85.569c.941-14.955-3.998-29.38-13.906-40.618-9.908-11.24-23.601-17.947-38.554-18.887l-11.747-.739a3.705 3.705 0 0 0-2.706.925 3.715 3.715 0 0 0-1.259 2.57l-11.959 190.075c-.063.997.267 1.956.927 2.706s1.573 1.197 2.568 1.259l11.747.737z"/><path fill="#D2D2D2" d="m1130.008 374.113-1.885 30.073c-2.384 37.809-34.971 66.548-72.803 64.182-3.604-.223-6.34-3.348-6.117-6.953l3.128-49.986a6.552 6.552 0 0 0 5.696 4.246l4.46.268c29.888 1.887 56.526-15.673 67.521-41.83z"/><path fill="#371A45" d="M1069.778 479.051c-1.446 0-2.896-.047-4.351-.138l-11.746-.74a15.308 15.308 0 0 1-10.597-5.191 15.32 15.32 0 0 1-3.825-11.161l11.96-190.077a15.319 15.319 0 0 1 5.191-10.6 15.299 15.299 0 0 1 11.17-3.821l11.742.739c18.067 1.135 34.611 9.24 46.583 22.819 11.972 13.58 17.94 31.008 16.802 49.076l-5.381 85.569c-1.138 18.068-9.242 34.611-22.822 46.583-12.486 11.009-28.227 16.942-44.726 16.942zm-3.108-19.904c12.796.789 25.123-3.418 34.736-11.893 9.612-8.473 15.348-20.183 16.153-32.969l5.381-85.569c.805-12.788-3.418-25.127-11.892-34.737-8.474-9.61-20.183-15.348-32.971-16.152l-7.369-.462-11.408 181.318 7.37.464z"/><path fill="#FFF" d="m436.606 227.547 11.747.739a5.516 5.516 0 0 1 5.159 5.852l-11.958 190.075a5.516 5.516 0 0 1-5.852 5.159l-11.747-.739c-31.899-2.007-56.132-29.493-54.125-61.393l5.383-85.569c2.007-31.898 29.493-56.131 61.393-54.124z"/><path fill="#371A45" d="M436.051 431.164a7.12 7.12 0 0 1-.461-.015l-11.747-.739c-32.828-2.068-57.854-30.454-55.789-63.279l5.384-85.569c2.065-32.828 30.462-57.858 63.279-55.791l11.747.739c4.016.255 7.076 3.727 6.823 7.738L443.33 424.323c-.244 3.861-3.463 6.841-7.279 6.841zm-3.114-201.953c-29.34 0-54.08 22.896-55.948 52.573l-5.384 85.569c-1.943 30.869 21.591 57.561 52.461 59.505l11.747.739c2.081.143 3.837-1.439 3.966-3.497l11.957-190.075a3.742 3.742 0 0 0-3.496-3.964l-11.746-.739a57.427 57.427 0 0 0-3.557-.111z"/><path fill="#D2D2D2" d="m444.915 371.029-3.288 52.163c-.223 3.604-3.349 6.34-6.952 6.118-19.851-1.258-37.218-10.827-48.881-25.126-10.532-12.912-16.41-29.697-15.283-47.655l1.698-27.018c9.245 24.379 32.127 42.399 59.857 44.148l6.862.431c2.505.151 4.722-1.1 5.987-3.061z"/><path fill="#371A45" d="M436.056 439.288c-.323 0-.647-.01-.974-.032l-11.75-.739c-37.298-2.347-65.732-34.601-63.386-71.895l5.384-85.569c2.346-37.299 34.553-65.755 71.897-63.388l11.747.739c8.488.539 14.955 7.877 14.419 16.357l-11.956 190.072c-.514 8.159-7.317 14.455-15.381 14.455zm-3.115-201.953c-25.09 0-46.248 19.58-47.846 44.958l-5.384 85.569c-1.661 26.398 18.465 49.227 44.864 50.889l7.37.462 11.407-181.32-7.37-.465a49.225 49.225 0 0 0-3.041-.093z"/><circle fill="#FFF" cx="751.366" cy="348.291" r="321.053"/><path fill="#371A45" d="M751.587 671.148c-14.292 0-28.746-.952-43.293-2.911-85.46-11.505-161.325-55.603-213.62-124.167-52.295-68.567-74.758-153.391-63.253-238.852s55.603-161.325 124.167-213.621c68.564-52.294 153.39-74.754 238.852-63.252 176.417 23.752 300.622 186.6 276.873 363.019-21.794 161.87-160.691 279.784-319.726 279.784zm-.882-642.186c-69.506 0-136.751 22.597-192.96 65.465-67.809 51.717-111.419 126.749-122.798 211.267-11.379 84.518 10.837 168.408 62.556 236.218 51.717 67.81 126.748 111.42 211.266 122.799 174.482 23.494 335.529-99.349 359.017-273.821l1.763.237-1.763-.237c23.488-174.475-99.348-335.528-273.821-359.017a324.218 324.218 0 0 0-43.26-2.911z"/><path fill="#D2D2D2" d="M1072.429 346.671c.089 14.66-.864 29.5-2.874 44.459-23.681 175.719-185.305 298.994-361.029 275.354-175.719-23.68-298.993-185.305-275.354-361.028a309.546 309.546 0 0 1 2.388-15.043c.599 157.776 117.446 294.918 278.228 316.569 170.67 22.962 328.013-92.653 358.641-260.311z"/><path fill="#371A45" d="M751.593 679.273c-14.652 0-29.469-.977-44.382-2.985-87.612-11.794-165.386-57-218.997-127.29-53.611-70.29-76.639-157.252-64.845-244.861 11.795-87.612 57.001-165.386 127.292-218.998 70.29-53.609 157.248-76.654 244.863-64.842 180.856 24.348 308.186 191.294 283.84 372.152-22.341 165.941-164.735 286.824-327.771 286.824zm-.871-642.187c-67.738 0-133.272 22.023-188.051 63.801-66.084 50.402-108.585 123.521-119.673 205.89-11.089 82.369 10.561 164.125 60.963 230.208 50.403 66.084 123.523 108.586 205.892 119.676 170.029 22.869 326.989-96.822 349.881-266.855 22.89-170.035-96.82-326.993-266.853-349.884a316.027 316.027 0 0 0-42.159-2.836zm318.827 354.041h.026-.026z"/><path fill="#371A45" d="M1067.431 399.161c-7.441 62.383-34.599 117.884-74.947 161.673-30.249 32.828-144.483 82.971-276.423 68.436-122.337-13.478-225.754-91.896-247.433-130.918-28.917-52.05-42.26-112.382-34.819-174.765 19.69-165.084 169.687-216.603 344.665-195.733 174.976 20.87 308.647 106.223 288.957 271.307z"/><path fill="#371A45" d="M764.328 641.82c-16.012 0-32.488-.851-49.352-2.708-127.292-14.022-232.098-94.717-255.006-135.951-30.998-55.793-43.444-118.296-35.995-180.746 9.724-81.536 49.932-140.509 119.505-175.286 60.523-30.253 142.19-40.316 236.165-29.108 93.978 11.208 170.984 40.2 222.694 83.84 59.442 50.162 84.65 116.938 74.925 198.474l-9.833-1.172 9.833 1.172c-7.449 62.451-34.247 120.272-77.498 167.209-26.422 28.675-118.149 74.276-235.438 74.276zm-56.836-508.457c-60.619 0-113.435 10.627-155.157 31.483-63.238 31.609-99.808 85.411-108.694 159.913-6.953 58.291 4.68 116.654 33.642 168.782 20.542 36.975 121.023 112.796 239.862 125.886a427.074 427.074 0 0 0 46.724 2.557c110.308.005 197.774-42.292 221.332-67.859 40.41-43.855 65.444-97.846 72.396-156.134 8.887-74.502-14.003-135.4-68.032-180.994-48.742-41.135-122.143-68.562-212.265-79.31-24.214-2.889-47.537-4.324-69.808-4.324z"/><ellipse transform="rotate(-72.926 967.192 364.457)" fill="#FFF" cx="967.141" cy="364.454" rx="56.816" ry="41.17" opacity=".7"/><ellipse transform="rotate(-64.982 903.773 470.212)" fill="#FFF" cx="903.732" cy="470.236" rx="26.078" ry="22.379" opacity=".7"/><g opacity=".35"><path fill="#111A28" d="M1024.182 237.803c34.321 41.576 51.146 95.043 43.246 161.348-7.442 62.396-34.612 117.892-74.936 161.684-30.257 32.827-144.501 82.966-276.439 68.444-46.588-5.119-90.415-19.671-128.05-37.896 162.565 14.394 301.787-47.265 339.3-87.982 51.213-55.575 85.68-126.026 95.11-205.186 2.537-21.156 3.045-41.287 1.769-60.412z"/></g><g><path fill="#371A45" d="M1057.449 261.047a9.867 9.867 0 0 1-7-2.901 10.73 10.73 0 0 1-.438-.465l-.747-.838-.539-.984c-44.45-81.209-142.586-136.448-269.249-151.559-127.345-15.182-235.786 16.82-297.495 87.822l-.686.715c-3.987 3.744-10.275 3.576-14.02-.406-3.601-3.826-3.586-9.742-.049-13.523 66.111-75.877 180.755-110.238 314.597-94.274 132.872 15.85 236.356 74.613 284.029 161.263 2.39 3.823 1.925 8.925-1.4 12.249a9.872 9.872 0 0 1-7.003 2.901z"/></g><g opacity=".7"><path fill="#FFF" d="M493.244 430.28s-31.705-168.954 63.804-223.384 221.751-39.106 217.833-31.36c0 0-143.83 17.169-211.71 121.161-52.343 80.191-69.927 133.583-69.927 133.583z"/></g></g><g><path fill="#371A45" d="m377.012 1251.418-10.148 22.618a1314.645 1314.645 0 0 1-15.559-2.345l9.103-20.273-27.913-10.078 1.904-5.295 42.613 15.373z" opacity=".35"/></g><g><path fill="#8930E8" d="m1028.063 1327.509-58.435 84.56-12.544 18.142a60.056 60.056 0 0 1-32.863 23.602 630.342 630.342 0 0 1-347.916 0 60.352 60.352 0 0 1-18.488-8.95 60.04 60.04 0 0 1-14.376-14.652l-12.544-18.142-58.435-84.56h555.601z"/></g><g opacity=".35"><path fill="#371A45" d="m1028.063 1327.509-58.435 84.56a965.763 965.763 0 0 1-438.731 0l-58.435-84.56h555.601z"/></g><g opacity=".35"><path fill="#FFF" d="m1028.063 1327.509-58.435 84.56-12.544 18.142a60.056 60.056 0 0 1-32.863 23.602 630.342 630.342 0 0 1-347.916 0 60.352 60.352 0 0 1-18.488-8.95 60.04 60.04 0 0 1-14.376-14.652l-12.544-18.142-58.435-84.56h10.194l48.241 69.804 12.544 18.142a60.005 60.005 0 0 0 14.376 14.652 60.341 60.341 0 0 0 18.488 8.95 630.342 630.342 0 0 0 347.916 0 60.056 60.056 0 0 0 32.863-23.602l12.544-18.142 48.241-69.804h10.194z"/></g><g><path fill="#371A45" d="M750.26 1487.169c-59.348 0-118.693-8.285-176.392-24.85-15.276-4.39-28.664-14.005-37.699-27.076l-70.983-102.71a8.844 8.844 0 0 1 7.276-13.874h555.602a8.846 8.846 0 0 1 7.275 13.874l-70.983 102.708a69.112 69.112 0 0 1-37.699 27.075c-57.697 16.569-117.049 24.853-176.397 24.853zm-260.933-150.817 61.393 88.834a51.4 51.4 0 0 0 28.029 20.126c112.207 32.222 230.823 32.222 343.027.003v-.003a51.39 51.39 0 0 0 28.028-20.126l61.395-88.834H489.327z"/></g><g><path fill="#B65CE0" d="M1016.844 1375.606a965.936 965.936 0 0 1-533.162 0 92.123 92.123 0 0 1-50.362-36.17L324.54 1182.04h851.445l-108.779 157.397a92.126 92.126 0 0 1-50.362 36.169z"/></g><g><path fill="#8930E8" d="m1175.983 1182.043-79.256 114.676-29.529 42.712a92.063 92.063 0 0 1-50.349 36.181 965.942 965.942 0 0 1-533.174 0 92.347 92.347 0 0 1-28.319-13.719 92.58 92.58 0 0 1-22.03-22.462l-29.529-42.712-79.256-114.676h851.442z"/></g><g opacity=".35"><path fill="#FFF" d="m1175.983 1182.043-79.256 114.676-29.529 42.712a92.063 92.063 0 0 1-50.349 36.181 965.942 965.942 0 0 1-533.174 0 92.347 92.347 0 0 1-28.319-13.719 92.58 92.58 0 0 1-22.03-22.462l-29.529-42.712-79.256-114.676h11.386l67.869 98.193 29.529 42.712a92.562 92.562 0 0 0 22.03 22.462 92.347 92.347 0 0 0 28.319 13.719 965.942 965.942 0 0 0 533.174 0 92.054 92.054 0 0 0 50.349-36.181l29.529-42.712 67.869-98.193h11.388z"/></g><g opacity=".35"><path fill="#371A45" d="m1175.983 1182.043-79.256 114.676c-10.937 7.844-23.585 13.736-37.269 17.244-202.052 51.887-416.338 51.887-618.39 0-11.87-3.058-22.963-7.896-32.846-14.237a100.337 100.337 0 0 1-4.423-3.006l-79.256-114.676h851.44z"/></g><g><path fill="#371A45" d="M750.262 1422.008c-90.512 0-181.023-12.633-269.021-37.9-22.366-6.42-41.969-20.5-55.198-39.644l-108.779-157.398a8.845 8.845 0 0 1 7.278-13.874h851.444a8.846 8.846 0 0 1 7.275 13.874l-108.779 157.398c-13.229 19.144-32.832 33.224-55.197 39.644-87.998 25.267-178.51 37.9-269.023 37.9zm-408.856-231.123 99.191 143.524c10.91 15.788 27.079 27.399 45.526 32.694 172.8 49.62 355.477 49.62 528.28 0 18.447-5.295 34.616-16.906 45.526-32.694l99.191-143.524H341.406z"/></g><g opacity=".35"><path fill="#371A45" d="m774.175 1285.717-.511 13.283c-4.714.047-9.474.07-14.212.07l.534-13.353h14.189z"/></g><g opacity=".5"><path fill="#FFF" d="M541.145 799.251c.083.095.166.202.249.297l-.308-.344c.012.012.036.024.047.036l.012.011zM541.394 799.548l5.896 6.607a124.393 124.393 0 0 1-5.896-6.607zM958.58 799.251v-.012c.012-.012.024-.012.036-.012"/></g><g opacity=".3"><path fill="#0F2675" d="m541.216 781.173 6.18 6.928a126.778 126.778 0 0 1-6.18-6.928zM952.328 788.1l6.003-6.726c-1.91 2.313-3.927 4.544-6.003 6.726zM958.58 781.078c.012-.012.036-.036.059-.047l-.308.344c.083-.096.166-.202.249-.297z"/></g><g><path fill="#3080E8" d="M1409.423 1196.176c-.02.04-.039.059-.059.059-56.142 65.644-330.313 115.464-660.053 115.464-348.842 0-635.478-55.747-667.579-127.02-9.699-15.981-9.699-69.772 0-85.774-1.995 4.405-3.003 8.85-3.003 13.354 0 18.846 17.74 36.822 49.919 53.238 7.882 4.03 16.633 7.961 26.194 11.793 112.027 44.783 336.2 75.363 594.468 75.363 259.395 0 484.397-30.837 595.93-75.975 9.008-3.615 17.265-7.349 24.732-11.181 32.18-16.416 49.919-34.392 49.919-53.238 0-8.475-3.595-16.791-10.47-24.851 28.612 26.212 14.719 94.525.002 108.768z"/></g><g opacity=".35"><path fill="#FFF" d="M1419.071 1119.288c.553 2.332.829 4.665.829 7.015 0 18.851-17.745 36.82-49.934 53.234-7.464 3.836-15.723 7.568-24.725 11.179-111.531 45.148-336.529 75.99-595.929 75.99-258.276 0-482.445-30.583-594.477-75.368-9.555-3.836-18.298-7.758-26.194-11.801-32.172-16.414-49.917-34.384-49.917-53.234 0-2.35.276-4.682.829-7.015 3.836 16.293 20.941 31.844 49.088 46.202 7.896 4.043 16.639 7.965 26.194 11.801 112.032 44.785 336.201 75.368 594.477 75.368 259.399 0 484.397-30.842 595.929-75.973 9.002-3.629 17.261-7.36 24.725-11.196 28.164-14.358 45.269-29.909 49.105-46.202z"/></g><g><path fill="#197BDD" d="M1409.43 1196.176c-.035.035-.052.052-.069.052-56.137 65.658-330.309 115.471-660.048 115.471-348.849 0-635.479-55.74-667.582-127.013-6.047-9.969-8.328-34.66-6.825-55.705.916 12.63 3.196 23.948 6.825 29.943 32.103 71.273 318.733 127.03 667.582 127.03 329.739 0 603.911-49.831 660.048-115.471.017 0 .034-.017.069-.052 6.998-6.773 13.805-25.779 15.948-46.668 3.369 29.131-6.099 62.893-15.948 72.413z"/></g><g><path fill="#3080E8" d="M1420.846 1112.255c0 18.862-17.734 36.818-49.908 53.225-7.497 3.848-15.745 7.585-24.744 11.211-108.176 43.783-323.134 74.1-572.654 75.891-7.717.044-15.479.066-23.284.066-8.071 0-16.099-.022-24.103-.066-248.083-1.836-461.847-31.909-570.354-75.294-9.575-3.825-18.309-7.762-26.204-11.808-32.174-16.407-49.931-34.363-49.931-53.225 0-4.489 3.008-13.356 3.008-13.356l284.304-159.654 3.273-1.835 27.397-15.413 8.292-4.666 16.497-9.243c1.304.597 2.676 1.172 4.091 1.769 52.717 21.98 177.83 37.415 323.752 37.415 153.485 0 283.928-17.071 331.36-40.886l4.18 2.3 13.046 7.165 3.582 1.99 30.073 16.562 7.96 4.378 269.842 148.575s.044.022.066.044c1.99 2.322 3.693 4.666 5.086 7.032.066.089.133.155.177.243 3.449 5.771 5.196 11.631 5.196 17.58z"/></g><g opacity=".35"><path fill="#FFF" d="M1140.479 938.78c-32.262 42.302-193.243 74.453-386.929 74.453-193 0-353.494-31.909-386.575-73.989l3.273-1.835 27.397-15.413 8.292-4.666 16.497-9.243c1.304.597 2.676 1.172 4.091 1.769 52.717 21.98 177.83 37.415 323.752 37.415 153.485 0 283.928-17.071 331.36-40.886l4.18 2.3 13.046 7.165 3.582 1.99 30.073 16.562 7.961 4.378z"/></g><g opacity=".35"><path fill="#FFF" d="M1415.65 1094.684a2.298 2.298 0 0 0-.173-.26c-.156-.242-.294-.484-.467-.725v-.017c-1.296-2.108-2.851-4.198-4.631-6.272-.017-.035-.069-.052-.069-.052L1102.447 917.84l-16.622-9.158-4.181-2.298c-47.429 23.81-177.88 40.898-331.363 40.898-145.933 0-271.045-15.447-323.761-37.425a116.493 116.493 0 0 1-4.095-1.779l-24.777 13.926-310.354 174.304-4.613 2.592s-3.006 8.864-3.006 13.356c0 .656.017 1.33.069 1.987.035.518.086 1.037.138 1.538.069.587.155 1.175.259 1.762.121.639.242 1.279.415 1.935.225.985.518 1.987.864 2.972 5.183 15.136 21.857 29.615 48.172 43.04 7.896 4.043 16.639 7.965 26.211 11.801 108.508 43.386 322.275 73.45 570.357 75.281 8 .052 16.034.086 24.103.086 7.792 0 15.55-.035 23.274-.086 249.533-1.78 464.475-32.103 572.655-75.886 9.002-3.629 17.261-7.36 24.742-11.196 26.591-13.564 43.334-28.198 48.31-43.507.138-.397.259-.812.38-1.21.19-.604.328-1.192.449-1.78.121-.415.19-.829.259-1.244a2.65 2.65 0 0 0 .069-.328c.087-.501.173-1.002.225-1.503.087-.657.138-1.313.173-1.97a27.72 27.72 0 0 0 .052-1.693c0-5.943-1.762-11.818-5.201-17.571zm-44.716 33.623c-7.481 3.836-15.74 7.568-24.742 11.196-108.18 43.783-323.122 74.107-572.655 75.886-7.723.052-15.481.086-23.274.086-8.069 0-16.103-.035-24.103-.086-248.082-1.831-461.849-31.896-570.357-75.281-9.572-3.836-18.315-7.758-26.211-11.801l-.365-.187c-14.301-7.323-14.565-27.698-.556-35.565l268.977-151.061 24.777-13.926c1.313.605 2.678 1.192 4.095 1.78 52.716 21.978 177.828 37.425 323.761 37.425 153.483 0 283.934-17.088 331.363-40.898l4.181 2.298 16.622 9.158 275.613 151.757c13.844 7.623 14.055 27.589.252 35.287a231.571 231.571 0 0 1-7.378 3.932z"/></g><g><path fill="#371A45" d="M749.311 1320.544c-168.545 0-329.862-13.12-454.231-36.941-88.827-17.015-199.152-47.261-221.201-94.828-11.01-19.132-10.915-75.971.289-94.455a8.842 8.842 0 0 1 11.689-3.24 8.846 8.846 0 0 1 3.931 11.475c-1.49 3.289-2.215 6.465-2.215 9.704 0 14.626 15.593 30.31 45.093 45.357 7.526 3.848 16.091 7.704 25.468 11.463 115.302 46.094 341.83 74.727 591.177 74.727 250.725 0 477.8-28.864 592.61-75.328 8.734-3.504 16.804-7.15 24.013-10.852 29.521-15.056 45.114-30.741 45.114-45.367 0-6.183-2.811-12.613-8.355-19.112a8.844 8.844 0 0 1 .589-12.103 8.845 8.845 0 0 1 12.117-.158c15.71 14.393 19.278 37.119 19.504 53.649.37 27.066-7.984 56.678-19.065 67.738-37.023 42.832-146.738 69.87-232.36 85.018-121.196 21.444-275.386 33.253-434.167 33.253zM83.28 1143.73c.156 15.182 2.16 30.011 6.013 36.359.187.309.355.628.503.957 14.167 31.455 90.203 62.503 208.611 85.181 123.306 23.618 283.441 36.627 450.904 36.627 317.672 0 598.543-48.309 653.331-112.37.158-.185.324-.364.496-.534l.134-.131c5.505-5.327 12.809-25.458 13.832-48.159-9.091 11.104-23.488 21.706-43.111 31.715-7.674 3.94-16.246 7.815-25.459 11.51-116.754 47.254-346.372 76.614-599.222 76.614-251.446 0-480.491-29.121-597.751-75.996-9.884-3.962-18.945-8.042-26.939-12.133-18.395-9.38-32.199-19.287-41.342-29.64z"/></g><g><path fill="#371A45" d="M750.263 1261.504c-8.09 0-16.142-.037-24.161-.089-241.142-1.778-460.922-30.867-573.584-75.912-9.905-3.969-18.972-8.052-26.957-12.138-36.315-18.531-54.732-39.092-54.732-61.11 0-5.522 2.661-13.792 3.476-16.196a8.84 8.84 0 0 1 4.045-4.87l339.741-190.822a8.865 8.865 0 0 1 8.028-.326c1.213.559 2.476 1.101 3.784 1.642 53.56 22.33 179.307 36.753 320.379 36.753 148.214 0 279.784-16.055 327.395-39.955a8.831 8.831 0 0 1 8.228.153l20.811 11.458 307.862 169.521a9.12 9.12 0 0 1 2.511 2.038l.003-.002c2.238 2.609 4.191 5.28 5.806 7.951.119.176.23.354.339.534 4.29 7.179 6.461 14.616 6.461 22.122 0 22.018-18.418 42.579-54.742 61.115-7.628 3.91-16.199 7.788-25.457 11.52-112.347 45.47-333.022 74.796-575.898 76.525-7.748.051-15.526.088-23.338.088zM90.081 1104.89c-.851 2.965-1.562 6.074-1.562 7.365 0 14.621 15.593 30.305 45.092 45.357 7.513 3.846 16.084 7.701 25.482 11.468 110.743 44.278 328.058 72.882 567.132 74.648 15.672.104 31.57.106 47.252 0 240.788-1.716 458.969-30.548 569.395-75.239 8.777-3.539 16.858-7.192 24.027-10.869 29.514-15.059 45.107-30.743 45.107-45.364 0-4.209-1.295-8.537-3.847-12.863a10.49 10.49 0 0 1-.281-.44 40.04 40.04 0 0 0-3.246-4.622L1081.35 916.317c-52.942 23.902-184.452 39.812-331.07 39.812-143.222 0-271.641-14.96-327.166-38.108l-.188-.077L90.081 1104.89zm1318.469-4.966c.007.007.014.017.02.025-.006-.007-.012-.017-.02-.025zm-.018-.022c.002.002.004.002.006.005l-.006-.005z"/></g><g><path fill="#8930E8" d="M1102.447 908.996c-.743 7.654-1.693 13.753-1.693 15.274 0 33.554-156.904 60.733-350.473 60.733-193.552 0-350.456-27.179-350.456-60.733 0-1.642-1.123-5.667-2.177-11.11-2.004-10.315-3.749-25.71 2.937-39.498a11.195 11.195 0 0 0-.76 4.06c0 6.307 5.546 12.406 15.879 18.108a83.754 83.754 0 0 0 6.721 3.404c1.313.604 2.678 1.192 4.095 1.779 52.716 21.978 177.828 37.425 323.761 37.425 153.483 0 283.934-17.088 331.363-40.898 12.389-6.203 19.11-12.872 19.11-19.818 0-2.056-.57-4.078-1.711-6.065 5.321 7.378 4.647 24.536 3.404 37.339z"/></g><g opacity=".35"><path fill="#371A45" d="M1102.445 908.994c-.751 7.651-1.702 13.754-1.702 15.28 0 33.545-156.89 60.722-350.465 60.722-193.552 0-350.443-27.177-350.443-60.722 0-1.636-1.128-5.661-2.189-11.123-1.415-7.187-2.676-16.872-1.039-26.756a98.31 98.31 0 0 0 1.039 6.28c1.061 5.462 2.189 9.487 2.189 11.123 0 33.545 156.89 60.722 350.443 60.722 193.575 0 350.465-27.177 350.465-60.722 0-1.526.951-7.629 1.702-15.28.155-1.504.288-3.052.398-4.644.907 7.85.354 17.292-.398 25.12z"/></g><g><path fill="#371A45" d="M750.281 993.848c-124.1 0-358.642-14.5-359.3-69.343-.085-.65-.466-2.372-.775-3.769a226.687 226.687 0 0 1-1.242-5.891c-3.498-18.014-2.3-32.749 3.663-45.045a8.838 8.838 0 0 1 11.478-4.254 8.842 8.842 0 0 1 4.737 11.287 2.374 2.374 0 0 0-.172.888c0 1.533 2.382 5.438 11.306 10.362a76.068 76.068 0 0 0 6.105 3.094 103.25 103.25 0 0 0 3.835 1.667c53.547 22.327 179.295 36.748 320.366 36.748 148.214 0 279.784-16.055 327.395-39.955 11.236-5.626 14.233-10.137 14.233-11.915 0-.18 0-.725-.535-1.657a8.847 8.847 0 0 1 2.871-11.839 8.852 8.852 0 0 1 11.971 2.255c5.561 7.709 7.161 21.491 5.034 43.371h.001c-.388 3.989-.83 7.568-1.17 10.323-.215 1.736-.459 3.705-.485 4.246.001 54.885-235.036 69.427-359.316 69.427zM404.793 899.45c.193 3.744.706 7.746 1.537 12.024.396 2.04.801 3.87 1.149 5.441.717 3.245 1.191 5.386 1.191 7.355 0 4.929 17.122 20.688 95.311 34.233 65.7 11.384 153.173 17.653 246.301 17.653 93.136 0 180.612-6.269 246.314-17.653 78.19-13.545 95.313-29.304 95.313-34.233 0-1.241.178-2.728.616-6.267.325-2.631.748-6.049 1.118-9.863.27-2.772.465-5.31.599-7.625-2.555 1.687-5.432 3.329-8.637 4.934-49.843 25.02-184.602 41.835-335.322 41.835-143.222 0-271.641-14.96-327.166-38.108a129.771 129.771 0 0 1-4.396-1.912 93.046 93.046 0 0 1-7.382-3.744c-2.391-1.317-4.573-2.673-6.546-4.07zm-13.814 24.82v.069-.069z"/></g><g><path fill="#8930E8" d="M813.049 1098.356c8.234 39.745-17.641 80.957-60.09 80.957-42.449 0-68.323-41.212-60.09-80.957 6.463-31.196 32.847-51.955 60.09-51.955 27.242 0 53.627 20.759 60.09 51.955z"/></g><g opacity=".35"><path fill="#371A45" d="M752.958 1179.313c-41.527 0-67.209-39.463-60.565-78.408 5.004 29.392 27.855 53.864 60.565 53.864s55.561-24.472 60.565-53.864c6.645 38.945-19.038 78.408-60.565 78.408z"/></g><g opacity=".7"><path fill="#FFF" d="M814.013 1124.607a68.96 68.96 0 0 0-.958-5.811c-6.474-31.21-32.859-51.957-60.097-51.957-27.237 0-53.623 20.747-60.097 51.957a68.556 68.556 0 0 0-.958 5.811 72.936 72.936 0 0 1 .958-23.688c6.474-31.192 32.859-51.957 60.097-51.957 27.237 0 53.623 20.765 60.097 51.957a72.91 72.91 0 0 1 .958 23.688z"/></g><g><path fill="#371A45" d="M752.959 1188.159c-21.05 0-39.94-8.967-53.193-25.245-14.627-17.969-20.444-42.772-15.558-66.353 7.082-34.188 35.996-59.006 68.751-59.006 32.754 0 61.668 24.818 68.75 59.008v-.003c4.886 23.581-.931 48.384-15.558 66.353-13.253 16.279-32.143 25.246-53.192 25.246zm0-132.911c-24.409 0-46.039 18.885-51.429 44.901-3.816 18.425.653 37.712 11.956 51.596 9.828 12.074 23.847 18.721 39.473 18.721 15.625 0 29.644-6.648 39.472-18.721 11.303-13.884 15.772-33.172 11.956-51.594v-.002c-5.39-26.017-27.018-44.901-51.428-44.901z"/></g><g><path fill="#8930E8" d="M1207.591 1020.268c40.207 18.023 66.748 60.163 48.058 89.092-18.69 28.929-68.014 22.055-100.971-7.19-25.868-22.955-33.359-53.28-21.364-71.846s42.719-24.202 74.277-10.056z"/></g><g opacity=".7"><path fill="#FFF" d="M1261.044 1083.027c-8.622-18.229-26.557-35.351-48.587-45.217-31.55-14.151-62.288-8.501-74.279 10.056-5.183 8.017-6.721 18.229-4.717 29.079-7.533-16.155-7.672-32.414-.156-44.06 12.008-18.557 42.729-24.207 74.279-10.056 28.026 12.562 49.417 36.838 53.46 60.198z"/></g><g opacity=".35"><path fill="#371A45" d="M1255.653 1109.353c-18.695 28.941-68.025 22.064-100.974-7.188-14.928-13.253-23.74-28.976-26.211-43.455 4.112 6.255 9.365 12.337 15.723 17.987 32.95 29.252 82.279 36.129 100.974 7.188 5.495-8.501 7.084-18.142 5.546-27.974 11.819 17.676 15.205 37.546 4.942 53.442z"/></g><g><path fill="#371A45" d="M1216.982 1136.754c-22.871.002-48.186-10.231-68.175-27.968-28.253-25.072-37.893-60.089-22.922-83.262 14.971-23.173 50.854-28.772 85.324-13.328 27.895 12.504 49.706 35.405 56.921 59.767 4.567 15.422 2.821 30.011-5.051 42.196-7.871 12.182-20.454 19.772-36.389 21.949a71.748 71.748 0 0 1-9.708.646zm-44.431-115.541c-14.056 0-25.902 4.771-31.808 13.911-10.032 15.529-1.517 41.508 19.806 60.43 18.826 16.706 43.848 25.76 63.748 23.027 10.817-1.476 18.866-6.195 23.923-14.022 5.056-7.827 6.048-17.104 2.948-27.573-5.703-19.258-24.229-38.353-47.195-48.646-10.7-4.797-21.601-7.127-31.422-7.127z"/></g><g><path fill="#8930E8" d="M299.328 1020.268c-40.207 18.023-66.748 60.163-48.058 89.092 18.69 28.929 68.014 22.055 100.971-7.19 25.868-22.955 33.359-53.28 21.364-71.846-11.993-18.566-42.718-24.202-74.277-10.056z"/></g><g opacity=".7"><path fill="#FFF" d="M245.876 1083.027c8.622-18.229 26.557-35.351 48.587-45.217 31.55-14.151 62.288-8.501 74.279 10.056 5.184 8.017 6.721 18.229 4.717 29.079 7.533-16.155 7.672-32.414.156-44.06-12.008-18.557-42.729-24.207-74.279-10.056-28.027 12.562-49.417 36.838-53.46 60.198z"/></g><g opacity=".35"><path fill="#371A45" d="M251.267 1109.353c18.695 28.941 68.025 22.064 100.974-7.188 14.928-13.253 23.74-28.976 26.211-43.455-4.112 6.255-9.365 12.337-15.723 17.987-32.95 29.252-82.279 36.129-100.974 7.188-5.494-8.501-7.084-18.142-5.546-27.974-11.819 17.676-15.206 37.546-4.942 53.442z"/></g><g><path fill="#371A45" d="M289.938 1136.754c-3.295 0-6.539-.213-9.708-.646-15.935-2.176-28.519-9.766-36.389-21.949-7.872-12.185-9.618-26.774-5.051-42.196 7.215-24.362 29.026-47.263 56.921-59.767 34.469-15.447 70.353-9.848 85.324 13.328 14.971 23.173 5.331 58.19-22.922 83.262-19.988 17.736-45.305 27.968-68.175 27.968zm44.431-115.541c-9.822 0-20.721 2.33-31.422 7.128-22.966 10.293-41.492 29.388-47.195 48.646-3.1 10.469-2.108 19.745 2.948 27.573 5.057 7.827 13.106 12.546 23.924 14.022 19.917 2.706 44.924-6.321 63.748-23.027 21.323-18.922 29.838-44.902 19.806-60.43-5.907-9.141-17.755-13.912-31.809-13.912zm-35.04-.945h.025-.025z"/></g><g opacity=".35"><path fill="#FFF" d="M539.103 1021.066c1.243 4.807 1.85 9.303 2.243 13.695.26 2.227.282 4.338.429 6.51l.087 6.343c-.108 8.348-.978 16.325-2.395 24.035-2.864 15.405-7.95 29.727-14.754 43.21-6.794 13.488-15.122 26.229-25.54 37.95-5.222 5.854-10.934 11.469-17.394 16.72-3.242 2.619-6.588 5.188-10.251 7.602-3.637 2.427-7.451 4.767-11.864 6.815l-5.635-2.748c-1.103-4.738-1.606-9.184-1.934-13.545-.353-4.373-.389-8.591-.321-12.758.16-8.323 1.067-16.281 2.465-24 2.822-15.425 7.734-29.832 14.179-43.49 6.436-13.663 14.589-26.489 24.965-38.23 5.203-5.863 10.953-11.46 17.465-16.685l5.052-3.837c1.802-1.221 3.48-2.503 5.394-3.67 3.703-2.394 7.62-4.684 12.173-6.665l5.636 2.748z"/></g><g opacity=".35"><path fill="#FFF" d="M971.106 1018.318c4.488 2.011 8.357 4.325 12.03 6.734 3.705 2.393 7.072 4.952 10.357 7.55a144.932 144.932 0 0 1 17.432 16.701c10.397 11.731 18.638 24.514 25.256 38.088 6.573 13.596 11.574 27.959 14.403 43.381a145.77 145.77 0 0 1 2.435 24.015c.034 4.184-.019 8.411-.407 12.8-.356 4.374-.905 8.842-2.069 13.61l-5.635 2.748c-4.474-2.018-8.332-4.337-11.998-6.75-3.697-2.397-7.06-4.958-10.337-7.56a145.875 145.875 0 0 1-17.425-16.705c-10.41-11.725-18.649-24.509-25.316-38.059-6.621-13.573-11.62-27.937-14.463-43.352a144.92 144.92 0 0 1-2.428-24.019c-.026-4.188.031-8.416.427-12.81.363-4.378.922-8.851 2.101-13.626l5.637-2.746z"/></g></svg>