<?xml version="1.0" encoding="utf-8"?>
<!-- Generator: Adobe Illustrator 26.0.3, SVG Export Plug-In . SVG Version: 6.00 Build 0)  -->
<svg version="1.1" id="Layer_1" xmlns="http://www.w3.org/2000/svg" xmlns:xlink="http://www.w3.org/1999/xlink" x="0px" y="0px"
	 viewBox="0 0 753.2 1076.2" style="enable-background:new 0 0 753.2 1076.2;" xml:space="preserve">
<style type="text/css">
	.st0{fill:#FFFFFF;}
	.st1{fill:#C1C1DB;}
	.st2{opacity:0.7;}
	.st3{fill:#371A45;}
	.st4{opacity:0.35;}
	.st5{opacity:0.3;}
	.st6{fill:#220F2D;}
	.st7{opacity:0.5;}
	.st8{fill:#22A7F0;}
</style>
<g>
	<g>
		<g>
			<g>
				<path class="st0" d="M202.4,338.1c0,0-30-15.6-122.9-50.3c-68.8-25.7-98.1,51.4-31.4,99.3c74.3,53.3,162.9,47.1,162.9,47.1"/>
			</g>
		</g>
		<g>
			<g>
				<polygon class="st1" points="572.5,830.5 384.7,830.5 382.2,759.4 373.5,510.7 469.3,505.9 549.9,759.3 				"/>
			</g>
		</g>
		<g class="st2">
			<g>
				<polygon class="st0" points="537.9,759.6 560.5,830.5 575.5,830.5 552.9,759.3 472.3,505.9 457.4,506.6 				"/>
			</g>
		</g>
		<g>
			<g>
				<path class="st3" d="M579.4,835.5H379.8l-11.3-324.6c-0.1-2.8,2.1-5.1,4.8-5.2c2.7-0.1,5.1,2.1,5.2,4.8l11,315h176.2l-101.2-318
					c-0.8-2.6,0.6-5.4,3.3-6.3c2.6-0.8,5.4,0.6,6.3,3.3L579.4,835.5z"/>
			</g>
		</g>
		<g class="st4">
			<g>
				<path class="st3" d="M572.5,830.5H384.7l-2.5-71c5.2-1,10.6-1.6,16.1-1.6c8.6,0,16.9,1.3,24.7,3.7C435.3,742,457.1,729,482,729
					c24.8,0,46.6,13,58.9,32.6c2.9-0.9,6-1.7,9-2.2L572.5,830.5z"/>
			</g>
		</g>
		<g>
			<g>
				<path class="st1" d="M742.7,930.8c0,38.3-31,69.3-69.3,69.3c-9.5,0-18.6-1.9-26.8-5.4c-7.1,22.3-28,38.4-52.6,38.4
					c-14,0-26.9-5.2-36.6-13.9c-8,7.2-18.6,11.6-30.2,11.6c-13,0-24.7-5.5-33-14.3c-3.8,1.3-8,2-12.2,2s-8.4-0.7-12.2-2
					c-8.2,8.8-20,14.3-33,14.3c-11.6,0-22.2-4.4-30.2-11.6c-9.7,8.6-22.6,13.9-36.6,13.9c-24.6,0-45.5-16.1-52.6-38.4
					c-8.3,3.5-17.3,5.4-26.8,5.4c-38.3,0-69.3-31-69.3-69.3c0-38.3,31-69.3,69.3-69.3c8.5,0,16.7,1.6,24.3,4.4
					c1.5-44.9,38.3-80.8,83.6-80.8c8.6,0,16.9,1.3,24.7,3.7c12.3-19.6,34.1-32.6,58.9-32.6c24.8,0,46.6,13,58.9,32.6
					c7.8-2.4,16.1-3.7,24.7-3.7c45.3,0,82.1,36,83.6,80.8c7.5-2.8,15.7-4.4,24.3-4.4C711.7,861.5,742.7,892.6,742.7,930.8z"/>
			</g>
		</g>
		<g class="st5">
			<g>
				<path class="st3" d="M742.7,930.8c0,38.3-31,69.3-69.3,69.3c-9.5,0-18.6-1.9-26.8-5.4c-7.1,22.3-28,38.4-52.6,38.4
					c-14,0-26.9-5.2-36.6-13.9c-8,7.2-18.6,11.6-30.2,11.6c-13,0-24.7-5.5-33-14.3c-3.8,1.3-8,2-12.2,2s-8.4-0.7-12.2-2
					c-8.2,8.8-19.9,14.3-33,14.3c-11.6,0-22.2-4.4-30.2-11.6c-9.7,8.6-22.6,13.9-36.6,13.9c-24.6,0-45.5-16.1-52.6-38.4
					c-8.3,3.5-17.3,5.4-26.8,5.4c-38.3,0-69.3-31-69.3-69.3c0-4.3,0.4-8.6,1.2-12.7c6,32.2,30.1,55.7,67.1,61.5
					c9.4,1.5,35.2-1.3,48.2-14.1c7.1,22.3,7.7,42.1,32.3,42.1c14,0,26.9-5.2,36.6-13.9c8,7.2,18.6,11.1,30.2,11.6
					c16.8,0.7,4.9-9.4,13.1-18.2c3.8,1.3,15,12.3,26.3,12.3c12.1,0,15.6-3.4,18-8.4c8.2,8.8,19.9,14.3,33,14.3
					c11.6,0,22.2-4.4,30.2-11.6c9.7,8.7,22.6,13.9,36.6,13.9c24.6,0,45.5-16.1,52.6-38.4c8.3,3.5,17.3,5.4,26.8,5.4
					c33.9,0,62.1-24.4,68.1-56.5C742.3,922.2,742.7,926.5,742.7,930.8z"/>
			</g>
		</g>
		<g class="st2">
			<g>
				<path class="st0" d="M742.7,927.9c0,2.6-0.1,5.2-0.4,7.8c-3.9-34.6-33.2-61.5-68.9-61.5c-8.5,0-28.2,1.5-35.7,4.4
					c-1.5-44.9-26.9-80.9-72.1-80.9c-8.6,0-16.9,1.3-24.7,3.7c-12.3-19.6-34.1-32.6-58.9-32.6c-24.8,0-46.6,13-58.9,32.6
					c-7.8-2.4-16.1-3.7-24.7-3.7c-45.3,0-70.7,36-72.1,80.9c-7.6-2.8-27.2-4.4-35.7-4.4c-35.6,0-65,26.9-68.9,61.5
					c-0.3-2.6-0.4-5.1-0.4-7.8c0-38.2,31-69.3,69.3-69.3c8.5,0,16.7,1.5,24.3,4.4c1.5-44.9,38.3-80.8,83.6-80.8
					c8.6,0,16.9,1.3,24.7,3.7c12.3-19.6,34.1-32.6,58.9-32.6c24.8,0,46.6,13,58.9,32.6c7.8-2.4,16.1-3.7,24.7-3.7
					c45.3,0,82.1,36,83.6,80.8c7.5-2.8,15.7-4.4,24.3-4.4C711.7,858.6,742.7,889.6,742.7,927.9z"/>
			</g>
		</g>
		<g>
			<g>
				<path class="st3" d="M594,1038.1c-13.3,0-26.1-4.4-36.6-12.4c-8.7,6.6-19.3,10.1-30.2,10.1c-12.8,0-25.1-4.9-34.4-13.6
					c-7,1.8-14.6,1.8-21.6,0c-9.3,8.7-21.6,13.6-34.4,13.6c-11,0-21.6-3.6-30.2-10.1c-10.5,8-23.3,12.4-36.6,12.4
					c-24.5,0-46.2-14.6-55.6-36.9c-7.7,2.6-15.7,3.9-23.9,3.9c-41,0-74.3-33.3-74.3-74.3c0-41,33.3-74.3,74.3-74.3
					c6.7,0,13.3,0.9,19.7,2.7c2.2-20.6,11.4-39.6,26.4-54.1c16.6-16.1,38.5-25,61.7-25c7.7,0,15.3,1,22.6,2.9
					c14-20,36.5-31.7,61.1-31.7c24.5,0,47.1,11.8,61.1,31.7c7.3-1.9,14.9-2.9,22.6-2.9c23.2,0,45.1,8.9,61.7,25
					c15,14.5,24.2,33.6,26.4,54.1c6.4-1.8,13-2.6,19.7-2.6c41,0,74.3,33.3,74.3,74.3c0,41-33.3,74.3-74.3,74.3
					c-8.2,0-16.2-1.3-23.9-3.9C640.2,1023.5,618.5,1038.1,594,1038.1z M557.4,1012.5l3.4,3c9.2,8.1,21,12.6,33.3,12.6
					c21.9,0,41.2-14,47.9-34.9l1.7-5.2l5,2.1c7.9,3.3,16.2,5,24.9,5c35.4,0,64.3-28.8,64.3-64.3c0-35.4-28.8-64.3-64.3-64.3
					c-7.7,0-15.3,1.4-22.5,4.1l-6.5,2.4l-0.2-7c-1.4-42.6-35.9-76-78.6-76c-7.9,0-15.8,1.2-23.2,3.5l-3.7,1.1l-2-3.3
					c-11.9-18.9-32.4-30.2-54.7-30.2c-22.3,0-42.8,11.3-54.7,30.2l-2,3.3l-3.7-1.1c-7.5-2.3-15.3-3.5-23.2-3.5
					c-42.7,0-77.2,33.4-78.6,76l-0.2,7l-6.5-2.4c-7.2-2.7-14.8-4.1-22.5-4.1c-35.4,0-64.3,28.8-64.3,64.3
					c0,35.4,28.8,64.3,64.3,64.3c8.7,0,17-1.7,24.9-5l5-2.1l1.7,5.2c6.7,20.9,25.9,34.9,47.9,34.9c12.3,0,24.1-4.5,33.3-12.6l3.3-3
					l3.3,3c7.4,6.7,16.9,10.3,26.9,10.3c11.2,0,21.6-4.5,29.3-12.7l2.2-2.4l3.1,1.1c6.8,2.3,14.4,2.3,21.2,0l3.1-1.1l2.2,2.4
					c7.7,8.2,18.1,12.7,29.3,12.7c9.9,0,19.5-3.7,26.9-10.3L557.4,1012.5z"/>
			</g>
		</g>
		<g class="st5">
			<g>
				<path class="st3" d="M417.1,857.3c4.8-22,24.5-38.5,47.9-38.5c27.1,0,49.1,22,49.1,49.1"/>
			</g>
		</g>
		<g>
			<g>
				<path class="st1" d="M416,868.8c4.8-22,24.5-38.5,47.9-38.5c27.1,0,49.1,22,49.1,49.1"/>
			</g>
		</g>
		<g class="st2">
			<g>
				<path class="st0" d="M513,879.4l-3.3-0.4c-5.3-21.4-24.6-37.2-47.6-37.2c-19.2,0-35.9,11.1-44,27.2l-2.2-0.2
					c4.8-22,24.5-38.5,47.9-38.5C491,830.3,513,852.3,513,879.4z"/>
			</g>
		</g>
		<g>
			<g>
				<path class="st3" d="M411.1,867.7c1.3-6.5,3.9-12.7,7.5-18.3c3.6-5.5,8.3-10.4,13.7-14.3c5.4-3.9,11.5-6.7,17.9-8.3
					c6.4-1.6,13.1-2,19.6-1.1c13.1,1.7,25.3,8.3,33.6,18.3c4.2,4.9,7.4,10.6,9.5,16.7c2,6.1,3,12.4,2.7,18.7
					c-0.1,1.4-1.2,2.4-2.6,2.4c-1.3-0.1-2.3-1.1-2.4-2.3l0,0c-0.7-11.4-5.4-22.2-13-30.1c-3.8-3.9-8.3-7.2-13.2-9.6
					c-4.9-2.4-10.2-3.9-15.6-4.3c-5.4-0.4-10.8,0-16,1.5c-5.2,1.4-10,3.8-14.3,6.9c-4.3,3.1-8.1,7-11.1,11.5
					c-3,4.4-5.2,9.4-6.5,14.6l0,0c-0.7,2.7-3.4,4.3-6.1,3.6C412.2,872.8,410.6,870.3,411.1,867.7z"/>
			</g>
		</g>
		<g class="st2">
			<g>
				<path class="st0" d="M630.5,922.2c-0.9,25.2-21.5,45.3-46.9,45.3c-11.7,0-22.5-4.3-30.7-11.4c10.7,1.9,22.9,1.8,30.4,0.1
					C601.8,952.2,622.4,939.6,630.5,922.2z"/>
			</g>
		</g>
		<g>
			<g>
				<path class="st3" d="M633,920.5c0.5,4.9,0.2,9.9-0.9,14.9c-0.7,2.4-1.3,4.9-2.4,7.2c-0.9,2.4-2.2,4.6-3.5,6.8
					c-2.8,4.3-6.2,8.2-10.1,11.5l-3.1,2.3c-1,0.8-2.2,1.4-3.2,2.1c-0.6,0.3-1.1,0.7-1.7,1l-1.7,0.9c-1.2,0.5-2.3,1.2-3.5,1.6
					c-9.6,3.8-20.3,4.6-30.2,2c-9.9-2.5-18.8-8.2-24.9-16c-0.9-1.1-0.7-2.7,0.4-3.5c1-0.7,2.3-0.7,3.2,0.1l0,0
					c6.8,5.7,14.8,9.5,23.1,10.9c8.3,1.4,16.9,0.4,24.6-2.7c3.8-1.7,7.5-3.6,10.8-6.2c3.3-2.6,6.2-5.6,8.8-8.9
					c1.2-1.7,2.4-3.4,3.4-5.4c1.1-1.8,1.9-3.8,2.8-5.8c1.6-4,2.5-8.2,3.2-12.6l0-0.1c0.2-1.4,1.5-2.3,2.9-2.1
					C632.1,918.5,632.9,919.4,633,920.5z"/>
			</g>
		</g>
		<g>
			<g>
				<path class="st3" d="M633,920.5c0.5,4.9,0.2,9.9-0.9,14.9c-0.7,2.4-1.3,4.9-2.4,7.2c-0.9,2.4-2.2,4.6-3.5,6.8
					c-2.8,4.3-6.2,8.2-10.1,11.5l-3.1,2.3c-1,0.8-2.2,1.4-3.2,2.1c-0.6,0.3-1.1,0.7-1.7,1l-1.7,0.9c-1.2,0.5-2.3,1.2-3.5,1.6
					c-9.6,3.8-20.3,4.6-30.2,2c-9.9-2.5-18.8-8.2-24.9-16c-0.9-1.1-0.7-2.7,0.4-3.5c1-0.7,2.3-0.7,3.2,0.1l0,0
					c6.8,5.7,14.8,9.5,23.1,10.9c8.3,1.4,16.9,0.4,24.6-2.7c3.8-1.7,7.5-3.6,10.8-6.2c3.3-2.6,6.2-5.6,8.8-8.9
					c1.2-1.7,2.4-3.4,3.4-5.4c1.1-1.8,1.9-3.8,2.8-5.8c1.6-4,2.5-8.2,3.2-12.6l0-0.1c0.2-1.4,1.5-2.3,2.9-2.1
					C632.1,918.5,632.9,919.4,633,920.5z"/>
			</g>
		</g>
		<g>
			<g>
				<path class="st3" d="M364.5,902.3c-0.3-4,0-8.1,1-12c1-4,2.7-7.7,5-11.2c0.6-0.8,1.1-1.7,1.8-2.5l2-2.4c1.5-1.5,2.9-3,4.6-4.2
					c3.3-2.6,7-4.8,11-6.1c4-1.4,8.2-2.3,12.4-2.3c4.2-0.1,8.5,0.5,12.5,1.7c8.1,2.3,15.5,8,18.6,15.8c0.5,1.3-0.1,2.8-1.5,3.4
					c-0.8,0.3-1.7,0.2-2.4-0.3l-0.1-0.1c-6-4.1-11.4-7.3-17.5-9.3c-6.1-1.9-12.9-1.8-19,0.1c-6.2,1.9-11.8,5.7-15.9,10.9
					c-2,2.6-3.8,5.5-5,8.6c-1.2,3.2-2,6.5-2.4,10l0,0.1c-0.2,1.4-1.4,2.4-2.8,2.2C365.5,904.4,364.6,903.4,364.5,902.3z"/>
			</g>
		</g>
		<g>
			<g>
				<path class="st3" d="M340.1,965.8c-0.2,1.8-0.5,3.3-0.9,4.9c-0.4,1.6-0.8,3.2-1.4,4.7c-1.1,3.1-2.5,6.1-4.2,9
					c-0.8,1.5-1.8,2.8-2.8,4.2c-1.1,1.3-2.1,2.7-3.3,3.8c-2.3,2.5-5,4.6-7.8,6.6c-2.3,1.6-5.4,1-7-1.2c-1.6-2.3-1-5.4,1.2-7
					c0.2-0.1,0.3-0.2,0.5-0.3l0.3-0.1c2.4-1.2,4.8-2.6,6.9-4.3c1.1-0.8,2.1-1.8,3.1-2.7c0.9-1,1.9-2,2.8-3.1
					c1.8-2.2,3.3-4.6,4.6-7.1c1.3-2.5,2.4-5.3,3-7.9l0.1-0.2c0.3-1.3,1.7-2.1,3-1.8C339.5,963.5,340.2,964.6,340.1,965.8z"/>
			</g>
		</g>
		<g>
			<g>
				<path class="st3" d="M452.4,987c0.2,1.2,0.6,2.7,1.1,4c0.5,1.3,1,2.7,1.6,3.9c1.2,2.6,2.7,5,4.4,7.1c1.8,2.2,3.7,4.2,5.8,5.8
					c1,0.9,2.2,1.6,3.3,2.4c1.1,0.7,2.4,1.3,3.6,2l0.5,0.3c2.4,1.4,3.2,4.5,1.8,6.9c-1.4,2.4-4.5,3.2-6.9,1.8
					c-0.2-0.1-0.4-0.2-0.5-0.3c-1.4-1-2.8-2-4.1-3.1c-1.3-1.1-2.6-2.2-3.7-3.5c-2.4-2.4-4.4-5.2-6.1-8c-1.7-2.9-3.1-5.9-4.1-9.1
					c-0.5-1.6-0.9-3.2-1.2-4.8c-0.3-1.7-0.5-3.2-0.6-5c-0.1-1.4,1-2.5,2.4-2.6c1.3,0,2.3,0.8,2.6,2L452.4,987z"/>
			</g>
		</g>
		<g>
			<g>
				<path class="st0" d="M341.5,341.1c0,0,67.9-16.4,90.3-5.7c40.5,19.3,72.8,154.1,52.3,207c-15,38.9-145.2,41.1-145.2,41.1"/>
			</g>
		</g>
		<g class="st4">
			<g>
				<path class="st3" d="M484.2,542.4c-15,38.8-145.2,41.1-145.2,41.1l0.7-66.4c28.2-1.2,124.7-7.7,137.5-40.8
					c4-10.3,6-23.8,6.3-38.8C491.9,477,493.5,518.3,484.2,542.4z"/>
			</g>
		</g>
		<g>
			<g>
				<path class="st3" d="M339,588.6c-2.7,0-5-2.2-5-4.9c0-2.8,2.2-5,4.9-5.1c35.3-0.6,129.3-8.6,140.6-37.9
					c20-51.7-12.6-183-49.8-200.7c-17.1-8.2-68.6,1.6-87,6c-2.7,0.6-5.4-1-6-3.7c-0.6-2.7,1-5.4,3.7-6c7.1-1.7,70.3-16.5,93.6-5.3
					c20.2,9.6,39.5,44.8,51.7,94.2c9.3,37.5,15,88.5,3.1,119.1c-6.9,17.9-34.6,30.8-82.1,38.3C372.3,587.9,339.4,588.5,339,588.6
					C339,588.6,339,588.6,339,588.6z"/>
			</g>
		</g>
		<g>
			<g>
				<path class="st0" d="M480.9,442.8l-34.8,8.4c-3.1,0.8-5.3,3.5-5.4,6.7c-0.2,11.7,0.8,38.8,13.3,45.7c10.4,5.8,25.2,2.5,32.7-6.4
					c8.4-9.9,5.1-36.1,2.8-48.9C488.8,444.4,484.8,441.8,480.9,442.8z"/>
			</g>
		</g>
		<g class="st4">
			<g>
				<path class="st3" d="M440.7,457.9c-0.2,11.7,0.8,38.8,13.3,45.7c10.4,5.8,25.2,2.5,32.7-6.4c5.2-6.1,5.9-18.3,5.2-29.8
					c-0.7,5.9-2.4,10.9-5,14.4c-14.9,20.2-31.6,2-31.6,2s-1.5,5.3-3.3,5.9c-7.5,2.4-9.8-21.9-10.8-34.5
					C440.9,456.1,440.7,457,440.7,457.9z"/>
			</g>
		</g>
		<g>
			<g>
				<path class="st3" d="M465.7,511c-4.9,0-9.7-1.1-13.9-3.4c-14.1-7.9-15.8-34.5-15.6-49.8c0.1-5.2,3.7-9.8,8.8-11l34.8-8.4
					c3.1-0.7,6.4-0.2,9,1.6c2.7,1.7,4.5,4.5,5,7.6c3.2,18.2,5.2,42.1-3.8,52.6C484.1,507.2,474.8,511,465.7,511z M482.6,447.1
					c-0.2,0-0.4,0-0.6,0.1v0l-34.8,8.4c-1.1,0.3-1.9,1.3-1.9,2.4c-0.3,17.1,2.5,37,11,41.7c8.3,4.6,20.7,2.2,27.1-5.4
					c5.1-6,5.8-22.9,1.8-45.2c-0.2-0.9-0.8-1.5-1.1-1.7C483.7,447.3,483.2,447.1,482.6,447.1z M480.9,442.8L480.9,442.8L480.9,442.8
					z"/>
			</g>
		</g>
		<g>
			<g>
				<path class="st3" d="M471.2,509.3c-0.9-0.3-1.3-0.6-1.9-0.9c-0.5-0.3-1.1-0.6-1.5-1c-1-0.7-1.9-1.4-2.8-2.2
					c-1.7-1.5-3.3-3.2-4.5-5.1c-2.6-3.6-4.5-7.6-5.6-11.7c-1.2-4.1-1.8-8.3-2.1-12.4c-0.3-4.1-0.6-8.3,0.2-12.4
					c-0.1,4.1,0.7,8.1,1.6,12.1c1,4,2.1,7.8,3.8,11.4c1.6,3.6,3.8,6.8,6.4,9.5c1.3,1.4,2.7,2.5,4.2,3.5c0.7,0.5,1.5,0.9,2.3,1.3
					c0.4,0.2,0.8,0.3,1.2,0.5c0.3,0.1,0.8,0.3,0.9,0.3c2.2-0.1,4,1.6,4,3.8s-1.6,4-3.8,4c-0.5,0-1.1-0.1-1.5-0.3L471.2,509.3z"/>
			</g>
		</g>
		<g>
			<g>
				<path class="st3" d="M386.3,360.1c-1.6,0-3.2-0.8-4.2-2.2c-1.5-2.3-0.9-5.4,1.4-6.9c30.1-20.2,50.9-18.9,51.8-18.8
					c2.8,0.2,4.8,2.6,4.6,5.4c-0.2,2.7-2.6,4.8-5.3,4.6c-0.4,0-18.7-0.8-45.5,17.2C388.2,359.8,387.2,360.1,386.3,360.1z"/>
			</g>
		</g>
		<g>
			<g>
				<path class="st0" d="M344.4,598.3c6.6,39.8,23.9,40.5,28.8,73c9.4,60.7,4.9,96.5-53.1,93.4c-39.3-2.1-41-72.9-41-72.9
					s-48.5-26.9-48.2-135.2L344.4,598.3z"/>
			</g>
		</g>
		<g class="st4">
			<g>
				<path class="st3" d="M320.2,764.7c-11.8-0.6-20.2-7.5-26.2-16.8c3.5,1,7.1,1.6,10.7,1.8c58,3.1,62.4-32.6,53.1-93.4
					c-5-32.5-11.1-29.4-52.2-38.4c0,0-29.3-5-51.4-21.5c-13.8-10.3-26.6-24.1-16.3-30.9c-0.1-3.6-6.8-5.2-6.8-8.9l113.4,41.7
					c6.6,39.8,23.9,40.5,28.9,73C382.6,732.1,378.2,767.8,320.2,764.7z"/>
			</g>
		</g>
		<g>
			<g>
				<path class="st3" d="M326.9,769.9c-2.3,0-4.6-0.1-7-0.2c-39.2-2.1-44.8-61.4-45.6-75.1c-10.3-7.3-48.6-40.8-48.3-138
					c0-2.8,2.2-5,5-5c0,0,0,0,0,0c2.8,0,5,2.3,5,5c-0.3,103.4,45.2,130.5,45.7,130.8l2.5,1.4l0.1,2.8c0,0.7,2.1,66.1,36.3,68
					c20.1,1.1,33.7-2.6,41.6-11.4c13.5-14.9,11-45.5,6.3-76.3c-2.2-14.5-6.9-22-12.3-30.6c-6-9.6-12.9-20.5-16.5-42.3
					c-0.5-2.7,1.4-5.3,4.1-5.8c2.7-0.5,5.3,1.4,5.8,4.1c3.3,19.8,9.3,29.4,15.1,38.6c5.5,8.8,11.2,17.9,13.8,34.4
					c5.1,33.2,7.6,66.5-8.8,84.5C360.4,765,346.4,769.9,326.9,769.9z"/>
			</g>
		</g>
		<g>
			<g>
				<path class="st3" d="M301.4,649.6c-15.6,0-30.9-2.3-42.3-5.3c-13.2-3.5-20.7-7.7-22.3-12.5c-0.7-2,0.4-4.1,2.4-4.7
					c2-0.7,4.1,0.4,4.7,2.3c0.7,1.5,7.9,5.9,24.4,9.4c29.1,6,66.5,5,84.4-11c1.5-1.4,3.9-1.2,5.3,0.3c1.4,1.5,1.2,3.9-0.3,5.3
					C344.1,645.4,322.4,649.6,301.4,649.6z"/>
			</g>
		</g>
		<g class="st4">
			<g>
				<path class="st3" d="M210.9,434.3c0,0-7.5,0.5-20.1-0.1c-30.4-1.4-90.2-9.3-142.8-47.1c-16.4-11.8-27-25.3-32.6-38.6
					c5.2,5.9,11.1,11.9,20.4,11.7c27.1-0.3,13.9-46,20.2-42.7c19,9.8,26.9,35.7,33.1,53c11.9,33.5,47.6,38.4,70.3,40.9
					c19.7,2.2,36.4-14.3,34.7-34.1v0l-4-45.1c0.6,0.3,1.2,0.5,1.8,0.8c7.4,3.4,10.5,5,10.5,5l5.4,60.8L210.9,434.3z"/>
			</g>
		</g>
		<g>
			<g>
				<path class="st3" d="M122.1,426.5c-1.6,0-3.1-1.1-3.6-2.7c-0.7-2.4-16.2-58.3,17.2-115.1c1-1.8,3.3-2.4,5.1-1.3
					c1.8,1,2.4,3.3,1.3,5.1c-31.8,54.1-16.6,108.7-16.4,109.3c0.6,2-0.6,4.1-2.6,4.6C122.8,426.4,122.4,426.5,122.1,426.5z"/>
			</g>
		</g>
		<g>
			<g>
				<path class="st3" d="M201.4,439.5c-25.5,0-95.1-4.4-156.2-48.3c-40.7-29.2-46.2-67-34-89.7c12-22.5,39.5-29.7,70.1-18.3
					c92.1,34.4,122.2,49.9,123.4,50.6c2.5,1.3,3.4,4.3,2.1,6.7c-1.3,2.5-4.3,3.4-6.7,2.1c-0.3-0.2-31-15.9-122.3-50.1
					c-25.9-9.7-48.1-4.5-57.7,13.7c-10.1,19-4.8,51.2,31,76.9c72,51.7,158.7,46.3,159.6,46.2c2.8-0.2,5.1,1.9,5.3,4.6
					c0.2,2.8-1.9,5.1-4.6,5.3C210.6,439.3,207.1,439.5,201.4,439.5z"/>
			</g>
		</g>
		<g>
			<g>
				<path class="st0" d="M537,384.4c-61.8,39.7-122.3,31.6-126.8,36.7c-3.3,3.7,35.1,57.4,29,123.1c-1.8,19.7-4.4,48.2-2.7,58.8
					c6.6,39.8,23.9,40.5,28.9,73c9.4,60.8,4.9,96.5-53.1,93.4c-39.3-2.1-41-72.9-41-72.9s-49.9-25.6-48.2-93.9
					c0,0-81.9,6.4-112.1-75.1c-12.2-33-17.7-64.1-20.1-93.2c-1.3-15.1-1.6-29.6-1.7-43.5c-0.1-17,0.4-33,0.4-48
					c0-3.6,0.8-6.8,2.3-9.6c19.7-37.1,158.9-12,158.9-12s26.8,3,66.8-2.6c22.4-3.1,49-9,77.3-19.5
					C605.4,257.6,600.6,343.5,537,384.4z"/>
			</g>
		</g>
		<g class="st4">
			<g>
				<path class="st3" d="M299,600.9c-16.8-2.8-39.5-10.1-59-28.5c29.7,15.2,58.5,12.9,58.5,12.9c12.2-0.2,33.5-7.5,24.5,17.2
					C321.9,605.8,298.7,597.7,299,600.9z"/>
			</g>
		</g>
		<g class="st4">
			<g>
				<path class="st3" d="M537,384.4c-61.8,39.7-122.3,31.6-126.8,36.7c-3.3,3.7,35.1,57.4,29,123.1c-1.8,19.7-4.4,48.2-2.7,58.8
					c6.6,39.8,23.9,40.5,28.9,73c9.4,60.8,4.9,96.5-53.1,93.4c-12.1-0.7-20.6-7.8-26.6-17.4c0.7,0.1,1.4,0,2.1,0.2
					c71.2,25,71.9-33,60-84.5c-7.4-32-29.2-42-35.8-81.8c-1.8-10.5,6.4-39.4,2.7-58.8c-4-20.3-56-16.8-48.4-24.3
					c30.3-29.4,42-60.2,25.4-77.7c-2.3-2.5-16.4-1-17.2-3.7c-0.9-2.9,21.9-10.9,21.2-12.8c-4.7-13-7.5-18.4-4.5-24.1
					c2.8-5.3,47.7,40.6,96-18.7c16.8-20.6,19.6-34.6,24.1-36.4c6.3-2.5,8.4,16.7,26.1,21.3c27.1,7.1,56.7-46,17.9-61.9
					C599.7,296.2,585.4,353.3,537,384.4z"/>
			</g>
		</g>
		<g>
			<g>
				<path class="st3" d="M419,774.5c-2.3,0-4.6-0.1-7-0.2c-39-2.1-44.8-60.9-45.6-74.9c-10.4-6.3-47.7-33-48.3-91.8
					c-7.9-0.1-23.6-1.1-41.4-7.4c-23.1-8.2-54.1-27.2-70.4-71.1c-23.2-62.6-22.5-119.8-21.9-165.8c0.1-7.2,0.2-13.9,0.2-20.6
					c0-8,3.3-14.8,9.7-20.2c33.4-28,149.9-7.7,157.2-6.4c3.6,0.3,67,6,141.6-21.9c65.7-24.6,85.1-2.8,90.4,7.7
					c12.2,24.4-7.4,63.3-43.7,86.6c-46.2,29.7-92.3,33.3-114.5,35.1c-3.3,0.3-6.8,0.5-9.3,0.8c0.9,2.1,2.2,5,3.5,7.7
					c9.5,20.5,29.2,63.2,24.6,112.4c-1.5,16.5-4.4,47.3-2.7,57.5c3.3,19.8,9.3,29.4,15.1,38.6c5.5,8.8,11.2,17.9,13.8,34.4
					c5.1,33.2,7.6,66.5-8.8,84.5C452.4,769.6,438.5,774.5,419,774.5z M328.2,597.1l-0.1,5.5c-1.7,64.2,43.5,88.4,45.5,89.4l2.6,1.4
					l0.1,3c0,0.7,2.1,66.1,36.3,68c20.1,1.1,33.6-2.6,41.6-11.4c13.5-14.9,11-45.5,6.3-76.3c-2.2-14.5-6.9-22-12.3-30.6
					c-6-9.6-12.9-20.5-16.5-42.3c-1.8-10.6,0.4-36.6,2.6-60c4.3-46.6-14.6-87.6-23.8-107.3c-5.3-11.4-7-15.2-3.9-18.6
					c2.6-2.8,7.1-3.2,18-4.1c23-1.8,65.7-5.1,109.8-33.5c34.9-22.4,49-56.2,40.2-73.7c-8.5-16.9-37.6-17.9-77.9-2.9
					c-78.8,29.4-143.7,22.7-146.4,22.4l-0.3,0c-33-5.9-124.1-16.8-149.2,4.2c-4.1,3.4-6.1,7.5-6.1,12.5c0,6.7-0.1,13.5-0.2,20.7
					c-0.6,47.5-1.3,101.3,21.3,162.2c11.9,32.2,33.5,54.1,64,65.1c23,8.2,42.8,6.9,43,6.8L328.2,597.1z M413,425.1L413,425.1
					L413,425.1z"/>
			</g>
		</g>
		<g>
			<g class="st4">
				<g>
					<path class="st3" d="M417.5,318.5c-2.2,4.2-4.7,8.4-7.3,12.5c-34.4,53.8-94,81.7-153.5,78.2c-3.3-0.2-6.5-0.5-9.7-0.9
						c-8.9-1-17.8-2.8-26.6-5.3c-4.2-1.2-8.4-2.6-12.6-4.1c-3-1.1-5.9-2.3-8.9-3.6c-3.3-1.4-6.5-3-9.7-4.6
						c-4.8-2.5-19.8-14.6-28.5-27.1c-30.3-43.4,18.7-50.2,9.3-75.7c45.5,17.5,8.9,39.2,21.9,45.1c19.7-37.1,158.9-12,158.9-12
						S377.6,324.1,417.5,318.5z"/>
				</g>
			</g>
			<g>
				<g>
					<g>
						<path class="st0" d="M99.2,258.9c7.6,27.4,22.1,53.1,43,74.2c4.3,4.3,8.8,8.4,13.6,12.3c2.3,1.9,4.7,3.7,7.2,5.6
							c7.4,5.4,15.2,10.2,23.1,14.2c6.8,3.5,13.9,6.5,21,9c8.6,3,17.4,5.3,26.2,6.9c3.2,0.6,6.5,1,9.7,1.4
							c59.2,7.1,120.3-17.1,158-68.7c55.4-76,38.8-182.5-37.2-237.9c-14.6-10.7-30.4-18.7-46.7-24.1c-1.9-0.6-3.8-1.2-5.8-1.8
							c-5.2-1.5-10.4-2.8-15.6-3.8c-12.1-2.3-24.4-3.3-36.6-3c-12.2,0.3-24.3,1.9-36.2,4.8c-3.8,0.9-7.5,2-11.2,3.1
							c-5.6,1.8-11,3.8-16.4,6.2C168.4,69,144.2,87.7,125.8,113C93.9,156.7,85.8,210.5,99.2,258.9z"/>
					</g>
					<g>
						<path class="st3" d="M263.1,384.2c-6.7,0-13.5-0.4-20.3-1.2c-3.2-0.4-6.5-0.9-9.7-1.4c-9-1.6-17.8-3.9-26.3-6.9
							c-7.2-2.5-14.3-5.6-21-9c-8-4.1-15.8-8.9-23.2-14.2c-2.7-2-5.1-3.8-7.2-5.6c-4.7-3.8-9.3-8-13.6-12.3
							c-20.4-20.6-35.3-46.3-43.1-74.4c-14-50.6-4.3-104,26.6-146.3c17.9-24.5,41.9-43.8,69.6-55.8c5.2-2.3,10.8-4.4,16.4-6.2
							c3.6-1.2,7.4-2.2,11.2-3.2c11.9-2.9,24.1-4.5,36.3-4.9c12.3-0.3,24.7,0.7,36.7,3c5.2,1,10.5,2.3,15.7,3.8
							c2.1,0.6,4,1.2,5.8,1.8c16.7,5.5,32.4,13.6,46.9,24.2c76.1,55.5,92.8,162.6,37.3,238.6C368.9,358.4,317.3,384.2,263.1,384.2z
							 M263.5,43.6c-1.5,0-3.1,0-4.6,0.1c-12.1,0.3-24.3,1.9-36.1,4.8c-3.8,0.9-7.6,2-11.2,3.1c-5.6,1.8-11.1,3.9-16.3,6.2
							c-27.5,12-51.4,31.2-69.2,55.5c-30.7,42.1-40.4,95.1-26.5,145.4c7.7,27.9,22.5,53.5,42.8,74c4.3,4.3,8.9,8.5,13.5,12.3
							c2.1,1.8,4.5,3.6,7.2,5.5c7.3,5.3,15.1,10.1,23,14.2c6.7,3.4,13.7,6.4,20.9,9c8.4,3,17.2,5.3,26.1,6.9c3.2,0.6,6.5,1,9.7,1.4
							c61,7.3,121.3-19,157.5-68.5c55.2-75.6,38.6-182-37.1-237.2c-14.4-10.5-30-18.5-46.6-24c-1.8-0.6-3.7-1.2-5.7-1.8
							c-5.1-1.5-10.4-2.8-15.6-3.8C285,44.6,274.3,43.6,263.5,43.6z"/>
					</g>
				</g>
				<g class="st4">
					<g>
						<path class="st3" d="M400.9,313.8c-37.6,51.6-98.8,75.8-158,68.7c-3.2-0.4-6.5-0.9-9.7-1.4c-8.8-1.6-17.6-3.9-26.2-6.9
							c-7.1-2.5-14.1-5.5-21-9c-8-4-15.7-8.8-23.1-14.2c-2.4-1.8-4.9-3.7-7.2-5.6c-4.8-3.9-9.3-8-13.6-12.3
							c-20.9-21.1-35.4-46.7-43-74.2C95,243.8,93,228.2,93,212.5c7.8,26,21.9,50.3,41.9,70.4c4.3,4.3,8.8,8.4,13.6,12.3
							c2.3,1.9,4.7,3.7,7.2,5.6c7.4,5.4,15.2,10.2,23.1,14.2c6.9,3.5,13.9,6.5,21,9c8.6,3,17.4,5.3,26.2,6.9c3.2,0.6,6.5,1,9.7,1.4
							c59.2,7.1,120.3-17.1,158-68.7c22-30.1,32.6-65,32.7-99.6C441.2,213.4,433.6,268.9,400.9,313.8z"/>
					</g>
				</g>
				<g>
					<g>
						<path class="st3" d="M263.1,387.6c-6.9,0-13.8-0.4-20.7-1.2c-3.3-0.4-6.6-0.9-9.9-1.5c-9.1-1.6-18.2-4-26.8-7.1
							c-7.4-2.6-14.6-5.7-21.5-9.2c-8.2-4.2-16.1-9.1-23.6-14.5c-2.8-2-5.2-3.9-7.4-5.7c-4.8-3.9-9.5-8.1-13.9-12.6
							c-20.8-21-36-47.3-43.9-75.9c-14.3-51.6-4.4-106,27.2-149.2c18.2-25,42.8-44.7,71-56.9c5.3-2.3,11-4.5,16.8-6.3
							c3.7-1.2,7.6-2.3,11.5-3.2c12.1-3,24.6-4.6,37-5c12.6-0.3,25.2,0.7,37.5,3c5.3,1,10.7,2.3,16,3.9c2.1,0.6,4,1.2,5.9,1.9
							c17,5.6,33,13.9,47.8,24.6c77.6,56.6,94.6,165.8,38,243.3C371,361.3,318.4,387.6,263.1,387.6z M263.5,47c-1.5,0-3,0-4.5,0.1
							c-11.9,0.3-23.8,1.9-35.4,4.7c-3.7,0.9-7.4,1.9-10.9,3.1c-5.5,1.8-10.9,3.8-16,6c-27,11.7-50.4,30.5-67.8,54.4
							c-30.1,41.3-39.6,93.2-25.9,142.6c7.6,27.3,22.1,52.4,42,72.5c4.2,4.2,8.7,8.3,13.3,12c2.1,1.7,4.4,3.5,7,5.4
							c7.1,5.2,14.7,9.9,22.6,13.9c6.5,3.4,13.4,6.3,20.5,8.8c8.3,2.9,16.9,5.2,25.6,6.7c3.1,0.6,6.3,1,9.5,1.4
							c59.8,7.2,118.9-18.6,154.4-67.2c54.1-74.1,37.8-178.4-36.3-232.5c-14.1-10.3-29.4-18.2-45.7-23.5c-1.8-0.6-3.6-1.2-5.6-1.8
							c-5.1-1.5-10.2-2.7-15.3-3.7C284.6,48,274.1,47,263.5,47z"/>
					</g>
				</g>
				<g>
					<g>
						<path class="st3" d="M263.1,388.7c-6.9,0-13.9-0.4-20.8-1.2c-3.3-0.4-6.7-0.9-10-1.5c-9.2-1.7-18.3-4-27-7.1
							c-7.4-2.6-14.7-5.7-21.6-9.3c-8.2-4.2-16.2-9.1-23.8-14.6c-2.8-2-5.2-3.9-7.4-5.7c-4.8-3.9-9.5-8.2-13.9-12.6
							c-21-21.2-36.3-47.6-44.2-76.4c-14.4-52-4.4-106.7,27.3-150.2c18.3-25.1,43-45,71.4-57.3c5.4-2.4,11-4.5,16.9-6.4
							c3.7-1.2,7.6-2.3,11.5-3.2c12.2-3,24.7-4.7,37.2-5c12.7-0.3,25.3,0.7,37.7,3.1c5.4,1,10.8,2.3,16.1,3.9c2.1,0.6,4.1,1.2,6,1.9
							c17.1,5.6,33.2,14,48.1,24.8c78.1,57,95.2,166.9,38.3,244.9C371.7,362.2,318.7,388.7,263.1,388.7z M263.5,48.1
							c-1.5,0-3,0-4.5,0.1c-11.8,0.3-23.6,1.9-35.1,4.7c-3.7,0.9-7.4,1.9-10.9,3.1c-5.5,1.8-10.8,3.8-15.9,6
							c-26.8,11.6-50.1,30.3-67.4,54c-29.9,41-39.3,92.6-25.8,141.6c7.5,27.2,21.9,52.1,41.7,72c4.2,4.2,8.6,8.2,13.2,11.9
							c2.1,1.7,4.4,3.5,7,5.4c7.1,5.2,14.6,9.8,22.4,13.8c6.5,3.3,13.4,6.3,20.4,8.7c8.2,2.9,16.7,5.1,25.4,6.7
							c3.1,0.5,6.3,1,9.4,1.4c59.4,7.1,118.1-18.5,153.3-66.7c53.7-73.6,37.5-177.2-36.1-230.9c-14-10.2-29.2-18.1-45.4-23.4
							c-1.8-0.6-3.6-1.2-5.6-1.7c-5-1.5-10.1-2.7-15.2-3.7C284.4,49.1,274,48.1,263.5,48.1z"/>
					</g>
				</g>
				<g>
					<g>
						<path class="st3" d="M116.1,299.1c81.5,90.3,224.9,72.4,259-43.2c23.1-78.7-36-162.1-113-179.5c-56-12.7-116.3-0.5-159.7,81.1
							c0,0-13.6,39.1-8.9,68.3c4.7,29.2,14.2,56.8,14.2,56.8L116.1,299.1z"/>
					</g>
				</g>
				<g>
					<g>
						<path class="st6" d="M375.1,255.9c-34,115.6-177.4,133.6-259,43.2l-1.7-3.3c102.6,43.8,223.9,4.3,260.5-112
							C381.6,206.9,382.2,231.6,375.1,255.9z"/>
					</g>
				</g>
				<g>
					<g>
						<path class="st3" d="M241.2,378.4c-18.8,0-38-3-56.6-9l-0.7-0.3c-8.2-4.2-16.2-9.1-23.7-14.6c-2.8-2-5.2-3.9-7.4-5.7
							c-4.8-3.9-9.5-8.2-13.9-12.6c-20.9-21.1-36.2-47.4-44.1-76.2c-14.3-51.8-4.4-106.4,27.3-149.7c18.3-25.1,42.9-44.8,71.2-57.2
							l0.4-0.2l0.5-0.1c22-4.5,46.3-3.9,72,1.9c45.9,10.4,88.1,41.9,113.1,84.4c22.9,39.1,29.1,82.7,17.2,123
							c-12.9,43.7-39.7,77.4-77.7,97.5C295.4,372.1,268.6,378.4,241.2,378.4z M187.8,361c43.2,13.9,89.5,10.6,126.9-9.2
							c35.8-18.9,61.1-50.7,73.3-92.1c11.1-37.8,5.3-79-16.3-115.9c-23.7-40.4-63.9-70.4-107.3-80.2c-24.3-5.5-47.1-6.2-67.8-2
							c-26.7,11.7-49.9,30.4-67.1,54c-30,41.1-39.4,92.9-25.9,142c7.5,27.2,22,52.2,41.8,72.2c4.2,4.2,8.6,8.3,13.2,12
							c2.1,1.7,4.4,3.5,7,5.4C172.6,352.4,180.1,357,187.8,361z"/>
					</g>
				</g>
				<g>
					<g>
						<path class="st3" d="M240.7,361.5c-47.1,0-94-21.1-128.3-59L112,302l-9-17.7c-0.4-1.1-9.7-28.4-14.4-57.6
							c-4.9-30.1,8.6-69.1,9.1-70.7l0.3-0.7c38.1-71.6,93.7-99.8,165.2-83.6c41.1,9.3,78.9,37.5,101.3,75.6
							c20.6,35,26,74.1,15.4,110.2c-15.3,52.1-53.5,88.6-104.9,100.3C263.7,360.2,252.2,361.5,240.7,361.5z M120.3,296.2
							c40.1,44.2,98.5,63.9,152.5,51.6c47.7-10.9,83.2-44.9,97.5-93.4c9.8-33.4,4.7-69.7-14.4-102.3c-21-35.7-56.4-62.2-94.8-70.9
							c-66.4-15-118.2,11.3-154,78.2c-1.3,3.9-12.8,39.3-8.6,65.5c4.3,26.7,12.8,52.5,13.9,55.7L120.3,296.2z"/>
					</g>
				</g>
				<g>
					<g>
						<path class="st0" d="M450.4,265.6c-5.5,33.1-29.7,57.6-54.1,54.7c-24.3-2.9-39.5-32.1-34-65.3c0.2-1,0.3-1.9,0.5-2.9
							c6.4-31.6,29.9-54.6,53.5-51.8c18.2,2.2,31.4,19.1,34.5,41.5C451.8,249.2,451.8,257.3,450.4,265.6z"/>
					</g>
					<g>
						<path class="st3" d="M400.2,325.5c-1.5,0-3-0.1-4.5-0.3c-10.8-1.3-20.3-7-27.4-16.6c-10.4-13.9-14.4-33.8-10.9-54.5
							c0.2-1,0.4-2.1,0.6-3.1c7-34.4,32.9-58.9,59-55.8c20.1,2.4,35.3,20.4,38.8,45.8c1.1,8.2,1,16.7-0.5,25.3v0
							C449.7,300.1,425.5,325.5,400.2,325.5z M412.3,205.1c-19.8,0-39,20.3-44.6,48c-0.2,0.9-0.4,1.8-0.5,2.7
							c-3,17.8,0.4,35.3,9.1,46.9c5.5,7.3,12.6,11.7,20.6,12.6c21.7,2.6,43.4-20.1,48.5-50.6c1.3-7.6,1.4-15.1,0.4-22.3
							c-2.9-20.7-14.7-35.3-30.1-37.2C414.6,205.2,413.5,205.1,412.3,205.1z M450.4,265.6L450.4,265.6L450.4,265.6z"/>
					</g>
				</g>
				<g class="st4">
					<g>
						<path class="st3" d="M450.4,265.6c-5.5,33.1-29.7,57.6-54.1,54.7c-24.3-2.9-39.5-32.1-34-65.3c0.2-1,0.3-1.9,0.5-2.9
							c3.4,4.3,7.8,8.3,12.6,8.6c10.4,0.6,20.7-12.7,20.7-12.7l54.7-6.2C451.8,249.2,451.8,257.3,450.4,265.6z"/>
					</g>
				</g>
				<g>
					<g>
						
							<ellipse transform="matrix(0.2495 -0.9684 0.9684 0.2495 55.6673 607.1603)" class="st0" cx="419.6" cy="267.7" rx="48.3" ry="36.1"/>
					</g>
					<g>
						<path class="st3" d="M414.2,315.9c-6.1,0-11.8-2-16.9-5.8c-16.6-12.6-20.1-41.8-7.9-65.2c6.8-13.1,17.4-22.1,28.9-24.7
							c8.5-1.9,16.6-0.2,23.5,5.1c16.6,12.6,20.1,41.8,7.9,65.2l0,0c-6.8,13.1-17.4,22.1-28.9,24.7
							C418.6,315.6,416.4,315.9,414.2,315.9z M424.9,220.5c-2.1,0-4.2,0.2-6.4,0.7c-11.3,2.5-21.5,11.3-28.2,24.1
							c-12,22.9-8.5,51.6,7.7,63.9c6.6,5,14.4,6.7,22.6,4.9c11.3-2.5,21.5-11.3,28.2-24.1c12-22.9,8.5-51.6-7.7-63.9
							C436.3,222.4,430.8,220.5,424.9,220.5z"/>
					</g>
				</g>
				<g class="st4">
					<g>
						<path class="st3" d="M382.6,282.2c-0.7-9.1,1-18.5,4.6-27c3.4,20.7,19.9,31.6,38.3,24.7c11.9-4.5,21.8-15.4,27.4-28.5
							c0.2,1.3,0.4,2.7,0.5,4c1.9,23.2-12.5,48.1-32,55.5C401.8,318.3,384.5,305.5,382.6,282.2z"/>
					</g>
				</g>
				<g>
					<g>
						<path class="st3" d="M414.2,320c-1,0-2.1-0.1-3.1-0.2c-7.9-0.9-14.9-5.1-20.3-12.2c-8.4-11.1-11.6-28.2-8.6-45.6
							c5.1-29.8,25.5-51.2,46.6-48.9c7.9,0.9,14.9,5.1,20.3,12.2c8.4,11.1,11.6,28.2,8.6,45.6l0,0C452.8,299.2,434.1,320,414.2,320z
							 M425.8,221.9c-15.1,0-30.7,18.4-34.7,41.6c-2.6,15.1,0,29.5,6.9,38.7c3.8,5.1,8.7,8.1,14.1,8.7c15.8,1.7,32.6-17.2,36.7-41.5
							l0,0c2.6-15.1,0-29.5-6.9-38.7c-3.8-5.1-8.7-8.1-14.1-8.7C427.1,222,426.5,221.9,425.8,221.9z M453.2,270.2L453.2,270.2
							L453.2,270.2z"/>
					</g>
				</g>
				<g class="st7">
					<g>
						<path class="st0" d="M295.6,117.8c0,0-74.1-11.8-123.7,21.1c-0.1,0-0.1,0.1-0.2,0.1c-10.4,6.9-18.8,16.6-24.3,27.9
							c-7.3,14.9-10.1,26.3-12.2,36.3c-6.4,30.7-3.7,46.2-3.7,46.2c-14.1-19.8-20.1-40.3-15-65.9c0.5-2.5,1.1-5.1,1.8-7.7
							c0.2-0.6,0.3-1.2,0.5-1.8c0,0,0,0,0,0c1.8-5.2,4.5-12,8.1-19.4c10.9-22.3,30.7-50.2,63.2-58.3
							C251,81.1,298.8,115.1,295.6,117.8z"/>
					</g>
				</g>
				<g class="st7">
					<g>
						
							<ellipse transform="matrix(0.9984 -5.581503e-02 5.581503e-02 0.9984 -10.8724 19.02)" class="st0" cx="335.1" cy="204.2" rx="22.8" ry="26.5"/>
					</g>
				</g>
				<g class="st7">
					<g>
						
							<ellipse transform="matrix(0.9902 -0.1399 0.1399 0.9902 -31.9689 49.7304)" class="st0" cx="337.8" cy="252.3" rx="9.4" ry="11"/>
					</g>
				</g>
			</g>
		</g>
		<g>
			<g>
				<path class="st0" d="M213.7,513.8l-11.3,0.6c-8.6,0.4-16-6.2-16.5-14.8v0c-0.4-8.6,6.2-16,14.8-16.5l11.3-0.6
					c8.6-0.4,16,6.2,16.5,14.8v0C228.9,506,222.3,513.4,213.7,513.8z"/>
			</g>
		</g>
		<g class="st4">
			<g>
				<path class="st3" d="M228.5,498.2c0,8.3-6.5,15.2-14.9,15.7l-11.4,0.6c-8.6,0.4-16-6.2-16.5-14.8c0-0.3,0-0.6,0-0.8
					c0-1.9,0.3-3.7,1-5.4c2.7,5.4,8.4,9,14.9,8.7l11.4-0.6c6.4-0.3,11.8-4.5,13.9-10.2c0.9,1.9,1.5,3.9,1.6,6.1
					C228.5,497.6,228.5,497.9,228.5,498.2z"/>
			</g>
		</g>
		<g>
			<g>
				<path class="st3" d="M201.5,518.9c-10.6,0-19.6-8.4-20.1-19.1c-0.6-11.1,8-20.6,19.1-21.2l11.3-0.6c11.1-0.6,20.6,8,21.2,19.1
					c0.6,11.1-8,20.6-19.1,21.2l-11.3,0.6C202.2,518.9,201.8,518.9,201.5,518.9z M212.8,487c-0.2,0-0.4,0-0.6,0l-11.3,0.6
					c-6.2,0.3-10.9,5.6-10.6,11.7c0.3,6.2,5.5,10.9,11.7,10.6l11.3-0.6c6.2-0.3,10.9-5.6,10.6-11.7C223.7,491.6,218.7,487,212.8,487
					z"/>
			</g>
		</g>
		<g>
			<g>
				<path class="st0" d="M333.3,534.7l16-6.8c3.4-1.4,5.5-4.9,5.2-8.6l-5.2-54.7c-0.4-4.2-3.7-7.6-7.9-8l-17.3-1.9"/>
			</g>
		</g>
		<g class="st4">
			<g>
				<path class="st3" d="M349.3,527.9l-16,6.8l-5-43l15.4,8.2c2.3-1,6.4-0.4,8.8-0.9l1.9,20.3C354.8,523,352.7,526.5,349.3,527.9z"
					/>
			</g>
		</g>
		<g>
			<g>
				<path class="st3" d="M333.3,538.5c-1.5,0-2.8-0.9-3.5-2.3c-0.8-1.9,0.1-4.1,2-4.9l16-6.8c1.9-0.8,3.1-2.8,2.9-4.8l-5.2-54.7
					c-0.2-2.4-2.2-4.4-4.6-4.6l-17.3-1.9c-2.1-0.2-3.5-2.1-3.3-4.1c0.2-2.1,2.1-3.5,4.1-3.3l17.3,1.9c6,0.6,10.7,5.4,11.2,11.4
					l5.2,54.7c0.5,5.3-2.5,10.3-7.4,12.4l-16,6.8C334.3,538.4,333.8,538.5,333.3,538.5z"/>
			</g>
		</g>
		<g>
			<g>
				<path class="st0" d="M423.2,453.3c0,0,11.1-0.1,13.1,14.1c1.9,13-14.6,21.6-14.6,21.6s-25.9,20.1-73,17.5
					c0,0-16.2-15.6-2.8-28.2C345.9,478.3,402.8,472.2,423.2,453.3z"/>
			</g>
		</g>
		<g class="st4">
			<g>
				<path class="st3" d="M421.7,489c0,0-25.9,20.1-73,17.5c0,0-12.6-12.2-6.4-23.7c0,0.1,0,0.1,0.1,0.2c2.3,7.1,9.1,11.8,16.5,11.7
					c41.1-0.3,63.6-17.8,63.6-17.8s9.2-4.8,13.1-12.7c0.3,1,0.5,2,0.7,3.1C438.2,480.4,421.7,489,421.7,489z"/>
			</g>
		</g>
		<g>
			<g>
				<path class="st3" d="M357,510.5c-2.7,0-5.6-0.1-8.5-0.2l-1.4-0.1l-1-1c-0.4-0.4-9.3-9.1-9.3-19.7c0-5.2,2.2-9.9,6.4-14l0.9-0.9
					l1.3-0.1c0.6-0.1,55.9-6.2,75.2-24.1l1.1-1l1.5,0c0,0,0,0,0.1,0c5,0,14.9,3.6,16.8,17.3c2.1,14.6-13.8,24-16.3,25.3
					C420.9,494.3,397.7,510.5,357,510.5z M350.4,502.9c44,1.9,68.8-16.7,69-16.8l0.6-0.4c0.1-0.1,14.1-7.6,12.7-17.8
					c-1.2-8.2-5.9-10.2-8.2-10.7c-20.4,17.3-68,23.7-76.8,24.7c-2.2,2.3-3.2,4.9-3.3,7.7C344.3,495.3,348.5,500.7,350.4,502.9z"/>
			</g>
		</g>
		<g>
			<g>
				<path class="st0" d="M327.7,536c-20.3,3.2-61.7,7.9-103.5,1.9c-6.2-0.9-11.1-5.8-12-12l-2.6-18l-4.9-34.5
					c-1.2-8.6,5.6-16.3,14.3-16.1c22.5,0.5,64.1,0.8,100.5-2.9c7.8-0.8,14.7,5,15.4,12.8l1.7,19.5l2.9,34.1
					C340.2,528.2,335,534.8,327.7,536z"/>
			</g>
		</g>
		<g class="st4">
			<g>
				<path class="st3" d="M327.7,536c-20.3,3.2-61.7,7.9-103.5,1.9c-6.2-0.9-11.1-5.8-12-12l-2.6-18c17.8,15.2,48,22.2,82.9,16.8
					c2.7-0.4,5.2-0.9,7.6-1.6c-3.1-2.4-5.4-6.5-6-11.4c-1-8.4,3.4-15.8,10-16.6c0,0,0,0,0.1,0c0.6-0.1,5.3-0.7,9.4-1.2
					c6.2-0.8,12.1,4.7,13.5,12.5c5.1-6.3,8-13.4,9.6-19.7l2.9,34.1C340.2,528.2,335,534.8,327.7,536z"/>
			</g>
		</g>
		<g>
			<g>
				<path class="st3" d="M267,544.5c-13.8,0-28.5-0.8-43.3-2.9c-7.8-1.1-14.1-7.4-15.2-15.2L201,474c-0.7-5.2,0.8-10.4,4.3-14.4
					c3.5-3.9,8.5-6.1,13.8-6l0,0c21.7,0.5,63.6,0.8,100.1-2.9c4.8-0.5,9.4,0.9,13.1,4c3.7,3.1,6,7.4,6.4,12.2l4.6,53.6
					c0.8,9.3-5.8,17.7-15,19.1C314.7,541.8,292.4,544.5,267,544.5z M218.7,461.1c-3,0-5.8,1.3-7.7,3.5c-2,2.3-2.9,5.3-2.5,8.3
					l7.5,52.5c0.6,4.5,4.3,8.1,8.8,8.8c41.1,5.9,81.7,1.3,102.3-1.9c5.3-0.8,9.2-5.7,8.7-11.1l-4.6-53.6c-0.2-2.8-1.6-5.3-3.7-7.1
					c-2.1-1.8-4.8-2.6-7.6-2.3c-36.9,3.7-79.1,3.5-101,3C218.9,461.1,218.8,461.1,218.7,461.1z"/>
			</g>
		</g>
		<g>
			<g>
				<path class="st8" d="M298.1,497c0.2,1.7,4.2,14.8,4.2,14.8s4.3-0.5,9.5-1.2c6.5-0.8,11-8.2,10-16.6c-1-8.4-7.2-14.5-13.7-13.7
					c-4.4,0.5-9.5,1.2-9.5,1.2S297.7,494.3,298.1,497z"/>
			</g>
		</g>
		<g>
			<g>
				<path class="st8" d="M298.1,497c0.2,1.7,4.2,14.8,4.2,14.8s4.3-0.5,9.5-1.2c6.5-0.8,11-8.2,10-16.6c-1-8.4-7.2-14.5-13.7-13.7
					c-4.4,0.5-9.5,1.2-9.5,1.2S297.7,494.3,298.1,497z"/>
			</g>
		</g>
		<g>
			<g>
				<path class="st0" d="M321.9,495.4c-2.2-6.3-7.3-10.5-12.8-9.8c-4.4,0.5-9.5,1.2-9.5,1.2s-0.6,9.7-0.5,14
					c-0.5-1.8-0.9-3.2-0.9-3.7c-0.3-2.7,0.5-15.4,0.5-15.4s5.1-0.6,9.5-1.2c6.5-0.8,12.7,5.3,13.7,13.7
					C321.8,494.5,321.8,495,321.9,495.4z"/>
			</g>
		</g>
		<g class="st4">
			<g>
				<path class="st3" d="M311.8,510.7c-5.2,0.6-9.5,1.2-9.5,1.2s-4-13.2-4.2-14.8c-0.3-2.7,0.5-15.4,0.5-15.4s0,0,0,0
					c0,1.3,0,2.4,0.1,3c0.2,1.7,4.2,14.8,4.2,14.8s4.3-0.5,9.5-1.2c3.9-0.5,7-3.3,8.7-7.3c0.3,1,0.5,2,0.6,3.1
					C322.8,502.4,318.3,509.9,311.8,510.7z"/>
			</g>
		</g>
		<g>
			<g>
				<path class="st3" d="M304.8,514.5c-2.8,0-5.3-1.8-6.2-4.6c-3.3-10.9-3.4-12.1-3.5-12.5v0c-0.2-1.6-0.1-6,0.3-13.1
					c0.2-3.1,2.5-5.7,5.7-6.1l6.6-0.8c4.1-0.5,8.1,1,11.4,4.2c3.1,3,5.1,7.3,5.7,12c1.2,10-4.4,18.9-12.6,19.9l-6.6,0.8
					C305.3,514.5,305,514.5,304.8,514.5z M301,496.7c0.1,0.6,1,4.1,3.3,11.6c0.1,0.2,0.3,0.4,0.5,0.3l6.6-0.8
					c4.9-0.6,8.2-6.6,7.4-13.3c-0.4-3.4-1.8-6.4-3.9-8.5c-1.9-1.9-4.2-2.8-6.4-2.5l-6.6,0.8c-0.2,0-0.4,0.2-0.4,0.4
					C300.9,492.1,300.9,495.7,301,496.7z"/>
			</g>
		</g>
		<g>
			<g>
				
					<ellipse transform="matrix(0.9924 -0.1234 0.1234 0.9924 -59.0145 40.876)" class="st8" cx="300.4" cy="496.8" rx="11.9" ry="15.2"/>
			</g>
		</g>
		<g>
			<g>
				<path class="st0" d="M312.2,500.6c-1.2-8.1-7.3-13.9-13.6-13.1c-5.1,0.6-8.9,5.3-9.9,11.3c0-0.2-0.1-0.4-0.1-0.6
					c-1-8.4,3.4-15.8,10-16.6c6.5-0.8,12.7,5.3,13.7,13.7C312.5,497.1,312.4,498.9,312.2,500.6z"/>
			</g>
		</g>
		<g class="st4">
			<g>
				<path class="st3" d="M302.3,511.9c-6.5,0.8-12.7-5.3-13.7-13.7c-0.3-2.7-0.1-5.3,0.6-7.7c2,6.8,7.4,11.4,13.1,10.6
					c4.4-0.5,7.9-4.1,9.3-8.9c0.3,1,0.5,2,0.6,3C313.3,503.6,308.8,511.1,302.3,511.9z"/>
			</g>
		</g>
		<g>
			<g>
				<path class="st3" d="M301.1,515c-3.6,0-7-1.5-9.8-4.3c-3.1-3-5.1-7.3-5.7-12l0,0c-1.2-10,4.4-18.9,12.6-19.9
					c8.2-1,15.8,6.3,17.1,16.3c1.2,10-4.4,18.9-12.6,19.9C302.1,514.9,301.6,515,301.1,515z M299.7,484.6c-0.3,0-0.5,0-0.8,0.1
					c-4.9,0.6-8.2,6.6-7.4,13.3v0c0.4,3.4,1.8,6.4,3.9,8.5c1.9,1.9,4.2,2.8,6.4,2.5c4.9-0.6,8.2-6.6,7.4-13.3
					C308.5,489.3,304.3,484.6,299.7,484.6z"/>
			</g>
		</g>
		<g>
			<g>
				<path class="st3" d="M268.4,543.7c-1.5,0-2.8-1.2-3-2.7l-3-33.2c-0.2-2.5-1.7-4.7-3.9-6l-6.1-3.4c-3.8-2.1-6.4-6-6.9-10.3
					L242,458c-0.2-1.6,1-3.1,2.6-3.3c1.6-0.2,3.1,1,3.3,2.6l3.5,30.1c0.3,2.4,1.7,4.6,3.9,5.8l6.1,3.4c3.9,2.2,6.5,6.2,6.9,10.7
					l3,33.2c0.1,1.6-1.1,3.1-2.7,3.3C268.5,543.7,268.5,543.7,268.4,543.7z"/>
			</g>
		</g>
		<g>
			<g>
				<path class="st3" d="M361.4,653.3c-19.8,0-33.2-5.6-33.8-5.9c-1.9-0.8-2.8-3-2-4.9c0.8-1.9,3-2.8,4.9-2
					c0.3,0.1,14.3,5.9,34.2,5.2c26.6-0.9,50.6-12.4,71.4-34.2c1.4-1.5,3.8-1.6,5.3-0.1c1.5,1.4,1.6,3.8,0.1,5.3
					c-27.7,29.1-57.1,35.9-76.9,36.5C363.5,653.2,362.5,653.3,361.4,653.3z"/>
			</g>
		</g>
		<g>
			<g>
				<path class="st3" d="M481.3,413.2c-0.4,0-0.8-0.1-1.1-0.2c-23.9-7.6-38.2-27.5-41.4-57.6c-2.4-22.2,2.1-41.8,2.3-42.7
					c0.5-2,2.5-3.3,4.5-2.8c2,0.5,3.3,2.5,2.8,4.5c-0.2,0.8-16.6,75.3,34.1,91.4c2,0.6,3.1,2.7,2.4,4.7
					C484.4,412.2,482.9,413.2,481.3,413.2z"/>
			</g>
		</g>
		<g>
			<g>
				<path class="st3" d="M485.3,347.3c2.2-1.3,4.5-2.7,6.6-4.2c1-0.8,2-1.5,3-2.3c1-0.8,1.9-1.7,2.8-2.5c0.9-0.8,1.7-1.8,2.4-2.7
					c0.8-0.9,1.5-1.8,2.1-2.8c1.3-1.9,2.2-4,2.9-6.1l1.3-3.9l4.3,0.8c2,0.4,4.3,0.7,6.4,0.9c2.2,0.2,4.3,0.4,6.4,0.4
					c2.1,0,4.2-0.2,6-0.6c1.8-0.4,3.3-1.2,4.2-2c0.5-0.4,0.8-0.9,1-1.5c0.3-0.6,0.4-1.3,0.5-2.1c0.2-1.5-0.1-3.3-0.7-4.9
					c-1.2-3.4-3.8-6.4-7.1-8.4c-3.3-2-7.1-3.1-11.2-3.3c-1,0-2,0-3.1,0l-3.3,0.3c-2.2,0.3-4.5,0.6-6.8,0.9c-9,1.5-18.1,3.8-26.7,6.7
					l-0.1,0c-2.4,0.8-4.9-0.5-5.7-2.9c-0.8-2.4,0.5-4.9,2.9-5.7h0c9.3-3,18.5-5.4,28.2-7c2.4-0.4,4.8-0.7,7.3-1
					c1.2-0.1,2.4-0.2,3.7-0.3c1.3-0.1,2.7-0.1,4-0.1c5.4,0.2,10.9,1.7,15.6,4.7c4.7,3,8.7,7.4,10.7,13c1,2.8,1.5,5.8,1.2,9
					c-0.2,1.6-0.6,3.2-1.2,4.7c-0.7,1.6-1.8,3.1-3,4.3c-2.5,2.4-5.5,3.7-8.2,4.4c-2.8,0.7-5.4,1.1-8,1.2c-2.6,0.1-5.2,0-7.7-0.2
					c-2.6-0.3-4.9-0.6-7.6-1.3l5.6-3.1c-1.1,3-2.7,5.9-4.7,8.3c-2,2.5-4.3,4.5-6.8,6.2c-1.2,0.9-2.5,1.6-3.9,2.3
					c-1.3,0.7-2.7,1.3-4.1,1.8c-2.8,1-5.5,1.7-8.5,1.9c-0.8,0.1-1.6-0.6-1.6-1.4c0-0.6,0.3-1.2,0.8-1.4L485.3,347.3z"/>
			</g>
		</g>
		<g>
			<g>
				<path class="st3" d="M82.7,338.9c-3-0.2-5.8-0.9-8.5-1.9c-1.4-0.5-2.7-1.1-4.1-1.8c-1.3-0.7-2.6-1.4-3.9-2.3
					c-2.5-1.7-4.8-3.8-6.8-6.2c-2-2.4-3.6-5.3-4.7-8.3l5.6,3.1c-2.3,0.6-4.4,0.9-6.7,1.2c-2.2,0.2-4.4,0.4-6.7,0.4
					c-2.3,0-4.6-0.2-7-0.6c-2.4-0.4-4.8-1-7.3-2.3c-2.4-1.2-4.9-3.3-6.4-6.1l-0.5-1l-0.4-1c-0.2-0.7-0.5-1.4-0.6-2.1
					c-0.3-1.4-0.4-2.9-0.3-4.3c0.2-2.9,1.2-5.6,2.5-7.8c1.3-2.3,3-4.2,4.8-5.8c3.7-3.3,7.8-5.5,12.1-7.1c4.3-1.6,8.6-2.6,13.1-3.2
					c4.6-0.6,9.1-0.4,13.5,0.2c2.2,0.3,4.4,0.7,6.6,1.2c1.1,0.3,2.2,0.5,3.2,0.9c1.1,0.3,2.1,0.6,3.3,1.1c2.3,0.9,3.5,3.5,2.6,5.8
					c-0.9,2.3-3.5,3.5-5.8,2.6l-0.1-0.1c-0.7-0.3-1.7-0.6-2.6-0.9c-0.9-0.3-1.8-0.5-2.8-0.7c-1.9-0.4-3.8-0.8-5.7-1.1
					c-3.8-0.5-7.6-0.6-11.3-0.2c-7.5,0.9-15.1,3.5-20.2,8.1c-2.5,2.3-4.3,5.1-4.4,7.6c-0.1,0.6,0,1.2,0.1,1.9c0,0.3,0.2,0.6,0.3,0.9
					l0.2,0.4l0.2,0.3c0.5,0.9,1.3,1.6,2.6,2.3c2.5,1.3,6.3,1.6,10,1.5c1.9-0.1,3.8-0.2,5.7-0.5c1.9-0.2,3.9-0.5,5.6-0.9l4.3-0.8
					l1.3,3.9c0.7,2.1,1.6,4.2,2.9,6.1c0.6,1,1.3,1.9,2.1,2.8c0.8,0.9,1.6,1.8,2.4,2.7c0.9,0.8,1.8,1.7,2.8,2.5c1,0.8,2,1.6,3,2.3
					c2.1,1.5,4.4,2.9,6.6,4.2l0.1,0.1c0.7,0.4,1,1.3,0.6,2.1C83.8,338.7,83.2,339,82.7,338.9z"/>
			</g>
		</g>
	</g>
</g>
</svg>
