<svg xmlns="http://www.w3.org/2000/svg" viewBox="0 0 1000 1000" style="enable-background:new 0 0 1000 1000" xml:space="preserve"><path d="M735.8 143.8c72.3 53.4 130.9 120.6 179.7 200.3 48.2 79.2 86.7 171.6 81.5 262.3-5.2 91.3-53.4 180.8-127.4 227.3-73.5 45.9-172.8 48.2-262.9 68.3-89.6 19.5-170.5 56.8-254.3 55.1-84.4-1.1-172.2-40.8-227.9-107.3S45.2 689.7 25.2 592.1s-36.7-199.2-4.6-282.4c32.7-83.2 114.2-147.5 200.9-194.6s179.1-76.9 268.1-71.8c88.9 5.8 174.5 46.5 246.2 100.5z" style="fill:#8930e8"/></svg>