<?xml version="1.0" encoding="iso-8859-1"?>
<!-- Generator: Adobe Illustrator 26.0.3, SVG Export Plug-In . SVG Version: 6.00 Build 0)  -->
<svg version="1.1" id="Layer_1" xmlns="http://www.w3.org/2000/svg" xmlns:xlink="http://www.w3.org/1999/xlink" x="0px" y="0px"
	 viewBox="0 0 1500 1500" enable-background="new 0 0 1500 1500" xml:space="preserve">
<g>
	<path fill="#7EC7BF" d="M1487.069,750.012c0,407.104-329.965,737.111-737.002,737.111c-407.171,0-737.136-330.007-737.136-737.111
		c0-407.118,329.965-737.136,737.136-737.136C1157.104,12.877,1487.069,342.894,1487.069,750.012"/>
	<path fill="#51AD36" d="M1174.477,1123.622c-4.706,0-10.19-8.865-16.329-14.443c-6.006-5.578-38.403,1.563-46.242,1.563
		c-7.709,0-11.756-3.43-18.942-7.772c-7.183-4.345-14.892,0.943-20.509,2.186c-5.617,1.227-8.101-3.767-4.702-9.969
		c3.529-6.205-11.493-4.639-22.597-2.467c-11.237,2.166-6.794,7.754-15.806,4.646c-9.145-3.094,10.449-13.361,16.984-21.122
		c6.528-7.758-1.177-20.821-4.969-22.036c-3.658-1.24-10.841-12.436-21.945-21.136c-11.234-8.686-19.724-2.169-32.916-2.169
		c-13.455,0-16.591-5.904-22.727-10.568c-6.276-4.65-4.443-13.988-29.265-27.012c-16.847-8.844-17.373-8.413-15.544-8.01
		c0.911,0.21,2.351,0.403,2.873-0.378c1.566-2.495,4.051-2.18-4.702-6.23c-8.753-4.026-15.806,4.664-24.559,8.098
		c-8.62,3.399-19.202,2.484-22.99,1.531c-3.658-0.943-7.971-9.916-12.411-11.787c-4.31-1.868-8.098-5.915-10.841-10.249
		c-2.743-4.338-11.756-2.498-11.493,5.599c0.263,8.049-4.313,12.726-13.063,16.122c-8.753,3.437-4.969-9.601-4.969-13.676
		c0-4.023,7.709-8.045,8.364-14.279c0.652-6.206-7.705,5.89-15.806,14.615c-5.095,5.501-9.275,4.261-15.544,3.02
		c-3.662-0.694-7.972-1.409-13.588-0.851c-15.54,1.57-8.098,17.688-8.098,26.718c0,8.988-13.063,12.12-15.281,9.937
		c-2.092-2.19-2.092-7.155-6.794-7.155c-4.706,0-5.879-7.446-7.187-10.228c-1.177-2.796-17.11-5.582-22.99,5.578
		c-5.876,11.192-12.019,2.179-19.202,0c-7.187-2.172-21.164-30.113-18.028-35.089c3.133-4.962,3.133-7.159-0.392-10.568
		c-3.395-3.423-1.829-5.918,1.048-11.157c2.74-5.305,10.186-10.256-4.702-19.896c-9.667-6.269-22.993-4.895-34.49-3.539
		c-6.135,0.743-11.885,1.489-16.195,1.062c-12.411-1.244-2.484-10.284,0-12.754c2.477-2.495,7.442-11.181,9.927-18.624
		c2.61-7.46-2.088-8.101,2.221-18.014c4.31-9.969,3.133-16.802-6.794-17.429c-10.06-0.61-19.335,6.861-19.987,21.136
		c-0.519,14.307-14.759,13.676-47.811,11.181c-32.916-2.477-29.784-28.568-33.438-49.704c-3.791-21.122,6.794-39.136,7.446-49.676
		c0.522-10.568,13.585-22.38,25.993-31.69c12.411-9.345,30.176-6.927,30.176-6.927s23.904,5.056,31.354,4.401
		c7.446-0.585,1.303-6.188,1.829-13.62c0.652-7.474,36.708-2.495,42.976-2.495c6.135,0,4.962,4.962,11.756,11.714
		c3.921,3.882,5.228,1.006,6.924-1.84c1.174-2.092,2.614-4.194,5.484-3.672c6.794,1.282,1.31,5.592,11.237,21.749
		c9.927,16.146,8.094,21.749,11.104,35.429c3.136,13.665,9.927,6.833,14.37-4.376c4.31-11.171-4.965-47.209-7.45-65.853
		c-2.481-18.638,14.237-11.78,30.439-29.177c16.066-17.387,32.916-18.627,40.362-31.063c7.446-12.439-0.652-32.944,3.661-21.753
		c4.44,11.181,4.958-4.338,5.613-16.171c0.655-11.784,6.924-16.745,9.93-9.941c3.133,6.857,6.791,1.868,9.271-9.888
		c2.614-11.836,13.063-23.932,18.028-29.826c5.095-5.943,15.021-0.336,28.61,0c13.711,0.291,0.652-2.516-3.399-16.171
		c-4.051-13.651,8.753-18.35,13.977-18.35s27.955-12.099,32.916-15.183c4.968-3.133,11.496-2.807,20.249,3.711
		c8.62,6.521-8.098,1.556-13.718,11.171c-5.617,9.639,8.101,10.866,13.981,2.193c5.876-8.711,18.939-4.664,30.173-15.859
		c11.104-11.181-12.8-7.131-18.024-8.686c-5.358-1.552-8.623-14.615-8.101-18.809c0.389-4.194-3.266-14.895-8.883-19.57
		c-5.484-4.65-19.986,0.484-32.524,5.603c-12.674,5.123-16.332,9.773-15.414,3.725c0.915-6.076,21.945-20.011,27.433-20.964
		c5.617-0.939,21.42-7.446,28.866-15.859c7.446-8.388,28.869,1.409,38.666,2.337c9.797,0.943,23.778,6.521,28.869-0.469
		c5.224-6.976,9.405-6.976,19.594-8.388c10.323-1.384,12.148-16.314,5.228-22.818c-7.057-6.549-17.247-30.281-31.746-37.741
		c-14.503-7.474-8.883-12.106-4.18-18.168c4.573-6.062-14.633-20.968-20.768-36.511c-6.269-15.519,0.652-19.24-6.924-19.881
		c-7.446-0.627-2.484,11.181-6.139,21.749c-3.792,10.592-19.335,4.976-21.816,4.334c-2.481-0.599-11.104-11.195-10.582-21.108
		c0.655-9.913,3.133-18.652,0-21.749c-3.003-3.083-9.927-0.599-13.585-4.324c-3.788-3.749-8.749-14.93-14.37-19.896
		c-3.395-3.08-9.534-3.055-15.677-3.045c-3.788,0-7.705,0-10.971-0.69c-8.753-1.868-16.721,1.251-14.892,6.857
		c1.829,5.603,0.652,13.024-2.481,32.934c-2.088,13.126-5.487,12.958-9.016,12.761c-1.826-0.067-3.658-0.158-5.354,1.514
		c-4.965,4.941,3.136,6.234,7.576,20.481c4.313,14.307-5.617,24.875-10.056,29.198c-4.313,4.362-18.55,7.474-27.825,10.568
		c-9.405,3.112,0.522,14.892,1.829,24.857c1.177,9.93-8.098,24.219-13.063,26.076c-4.965,1.882-21.16-18.617-22.338-30.425
		c-1.307-11.822,9.927-24.843,4.962-28.582c-4.962-3.735-24.296-3.735-42.321-18.641c-18.028-14.92-39.711-22.99-47.157-40.979
		c-7.449-18.038,7.446-34.16,13.585-47.205c6.272-13.066,18.676-11.195,38.533-18.645c19.857-7.484,7.446-14.303,12.411-14.303
		c5.095,0,21.164-2.495,24.948-7.47c3.658-4.965,12.411-9.944,20.512-14.254c8.098-4.387,9.927-13.063,12.93-18.038
		c1.829-2.782,5.358-0.287,9.797,2.222c3.529,1.973,7.709,3.921,12.019,3.381c3.133-0.403,5.224-0.35,7.053-0.312
		c3.917,0.105,6.665,0.196,15.936-4.075c13.588-6.177,1.829-9.916,0.655-16.735c-1.307-6.857,8.623-4.99,5.487-12.436
		c-3.006-7.47-16.721-14.916-25.737-13.648c-9.012,1.212,2.747,9.937-6.531,18.599c-9.275,8.725-7.442,14.303-10.578,15.558
		c-3.136,1.212-16.721-3.122-16.721-7.46c0-4.348,6.139-8.098,8.62-9.951c2.484-1.857-1.826-11.195-3.003-14.279
		c-1.307-3.122-6.924,3.711-8.098,9.941c-1.31,6.192-8.101,6.819-6.269,1.24c1.826-5.578-4.969-12.436-9.93-19.258
		c-4.965-6.854,4.962-6.227,10.579-14.899c5.62-8.725,3.791-12.467-3.784-16.787c-7.45-4.366-16.069,2.453-24.822,11.78
		c-8.62,9.342-5.617,8.714-2.484,20.523c1.57,5.971,1.57,5.89,1.44,5.831c-0.133-0.098-0.522-0.175,0.522,5.34
		c1.829,11.178-14.366,9.965-14.366,9.965s-8.101-0.627-11.104-1.868c-3.14-1.254,0-5.592-6.927-8.098
		c-6.791-2.47-9.927,8.711-9.927,8.711s-18.68-0.613-26.126-0.613c-7.442,0-18.028-3.735-19.853-6.833
		c-1.833-3.108-11.104-9.338-19.205-9.338c-8.098,0-11.234,6.847-11.234,14.916c0,8.073-13.715,8.7-13.063,4.965
		c0.655-3.711-1.829-16.773-1.829-16.773l-7.442,4.338c0,0-20.512-1.216-27.303-1.843c-6.924-0.624-4.31-9.317-4.31-9.317
		l13.585-1.251l1.825-3.108c0,0-3.655-3.735-7.446-4.962c-3.655-1.244-19.853-4.352-19.853-4.352l-4.962-6.833c0,0-7.446,0-10.586,0
		c-3.133,0-8.098,6.206-10.578,6.206c-2.484,0-2.484-6.857-2.484-6.857l1.307-5.578c0,0,0,0-6.269,3.112
		c-6.142,3.119-8.62,0.624-8.62,0.624l2.477-6.234l0.526-6.819c0,0-3.658-4.334-3.658-1.226c0,3.094-6.269,9.913-11.756,9.352
		c-2.614-0.312-4.836,0.694-7.187,1.703c-2.744,1.198-5.876,2.386-10.316,1.381c-7.971-1.892-23.515,3.686-32.268,11.171
		c-8.753,7.446-14.236,9.937-12.411,1.24c1.833-8.725-24.296-7.474-28.606-9.317c-4.31-1.875-15.547-3.094-25.996-4.359
		c-10.578-1.258-13.063-9.944-13.063-9.944l-4.44-15.309c-54.213,29.563-104.372,65.825-149.311,107.572
		c6.009,11.027,12.019,21.308,13.848,22.667c4.15,2.913,8.182,0.385,8.696,0.039c-1.089,0.748-18.227,12.601-45.27,36.444
		c-27.955,24.689-18.683,27.524-18.683,36.848c0,9.292,5.62,5.592,5.62,5.592s-21.816,22.324-27.955,28.557
		c-6.139,6.202-17.376,14.93-17.376,14.93l-11.234,13.651l4.965,1.868l67.535-56.694c0,0,4.31-0.939,4.702-3.241
		c0.522-2.348,4.177-10.277,5.617-10.75c1.437-0.427,7.442-10.225,7.442-10.225s4.184-1.857,9.279-6.521
		c5.091-4.65,10.319-11.665,14.5-12.12c4.18-0.484,0,6.062-7.443,12.12c-7.449,6.062-16.336,19.086-16.336,19.086
		s24.692-13.024,33.049-18.627c8.364-5.592,5.621-13.977,8.886-14.45c3.266-0.456,10.712,6.521,13.063,13.536
		c1.437,4.261,3.006,2.782,6.924,1.318c2.481-0.939,5.88-1.868,10.841-1.318c12.541,1.36,4.05,11.153,8.749,17.674
		c4.706,6.517,4.706,8.385,16.854,5.613c12.019-2.803-4.706,26.048-4.706,26.048l-0.911,9.352c0,0,4.573,6.521,4.573,7.446
		c0,0.929-5.487,17.702-5.487,17.702h9.275c0,0-3.788,4.664-8.361,7.474c-4.706,2.782,0.911,10.256,5.617,13.963
		c4.573,3.739,0,0-6.531,14.906c-6.531,14.916,0,10.267,7.446,20.509c7.442,10.239,12.148,14.944,17.632,21.458
		c5.62,6.507,0,21.413-5.484,22.355c-5.617,0.925-17.769-8.413-17.769-8.413c0.659,96.271-3.655,82.031-7.838,67.809
		c-1.826-6.416-3.784-12.87-5.221-9.079c-4.706,12.096-11.237,18.613-11.237,26.087c0,7.47,0,18.613-7.443,28.88
		c-7.446,10.27-0.915,33.547,0,36.357c1.044,2.796,6.924,14.888,6.924,14.888s0,25.8,0,38.207c0,12.439,22.338,18.631,29.784,29.198
		s5.617,31.091,6.269,34.5c0.522,3.395,5.224,11.808,9.538,15.831c4.436,4.047,4.699,10.866,8.098,17.099
		c3.395,6.202-5.224,4.023-6.139,12.096c-1.044,8.098,7.709,8.388,12.408,10.256c4.573,1.864,9.275,4.674,6.794,13.336
		c-2.484,8.697-1.177,5.613,3.395,10.596c4.702,4.937,2.484,1.836,4.965,11.206c2.481,9.3,8.753,5.252,8.753,5.252s0,4.047,0,5.578
		c0,1.552,5.617,3.108,5.617,3.108l3.655-5.606c0,0-2.74-1.24-2.74-2.18c0-0.901-0.655-5.578-0.655-5.578l-8.36-3.423
		c0,0-1.307-4.622-1.307-6.521c0-1.836,0-6.819,0-8.07c0-1.24-3.003-2.155-3.003-2.155s-0.392-8.388-0.392-13.364
		c0-4.962-8.098-9.625-8.357-11.808c-0.266-2.179-0.915-9.314-4.054-13.963c-3.136-4.674-10.578-14.619-10.186-25.187
		c0.26-10.526-2.614-17.387,1.437-17.387c4.051,0,10.974,10.256,12.804,12.124c1.825,1.868,0.259,14.279,8.097,25.775
		c7.705,11.493,27.821,35.124,25.996,36.967c-1.833,1.868-7.057,1.16-4.18,8.136c2.74,7.001,9.534,8.648,14.626,10.018
		c5.098,1.388,13.588,29.85,19.076,39.164c5.617,9.314-1.31,9.314-2.747,15.351c-1.433,6.086,0.392,9.338,9.801,13.532
		c9.275,4.163,7.446,14.443,18.158,17.709c10.711,3.255,31.739,16.935,37.226,18.172c5.617,1.23,4.969,6.209,12.411,6.913
		c7.576,0.666,8.753,3.027,12.544,5.498c3.655,2.467,16.714-2.47,19.198-4.334c2.484-1.868,4.965-1.244,11.756,0
		c6.924,1.226,26.781,22.373,33.053,28.582c3.525,3.536,6.658,2.229,9.534,0.911c2.221-1.016,4.443-1.997,6.531-0.911
		c4.962,2.467,14.24,8.045,18.024,7.432c3.791-0.575,3.791-3.725,6.272-3.725c2.481,0,0.522,4.965,9.927,16.773
		c9.275,11.808,7.446,14.289,7.446,16.171c0,1.868,4.31,11.185,10.582,9.92c6.142-1.233,12.411,5.263,12.411,5.263v10.277
		c0,0,21.031,1.265,25.341,2.495c4.44,1.244,5.095,10.557,6.924,11.808c1.825,1.24,9.271-7.456,8.097-12.436
		c-1.304-4.99,8.101-7.47,11.759-11.181c3.784-3.749,8.749,4.324,11.885,8.077c3.003,3.732,9.927,13.045,9.927,20.491
		c0,7.474-0.655,18.645-0.655,30.474c0,11.759-9.271,17.362-16.195,25.435c-6.794,8.101-13.063,11.808-16.066,15.533
		c-3.136,3.735-5.617,15.558-4.443,22.362c1.307,6.857,9.93,0.627,9.93,8.7c0,8.098-7.971,3.763-17.373,11.181
		c-9.279,7.47,1.303,8.073,4.31,14.307c3.133,6.226-4.31,1.24-4.31,8.686c0,7.484,11.23,6.23,21.812,9.328
		c10.449,3.083,21.683,30.425,27.951,44.728c6.142,14.289,12.411,26.697,18.554,29.192c6.269,2.484,6.92,8.07,19.857,11.181
		c13.063,3.122,23.378,13.364,30.698,13.364c7.313,0,7.05,12.583,4.699,17.716c-2.221,5.091-0.389,6.503,1.437,25.145
		c1.829,18.655-4.176,60.587-6.135,65.251c-1.962,4.65-1.44,3.721,1.959,7.116c3.395,3.448-5.621,18.315-5.88,23.014
		c-0.263,4.653-9.016,7.435-10.845,11.787c-1.696,4.359,4.31,4.359,5.62,8.388c1.174,4.022-2.484,13.96,1.174,17.695
		c3.788,3.711,7.183,2.523,8.098,8.413c1.048,5.866-3.392,11.472-9.667,11.472c-6.135,0-6.135,6.517-3.395,4.362
		c2.744-2.183,6.531,0,6.531,0l4.965,8.767c15.284-1.559,30.306-3.62,45.197-6.09c3.266-3.711,6.006-6.675,8.227-7.039
		c7.449-1.24,3.791-8.69-0.652-24.219c-2.74-9.797,2.221-8.227,8.49-6.675c3.791,0.901,7.968,1.84,11.496,0.445
		c9.275-3.711,6.139-16.136,19.202-17.975c13.066-1.896,27.299-13.69,32.923-22.376c5.613-8.7-2.484-13.063,18.021-10.568
		c20.509,2.491,39.192-23.617,55.257-42.875c16.199-19.24,1.829-25.498,30.436-43.474c28.61-18.038,74.851-66.933,77.728-82.333
		c2.74-15.389-5.228-15.831,11.1-26.546c16.329-10.736,36.837-40.562,38.663-48.933
		C1183.885,1136.205,1179.179,1123.622,1174.477,1123.622z"/>
	<path fill="#51AD36" d="M1017.202,101.537c-23.645,0-28.61,23.589-7.446,27.324c21.161,3.686,64.529,3.686,72.104,34.787
		c7.449,31.035-22.467,39.735,0,54.655c22.338,14.906-5.095,31.077-5.095,52.174c0,21.16,9.93,38.519,24.952,49.732
		c14.892,11.178,29.78,26.055,31.091,34.784c1.174,8.686,16.062,6.234,16.062,6.234s-1.3-4.993,0-12.467
		c1.311-7.446,13.718-16.167,13.718-37.254c0-21.122,11.104-19.867,19.857-18.655c4.31,0.631,10.841,0.315,16.984,0
		c6.006-0.312,11.623-0.624,14.107,0c4.962,1.244,34.745,1.244,37.23-13.672c2.484-14.906-19.857-37.258-19.857-37.258
		s12.544-20.782,12.411-30.292c0-1.892-1.307-6.402-3.528-12.439c-59.96-53.292-128.536-97.014-203.517-128.651
		C1036.144,82.227,1033.66,101.537,1017.202,101.537"/>
	<path fill="#51AD36" d="M825.829,1483.206l-0.915-1.633c19.857-7.145,38.925-14.906,57.349-23.305
		c1.959,7.253,2.088,11.013-3.01,11.85c-2.221,0.364-4.962,3.329-8.227,7.039c0,0.028-0.13,0.053-0.263,0.053
		c-0.259,0.053-0.519,0.091-0.781,0.116c-0.133,0.056-0.392,0.081-0.526,0.091c-0.13,0.024-0.263,0.024-0.263,0.056
		C854.832,1479.797,840.462,1481.717,825.829,1483.206"/>
	<g>
		<path fill="#51AD36" d="M823.871,1482.022c0.133,0.456,0.133,0.925,0.259,1.384c0.655-0.042,1.177-0.091,1.7-0.158l-0.915-1.633
			C824.522,1481.76,824.13,1481.903,823.871,1482.022z"/>
	</g>
	<path fill="#51AD36" d="M813.289,1474.937c-1.566,0-0.914-4.818,4.44-4.818c0.133,0,0.396,0,0.526-0.028
		c1.044,1.451,1.829,2.926,2.61,4.453v-0.063c0,0-1.696-0.957-3.525-0.957c-1.044,0-2.088,0.238-3.006,0.957
		C813.944,1474.793,813.551,1474.937,813.289,1474.937"/>
	<path fill="#51AD36" d="M818.254,1483.981c1.829-0.641,3.655-1.293,5.617-1.959c0.133,0.456,0.133,0.925,0.259,1.384
		C822.171,1483.603,820.212,1483.795,818.254,1483.981"/>
</g>
<g opacity="0.5">
	<g>
		<path fill="#1EC7BF" d="M228.711,228.735c0,0,12.495-13.132,38.034-35.489c25.602-22.162,64.696-53.474,119.825-84.784
			c54.963-31.201,126.402-62.277,212.904-80.259c86.253-17.416,187.642-22.727,294.367-1.327
			c106.404,20.91,217.555,68.61,314.85,146.45c97.634,76.833,180.618,184.546,229.147,311.487
			c48.935,126.528,63.076,271.625,34.797,411.494c-27.502,139.953-98.666,273.09-201.356,375.269
			c-102.079,102.805-235.387,173.797-375.261,201.26c-139.871,27.967-284.848,14.107-411.408-34.79
			c-63.355-24.307-122.176-57.122-174.497-96.214c-52.188-39.25-98.417-84.097-137.256-132.682
			c-38.709-48.706-70.301-100.849-94.454-154.165c-12.127-26.647-22.296-53.608-30.593-80.61
			c-9.097-26.752-15.549-53.773-20.963-80.359c-10.484-53.273-14.873-105.44-13.742-154.901c1.53-24.691,1.508-48.859,4.442-72.134
			c2.621-23.285,6.161-45.8,10.688-67.389c17.946-86.533,49.114-157.934,80.203-212.976c31.39-55.096,62.647-94.207,84.819-119.812
			c11.16-12.781,20.073-22.265,26.176-28.554C225.552,231.972,228.711,228.735,228.711,228.735z M228.711,228.735
			c0,0-3.119,3.277-9.169,9.622c-6.028,6.357-14.827,15.94-25.827,28.842c-21.574,26.004-53.238,64.92-82.625,120.919
			c-14.546,28.041-28.801,59.85-41.42,95.615c-12.728,35.658-21.859,75.713-28.41,118.556c-3.072,21.416-5.71,43.783-6.209,66.529
			c-0.121,5.812-0.246,11.664-0.37,17.562c0.173,5.659,0.351,11.362,0.53,17.1c0.358,12.08,0.725,24.324,1.095,36.728
			c2.386,46.562,12.034,97.337,27.036,146.577c3.809,12.362,7.898,24.834,12.54,37.046c2.469,6.155,4.947,12.34,7.441,18.559
			c2.695,5.945,5.402,11.92,8.127,17.922c2.927,6.478,5.868,12.979,8.824,19.519l2.219,4.904l0.555,1.228
			c-0.071-0.342,0.95,2.508-0.022-0.459l1.164,2.237l4.654,8.965c6.232,11.948,12.971,23.727,19.963,35.405
			c28.861,46.32,64.106,89.814,104.707,128.645c20.561,19.469,41.388,37.099,65.163,54.195c11.811,7.979,22.918,16.74,35.128,24.104
			c12.34,7.189,24.144,15.015,36.713,21.717c49.824,27.565,103.965,47.09,159.001,60.615
			c55.322,12.831,112.066,19.141,168.505,17.453l21.104-0.533l21.076-1.644c14.027-0.56,27.971-2.968,41.864-4.871
			c13.934-1.365,27.601-5.346,41.319-7.818c7.316-1.064,12.668-2.853,18.565-4.339l17.445-4.301
			c2.255-0.377,7.708-2.202,11.651-3.347l12.828-3.874l12.84-3.882l6.423-1.942l3.215-0.97c-1.739,0.422,6.164-1.636-3.493,0.825
			l1.224-0.447c13.134-4.625,25.937-10.074,38.745-15.308c25.629-10.454,50.342-22.902,73.95-36.952l7.619-4.692l5.537-3.437
			l2.874-1.785l1.439-0.893c2.038-1.231-12.582,7.609-5.737,3.408c7.402-5.172,14.866-10.256,22.453-15.147l22.648-14.872
			l5.665-3.721c5.993-4.016-6.536,4.411-4.905,3.28l1.031-0.761l2.07-1.515l8.209-6.184c10.894-8.337,21.499-17.157,31.834-26.37
			c5.171-4.6,10.257-9.319,15.271-14.139l15.596-15.258l14.02-14.119c4.801-5.001,9.489-10.102,14.101-15.264
			c9.201-10.341,18.046-20.987,26.443-31.969l6.134-8.138l6.499-8.997l11.508-16.737c7.9-11.276,15.393-22.861,22.46-34.729
			c7.07-11.868,13.709-24.015,19.909-36.412c6.146-12.095,12.106-25.762,17.01-36.996c11.399-26.939,20.877-52.088,28.41-79.366
			c30.949-107.721,33.588-224.197,7.429-335.72c-6.191-27.011-14.742-54.711-24.701-81.219
			c-5.064-13.269-10.623-26.46-16.534-39.287c-1.511-3.166-2.315-5.451-4.474-9.488l-5.238-10.368
			c-3.155-6.34-6.402-12.643-9.798-18.867c-13.405-24.809-29.083-49.269-45.4-71.643l-3.396-4.511l-1.838-2.379l-0.922-1.192
			c-0.708-0.801,2.931,2.707,0.94,0.669l-7.601-9.296l-7.575-9.267c-1.34-1.802-4.346-5.101-6.433-7.58
			c-9.272-10.639-18.214-21.739-28.232-31.539c-38.862-40.681-82.394-76.079-128.857-104.832
			c-46.683-28.12-95.723-50.879-145.461-65.632c-49.61-15.232-99.462-24.342-147.503-27.006
			c-11.932-0.804-23.561-0.903-35.227-1.402c-11.577-0.533-23.857,0.335-35.491,0.427c-22.594,0.373-45.111,3.302-66.499,6.254
			c-86.289,12.006-158.352,41.041-214.135,70.131c-55.855,29.636-94.891,61.128-120.85,82.768
			C241.287,215.666,228.711,228.735,228.711,228.735z"/>
	</g>
</g>
</svg>
