<?xml version="1.0" encoding="iso-8859-1"?>
<!-- Generator: Adobe Illustrator 26.0.3, SVG Export Plug-In . SVG Version: 6.00 Build 0)  -->
<svg version="1.1" id="Layer_1" xmlns="http://www.w3.org/2000/svg" xmlns:xlink="http://www.w3.org/1999/xlink" x="0px" y="0px"
	 viewBox="0 0 1500 1500" enable-background="new 0 0 1500 1500" xml:space="preserve">
<g>
	<path fill="#FFAC63" d="M1271.203,1271.188c-34.018,34.018-70.534,63.995-108.924,89.968
		c-37.545,25.348-76.888,46.912-117.519,64.619c-269.718,117.556-595.348,65.978-815.913-154.587
		c-60.358-60.358-108.079-128.576-143.088-201.425c-23.475-48.602-41.256-99.298-53.342-151.059
		c-12.086-51.542-18.551-104.148-19.396-156.792c-0.404-25.972,0.551-51.981,2.939-77.807
		c4.628-51.798,14.657-103.192,30.197-153.264c5.877-18.956,12.527-37.728,20.021-56.243c10.874-27.186,23.438-53.782,37.765-79.644
		c5.695-10.397,11.646-20.683,17.891-30.896c18.661-30.344,39.749-59.586,63.26-87.579c13.739-16.384,28.324-32.291,43.716-47.684
		c23.621-23.621,48.492-45.333,74.354-65.097c45.443-34.715,93.971-63.407,144.558-86.147
		c271.114-121.817,600.821-71.378,823.48,151.281c35.156,35.156,65.978,72.958,92.503,112.779
		c22.225,33.247,41.438,67.963,57.602,103.67c16.567,36.333,29.902,73.767,40.189,111.899c7.456,27.516,13.261,55.362,17.412,83.392
		c2.902,19.287,5.033,38.683,6.356,58.153c2.718,38.647,2.351,77.513-1.066,116.124c-2.534,29.131-6.833,58.19-12.858,86.917
		c-15.465,73.877-42.32,145.844-80.672,213.071c-29.684,52.019-66.162,101.209-109.548,146.211
		C1277.852,1264.465,1274.545,1267.845,1271.203,1271.188z"/>
	<path fill="#ED8872" d="M1271.203,1271.188c-34.018,34.018-70.534,63.995-108.924,89.968
		c-37.545,25.348-76.888,46.912-117.519,64.619c-258.808-141.104-545.864-106.793-635.134-169.244
		c-109.437-76.595-222.365-138.459-323.867-186.767c-23.475-48.602-41.256-99.298-53.342-151.059
		c-12.086-51.542-18.551-104.148-19.396-156.792c-0.404-25.972,0.551-51.981,2.939-77.807
		c108.482,50.072,217.295,107.16,335.733,82.032c231.806-49.006,413.466,14.511,575.033,173.873
		c103.707,102.238,306.234,142.684,463.944,174.828c-29.684,52.019-66.162,101.209-109.548,146.211
		C1277.852,1264.465,1274.545,1267.845,1271.203,1271.188z"/>
	<path fill="#EBC291" d="M1271.203,1271.188c-34.018,34.018-70.534,63.995-108.924,89.968
		c-120.054-51.504-261.856-110.283-404.944-121.708c-169.98-13.628-320.929-39.381-441.24-159.693
		c-30.969-30.969-38.353-45.186-54.406-61.239c-44.929-44.929-131.773-72.554-229.272-99.812
		c-12.086-51.542-18.551-104.148-19.396-156.792c459.792,191.323,538.811,4.298,688.548,154.036
		c26.119,26.119,51.173,74.539,111.09,134.456c136.696,136.696,316.337,151.61,468.462,210.645
		C1277.852,1264.465,1274.545,1267.845,1271.203,1271.188z"/>
	<path fill="#ED7637" d="M608.016,955.621c-69.86-53.226-169.723-43.942-209.192-4.473c-35.691,35.691-26.703,93.288,8.023,128.014
		c50.302,50.302,214.557,84.945,267.831,31.671c37.623-37.623,22.453-73.895-15.866-112.214
		C642.936,982.744,624.383,968.092,608.016,955.621z"/>
	<path fill="#C1272D" d="M571.67,993.9c-36.96-28.159-89.793-23.248-110.674-2.366c-18.883,18.883-14.127,49.355,4.245,67.727
		c26.613,26.612,113.513,44.94,141.698,16.755c19.904-19.904,11.879-39.094-8.394-59.367
		C590.145,1008.249,580.33,1000.497,571.67,993.9z"/>
	<path fill="#ED8872" d="M1421.308,445.282c-371.075-59.255-824.217-221.96-1118.144-281.583
		c45.443-34.715,93.971-63.407,144.558-86.147c230.41,45.333,615.295,133.61,915.983,264.061
		C1385.93,374.858,1405.143,409.574,1421.308,445.282z"/>
	<path fill="#ED7637" d="M1471.342,901.767c-45.846-0.073-93.457-4.628-116.637-10.764
		C993.696,795.011,889.402,630.984,162.243,554.426c-39.161-4.114-77.66-14.548-116.086-23.585
		c5.877-18.956,12.527-37.728,20.021-56.243c10.874-27.186,23.438-53.782,37.765-79.644c5.695-10.397,11.646-20.683,17.891-30.896
		c690.569,137.909,1138.495,217.59,1357.076,276.515c2.902,19.287,5.033,38.683,6.356,58.153
		c2.718,38.647,2.351,77.513-1.066,116.124C1481.665,843.981,1477.367,873.04,1471.342,901.767z"/>
	<path fill="#EBC291" d="M1485.265,698.726C1162.72,669.558,445.517,493.848,103.943,394.954
		c5.695-10.397,11.646-20.683,17.891-30.896c18.661-30.344,39.749-59.586,63.26-87.579
		c385.473,82.106,974.393,172.294,1276.403,280.702c7.456,27.516,13.261,55.362,17.412,83.392
		C1481.812,659.859,1483.942,679.255,1485.265,698.726z"/>
	<g opacity="0.3">
		<path fill="#FFAC63" d="M219.446,238.33c0,0,3.171-3.224,9.317-9.472c6.192-6.2,15.485-15.304,28.068-26.678
			c25.173-22.646,63.688-54.637,118.216-86.958c54.364-32.237,125.285-64.449,211.445-83.894
			c85.803-19.771,187.178-25.784,294.179-6.682c106.695,18.946,218.869,64.196,317.596,140.246
			c49.222,37.984,95.303,82.967,135.239,134.669c40.022,51.595,73.789,109.85,99.413,172.672
			c25.575,62.837,42.658,130.365,50.034,199.8c7.471,69.431,4.748,140.771-7.96,210.863
			c-12.731,70.082-35.804,138.901-68.76,203.021c-32.73,64.25-75.443,123.637-125.664,175.732
			c-50.225,52.098-108.081,96.859-171.04,131.982c-62.964,35.084-130.793,60.895-200.403,76.094
			c-69.587,15.299-140.8,20.303-210.443,15.434c-69.661-4.832-137.724-19.537-201.475-42.721
			c-63.856-23.017-123.046-55.145-176.141-93.09c-26.605-18.928-51.558-39.559-74.763-61.454
			c-23.461-21.631-44.94-44.801-64.8-68.719c-79.571-95.911-128.946-206.333-151.729-312.299
			C6.682,800.611,9.382,699.11,25.795,612.616c16.419-86.795,46.067-158.804,76.256-214.33
			c30.331-55.659,60.928-95.29,82.633-121.277c10.895-13.001,19.705-22.574,25.645-29.015
			C216.342,241.621,219.446,238.33,219.446,238.33z M219.446,238.33c0,0-3.086,3.308-9.064,9.716
			c-5.903,6.472-14.657,16.095-25.475,29.152c-10.819,13.047-23.797,29.481-37.501,49.879
			c-13.748,20.345-28.79,44.293-42.949,72.518c-7.162,14.057-14.185,29.12-20.978,45.137c-6.619,16.096-12.963,33.157-18.829,51.158
			c-5.987,17.959-11.024,37.023-15.417,56.916c-2.237,9.937-4.219,20.111-6.077,30.469c-0.955,5.178-1.714,10.361-2.591,15.593
			c-0.765,5.324-1.536,10.69-2.315,16.101c-6.075,42.958-6.94,89.32-3.153,137.273c0.949,11.994,2.219,24.091,3.831,36.27
			c0.83,6.152,1.613,12.117,2.727,18.249c1.112,6.481,2.226,12.264,3.484,18.519c2.489,12.258,5.347,24.643,8.559,36.907
			c3.254,12.58,6.773,24.781,10.73,37.183c3.974,12.323,8.193,24.746,13.048,36.91c4.957,12.386,10.164,24.507,15.844,36.635
			c11.356,24.318,24.026,47.775,38.712,71.369c29.248,45.79,65.255,89.327,106.46,127.772c10.319,9.615,20.982,18.927,31.948,27.932
			c5.419,4.375,11.264,9.138,16.499,13.014l9.03,6.931l8.447,5.929c23.125,16.705,47.449,31.884,72.806,45.217
			c25.304,13.405,51.51,25.158,78.411,35.057c6.795,2.34,13.489,4.846,20.299,7.078c6.831,2.115,13.677,4.234,20.539,6.359
			c6.874,1.939,13.762,3.884,20.666,5.833c6.904,1.866,13.93,3.389,20.855,5.125c27.898,6.462,56.342,10.513,84.75,13.378
			c28.424,2.842,57.054,3.674,85.56,2.467c28.489-1.152,56.873-3.404,84.906-8.183c6.991-1.338,13.997-2.385,20.942-3.87
			c6.932-1.585,13.88-2.935,20.765-4.618l20.646-4.869l20.446-5.59c27.138-7.869,53.544-17.993,79.166-29.525l16.568-7.693
			l23.476-11.574l1.512-0.75c-0.765,0.332,3.846-1.802-1.332,0.556l2.312-1.26l4.627-2.51l9.217-5.067
			c6.131-3.397,12.171-6.954,18.169-10.57c12.011-7.215,23.579-15.12,35.145-22.982c5.725-4.021,11.443-8.051,17.024-12.274
			l8.352-6.359l7.475-5.927l5.27-4.263l1.318-1.067c1.295-1.028-0.255,0.186,0.247-0.229l2.016-1.687l8.082-6.733
			c5.361-4.523,10.635-9.156,15.829-13.88c10.414-9.426,20.383-19.344,30.2-29.424c9.873-10.103,19.339-20.483,28.329-31.137
			c9.065-10.88,17.88-21.798,26.319-33.001c4.203-5.608,8.297-11.282,12.278-17.024l5.888-8.66l5.542-8.433l1.245-1.849l1.804-2.839
			l0.907-1.429c-0.832,1.497,3.148-5.368-1.639,2.993l1.724-2.912l6.898-11.647l6.894-11.644l1.723-2.909l0.861-1.455
			c-2.714,5.036-0.385,0.753-0.824,1.587l2.553-4.492c6.699-12.043,13.132-24.3,19.21-36.812l4.442-9.451l1.947-4.214l2.558-5.945
			c2.811-6.277,5.373-12.699,8.07-19.126c2.656-6.314,5.354-13.214,7.672-19.308l3.703-10.238l3.43-9.991
			c4.459-13.367,8.439-26.924,11.91-40.636c3.592-13.696,6.219-27.597,9.234-41.508c1.47-7.724,2.51-11.626,3.932-21.742
			c1.139-6.366,2.218-13.702,3.129-20.574c1.847-13.951,3.156-28.199,3.982-42.299c0.381-7.107,0.657-14.224,0.86-21.349
			c0.303-7.133,0.478-14.274,0.507-21.417c0.091-14.29-0.336-28.594-1.287-42.864c-0.454-7.139-1.064-14.265-1.785-21.38
			c-0.865-7.732-1.091-12.198-2.694-21.908c0.003-0.195-0.35-1.828-0.057-0.844l-0.194-1.324l-0.378-2.652l-0.704-5.325
			l-1.573-10.622c-1.075-7.084-2.366-14.122-3.684-21.166c-2.748-14.052-5.941-28.029-9.652-41.859
			c-1.886-6.904-3.81-13.809-5.939-20.638c-2.092-6.675-4.179-13.335-6.261-19.979c-2.484-7.023-4.964-14.031-7.437-21.023
			c-2.511-6.718-5.068-13.432-7.801-20.067c-10.83-26.596-23.558-52.403-37.94-77.222c-14.31-24.694-30.673-48.857-47.737-71.001
			c-18.151-22.868-36.448-44.194-56.65-64.165c-40.154-39.735-84.65-74.283-132.044-101.759
			c-23.688-13.736-48.069-25.634-72.713-36.029c-12.264-5.407-24.742-9.933-37.134-14.546c-12.538-4.009-24.976-8.212-37.528-11.52
			C824.57,44.448,774.44,36.608,726.324,34.87c-24.083-1.25-47.633-0.633-70.609,0.35c-22.906,1.577-45.143,4.28-66.529,8.008
			c-5.344,0.941-10.682,1.759-15.931,2.779c-5.237,1.096-10.431,2.18-15.582,3.256c-10.362,1.98-20.331,4.775-30.256,7.149
			c-9.899,2.459-19.452,5.464-28.929,8.161c-9.321,3.049-18.348,6.308-27.292,9.363c-8.897,3.46-17.613,6.848-26.142,10.164
			c-8.231,3.413-16.554,6.941-24.383,10.648c-15.762,7.38-30.54,14.991-44.345,22.639c-55.143,30.866-94.133,62.407-119.33,84.977
			c-12.643,11.3-21.986,20.352-28.211,26.517C222.547,235.035,219.446,238.33,219.446,238.33z"/>
	</g>
</g>
<g>
</g>
<g>
</g>
<g>
</g>
<g>
</g>
<g>
</g>
<g>
</g>
<g>
</g>
<g>
</g>
<g>
</g>
<g>
</g>
<g>
</g>
<g>
</g>
<g>
</g>
<g>
</g>
<g>
</g>
</svg>
