<?xml version="1.0" encoding="utf-8"?>
<!-- Generator: Adobe Illustrator 26.0.3, SVG Export Plug-In . SVG Version: 6.00 Build 0)  -->
<svg version="1.1" id="Layer_1" xmlns="http://www.w3.org/2000/svg" xmlns:xlink="http://www.w3.org/1999/xlink" x="0px" y="0px"
	 viewBox="0 0 753.2 1076.2" style="enable-background:new 0 0 753.2 1076.2;" xml:space="preserve">
<style type="text/css">
	.st0{fill:#FFFFFF;}
	.st1{opacity:0.35;}
	.st2{fill:#371A45;}
	.st3{fill:#32B1D1;}
	.st4{fill:#73BEFD;}
	.st5{fill:#1F9FFF;}
	.st6{opacity:0.7;}
	.st7{fill:#293856;}
	.st8{fill:#371A46;}
	.st9{fill:#111A28;}
</style>
<g>
	<g>
		<g>
			<g>
				<g>
					<path class="st0" d="M443.5,763.9c85.4,6.5,235.1,6.7,248.1-77.4c1.7-11,2.6-23.1,2.9-35.7c2-84.1-25.2-196-58.6-223.4
						c-19.1-15.6-54.6-20.3-93.5-16.6c-77.4,7.4-168.5,48-172,101.7C366.9,564.1,358.1,757.4,443.5,763.9z"/>
				</g>
			</g>
			<g class="st1">
				<g>
					<path class="st2" d="M443.5,763.9c85.4,6.5,235.1,6.7,248.1-77.4c1.7-11,2.6-23.1,2.9-35.7c-24.4,17.5-56.6-0.4-59.6-23.3
						c-18.3-141.2-68.1-197.2-92.6-216.7c-77.4,7.4-168.5,48-172,101.7C366.9,564.1,358.1,757.4,443.5,763.9z"/>
				</g>
			</g>
			<g>
				<g>
					<path class="st2" d="M507.1,775.1c-21.6,0-43.4-1-64.3-2.6c-85.1-6.5-87.4-166.2-81.2-260.8c2.1-32.6,31.5-62.7,82.7-84.9
						c64.4-27.9,158.1-38.3,197.1-6.3l0,0c44,36.1,71.3,185.9,58.8,267.2C689.5,756.8,599.5,775.1,507.1,775.1z M566.4,418.1
						c-35.2,0-77.5,8.5-115.2,24.8C407,462,380.6,487.6,379,512.9c-3.6,55.4-9.7,236.6,65.2,242.3c84.2,6.4,227.1,5.8,238.8-70.1
						c12.5-81.1-17.1-221.9-52.6-251.1l0,0C617.2,423.3,594,418.1,566.4,418.1z"/>
				</g>
			</g>
			<g>
				<g>
					<path class="st0" d="M621.2,568.8l38.6-13.5c8.7-3,18.2,2.2,20.1,11.3c6.6,31.1,16.1,95.4-15.4,107
						c-38.2,14.2-49.6-29.7-53.6-89.4C610.4,577.4,614.7,571.1,621.2,568.8z"/>
				</g>
			</g>
			<g class="st1">
				<g>
					<path class="st2" d="M611,584.2c3.8,59.7,15.1,103.6,53.3,89.5c15.7-5.8,21.3-24.6,22.1-45.9c-3.4,6-8.1,10.5-14.5,12.8
						c-34.2,12.6-46.9-21.2-51.9-71.4C614.2,571.8,610.5,577.8,611,584.2z"/>
				</g>
			</g>
			<g>
				<g>
					<path class="st2" d="M650.9,685.1c-6.6,0-12.7-1.8-18.2-5.3c-17.8-11.6-27-40-30.5-95c-0.7-10.7,6-20.7,16.2-24.2l38.6-13.4
						c6.5-2.3,13.7-1.6,19.8,1.8c6,3.4,10.3,9.2,11.7,16c9.7,46.2,14,104-21.2,117C661.5,684,656.1,685.1,650.9,685.1z M665,563.2
						c-0.7,0-1.4,0.1-2.2,0.4L624.1,577c-2.8,1-4.7,3.7-4.5,6.7c1.1,17.2,4.5,69.7,22.6,81.5c4.9,3.2,11.1,3.3,19,0.4
						c20.9-7.7,19-55.2,10.2-97c-0.5-2.5-2.2-3.8-3.2-4.4C667.6,563.7,666.4,563.2,665,563.2z M621.3,568.7L621.3,568.7L621.3,568.7
						z"/>
				</g>
			</g>
			<g>
				<g>
					<path class="st2" d="M646.9,444c-4.3,2.3-8.9,4-13.5,5.4c-4.6,1.4-9.4,2.4-14.2,3.5c-4.8,1-9.6,1.9-14.5,2.7
						c-4.9,0.8-9.8,1.5-14.9,1.9c-0.7,0.1-1.3-0.4-1.3-1.1c0-0.4,0.1-0.8,0.4-1c4-3.3,8.1-6.1,12.4-8.8c4.3-2.6,8.6-5.2,13-7.5
						c4.4-2.3,8.8-4.6,13.4-6.4c4.6-1.8,9.2-3.3,14.2-4.1c4.5-0.7,8.7,2.4,9.5,6.9C651.8,439,650,442.4,646.9,444L646.9,444z"/>
				</g>
			</g>
			<g>
				<g>
					<path class="st0" d="M491,727.8l-31.5-9.6c-35.5-10.8-74.1-9-107.8,6.4c-11.7,5.3-23,12.4-32.3,21.6
						c-34.1,33.8-35.1,101.7-11.9,129.2c9.1,10.9,18.9,22.9,18.9,22.9c-6.5,9.3-51.2,84.7-15.2,114.7
						c31.5,26.2,89.6,21.9,120.2-19.3c20.2-27.3,24.3-58.8,23.2-82.8c-1.3-28.1-15.6-66.1,7.6-76c34.7-14.8,66.2-6.6,116.4-44.9
						c58.7-44.9,67.9-141.6,41.8-223.3c-18.8-58.8-133-170.1-133-170.1l36,330.6L491,727.8z"/>
				</g>
			</g>
			<g>
				<g>
					<path class="st0" d="M313.8,582.9L198.8,687.6l-1.2-1.9l-49.2-79.3c58.1-24.8,94.3-98.4,94.3-98.4l4.6,4.9L313.8,582.9z"/>
				</g>
			</g>
			<g class="st1">
				<g>
					<path class="st2" d="M313.8,582.9L198.8,687.6l-1.2-1.9c33.2-50.9,45.9-140,49.7-172.8L313.8,582.9z"/>
				</g>
			</g>
			<g>
				<g>
					<path class="st2" d="M196.9,701l-61.3-98.7l9.3-4c54.5-23.2,89.5-93.5,89.9-94.2l5.5-11.2l85.8,90.5L196.9,701z M160.9,610
						l39.8,64.1l100.6-91.6l-56.7-59.8C232.7,543.3,203.3,587.8,160.9,610z"/>
				</g>
			</g>
			<g>
				<g>
					<path class="st0" d="M183.7,595.3c0,0-68.9-62-112.7-78.6l-12.3,28.8l92,90.6L183.7,595.3z"/>
				</g>
			</g>
			<g>
				<g>
					<path class="st2" d="M150.7,644.8c-2.3,0-4.5-0.9-6.1-2.5l-92-90.6c-2.5-2.5-3.3-6.3-1.9-9.6L63,513.3
						c1.8-4.3,6.7-6.4,11.1-4.7c44.9,17,112.6,77.7,115.5,80.2c3.4,3.1,3.9,8.3,0.9,11.9l-33,40.8c-1.5,1.9-3.8,3.1-6.3,3.2
						C151,644.8,150.9,644.8,150.7,644.8z M69.1,543.5l80.9,79.7l21.7-26.8c-16.4-14.2-62.1-52.4-96.1-68.2L69.1,543.5z"/>
				</g>
			</g>
			<g>
				<g>
					<path class="st0" d="M251.2,426.6c34.6,137.9-6.3,264.1-6.3,264.1C110.9,738.9,184,871,184,871s-92.4,53.4-48.8,106.8
						c37.9,46.5,165.3-6.9,171.4-74.8c0,0-21.9-68.9,12.1-92.5"/>
				</g>
			</g>
			<g>
				<g>
					<path class="st0" d="M634.4,657.6c-0.7,53.7-18.1,103.6-55.6,132.4c-50.2,38.4-81.7,30.2-116.4,44.9c-11.9,5.1-14,17.5-13,32.1
						c-1.4,16.4,4.5,38.4,5.4,56.4c0,0.3,0,0.7,0,1c-0.9,21.6-6.6,46.8-23.2,69.2c-29.5,39.8-84.7,45.2-116.8,21.9
						c-1.2-0.8-2.3-1.7-3.4-2.6c-8.4-6.9-12.4-16.4-13.5-26.8c2.5-26.9,17.4-56.4,25-69.6c1.6-2.8,2.9-4.9,3.7-6
						c0,0-1.7-2.1-4.3-5.4c-2-2.5-4.5-5.6-7.3-9c-2.4-2.9-4.9-6-7.4-9.1c-2.5-3-4.7-6.5-6.6-10.4c2,15,5.6,26.3,5.6,26.3
						c-6.2,67.8-133.5,121.3-171.4,74.8c-6.9-8.4-10.4-16.9-11.4-25.1C118.5,908.8,184,871,184,871s-36.4-65.8-10.7-121.4
						c10.7-23.2,32.2-44.6,71.6-58.7c0,0,9.7-29.8,15.6-76.4c1.5-11.9,2.8-24.9,3.6-38.8c1.5-26,1.4-55.2-1.9-85.9l225.3-93.3
						c0,0,0.1,0.1,0.3,0.3c0.1,0.1,0.2,0.2,0.4,0.4l0.5,0.5c0.2,0.2,0.4,0.4,0.7,0.7c1.2,1.2,2.8,2.8,4.9,5
						c9.6,9.9,28.4,29.6,48.7,53c32,36.9,67.7,82.9,77.5,114.4c2.8,9,5.2,18.2,7.2,27.4C632,617.8,634.2,637.9,634.4,657.6z"/>
				</g>
			</g>
			<g>
				<g>
					<path class="st2" d="M302.5,822.6c-2.8,0-5.3-1.8-6.2-4.6c-23.5-74.4-121.5-61.5-122.5-61.4c-3.6,0.5-6.9-2-7.4-5.6
						s2-6.9,5.6-7.4c1.1-0.1,109.9-14.5,136.7,70.4c1.1,3.4-0.8,7.1-4.3,8.2C303.8,822.5,303.2,822.6,302.5,822.6z"/>
				</g>
			</g>
			<g>
				<g>
					<path class="st0" d="M262.3,489.7l-11.1-63.1C256.6,448.1,260.1,469.3,262.3,489.7z"/>
				</g>
			</g>
			<g>
				<g>
					<path class="st2" d="M179.7,1004c-22.1,0-40.2-7.1-51.3-20.7c-11.4-14-15.7-29.3-12.7-45.4c6.1-33.1,41.7-59.9,57-70.1
						c-8.6-18.5-27.7-68.5-10.2-115.1c11.6-30.8,36.9-53.9,75.3-68.6c6.4-22.3,35.2-135,5-255.4c-1.2-4.7,1.7-9.4,6.3-10.6
						c4.7-1.2,9.4,1.7,10.6,6.3c34.8,138.8-4.8,263.7-6.5,269l-1.3,4.1l-4,1.4c-35.6,12.8-58.8,32.9-69,59.8
						c-18.8,49.7,12.5,107.4,12.8,108l4.1,7.5l-7.4,4.3c-0.5,0.3-49.4,29-55.5,62.6c-2,11,1,21.2,9.1,31.2
						c12.4,15.2,39.9,18.5,71.7,8.8c38.8-11.9,79.8-42.1,84.1-77.2c-3.5-11.8-19.9-75.5,15.9-100.4c3.9-2.7,9.4-1.8,12.1,2.2
						c2.7,3.9,1.8,9.4-2.2,12.1c-23.5,16.3-14.3,65.2-8.7,82.7l0.5,1.7l-0.2,1.7c-4.1,45.5-52.9,80.6-96.5,93.9
						C204.9,1002,191.7,1004,179.7,1004z M244.8,690.8L244.8,690.8L244.8,690.8z"/>
				</g>
			</g>
			<g>
				<g>
					<path class="st0" d="M497.6,699.6l-26,22.1l-277-126.4c0,0,18.8-11.1,69.9-26.1c34.1-10.1,82.6-21.9,149.4-33.4l14.6,28.5
						L497.6,699.6z"/>
				</g>
			</g>
			<g>
				<g>
					<path class="st2" d="M473,731.9L175.7,596.3l14.4-8.5c2.2-1.3,55.6-31.8,222.3-60.6l6.3-1.1l89.8,175.6L473,731.9z
						 M215.5,595.2l254.7,116.2l16.6-14.1l-77.7-151.9C299.7,564.7,241.2,584.7,215.5,595.2z"/>
				</g>
			</g>
			<g>
				<g>
					<path class="st0" d="M431.5,920.1"/>
				</g>
			</g>
			<g>
				<g>
					<path class="st3" d="M445.9,491.4"/>
				</g>
			</g>
			<g>
				<g>
					<polygon class="st4" points="285.8,768.8 477.1,720.3 397.9,564.6 206.5,606.3 					"/>
				</g>
			</g>
			<g>
				<g>
					<polygon class="st4" points="285.8,768.8 477.1,720.3 397.9,564.6 206.5,606.3 					"/>
				</g>
			</g>
			<g class="st1">
				<g>
					<path class="st2" d="M468.4,742l-146.8,37.2c-1.7,33.9-4.8,91.7-6.6,116.9c-2.4-2.9-4.9-6-7.4-9.1c-2.5-3-4.7-6.5-6.6-10.4
						c2,15,5.6,26.3,5.6,26.3c-6.2,67.8-133.5,121.3-171.4,74.8c-6.9-8.4-10.4-16.9-11.4-25.1c30.5,43.8,117.5,2.5,132.8-11.4
						c16.6-15.1,18.8-23.2,8.4-80.2c-5.6-30.8,2.1-54.1,13.6-71l-1.5,0.4h-28.9l-62.3-22.3l-12.6-18.7
						c10.7-23.2,32.2-44.6,71.6-58.7c0,0,9.7-29.8,15.6-76.4l128.7-28.1L468.4,742z"/>
				</g>
			</g>
			<g>
				<g>
					<polygon class="st5" points="477.1,720.3 285.8,768.8 280.5,758 206.5,606.4 397.9,564.6 416.1,600.3 					"/>
				</g>
			</g>
			<g class="st6">
				<g>
					<path class="st0" d="M234.3,632.9l56.3,134.7l-4.8,1.2l-5.3-10.8l-74-151.6l191.3-41.8l3.2,6.4L244,613.1
						C235.5,615.4,230.9,624.7,234.3,632.9z"/>
				</g>
			</g>
			<g class="st1">
				<g>
					<path class="st2" d="M477.1,720.3l-191.3,48.5l-5.3-10.8c3.3-43.7,93.7-66.2,93.7-66.2c-15.6-55.2,26.6-83.3,41.8-91.5
						L477.1,720.3z"/>
				</g>
			</g>
			<g>
				<g>
					<path class="st2" d="M285.8,776.9c-3.1,0-5.9-1.7-7.3-4.6l-79.2-162.4c-1.1-2.3-1.1-4.9,0-7.1c1.1-2.3,3.2-3.9,5.6-4.4
						l191.3-41.8c3.6-0.8,7.3,1,9,4.3l79.2,155.7c1.1,2.2,1.2,4.8,0.2,7.1c-1,2.3-3,3.9-5.4,4.5l-191.3,48.5
						C287.1,776.9,286.4,776.9,285.8,776.9z M218.4,612.1l71.8,147.1l175-44.4l-71.8-141L218.4,612.1z"/>
				</g>
			</g>
			<g>
				<g>
					<polygon class="st5" points="206.5,606.3 170.1,606.6 256.8,768.8 285.8,768.8 					"/>
				</g>
			</g>
			<g class="st6">
				<g>
					<polygon class="st0" points="214.2,622 178.4,622.3 170,606.6 206.5,606.4 					"/>
				</g>
			</g>
			<g>
				<g>
					<path class="st2" d="M285.8,776.9h-28.9c-3,0-5.8-1.7-7.2-4.3l-86.8-162.2c-1.3-2.5-1.3-5.6,0.2-8c1.5-2.5,4.1-4,7-4l36.5-0.3
						c3.1,0,6,1.8,7.4,4.6l79.2,162.4c1.2,2.5,1.1,5.5-0.4,7.9C291.2,775.5,288.6,776.9,285.8,776.9z M261.7,760.6h11l-71.3-146.1
						l-17.8,0.1L261.7,760.6z"/>
				</g>
			</g>
			<g>
				<g>
					<polygon class="st5" points="256.8,768.8 194.6,746.4 169.4,709.1 153.9,686.3 114.2,627.6 58.7,545.5 170,606.6 256.3,767.7 
											"/>
				</g>
			</g>
			<g class="st6">
				<g>
					<polygon class="st0" points="256.8,768.8 245.4,764.7 160.7,617.5 72.8,566.4 58.7,545.5 170,606.6 256.3,767.7 					"/>
				</g>
			</g>
			<g>
				<g>
					<path class="st2" d="M256.8,776.9c-0.9,0-1.9-0.2-2.8-0.5l-62.3-22.3c-1.6-0.6-3-1.7-4-3.1L52,550.1c-2.1-3.1-1.8-7.3,0.7-10.1
						c2.5-2.8,6.7-3.5,10-1.7L174,599.5c1.4,0.8,2.5,1.9,3.3,3.3L264,764.9c1.6,3,1.2,6.6-1,9.2
						C261.4,775.9,259.2,776.9,256.8,776.9z M199.8,739.7l39.8,14.3L164,612.6l-79.6-43.7L199.8,739.7z"/>
				</g>
			</g>
			<g>
				<g>
					<path class="st2" d="M170.1,606.6c0,0,0.6-20.2,17.1-22.6c13.6-1.9,23.2,21.5,23.2,21.5L170.1,606.6z"/>
				</g>
			</g>
			<g>
				<g>
					<path class="st0" d="M634.4,656c0,0.5,0,1,0,1.6c-0.7,53.7-18.1,103.6-55.6,132.4c-50.2,38.4-81.7,30.2-116.4,44.9
						c-11.9,5.1-14,17.5-13,32.1c0.9,14,4.7,30.1,5.4,43.9c0.2,4.3,0.2,8.9,0,13.6c-0.9,21.6-6.6,46.8-23.2,69.2
						c-30.6,41.3-88.7,45.6-120.2,19.3c-8.4-6.9-12.4-16.4-13.5-26.8c0-0.3-0.1-0.7-0.1-1.1c-2.6-28.5,15.4-64.3,24.5-79.9
						c1.9-3.3,3.4-5.7,4.3-6.9c0,0-9.8-12-19-22.9c-23.2-27.5-22.2-95.4,11.9-129.3c9.3-9.2,20.6-16.3,32.3-21.6
						c18-8.2,37.4-12.6,56.9-13.2c17.1-0.6,34.3,1.7,50.8,6.8l31.5,9.6l32.6-0.7l-16.1-147.8c7.8-7.7,13.9-19.9,12.9-38.9l-4.1-20
						l-19.7-95.3l-1.4-6.9c0,0,26,19.9,55.2,50c28.6,29.5,60.2,68.8,73.4,108.9c0,0.1,0,0.1,0.1,0.2c2.1,7.4,3.9,15,5.3,22.6
						C632.8,618.6,634.6,637.5,634.4,656z"/>
				</g>
			</g>
			<g class="st1">
				<g>
					<path class="st2" d="M634.4,656c0,0.5,0,1,0,1.6c-0.7,53.7-18.1,103.6-55.6,132.4c-50.2,38.4-81.7,30.2-116.4,44.9
						c-11.9,5.1-14,17.5-13,32.1c0.9,14,4.7,30.1,5.4,43.9c0.2,4.3,0.2,8.9,0,13.6c-0.9,21.6-6.6,46.8-23.2,69.2
						c-30.6,41.3-88.7,45.6-120.2,19.3c-8.4-6.9-12.4-16.4-13.5-26.8c0-0.3-0.1-0.7-0.1-1.1c33.2,27.7,89.9,37.4,121.3-21.2
						c35.9-67-4.8-94.4-5.7-126.4c-0.8-32.1,58.5-24,143.9-63.2C607.8,751.2,627.1,696.6,634.4,656z"/>
				</g>
			</g>
			<g>
				<g>
					<path class="st2" d="M490.2,730.5c-7.4-0.9-14.6-2.2-21.8-3.7c-3.6-0.7-7.2-1.4-10.8-2.2c-3.5-0.7-6.9-1.4-10.3-1.9
						c-13.8-2.2-27.7-3.1-41.4-2.1c-13.7,1.1-27.3,3.8-40.2,8.5c-12.9,4.6-25.3,10.9-35.4,19.5c-2.6,2.1-4.9,4.4-7,6.9
						c-1.1,1.2-2.2,2.3-3.2,3.7l-2.9,4l-1.4,2l-1.2,2.2l-2.5,4.3c-1.5,3-2.9,6.1-4.1,9.2c-4.7,12.6-7.1,26.3-7.3,39.9
						c-0.2,13.6,2.3,27.3,7.4,39.1c1.5,2.7,2.8,5.7,4.8,7.9l1.3,1.8c0.4,0.6,1.1,1.4,1.7,2.1l3.5,4.3l14.1,17l4.1,5l-3.7,5.5
						c-1.2,1.8-2.6,4-3.8,6.1c-1.3,2.2-2.5,4.4-3.7,6.6c-2.4,4.5-4.7,9-6.8,13.7c-4.2,9.2-7.8,18.7-10.2,28.3
						c-2.4,9.5-3.8,19.3-2.6,28.1c0.6,4.4,1.8,8.5,3.7,12c2,3.6,4.4,6.5,8,9.1c14.4,11.3,34.5,15.3,53.3,12.5
						c19-2.6,36.7-12.4,49.1-26.7c1.5-1.9,3.1-3.6,4.5-5.6c1.4-2,2.8-4,4.1-6.1c2.6-4.1,4.8-8.5,6.8-12.9c3.9-8.9,6.7-18.4,8.3-28.2
						c1.6-9.7,2.1-19.8,1.6-29.7c-0.5-9.7-2.5-20-4-30.7c-0.7-5.4-1.4-10.9-1.5-16.7c-0.1-5.8,0.1-12,2.3-18.6
						c1.1-3.3,2.8-6.7,5.3-9.7c2.4-3,5.6-5.4,8.9-7.1c0.8-0.4,1.7-0.9,2.4-1.1l2-0.8l4-1.5c2.7-0.9,5.4-1.8,8-2.6
						c10.8-3.1,21.4-5,31.5-7.2c10.1-2.2,19.7-4.8,29-8.5c9.3-3.6,18.1-8.4,26.5-13.9c4.3-2.6,8.3-5.7,12.4-8.7
						c2-1.5,3.8-3.1,5.7-4.6c1.8-1.7,3.6-3.3,5.4-5c13.9-13.8,24.2-31.3,30.8-50.2c6.7-18.9,10-39.2,10.9-59.5
						c0.8-20.4-0.8-40.9-4.6-61c-1.9-10.1-4.3-20-7.3-29.8l-1.1-3.7c-0.4-1.2-0.8-2.3-1.2-3.4c-0.7-2.2-1.8-4.5-2.7-6.7
						c-1-2.2-2.2-4.5-3.2-6.7l-3.6-6.6c-10.1-17.6-22.6-34.4-35.6-50.6c-26.3-32.5-57-61.1-80.4-97c-0.9-1.4-0.5-3.2,0.9-4.1
						c1-0.6,2.2-0.6,3.2,0c9.3,5.7,17.6,12.4,25.7,19.4c8.1,7,15.6,14.5,22.9,22.2c14.7,15.4,28,32.1,41.3,48.7
						c13.3,16.8,26.2,33.9,37.1,52.9l4,7.3c1.2,2.5,2.5,5,3.6,7.6c1.1,2.6,2.3,5.2,3.2,7.9c0.5,1.4,1,2.8,1.4,4.1l1.2,3.9
						c3.1,10.4,5.7,21,7.7,31.7c4,21.4,5.8,43.2,4.9,65c-0.9,21.8-4.5,43.7-11.9,64.6c-7.3,20.9-18.8,40.8-34.9,56.8
						c-2,2-4.2,3.9-6.2,5.8c-2.2,1.8-4.4,3.7-6.6,5.3c-4.5,3.2-8.8,6.5-13.5,9.4c-9.3,6-19.1,11.3-29.5,15.4
						c-10.4,4.2-21.2,7.1-31.7,9.4c-10.5,2.3-20.8,4.1-30.3,6.9c-2.4,0.7-4.7,1.5-7,2.3l-3.4,1.3l-1.7,0.7c-0.6,0.2-0.8,0.4-1.2,0.6
						c-2.8,1.5-4.4,3.4-5.6,6.9c-1.2,3.4-1.5,8-1.4,12.6c0.1,4.7,0.7,9.7,1.4,14.8c1.4,10.2,3.4,20.7,4.1,32.1
						c0.6,11.2,0,22.4-1.8,33.4c-3.6,22.2-12.6,43.8-27.7,61.3c-15.2,17.6-36.8,29.5-59.7,32.6c-11.5,1.6-23.2,1.3-34.6-1.2
						c-11.4-2.6-22.5-7.4-32-14.8l-1.8-1.3l-1.8-1.7c-1.2-1.1-2.4-2.2-3.4-3.5c-1.1-1.3-2.2-2.5-3-3.9c-0.9-1.4-1.9-2.7-2.6-4.2
						c-3.1-5.8-4.8-12-5.6-18c-1.6-12.2,0.3-23.7,3-34.6c2.8-10.9,6.7-21.2,11.2-31.2c2.3-5,4.7-9.9,7.3-14.7c1.3-2.4,2.6-4.8,4-7.2
						c1.4-2.4,2.8-4.7,4.6-7.3l0.4,10.5L305.8,887l-3.5-4.2c-0.6-0.7-1.1-1.3-1.8-2.2l-1.9-2.6c-2.7-3.4-4.5-7.2-6.5-10.9
						c-1.5-3.8-3.3-7.6-4.2-11.4c-0.5-1.9-1.2-3.9-1.6-5.8l-1.2-5.8c-0.4-1.9-0.7-3.9-0.9-5.9l-0.7-5.9c-0.2-3.9-0.5-7.8-0.4-11.7
						c0.2-15.6,2.9-31.2,8.4-46c1.5-3.7,3.1-7.3,4.8-10.9l2.9-5.3l1.5-2.6l1.7-2.5l3.5-5c1.2-1.7,2.6-3.1,4-4.7
						c1.4-1.5,2.7-3.1,4.1-4.5c1.4-1.4,2.9-2.8,4.4-4.1c12.1-10.5,26.1-18.1,40.7-23.5c7.3-2.7,14.8-4.8,22.5-6.3
						c7.6-1.4,15.4-2.4,23.1-2.7c15.5-0.5,31.1,1.1,45.8,5.6c3.7,1,7.3,2.4,10.9,3.7c3.4,1.3,6.8,2.7,10.2,4.1
						c6.8,2.8,13.5,5.8,20.2,9.1c1.5,0.7,2,2.5,1.3,3.9C492.6,730.1,491.4,730.7,490.2,730.5z"/>
				</g>
			</g>
			<g class="st1">
				<g>
					<path class="st2" d="M629.9,619.9c-0.5,7.6-1.9,15-4.4,22.3c-20.3,58.6-91.3,93.3-146.2,93.3c-33.1,0-54.3-5.6-70.6-24.1
						c-2.9-3.3-5.6-7-8.2-11.1c-19.1-30.4-9.5-70.8,31-89.8c3.3-1.5,10.4-2.4,10.4-2.4l-11.3-22l-3.8-7.4c0,0,5.4,1.2,12.9,2.9
						c17.1,3.7,45.4,9.5,49.5,8.3c5.4-1.5,12.3-4.7,18.2-10.6c7.8-7.7,13.9-19.9,12.9-38.9l10.9-20.7l-27.9-93l-8.3-8.4
						c0,0,26,19.9,55.2,50c28.6,29.5,60.2,68.8,73.4,108.9c0,0.1,0,0.1,0.1,0.2c2.5,7.5,4.3,15.1,5.3,22.6
						C630.1,606.7,630.4,613.3,629.9,619.9z"/>
				</g>
			</g>
			<g>
				<g>
					<path class="st0" d="M627.8,598.1c-0.5,7.6-1.9,15-4.4,22.3c-20.3,58.6-91.3,93.3-146.2,93.3c-38.9,0-61.5-7.7-78.8-35.3
						c-19.1-30.4-9.5-70.8,31-89.8c3.3-1.5,10.4-2.4,10.4-2.4l-11.3-22l-3.8-7.4c0,0,5.4,1.2,12.9,2.9c17.1,3.7,45.4,9.5,49.5,8.3
						c12.4-3.6,32.9-15.9,31.1-49.5l-4.1-20l-19.7-95.3l-1.4-6.9c0,0,26,19.9,55.2,50C586.9,486.5,631.2,544.6,627.8,598.1z"/>
				</g>
			</g>
			<g class="st1">
				<g>
					<path class="st2" d="M627.8,598.1c-0.5,7.6-1.9,15-4.4,22.3c-20.3,58.6-91.3,93.3-146.2,93.3c-38.9,0-61.5-7.7-78.8-35.3
						c-4.9-7.9-7.9-16.4-9-25c16.5,20.3,38,26.3,72.3,26.3c54.9,0,126-34.7,146.2-93.3c2.5-7.3,3.9-14.8,4.4-22.3
						c0.9-14.1-1.5-28.6-6.3-42.9C620.3,546.2,629.4,572.7,627.8,598.1z"/>
				</g>
			</g>
			<g>
				<g>
					<path class="st2" d="M494.7,394.1c6.8,2.8,12.9,6.4,18.8,10.3c6,3.9,11.6,8.2,17,12.7c10.8,9.1,21,18.9,30.5,29.3
						c9.5,10.5,18.6,21.4,27.2,32.7c8.6,11.3,16.8,23,24,35.4c7.2,12.4,13.5,25.6,18,39.6c4.5,14,7,29,6.1,44.2
						c0,3.8-0.7,7.6-1.4,11.4c-0.4,3.8-1.8,7.5-2.7,11.2c-0.3,0.9-0.5,1.9-0.8,2.7l-1.1,2.6l-2.1,5.2c-1.3,3.6-3.2,6.8-5,10.1
						c-7.3,13.1-16.9,24.7-27.7,34.6c-10.9,10-23.1,18.2-36,24.9c-12.9,6.7-26.5,12-40.6,15.7c-14.1,3.7-28.7,5.8-43.5,5.7
						c-7.2,0-14.4-0.4-21.8-1.2c-7.3-0.8-14.8-2.2-22.2-4.8c-7.3-2.5-14.5-6.2-20.8-11.1c-6.3-4.8-11.6-10.7-16.1-16.9
						c-4.3-6-8.3-13.2-10.8-20.7c-2.6-7.5-3.7-15.6-3.5-23.5c0.3-8,1.8-16,5-23.3c3.1-7.3,7.4-14.1,12.6-20c1.3-1.5,2.7-2.8,4.1-4.2
						c0.7-0.7,1.4-1.4,2.1-2l2.3-1.8c1.5-1.2,3-2.5,4.6-3.6l4.8-3.2c1.6-1.1,3.3-2,5-2.9l2.5-1.3l1.3-0.7l0.6-0.3l0.3-0.2l0.5-0.2
						c2.8-1.2,4.7-1.5,6.7-2c2-0.4,3.8-0.7,5.9-1l-6.7,12.6l-15-29.4l-8.5-16.5l18.1,4.1c10.2,2.3,20.6,4.5,30.8,6.6
						c5.1,1,10.3,2,15.4,2.9c2.6,0.4,5.1,0.8,7.5,1.1c1.1,0.1,2.4,0.2,3.5,0.3l1.4,0l0.2,0c0,0-0.1,0-0.1,0c-0.1,0-0.2,0-0.2,0
						c-0.2,0-0.4,0.1-0.4,0.2c3.9-1.3,7.7-3.4,10.9-6c3.3-2.5,6.1-5.5,8.5-8.9c2.4-3.4,4.3-7.3,6.1-11.6c1.9-4.3,3.1-9.1,5.1-14.3
						l0.1-0.3c0.6-1.6,2.4-2.4,3.9-1.8c0.8,0.3,1.5,1,1.8,1.7c1.1,2.7,2.1,5.5,2.5,8.4c0.2,1.5,0.5,2.9,0.6,4.4c0.1,1.5,0.1,3,0,4.5
						c-0.3,6-1.8,12.3-4.8,18c-2.9,5.7-7.4,10.8-12.5,14.7c-5.2,3.9-11.1,6.6-17.3,8.3c-0.7,0.2-1.6,0.3-2.4,0.4l-1.2,0.1l-0.6,0
						l-0.3,0l-2.6-0.2c-1.6-0.2-2.9-0.4-4.4-0.6c-2.8-0.4-5.5-0.9-8.2-1.3c-5.3-0.9-10.6-1.9-15.9-3c-10.5-2.1-20.9-4.3-31.3-6.7
						l9.7-12.4l15,29.4l5.6,11l-12.4,1.6c-1.4,0.2-3,0.4-4.4,0.7c-1.4,0.3-2.9,0.7-3.3,0.9l-4,2.1c-1.4,0.7-2.8,1.4-4.1,2.3
						l-3.9,2.5c-1.3,0.9-2.4,1.9-3.6,2.8l-1.8,1.4c-0.6,0.5-1.1,1.1-1.6,1.6c-1.1,1.1-2.2,2.1-3.2,3.2c-4,4.5-7.2,9.6-9.5,15.1
						c-2.4,5.4-3.5,11.3-3.7,17.2c-0.2,5.9,0.6,11.8,2.6,17.5c2,5.7,4.7,10.8,8.5,16.1c7.3,10.3,16.7,17.8,28.4,21.6
						c49.7,13.9,107.7-2,146.7-36.8c9.7-8.8,18-18.9,24.2-30.1c1.5-2.8,3.2-5.6,4.3-8.6l1.8-4.4l0.9-2.2c0.3-0.7,0.4-1.5,0.7-2.2
						c0.7-3,1.9-5.9,2.2-9.1c0.5-3.1,1.1-6.1,1.1-9.3c0.8-12.5-1.4-25.4-5.3-37.9c-4-12.5-9.7-24.6-16.4-36.1
						c-13.5-23.2-30.8-44.6-49.8-64.1c-9.5-9.8-19-19.6-28.7-29.3c-4.8-4.9-9.5-9.9-14.2-15c-4.6-5.1-9.2-10.4-13.4-16.1l0-0.1
						c-1-1.3-0.7-3.2,0.6-4.2C492.7,393.8,493.8,393.7,494.7,394.1z"/>
				</g>
			</g>
			<g>
				<g>
					<g>
						<path class="st0" d="M130.4,468.8c241.9,227.8,570.1-96.8,362.1-340C250.4-110.2-88.6,225.6,130.4,468.8z"/>
					</g>
				</g>
				<g>
					<g>
						<path class="st0" d="M130.4,468.8c241.9,227.8,570.1-96.8,362.1-340C250.4-110.2-88.6,225.6,130.4,468.8z"/>
					</g>
				</g>
				<g class="st1">
					<g>
						<path class="st2" d="M548.2,446.5c-1.6,3.3-3.3,6.6-5.1,9.9c-8.2,15-17.9,29.2-28.9,42.3c-21.2,25.1-47.3,46.1-76.5,61.2
							c-3,1.6-6.1,3.1-9.2,4.5l-14.6-28.5c-66.9,11.5-115.4,23.4-149.4,33.4c1.1-24.4,0.8-51.2-2.2-79.5l225.3-93.3
							c0,0,0.1,0.1,0.3,0.3c0.1,0.1,0.2,0.2,0.4,0.4l0.5,0.5c0.2,0.2,0.4,0.4,0.7,0.7c1.2,1.2,2.8,2.8,4.9,5l-1.4-6.9
							C493,396.5,519,416.3,548.2,446.5z"/>
					</g>
				</g>
				<g>
					<g>
						<path class="st0" d="M130.4,468.8c241.9,227.8,570.1-96.8,362.1-340C250.4-110.2-88.6,225.6,130.4,468.8z"/>
					</g>
				</g>
				<g>
					<g>
						<path class="st2" d="M310,552.3c-65.5,0-128.9-27.2-183.9-79l-0.4-0.4c-52.2-58-76.9-125.3-71.4-194.6
							c4.9-61.8,33.6-120.7,80.7-165.7c47-44.9,106.8-70.5,168.3-72c69.3-1.7,136.2,27.3,193.4,83.7l0.4,0.4
							c49.7,58.1,72.7,124.8,66.6,193c-5.5,61-34,118.9-80.3,163c-46.2,44.1-105,69.4-165.7,71.4C315.2,552.2,312.6,552.3,310,552.3
							z M134.8,464.4c121,113.7,258,85.7,340.1,7.3c80.3-76.5,118.5-215.1,13-338.7C367.5,14.3,225.1,43.9,143.7,121.6
							C61.5,200.1,23.7,340.8,134.8,464.4z"/>
					</g>
				</g>
				<g class="st1">
					<g>
						<path class="st2" d="M130.4,468.7c205.5,200.4,516.1-26,403.7-277.9c8.5,89.6-19.9,101.4-52.4,157.5
							c-97,181.4-342.9,138.8-419.4-25.2C68.2,378.6,92.8,429.7,130.4,468.7z"/>
					</g>
				</g>
				<g>
					<g>
						<path class="st7" d="M310,554.8c-66.1,0-130.1-27.4-185.6-79.7l-0.5-0.5c-52.7-58.5-77.6-126.4-72-196.5
							c5-62.5,33.9-121.9,81.5-167.3c47.5-45.4,107.9-71.2,170-72.6c70.1-1.6,137.5,27.5,195.2,84.4l0.5,0.5
							c50.1,58.6,73.4,125.9,67.2,194.8c-5.5,61.6-34.3,120-81,164.6c-46.6,44.5-106.1,70.1-167.3,72.1
							C315.3,554.7,312.6,554.8,310,554.8z M136.6,462.7c119.8,112.5,255.3,84.8,336.6,7.3c79.4-75.7,117.3-212.9,12.9-335.2
							C366.9,17.3,226,46.5,145.4,123.4C64.1,201.1,26.7,340.3,136.6,462.7z"/>
					</g>
				</g>
				<g>
					<g>
						<path class="st2" d="M310,554.8c-66.1,0-130.1-27.4-185.6-79.7l-0.5-0.5c-52.7-58.5-77.6-126.4-72-196.5
							c5-62.5,33.9-121.9,81.5-167.3c47.5-45.4,107.9-71.2,170-72.6c70.1-1.6,137.5,27.5,195.2,84.4l0.5,0.5
							c50.1,58.6,73.4,125.9,67.2,194.8c-5.5,61.6-34.3,120-81,164.6c-46.6,44.5-106.1,70.1-167.3,72.1
							C315.3,554.7,312.6,554.8,310,554.8z M136.6,462.7c119.8,112.5,255.3,84.8,336.6,7.3c79.4-75.7,117.3-212.9,12.9-335.2
							C366.9,17.3,226,46.5,145.4,123.4C64.1,201.1,26.7,340.3,136.6,462.7z"/>
					</g>
				</g>
				<g>
					<g>
						<path class="st8" d="M180,508.6C457.7,597.9,601.2,265,377.9,141.1C119.4,17.4-66.2,342.9,180,508.6z"/>
					</g>
				</g>
				<g class="st1">
					<g>
						<path class="st9" d="M429.3,179c74,146.2-62.8,350.1-287.4,277.9c-19.9-13.4-36.9-27.8-51.4-43c18.7,34.2,47.9,66.7,89.5,94.7
							C432.8,589.9,574.4,321.4,429.3,179z"/>
					</g>
				</g>
				<g>
					<g>
						<path class="st2" d="M295.3,550.4c-2.3,0-4.6,0-7-0.1c-57.9-2-114.2-28.5-162.8-76.7l0,0c-79.9-80.4-104.2-235.2-13.1-337.7
							l0.8-0.8c52.5-41.9,123.5-60,194.9-49.6C379.4,95.8,442,133.2,480,188c35.4,54,48,113.9,36.4,173.4
							c-10.4,53.9-40,103.1-83.3,138.5C393.1,532.6,344.4,550.4,295.3,550.4z M135.2,463.9c106.9,105.9,222.7,79.9,289.3,25.4
							c76.6-62.6,116.4-183.6,44.2-293.7c-35.7-51.6-95-86.9-162.4-96.7c-67.5-9.9-134.5,7-184,46.4
							C36.7,242,59.8,388.1,135.2,463.9z"/>
					</g>
				</g>
				<g>
					<g>
						<path class="st2" d="M270.8,532.3c-30.1,0-61.5-5.1-93.4-15.4l-1.2-0.4l-1-0.7c-59.6-40.1-98.7-92.4-113.2-151.3
							c-13-52.8-5.3-107.8,21.6-154.9c26.3-46.1,68.5-79.9,118.7-95.3c55.8-17.1,117.8-10.5,179.5,18.9l0.5,0.2
							c52.6,29.2,88.9,71.6,105,122.7c14.6,46.3,11.6,97.3-8.5,143.6c-21.7,50.1-61.2,90.1-111,112.4
							C337.8,525.6,305.2,532.3,270.8,532.3z M183.8,500.7c141,44.8,241.6-21.8,278.9-107.8c33.8-78.1,19.5-183.8-88.8-244.1
							c-127.9-61-230.4-9.1-275.3,69.4C52.5,298.9,61,417.4,183.8,500.7z"/>
					</g>
				</g>
				<g>
					<g>
						<path class="st0" d="M595.2,284.3c10.1,116.7-106.1,136.6-126.9,26.2C453.3,188.5,577.4,167.2,595.2,284.3z"/>
					</g>
				</g>
				<g class="st1">
					<g>
						<path class="st2" d="M542.2,383.2c-34.8,6.2-69.6-29.8-74.7-78.6c33.3,44.5,66.1-49.7,64.2-74
							C625.1,232.1,606.3,373.1,542.2,383.2z"/>
					</g>
				</g>
				<g>
					<g>
						<path class="st2" d="M534,392.1c-30.6,0-63.7-23.9-74.3-80.1l-0.1-0.5c-8.3-67.4,24.4-107.8,61.1-112.8
							c33.1-4.6,73.3,19.9,83.1,84.3l0.1,0.6c5.8,67.6-28,103.4-61.9,108.1C539.4,392,536.7,392.1,534,392.1z M476.9,309.1
							c9.5,49.7,38.3,68.6,62.7,65.2c25.9-3.6,51.7-32.9,46.9-89c-8.1-52.5-38.5-72.8-63.4-69.4C495,219.8,470.1,253.1,476.9,309.1z
							"/>
					</g>
				</g>
				<g>
					<g>
						<path class="st0" d="M601.1,289.5c8.1,94.6-78.7,111-95.6,21.6C492.8,211.3,587.1,193.6,601.1,289.5z"/>
					</g>
				</g>
				<g>
					<g>
						<path class="st2" d="M555.6,378.8c-23.8,0-49.9-19.7-58.6-66l-0.1-0.5c-7.3-56.7,18.4-90.4,47.5-94.4
							c26-3.6,57.4,16.9,65.3,70.4l0.1,0.5c4.8,56.4-21.7,85.9-48.3,89.6C559.5,378.6,557.6,378.8,555.6,378.8z M514.2,309.8
							c7.4,38.7,27.9,53.6,44.9,51.3c19.3-2.6,36.9-27.7,33.4-70.6c-6.2-41.5-28-57.8-45.6-55.4C526.2,238,508.4,264.5,514.2,309.8z
							"/>
					</g>
				</g>
				<g class="st6">
					<g>
						<path class="st0" d="M434.6,266.5c-2.1,49.3-58.1,47.8-63.5,4.9C367.4,216.9,433.5,217.6,434.6,266.5z"/>
					</g>
				</g>
				<g class="st6">
					<g>
						<path class="st0" d="M423.9,345.7c-1.9,18.8-26.4,18.6-26.3-2C399.5,324.9,424,325.1,423.9,345.7z"/>
					</g>
				</g>
				<g class="st6">
					<g>
						<path class="st0" d="M105.9,367.1c-74.9-172.9,106.4-242.4,172.5-218C160.6,186.8,125.7,273.9,105.9,367.1z"/>
					</g>
				</g>
				<g class="st1">
					<g>
						<path class="st2" d="M506,332.9c-4.8-12.5-6.2-26.3-4.7-39.6c31.4,57.6,86.7,15.2,90.2-32.5
							C627.6,348.6,545.4,413.9,506,332.9z"/>
					</g>
				</g>
				<g>
					<g>
						<path class="st2" d="M455.1,243.3c-1.2,0-2.2-0.1-3.2-0.3c-11.8-2.6-16.6-18.6-17.8-23.4c-1.2-4.7,1.7-9.4,6.4-10.5
							c4.7-1.2,9.4,1.7,10.5,6.3l0,0c0.9,3.7,2.8,7.9,4.3,9.9c0.4-0.4,0.9-0.9,1.4-1.6c3-3.8,8.5-4.4,12.2-1.4
							c3.8,3,4.4,8.5,1.4,12.2C464.8,241.5,459.4,243.3,455.1,243.3z"/>
					</g>
				</g>
			</g>
			<g class="st1">
				<g>
					<path class="st2" d="M256.8,768.8l-62.3-22.3l-25.2-37.3l-15.4-22.8l-39.7-58.7c-0.3-3.1-0.6-6.3-0.7-9.6
						c0,0,36.1,8.1,59.3,42.3c10.8,16,12.8,33.8,8.2,42.9c17.4,19.8,29.3,46,75.3,64.5L256.8,768.8z"/>
				</g>
			</g>
			<g>
				<g>
					<path class="st0" d="M95.7,596.2c0,0,36.1,8.1,59.3,42.4c15.1,22.3,13,48.3-0.2,49C141.6,688.2,99.5,669.3,95.7,596.2z"/>
				</g>
			</g>
			<g class="st1">
				<g>
					<path class="st2" d="M154.8,687.6c-12.6,0.7-51.5-16.6-58.4-81.8c13.6,39.4,41.3,50.7,51.6,50.2c5.5-0.3,9.1-5,10.3-12
						C169.7,664.8,166.9,686.9,154.8,687.6z"/>
				</g>
			</g>
			<g>
				<g>
					<path class="st2" d="M154,696.3c-20.2,0-63-24.3-67-99.6l-0.6-11.5l11.2,2.5c1.6,0.4,39.7,9.3,64.6,46
						c11.7,17.3,15.4,38.6,8.8,51.7c-3.3,6.6-9,10.6-15.8,10.9C154.8,696.3,154.4,696.3,154,696.3z M105.5,608.9
						c7.5,57.6,41.3,70,48.5,70c0.1,0,0.2,0,0.3,0c0.4,0,0.9-0.8,1.1-1.3c2.6-5.3,2-19.8-7.7-34.2
						C134.7,624.2,117.1,613.9,105.5,608.9z"/>
				</g>
			</g>
			<g>
				<g>
					<path class="st2" d="M603,662.5c-0.9,0-1.9-0.2-2.8-0.6c-3.3-1.6-4.6-5.5-3.1-8.7c13.9-29-5.9-53.1-19-64.8
						c-25.1-22.5-58.7-31.3-70.8-23.8c-3.1,1.9-7.1,0.9-9-2.1c-1.9-3.1-0.9-7.1,2.1-9c20.7-12.8,61.4,2.7,86.4,25.2
						c26.9,24.2,34.9,53.4,22.1,80.2C607.8,661.2,605.4,662.5,603,662.5z"/>
				</g>
			</g>
			<g>
				<g>
					<path class="st2" d="M449.5,861.6c-0.4,0-0.7,0-1.1-0.1c-3.6-0.6-6-4-5.4-7.5c10.4-62.8-18.9-91.3-37.3-102.7
						c-25.4-15.8-59.4-17.1-79-3c-2.9,2.1-7,1.4-9.1-1.5c-2.1-2.9-1.4-7,1.5-9.1c24.1-17.3,63.4-16.2,93.5,2.5
						c36,22.4,51.8,64.6,43.3,116C455.4,859.3,452.6,861.6,449.5,861.6z"/>
				</g>
			</g>
			<g>
				<g>
					<path class="st2" d="M324.9,886.2c2.2,1.3,4.8,3,7.3,4.5c2.5,1.5,5.1,2.9,7.7,4.3c5.2,2.7,10.5,5.1,16.1,6.7
						c5.6,1.7,11.4,2.4,17.3,2.3l4.5-0.2l4.5-0.8c0.8-0.1,1.5-0.2,2.3-0.4l2.2-0.7l4.6-1.4l0.1,0c0.5-0.1,1,0.1,1.2,0.6
						c0.1,0.4,0,0.8-0.3,1c-1.3,1-2.6,2-3.9,3l-2,1.5c-0.7,0.4-1.5,0.8-2.2,1.2c-1.5,0.8-3,1.6-4.6,2.3l-4.9,1.6
						c-6.6,1.8-13.8,2.5-20.8,1.6c-6.9-0.8-13.8-2.7-20.1-5.6c-1.6-0.7-3.1-1.5-4.6-2.3c-1.5-0.8-3-1.7-4.4-2.7
						c-2.9-1.9-5.5-3.9-8.3-6.6c-2.6-2.5-2.6-6.7,0-9.2c2.2-2.2,5.5-2.5,8-1L324.9,886.2z"/>
				</g>
			</g>
			<g>
				<g>
					<path class="st2" d="M186.5,861.3c0-0.1,0.2,0.2,0.4,0.4l0.6,0.6c0.4,0.5,0.9,0.9,1.3,1.4c0.9,0.9,1.8,1.8,2.8,2.7
						c2,1.8,4.2,3.3,6.5,4.8c4.6,2.8,9.9,5.1,15.5,6.7c5.6,1.7,11.7,2.4,17.9,3.1l9.4,0.4c3.2-0.1,6.4-0.1,9.6,0l0.1,0
						c0.5,0,0.9,0.4,0.9,1c0,0.4-0.3,0.7-0.6,0.9c-3.1,1.2-6.2,2.2-9.3,3.2c-3.2,0.9-6.4,1.5-9.7,2.2c-6.6,0.9-13.4,1.6-20.4,0.7
						c-6.9-0.7-14-2.4-20.5-6c-3.2-1.8-6.3-3.9-9-6.6c-1.4-1.2-2.6-2.7-3.8-4.2c-0.6-0.8-1.1-1.5-1.7-2.4c-0.3-0.4-0.5-0.8-0.8-1.3
						c-0.3-0.5-0.5-0.9-0.8-1.7c-1.6-3.2-0.3-7.1,2.9-8.8C181,856.8,184.9,858.1,186.5,861.3z"/>
				</g>
			</g>
		</g>
	</g>
</g>
</svg>
