<?xml version="1.0" encoding="utf-8"?>
<!-- Generator: Adobe Illustrator 26.0.3, SVG Export Plug-In . SVG Version: 6.00 Build 0)  -->
<svg version="1.1" id="Layer_1" xmlns="http://www.w3.org/2000/svg" xmlns:xlink="http://www.w3.org/1999/xlink" x="0px" y="0px"
	 viewBox="0 0 1500 1500" style="enable-background:new 0 0 1500 1500;" xml:space="preserve">
<style type="text/css">
	.st0{fill:#DB9F69;}
	.st1{fill:#C2814C;}
	.st2{opacity:0.3;}
	.st3{fill:#A06B44;}
</style>
<g>
	<path class="st0" d="M1485.3,749.8c0,65.9-8.6,130.1-24.9,190.6c-83.9,314.2-370.4,545.1-710.5,545.1c-67.7,0-133.3-9-195.6-26.7
		c-305.9-83.9-532.1-361-539.3-692.5c-0.4-5.4-0.4-11.2-0.4-16.6c0-105.2,22-205,61.6-295.4c51.2-116,131.1-216.5,231.3-291.8
		C430.8,69.6,583.9,14.5,750,14.5c243.2,0,458.6,118.2,592.7,300.1C1432.4,436.4,1485.3,586.6,1485.3,749.8z"/>
	<path class="st1" d="M558.7,1398.7c0,12.6,1.1,29.9,1.1,31.7c0,10.8-1.8,20.2-5.4,28.5c-305.9-83.9-532.1-361-539.3-692.5
		c15.5-3.6,31.7-5.4,48.6-5.4c216.5,0,151.3,258.7,290.8,258.7c16.2,0,187-63.4,277.8-63.4c105.9,0,181.9,77.1,181.9,113.1
		C814.1,1070.5,558.7,1173.2,558.7,1398.7z"/>
	<path class="st1" d="M1485.3,749.8c0,65.9-8.6,130.1-24.9,190.6c-46.1,29.9-92.6,48.6-132.6,48.6c-39.6,0-81.8-13-126.5-44
		c-0.7-0.7-1.8-1.1-2.9-1.1c-10.4,0-33.5,25.2-55.5,25.2c-29.2,0-35.7-29.9-35.7-59.1c0-31.3,9.4-63.1,9.4-92.2
		c0-107.7-140.5-38.2-140.5-122.9c0-23.8,19.5-47.9,30.3-67c34.9-62.7,89-106.3,131.5-165.7c8.6-11.9,10.4-24.5,10.4-37.1
		c0-8.3-0.7-16.9-0.7-24.9c0-67.4,119.3-83.6,194.9-85.8C1432.4,436.4,1485.3,586.6,1485.3,749.8z"/>
	<path class="st1" d="M480.5,517.8c0,41.8-218,67.7-254,71.3h-4.3c-60.5,0-108.1-65.6-145.9-134.7c51.2-116,131.1-216.5,231.3-291.8
		C412.1,225.6,480.5,486.1,480.5,517.8z"/>
	<path class="st1" d="M718.9,296.6c-9.7,19.4-10.3,54.9-10.3,90.9c0,36.1,15.6,122.6,73.7,128.5c1.6,0.2,3.3,0.2,5,0.2
		c66.3,0,207.2-104.1,207.2-162.9c0-66.6-69.2-122.1-133.4-122.1c-18.4,0-36.7,3.2-54.4,6.8C768.1,245.8,736.5,261.4,718.9,296.6z"
		/>
	<g class="st2">
		<path class="st3" d="M229.9,230.2c0,0,12.5-13.1,37.9-35.4c25.6-22,64.4-53.6,119.5-84.5C442.2,79,513.6,48.6,599.8,30.2
			c86-18.6,187.1-21.4,293.6-1.5c105.9,21.4,217.2,67.8,314.1,145.9c98.2,75.9,179.5,184.3,228.4,310.6
			c48.5,126.3,62.8,270.7,34.9,410.3c-27.6,139.8-99.6,271.5-200.8,374.4c-101.9,102.4-234.6,173.5-374.2,200.9
			c-139.5,28.5-284.2,14-410.4-34.6c-126.7-48.4-233.7-131.4-310.8-228.4c-77.7-97-125.1-208.1-145.7-314.2
			C7.8,787.2,12.6,686.1,30.1,600c17.8-86.3,48.7-157.6,79.9-212.4c31.1-55.1,62.6-93.9,84.6-119.5c11.1-12.8,20-22.2,26.1-28.5
			C226.8,233.4,229.9,230.2,229.9,230.2z M229.9,230.2c0,0-3.1,3.3-9,9.7c-6,6.3-14.8,15.9-25.6,28.9
			c-21.1,26.2-53.2,64.7-81.2,121.2c-28.1,55.9-55.3,128.6-63.8,214c-9.6,85.7-0.9,183.5,34.8,278.5c17.1,47.6,42.8,93.5,72.9,136.4
			c31.2,42.2,68.8,81.5,109.8,113.9c83.8,68.2,185.2,110.2,286.8,123.5c101.9,13.4,202.8,1.9,292.1-29.9
			c21.5-7.2,46.6-18.1,62.5-26.6c25.5-11.1,42.7-21.2,62.9-34.1c19-13,38.1-25.5,56.1-39.8c17.5-13.2,37.4-33.1,45-40l9.5-9.6
			l5.8-6.2l2.9-3.2l11.7-12.7c8.4-8.1,15.4-17.1,22.3-26.2c7.3-8.9,14.4-17.9,20.3-27.7c6.7-9.3,14.5-18,19.9-28.2
			c12.9-19.2,23.3-39.8,33.7-60.7l15.2-31.8l12.8-33.1c32.3-89.2,43-191.7,30.9-291.5l-3.7-32.9c-4.9-16.4-9.7-32.7-14.6-48.9
			l-1.8-6.1c4.7,7.8,0.8,0.4,1.8,2.2l-0.6-2.3l-2.7-9.3l-5.9-18.5c-4.2-12.3-8.8-24.5-14-36.6c-10.1-23.9-23.1-48.4-35.9-70.3
			c-7.9-12.7-15.2-22.3-22.9-33.7c-7.5-11.2-15.2-22.3-24-32.1c-66.2-84.3-156.5-147.7-251.6-183c-47.6-17-95.9-29.7-143.1-33.9
			c-23.6-3.6-46.7-2.9-69.5-4.6c-22.6,0.7-44.7,2.2-66.1,4.3c-86.1,9.3-157.6,36.1-214.4,64.5c-56,28.2-94.9,60.1-121,81.3
			C242.5,217.2,229.9,230.2,229.9,230.2z"/>
	</g>
</g>
</svg>
