<?xml version="1.0" encoding="iso-8859-1"?>
<!-- Generator: Adobe Illustrator 26.0.3, SVG Export Plug-In . SVG Version: 6.00 Build 0)  -->
<svg version="1.1" id="Layer_1" xmlns="http://www.w3.org/2000/svg" xmlns:xlink="http://www.w3.org/1999/xlink" x="0px" y="0px"
	 viewBox="0 0 1500 1500" enable-background="new 0 0 1500 1500" xml:space="preserve">
<g>
	<path fill="#B3B3B3" d="M1488.303,742.449c0,64.887-8.179,127.652-23.696,187.677c-14.679,56.639-35.646,110.745-62.276,161.261
		c-124.133,235.018-369.675,395.222-652.332,395.222c-49.065,0-97.084-4.862-143.424-14.165
		C340.064,1419.609,124.926,1222,45.035,964.366C23.44,894.197,11.697,819.802,11.697,742.449
		c0-82.004,13.208-161.049,37.531-234.81c31.664-96.164,82.199-183.661,147.201-257.846C331.886,95.508,529.62,10,749.999,10
		c3.145,0-3.145,0,0,0c109.037,0,221.638,26.418,314.11,70.593C1314.894,199.58,1488.303,444.657,1488.303,742.449z"/>
	<path fill="#808080" d="M1464.607,934.506c-14.679,56.193-35.646,109.873-62.276,159.992
		c-219.751,145.939-512.891,309.076-795.756,378.058c-266.51-52.421-481.649-248.474-561.539-504.08
		c50.117-12.794,107.569-19.919,172.992-19.919c271.542,0,531.972,133.988,752.35,133.988
		C1150.708,1082.546,1308.392,1012.508,1464.607,934.506z"/>
	<path fill="#808080" d="M1064.109,79.827C887.553,269.174,504.878,516.604,96.199,516.604c-15.725,0-31.242-0.421-46.97-1.26
		c31.664-95.408,82.199-182.215,147.201-255.817c33.759-6.921,67.938-13.836,101.908-21.387
		C506.135,192.011,721.691,32.017,742.661,19.649c5.662-3.358,11.323-6.502,16.774-9.649
		C868.472,11.26,971.637,36.21,1064.109,79.827z"/>
	<path fill="#808080" d="M502.305,609.569c-39.502,7.901-91.474,5.951-91.474,80.944c0,79.25,112.381,100.496,171.558,100.496
		c165.008,0,387.286-167.608,387.286-204.694c0-39.941-62.278-86.037-107.903-86.037c-0.881,0-1.755,0.018-2.622,0.052
		C735.231,505.287,596.979,522.178,502.305,609.569z"/>
	<path fill="#808080" d="M1055.778,391.093c-13.374,10.032-14.634,22.969-14.634,39.168c0,3.759,0.067,7.695,0.067,11.81
		c0,32.952,47.118,51.495,82.26,51.495c38.793,0,79.557-19.249,79.557-57.811c0-33.136-30.404-65.356-81.881-65.356
		C1097.964,370.398,1074.094,377.351,1055.778,391.093z"/>
	<path fill="#808080" d="M1026.647,777.065c-16.275,24.415-25.439,50.912-25.439,77.271c0,47.16,23.22,88.193,79.133,88.193
		c58.439,0,162.879-47.848,162.879-106.251c0-30.944-32.074-83.842-110.801-83.842
		C1096.36,752.435,1058.14,763.068,1026.647,777.065z"/>
	<g opacity="0.3">
		<path fill="#999999" d="M226.533,229.65c0,0,12.513-13.123,38.056-35.492c25.598-22.185,64.674-53.546,119.827-84.873
			C439.451,78.2,510.795,46.702,597.477,29.311c86.173-18.106,187.691-22.774,294.368-1.52
			c106.65,20.042,217.723,68.285,315.251,145.704c98.241,76.39,180.512,184.555,229.602,311.257
			c49.249,126.468,63.432,271.522,35.629,411.465c-26.89,140.084-97.631,273.557-200.146,375.989
			c-101.845,103.154-234.941,174.395-374.682,202.766c-139.755,29.409-285.071,14.584-411.29-35.129
			c-63.047-25.085-121.999-57.681-174.005-97.272c-26.199-19.506-50.758-40.629-73.642-62.879l-8.667-8.23
			c-3.252-2.737-1.555-7.881-4.745-10.653l-16.487-17.052c-10.752-11.53-21.255-23.162-31.126-35.185
			c-39.918-47.75-72.521-99.339-97.337-152.369c-12.422-26.506-22.916-53.38-31.009-80.456
			c-9.346-26.688-15.25-53.844-21.423-80.254c-10.945-53.252-14.84-105.379-15.075-154.837
			c0.433-49.527,6.056-96.302,14.374-139.625c17.375-86.671,48.599-158.109,79.521-213.202
			c30.644-55.612,63.022-93.917,84.515-120.056C214.208,242.908,226.533,229.65,226.533,229.65z M226.533,229.65
			c0,0-12.079,13.471-34.728,38.735c-20.573,26.748-53.582,64.757-81.132,121.755c-14.087,28.147-27.645,60.313-39.253,96.17
			c-12.18,35.689-18.906,76.172-24.29,118.76c-9.145,85.539,0.433,183.784,36.718,278.95c9.548,23.561,18.041,43.328,32.497,70.141
			l9.949,19.161l1.246,2.409c0.892,2.418-0.513-1.932-0.137-1.116l0.63,1.029l2.517,4.131l5.023,8.241
			c6.924,10.904,14.114,21.658,21.79,32.159c31.668,41.555,69.265,79.328,111.92,112.023c10.474,8.181,21.988,16.422,31.865,22.716
			l19.036,13.246c-4.153-4.126,13.822,12.93,13.822,12.93c23.059,14.035,46.95,26.502,71.488,37.052
			c48.552,22.113,100.652,34.299,150.939,42.693c25.374,3.797,50.825,5.489,75.888,5.931c24.942,1.116,49.906-0.668,74.267-3.353
			c6.117-0.91,12.186-1.807,18.204-2.271c6.233-0.5,9.707-1.954,14.605-2.703c5.231-1.206,56.325-11.373,56.325-11.373
			c5.843-1.58,11.633-3.333,17.388-5.164c11.559-3.234,23.028-6.545,34.268-10.579c89.499-33.51,169.561-81.549,234.154-148.653
			c16.882-16.021,32.455-33.183,46.71-51.394c7.152-9.089,13.876-18.5,20.432-28.06l10.27-14.134
			c3.427-5.007,4.368-5.489,10.189-15.333l17.14-28.768l15.622-31.37c10.348-21.096,20.076-42.864,27.595-65.566
			c32.116-90.306,43.568-192.064,29.806-294.572c-1.109-13.072-5.027-25.105-6.769-38.237c-1.083-6.928-2.248-12.274-3.371-17.561
			l-3.25-16.59c-0.728-3.026-0.601-5.178-2.008-8.99l-4.597-11.814l-9.149-23.548l-2.275-5.866l-1.139-2.934l-0.569-1.459
			c-0.816-1.473,4.931,7.271,2.297,3.037l-3.508-9.243l-7.517-18.363c-10.227-24.106-23.371-48.653-36.202-70.475
			c-15.667-23.4-29.736-45.363-47.147-66.082c-33.737-41.624-72.73-79.005-115.575-110.212
			c-43.099-30.473-89.585-55.738-137.46-72.586c-47.678-17.27-96.241-30.207-143.574-34.125c-47.01-4.844-93.785-6.04-135.586,0.076
			c-21.035,1.434-42.644,6.693-62.874,9.851c-19.202,3.452-38.672,9.017-56.345,15.019c-35.821,11.843-67.931,25.632-96.138,39.607
			c-56.325,28.779-95.264,60.391-121.425,81.787C239.168,216.621,226.533,229.65,226.533,229.65z"/>
	</g>
</g>
<g>
</g>
<g>
</g>
<g>
</g>
<g>
</g>
<g>
</g>
<g>
</g>
<g>
</g>
<g>
</g>
<g>
</g>
<g>
</g>
<g>
</g>
<g>
</g>
<g>
</g>
<g>
</g>
<g>
</g>
</svg>
