<?xml version="1.0" encoding="iso-8859-1"?>
<!-- Generator: Adobe Illustrator 26.0.3, SVG Export Plug-In . SVG Version: 6.00 Build 0)  -->
<svg version="1.1" id="Layer_1" xmlns="http://www.w3.org/2000/svg" xmlns:xlink="http://www.w3.org/1999/xlink" x="0px" y="0px"
	 viewBox="0 0 1500 1500" enable-background="new 0 0 1500 1500" xml:space="preserve">
<g>
	<path fill="#00BBFF" d="M1481.897,746.115c0,26.307-1.05,52.282-3.825,77.814c-5.107,49.952-15.344,98.458-30.218,144.967
		c-94.242,295.381-370.987,515.948-697.669,515.948c-86.582,0-169.744-15.248-244.308-46.15
		c-70.217-29.101-132.116-54.086-188.506-95.49c-54.613-40.074-103.456-90.856-144.971-144.25
		c-9.546-12.1-18.537-26.169-27.307-38.936c-37.963-55.614-65.6-118.622-90.023-182.752
		c-21.332-56.013-30.749-116.63-35.077-178.348c-1.222-17.317-1.888-34.95-1.888-52.599c0-58.388,6.328-115.214,19.204-169.604
		c12.544-52.888,50.449-151.398,50.449-151.842C206.409,181.44,458.925,15.268,748.089,15.268
		c171.87,0,259.596,42.675,327.753,75.421c143.328,64.02,311.073,233.077,376.425,454.217c0.445,1.334,1.995,6.001,2.879,8.689
		c3.293,10.018,6.141,21.857,8.982,34.673C1475.992,639.217,1481.897,691.944,1481.897,746.115z"/>
	<path fill="#0095FF" d="M1478.464,823.929c-5.217,49.952-15.541,98.458-30.416,144.967
		c-333.343,125.879-667.685,242.099-944.526,466.659c-65.945-23.438-136.407-55.888-190.18-97.3
		C697.524,1065.63,1166.433,898.189,1478.464,823.929z"/>
	<path fill="#0095FF" d="M1464.127,588.268c-330.789,129.207-889.119,362.536-1291.729,607.41
		c-9.546-12.1-18.537-24.531-27.307-37.298c377.522-299.708,1305.918-616.114,1306.362-616.223
		c1.111,3.883,3.349,7.585,4.349,11.468C1459.021,565.28,1461.574,576.391,1464.127,588.268z"/>
	<path fill="#0095FF" d="M346.452,689.946c0,111.893-160.783,245.986-291.654,286.501c-18.76-56.613-30.478-116.22-34.807-177.939
		C68.72,745.114,126.11,699.827,193.49,665.082c31.967-16.54,77.591-35.076,110.336-35.076
		C341.901,630.006,346.452,652.537,346.452,689.946z"/>
	<path fill="#0061FF" d="M233.403,771.244c0,71.448-102.822,157.071-186.388,182.941c-11.979-36.149-19.305-74.211-22.069-113.62
		c31.116-34.094,67.761-63.011,110.785-85.197c20.412-10.561,49.544-22.397,70.454-22.397
		C230.497,732.97,233.403,747.357,233.403,771.244z"/>
	<path fill="#0095FF" d="M1075.842,90.689C794.227,203.245,366.544,374.142,37.974,576.168c-0.223,0.112-0.445,0.223-0.667,0.445
		c12.544-52.837,26.758-99.699,48.625-146.985c0.555-0.556,5.655-4.311,6.212-4.755c225.891-177.717,486.083-321.911,761.37-403.61
		C932.882,32.252,1007.13,56.388,1075.842,90.689z"/>
	<g opacity="0.3">
		<path fill="#0085FF" d="M18.105,749.311c-0.046-29.209,0.71-58.48,4.314-87.494c3.368-29.021,8.341-57.867,15.169-86.276
			c3.407-14.203,7.219-28.313,11.535-42.266c4.36-13.94,9.778-27.52,14.618-41.301l7.514-20.572l9.064-19.942
			c6.313-13.155,11.453-26.908,18.742-39.571l21.169-38.345c7.433-12.549,15.878-24.486,23.773-36.76
			c7.659-12.456,16.693-23.922,25.698-35.407c9.114-11.391,17.375-23.493,27.569-33.971l29.377-32.449l31.767-30.095
			c10.246-10.428,22.145-18.957,33.322-28.313c11.274-9.256,22.526-18.545,34.794-26.463c12.083-8.151,23.814-16.853,36.181-24.55
			l37.821-21.957c12.487-7.546,26.095-12.952,39.092-19.534l19.713-9.458l20.371-7.908c13.678-4.994,27.008-11.025,40.975-15.167
			L562.6,39.128c13.971-4.126,28.441-6.278,42.638-9.514l21.388-4.467l21.671-2.74c14.474-1.596,28.874-4.056,43.406-4.945
			l43.656-1.805c29.11-1.033,58.273,0.11,87.326,2.04c29.042,2.146,55.111,5.75,83.581,11.976
			c28.498,6.063,92.123,28.494,92.123,28.494c35.487,14.113,64.207,24.875,117.596,56.017c37.93,23.357,73.018,48.593,106.703,77.82
			c33.72,29.177,63.87,61.334,91.866,96.052c7.093,8.618,13.212,17.555,19.699,26.633c6.434,9.108,13.037,17.904,19.188,27.211
			c12.424,18.534,23.822,37.657,34.477,57.262c42.592,78.454,70.578,164.813,82.141,253.389c2.911,22.143,4.834,44.406,5.233,66.742
			c0.335,11.159,0.936,22.31,1.04,33.474c-0.024,11.168-0.347,22.329-0.86,33.481c-2.08,44.611-8.026,89.064-18.272,132.536
			c-6.293,26.581-13.404,52.49-21.819,77.975c-4.21,12.743-8.745,25.376-13.648,37.867c-2.455,6.242-4.997,12.454-7.636,18.621
			l-4.031,9.217l-2.068,4.586c-0.266,0.762-0.879,1.538-0.849,2.285c0.595,0.559,1.698,0.559,2.022,1.33
			c-9.455,16.928-18.102,34.332-28.216,50.864l-15.594,24.55l-7.816,12.265l-8.606,11.718
			c-11.448,15.646-22.706,31.448-35.626,45.922l-18.819,22.161l-20.204,20.895c-13.076,14.342-27.892,26.874-42.193,39.935
			c-7.029,6.688-14.642,12.677-22.3,18.604l-22.833,17.971c-15.698,11.312-31.779,22.158-47.94,32.794l-25.057,14.69
			c-8.347,4.898-16.612,9.962-25.408,14.024c-17.427,8.421-34.391,17.858-52.538,24.689l-26.836,11.083
			c-9.004,3.527-18.31,6.245-27.453,9.408c-9.213,2.96-18.299,6.336-27.609,8.957l-28.117,7.205
			c-18.617,5.4-37.815,8.117-56.825,11.721l-14.284,2.523l-14.428,1.565l-28.857,3.125c-19.245,1.895-38.646,1.72-57.962,2.685
			c-19.337,0.301-38.716-0.028-57.984-1.749c-9.635-0.898-19.24-2.156-28.724-4.091c-4.736-0.979-9.455-2.036-14.117-3.348
			c-1.166-0.287-2.322-0.724-3.506-0.884c-1.132,0.444-25.356-4.771-35.077-5.642c-9.709-1.014-19.373-2.367-28.984-4.082
			c-19.205-3.526-38.11-8.577-56.662-14.65c-18.553-6.071-36.765-13.166-54.716-20.851c-8.964-3.861-17.883-7.842-26.749-11.932
			l-13.262-6.21l-6.612-3.155c-2.143-1.098-4.714-1.776-5.776-4.131c-0.445-0.167-34.968-16.645-34.968-16.645
			c-11.09-6.286-22.382-12.245-33.316-18.797c-10.657-7.008-21.607-13.575-32.016-20.941c-10.194-7.673-20.783-14.826-30.642-22.922
			c-9.703-8.282-19.904-15.996-29.203-24.741c-9.201-8.835-18.98-17.082-27.713-26.401c-8.692-9.342-18.026-18.096-26.193-27.923
			c-8.174-9.802-17.04-19.034-24.646-29.306c-7.642-10.223-16.017-19.904-23.063-30.571c-7.116-10.602-14.983-20.706-21.476-31.719
			c-6.566-10.949-13.908-21.445-19.846-32.766c-6.025-11.263-12.817-22.117-18.206-33.713c-5.464-11.544-11.695-22.734-16.53-34.569
			c-4.893-11.799-10.547-23.288-14.822-35.342c-4.314-12.021-9.379-23.785-13.082-36.024l-5.846-18.256l-4.585-14.643
			c-0.855-0.255-8.439-30.535-8.411-36.963C25.625,855.255,18.094,802.416,18.105,749.311z M18.105,758.646
			c0.213,26.532,2.292,53.016,5.793,79.285c3.755,26.245,9.641,52.198,15.85,77.924c0.479,6.761,1.268,12.864,3.242,18.69
			c0.983,2.916,1.96,5.77,3.271,8.594c0,0,0.98,6.985,3.231,11.28c1.883,3.375,0.745,1.254,1.12,1.97
			c0.052,0.142,3.732,10.227,3.732,10.227l6.532,17.905c4.067,12.022,9.918,23.395,14.81,35.06
			c4.885,11.68,11.142,22.769,16.622,34.133c5.303,11.461,12.516,21.988,18.743,32.917c6.187,10.965,13.741,21.144,20.505,31.691
			c6.682,10.608,14.723,20.342,21.966,30.495c7.168,10.219,15.67,19.478,23.382,29.205c3.801,4.913,8,9.514,12.436,13.907
			l12.943,13.398c8.393,9.084,17.97,17.062,26.806,25.572c8.838,8.537,18.749,15.927,27.968,23.881
			c9.276,7.918,19.447,14.739,29.076,22.036c9.876,7.025,20.527,12.937,30.607,19.391c10.235,6.262,21.059,11.509,31.404,17.256
			c10.547,5.432,21.492,10.004,32.05,15.002c10.795,4.572,21.839,8.43,32.722,12.338l8.121,4.282
			c0.445,0.095,33.951,9.423,33.951,9.423l6.844,2.05l13.586,3.931c9.01,2.538,17.922,4.907,26.748,7.109
			c17.57,4.502,35.013,7.518,51.706,9.586c8.351,0.982,16.536,1.678,24.53,2.12c7.976,0.351,15.746,0.386,23.283,0.171
			c7.502-0.336,86.09-0.153,86.09-0.153c5.343-0.551,11.402-1.373,18.032-2.387c13.152-2.066,29.348-4.887,47.207-8.45
			c16.173-4.191,32.195-7.125,47.785-11.972l23.167-7.43l11.448-3.621l11.205-4.514c14.833-6.204,29.649-11.343,43.632-18.944
			l21.024-10.339c6.892-3.609,13.51-7.917,20.205-11.749c6.607-4.088,13.376-7.532,19.858-11.602l19.089-12.679
			c12.904-7.766,24.514-17.896,36.447-26.735c6.053-4.269,11.551-9.48,17.114-14.454l16.877-14.267
			c10.709-10.203,21.256-20.338,31.404-30.678c9.473-11.251,19.737-21.198,28.475-32.728c9.022-11.182,18.571-21.572,26.419-33.524
			l12.402-17.109l11.084-17.987c7.618-11.703,14.388-23.866,21.302-35.795l5.238-8.879l4.488-9.339l9.08-18.45
			c5.874-12.346,10.489-32.756,10.489-32.756c0.196-0.567,0.457-1.321,0.457-1.321l1.058-3.019l2.068-6.115l3.956-12.595
			c2.6-8.543,4.87-17.474,7.319-26.63c2.46-9.15,4.777-18.646,6.96-28.469l6.261-30.414L1223,928.58
			c0.098-0.458,6.394-54.555,6.394-54.555c2.791-14.339,5.003-28.971,6.487-43.922c1.605-14.922,3.003-30.113,3.471-45.612
			l0.451-24.006l-2.408-2.095l-2.42-1.045c0-2.517,2.707,18.433,2.579,9.441l1.203-0.524l0.494-4.186l0.069-8.369l-0.31-16.744
			l-0.391-16.743l-1.862-4.186l-1.781-1.045c0,3.322,1.349-8.656,2.21,7.708l0.861-0.352l0.354-1.417l-0.153-5.675l-1.702-22.647
			c-1.398-15.081-3.607-30.039-6.2-44.949c-1.254-7.466-2.566-14.928-4.177-22.332l-2.372-10.758l-0.918-4.247l-2.139-7.781
			c-3.35-13.823-7.755-29.304-12.584-43.693c-5.181-14.47-9.824-29.358-15.843-43.733c-2.923-7.227-6.047-14.385-9.305-21.502
			l-4.857-10.328l-1.912-4.215l-0.48-1.067l-1.022-1.831l-2.056-3.658l-2.051-3.662l-1.028-1.831
			c11.09,15.81,2.993,4.255,5.436,7.725c-0.411-0.675-0.958-1.57-0.958-1.57l-4.367-7.175l-8.733-14.349l-8.357-14.623l-1.046-1.827
			c-1.034-1.503,5.979,7.778,2.963,3.771c-0.098-0.165-0.479-0.828-0.479-0.828l-1.537-2.657l-3.085-5.322
			c-8.369-14.081-17.275-27.936-26.846-41.238c-9.513-13.384-19.759-26.1-29.908-39.02c-4.961-6.272-10.807-12.937-15.468-18.453
			l-3.148-3.867c-1.37-1.521-3.841-3.804-5.712-5.669l-3.015-2.943l-0.757-0.737c2.686,1.985,0.659,0.462,1.218,0.866
			c-0.455-0.457-1.669-1.674-1.669-1.674l-4.869-4.881c-12.933-12.997-26.137-24.834-38.878-36.778
			c-12.857-11.709-25.778-22.551-38.757-32.531c-12.949-9.964-26.049-18.574-38.924-27.035l-9.046-1.785l-4.049-3.189
			c-14.486-11.419-31.178-22.033-50.719-31.15c-19.395-9.257-41.54-17.039-65.551-23.693c-23.889-6.459-50.493-12.456-76.213-16.327
			l-37.377-5.79c-12.574-1.698-25.143-1.885-37.948-2.975l-19.292-1.316l-19.222,0.36c-12.828,0.478-26.079-0.151-38.998,1.179
			l-39.202,3.971c-13.256,1.252-25.946,4.632-39.062,7.126l-19.673,4.07l-19.222,5.645c-12.742,4.05-26.229,6.941-38.733,12.01
			c-12.656,4.781-25.375,9.728-38.047,14.97c-12.487,5.534-24.454,12.11-36.879,18.172c-12.615,5.832-24.317,13.083-36.146,20.348
			c-11.697,7.41-24.415,13.827-35.071,22.76l-33.553,25.39l-31.617,28.058c-10.998,9.088-20.21,19.8-30.202,29.965
			c-9.647,10.452-19.367,20.929-27.759,32.444c-8.623,11.333-17.854,22.378-26.113,34.092l-23.757,35.992
			c-8.318,11.897-13.955,24.982-20.921,37.613l-10.056,19.159l-8.652,20.15c-5.568,13.407-11.478,27.147-16.295,40.455
			c-4.84,13.693-9.189,27.577-13.152,41.589c-7.451,28.14-13.216,56.792-17.12,85.722C19.249,700.188,18.174,729.432,18.105,758.646
			z"/>
	</g>
</g>
</svg>
