<?xml version="1.0" encoding="utf-8"?>
<!-- Generator: Adobe Illustrator 26.0.3, SVG Export Plug-In . SVG Version: 6.00 Build 0)  -->
<svg version="1.1" id="Layer_1" xmlns="http://www.w3.org/2000/svg" xmlns:xlink="http://www.w3.org/1999/xlink" x="0px" y="0px"
	 viewBox="0 0 1500 1500" style="enable-background:new 0 0 1500 1500;" xml:space="preserve">
<style type="text/css">
	.st0{fill:#BF6969;}
	.st1{opacity:0.5;}
	.st2{opacity:0.3;fill:#7A4646;}
</style>
<g>
	<path class="st0" d="M1485.5,749.8c0,406.5-329.4,735.9-735.5,735.9S14.5,1156.3,14.5,749.8C14.5,343.7,343.9,14.3,750,14.3
		S1485.5,343.7,1485.5,749.8z"/>
	<g class="st1">
		<path class="st2" d="M229.8,230c0,0,13.4-12.1,38.5-34.8c12-12,28.8-24.4,48.7-38.7c19.2-15.4,43.1-30.3,70.7-45.8
			C442.5,80,513.2,47.3,599.8,30.3c86-17.7,187.1-22.7,293.6-1.8c106,21.4,216.6,69,314.2,145.8c96.8,77.2,179.5,184.5,228.4,310.8
			c25,63,39,131,46.5,200.1c5.9,69.5,1.2,140.3-11.7,210.2c-14.3,69.7-39.5,137.3-72.3,201.3c-34.3,63.4-78.5,121-128.4,173.2
			c-52.2,49.9-109.7,94.3-173.1,128.5c-63.9,32.9-131.5,58.1-201.3,72.4c-69.9,12.9-140.7,17.6-210.2,11.7
			c-69.1-7.5-137.1-21.4-200.1-46.4c-126.3-48.8-233.6-131.5-310.9-228.2C97.7,1110.3,50,999.8,28.6,893.7
			c-21-106.5-16.1-207.6,1.6-293.6c16.9-86.6,49.7-157.3,80.2-212.2c15.6-27.5,30.4-51.5,45.8-70.7c14.3-19.9,26.8-36.7,38.7-48.7
			C217.7,243.4,229.8,230,229.8,230z M229.8,230c0,0-11.8,13.6-34,39.2c-11.7,12.3-23.8,29.2-37.6,49.4
			c-14.8,19.5-29.7,43.4-42.9,72C88.3,447,60,518.9,54,605.1c-8,85,2.8,182.7,41.3,275.4c20,46.1,45.4,91,77.6,131.6
			c30.7,40.9,73.7,77.7,108.4,102.4l37.1,26.5l19.8,14l9.9,7c5.4,5.6-6-6.6-4.4-5.2c3.3,1.6,7.8,3.7,7.8,3.7
			c23.8,11,45.6,23.7,70.5,31c46.8,19.2,98.1,25.5,145.4,31.2c97.2,7,189.5-10.3,269.8-41.8c19.9-9,39.4-17,57.6-27.9
			c19.4-7.6,36.2-20.8,53.9-30.9c16.1-13.4,35.5-24.5,42.1-31.4c2.6-1.8,5.2-3.6,7.9-5.2c0.6,0.1,4-3.1,7.5-6.4l9.8-9.3l19.7-18.6
			l9.9-9.3l4.9-4.6l2.6-2.2c-3.6,3.5,14-13.1-9.3,9c30-28.9,53.8-61.7,78.9-94.8c10.1-17.8,23.1-34.7,31-54.1
			c11.7-18,19.1-37.9,28.3-57.7c14.7-40.5,29-83.4,36.4-129.1c2.4-22.5,7.8-46.4,6.7-69.6c2.1-24,1-47.8-0.6-72.3
			c-2.7-23.9-5.2-48.9-10.4-73.3l-8.7-36.8c-2.9-12.2-6.1-20.6-9.1-31.8c-1.4-18.4-23.7-51.8-38.5-79.1l-3-5.3l-1.5-2.7
			c10.1,9.8,1.9,1.2,4.1,3.4l-5.2-8.1l-10.4-16.4c-7.2-10.7-13.4-22.9-21.5-32.8c-61.3-84.2-146.9-151.9-240.2-189.8
			c-93-38.3-191-48.9-275.9-40.4c-86.3,6.1-158.1,35.1-214.4,61.8c-28.7,13.2-52.1,28.7-71.8,43.2c-20.2,13.8-37.2,25.9-49.5,37.7
			C243.4,218.2,229.8,230,229.8,230z"/>
	</g>
</g>
</svg>
