<?xml version="1.0" encoding="iso-8859-1"?>
<!-- Generator: Adobe Illustrator 26.0.3, SVG Export Plug-In . SVG Version: 6.00 Build 0)  -->
<svg version="1.1" id="Layer_1" xmlns="http://www.w3.org/2000/svg" xmlns:xlink="http://www.w3.org/1999/xlink" x="0px" y="0px"
	 viewBox="0 0 1500 1500" enable-background="new 0 0 1500 1500" xml:space="preserve">
<g>
	<g>
		<path fill="#EDBB8F" d="M952.273,1135.243c-47.534,25.25-98.733,41.085-150.901,47.414
			c-39.632-25.645-78.085-53.076-115.658-80.175c-56.982-41.116-115.114-79.931-173.851-118.141
			c25.947,12.202,52.379,23.374,79.114,33.698C709.239,1063.697,833.103,1092.491,952.273,1135.243z"/>
		<path fill="#EDBB8F" d="M1094.304,1014.466c-95.706-18.62-187.749-59.736-272.434-106.878
			c-74.875-41.692-146.572-88.682-220.024-132.766c-75.087-45.052-152.385-86.319-226.715-132.613
			c-13.322-8.296-26.584-16.773-39.603-25.493c13.019-40.087,32.003-78.63,56.982-114.266
			c33.911,58.072,74.24,111.42,122.986,159.015c131.373,128.224,301.016,212.183,466.39,287.573
			c40.389,18.409,81.234,35.818,122.744,51.35C1101.298,1005.172,1097.876,1009.865,1094.304,1014.466z"/>
		<path fill="#EDBB8F" d="M1179.171,808.915c-59.647-30.156-118.172-62.704-175.396-97.159
			c-72.665-43.72-143.513-90.65-211.547-141.304c-63.037-46.93-125.65-96.402-179.967-153.445
			c-17.47-18.378-34.123-37.876-49.11-58.495c16.895-7.994,34.183-14.806,51.804-20.498c10.598,10.717,21.225,21.405,31.942,31.942
			c50.412,49.503,105.577,92.072,167.494,126.317c61.644,34.091,126.892,60.887,191.685,88.318
			c56.467,23.889,111.026,52.592,167.403,76.45C1183.803,709.636,1185.68,759.715,1179.171,808.915z"/>
		<path fill="#EDBB8F" d="M1133.271,549.44c-139.518-54.196-272.162-124.711-374.498-232.317
			c107.695,2.574,214.725,44.931,296.959,127.164C1087.552,476.108,1113.378,511.624,1133.271,549.44z"/>
		<path fill="#FFD2B3" d="M1173.479,661.042c-56.376-23.858-110.936-52.561-167.403-76.45
			c-64.793-27.432-130.04-54.227-191.685-88.318C752.475,462.03,697.31,419.46,646.897,369.957
			c-10.717-10.537-21.344-21.225-31.942-31.942c11.264-3.634,22.647-6.783,34.123-9.477c27.28-6.388,55.013-10.143,82.868-11.172
			c8.932-0.333,17.863-0.423,26.826-0.242c102.336,107.605,234.98,178.121,374.498,232.317c6.298,11.99,11.99,24.221,17.076,36.635
			c4.632,11.172,8.75,22.556,12.353,34.032C1166.969,633.58,1170.572,647.235,1173.479,661.042z"/>
		<path fill="#FFD2B3" d="M1104.629,1000.387c-41.51-15.532-82.355-32.941-122.744-51.35
			c-165.374-75.39-335.017-159.349-466.39-287.573c-48.746-47.596-89.075-100.944-122.986-159.015
			c5.39-7.63,11.051-15.169,16.986-22.556c8.78-10.96,18.227-21.618,28.248-31.882c1.212-1.272,2.423-2.483,3.664-3.724
			c5.328-5.329,10.748-10.506,16.289-15.502c25.07-22.648,52.137-41.843,80.629-57.557c8.145-4.572,16.441-8.811,24.827-12.716
			c14.987,20.618,31.64,40.117,49.11,58.495c54.317,57.043,116.93,106.515,179.967,153.445
			c68.033,50.654,138.882,97.583,211.547,141.304c57.223,34.456,115.749,67.004,175.396,97.159
			c-1.302,9.84-2.937,19.65-4.935,29.399c-1.483,7.357-3.149,14.716-5.087,21.982c-2.271,8.992-4.875,17.833-7.781,26.613
			c-9.9,30.429-23.313,59.949-40.177,87.955C1116.043,983.523,1110.502,992.032,1104.629,1000.387z"/>
		<path fill="#FFD2B3" d="M1055.73,1058.611c-20.861,20.861-43.296,39.117-66.942,54.831c-11.869,7.933-24.04,15.199-36.515,21.8
			c-119.17-42.752-243.034-71.546-361.297-117.203c-26.735-10.325-53.167-21.497-79.114-33.698
			c58.737,38.21,116.869,77.026,173.851,118.141c37.574,27.099,76.026,54.529,115.658,80.175
			c-23.646,2.876-47.505,3.785-71.303,2.816c-104.91-4.451-208.519-46.718-288.662-126.861
			c-41.692-41.692-73.15-89.802-94.344-141.092c-13.382-32.336-22.647-65.944-27.855-100.097
			c-4.088-26.674-5.692-53.711-4.785-80.658c0.425-13.141,1.454-26.281,3.089-39.3c2.12-17.198,5.299-34.304,9.507-51.168
			c2.453-9.961,5.299-19.832,8.508-29.581c13.019,8.72,26.281,17.198,39.603,25.493c74.33,46.294,151.629,87.561,226.715,132.613
			c73.452,44.084,145.149,91.074,220.024,132.766c84.685,47.142,176.728,88.258,272.434,106.878
			c-6.783,8.962-13.958,17.652-21.588,26.13C1067.297,1046.742,1061.605,1052.737,1055.73,1058.611z"/>
		<path fill="#EDBB8F" d="M661.31,612.72c-78.569-48.898-156.017-101.217-223.567-164.708c1.212-1.272,2.423-2.483,3.664-3.724
			c5.328-5.329,10.748-10.506,16.289-15.502c70.758,66.337,152.203,119.867,234.588,170.52
			c80.901,49.776,162.013,99.037,242.429,149.599c73.907,46.476,149.963,88.258,234.436,111.39
			c-2.271,8.992-4.875,17.833-7.781,26.613c-0.454-0.091-0.877-0.212-1.302-0.333c-88.712-24.342-168.371-68.941-245.669-117.778
			C830.56,715.843,745.48,665.099,661.31,612.72z"/>
		<path fill="#EDBB8F" d="M1104.629,1000.387c-41.51-15.532-82.355-32.941-122.744-51.35
			c-165.374-75.39-335.017-159.349-466.39-287.573c-48.746-47.596-89.075-100.944-122.986-159.015
			c5.39-7.63,11.051-15.169,16.986-22.556c39.42,69.032,88.622,130.464,148.207,183.994
			c67.639,60.676,144.573,110.058,223.96,153.778c77.843,42.842,158.38,81.414,239.734,117.051
			c32.851,14.382,66.095,27.885,99.794,40.148C1116.043,983.523,1110.502,992.032,1104.629,1000.387z"/>
		<path fill="#EDBB8F" d="M1173.479,661.042c-56.376-23.858-110.936-52.561-167.403-76.45
			c-64.793-27.432-130.04-54.227-191.685-88.318C752.475,462.03,697.31,419.46,646.897,369.957
			c-10.717-10.537-21.344-21.225-31.942-31.942c11.264-3.634,22.647-6.783,34.123-9.477c6.691,6.389,13.442,12.717,20.195,19.044
			c50.563,47.232,103.729,88.833,164.587,122.077c57.315,31.337,117.717,56.498,177.847,81.809
			c51.017,21.466,100.611,45.991,150.992,68.638C1166.969,633.58,1170.572,647.235,1173.479,661.042z"/>
		<path fill="#EDBB8F" d="M1174.236,838.314c-153.384-76.177-299.684-166.524-434.599-272.131
			c-71.515-55.952-147.813-118.928-201.313-194.954c8.145-4.572,16.441-8.811,24.827-12.716
			c14.987,20.618,31.64,40.117,49.11,58.495c54.317,57.043,116.93,106.515,179.967,153.445
			c68.033,50.654,138.882,97.583,211.547,141.304c57.223,34.456,115.749,67.004,175.396,97.159
			C1177.869,818.755,1176.234,828.565,1174.236,838.314z"/>
		<path fill="#EDBB8F" d="M1150.347,586.075c-157.866-61.402-308.645-140.365-418.4-268.71c8.932-0.333,17.863-0.423,26.826-0.242
			c102.336,107.605,234.98,178.121,374.498,232.317C1139.569,561.43,1145.26,573.661,1150.347,586.075z"/>
		<path fill="#EDBB8F" d="M590.977,1018.039c-26.735-10.325-53.167-21.497-79.114-33.698
			c58.737,38.21,116.869,77.026,173.851,118.141c37.574,27.099,76.026,54.529,115.658,80.175
			c-23.646,2.876-47.505,3.785-71.303,2.816c-53.56-37.453-105.758-77.237-158.925-114.902
			c-73.362-51.925-152.808-97.765-224.081-153.051c-13.382-32.336-22.647-65.944-27.855-100.097
			c42.176,28.552,80.446,63.552,123.712,90.711c110.179,69.062,235.586,107.09,358.996,144.877
			c-172.912-88.32-349.306-183.693-487.492-316.246c0.425-13.141,1.454-26.281,3.089-39.3
			c117.294,118.444,261.231,204.916,408.076,281.699c78.054,40.814,157.289,79.296,235.616,119.595
			c9.054,4.631,18.258,9.597,27.583,14.684c-11.869,7.933-24.04,15.199-36.515,21.8
			C833.103,1092.491,709.239,1063.697,590.977,1018.039z"/>
		<path fill="#EDBB8F" d="M1072.716,1040.596c-16.865-3.603-33.578-7.902-50.169-12.807
			c-166.463-49.17-308.343-152.173-456.095-239.432c-79.387-46.868-161.982-91.134-239.432-142.06
			c2.453-9.961,5.299-19.832,8.508-29.581c13.019,8.72,26.281,17.198,39.603,25.493c74.33,46.294,151.629,87.561,226.715,132.613
			c73.452,44.084,145.149,91.074,220.024,132.766c84.685,47.142,176.728,88.258,272.434,106.878
			C1087.521,1023.429,1080.346,1032.118,1072.716,1040.596z"/>
		<g opacity="0.3">
			<g>
				<path fill="#EDBB8F" d="M635.759,331.96c0,0,2.581-0.666,7.581-1.958c5.01-1.255,12.466-3.039,22.276-4.957
					c19.593-3.793,48.757-8.247,86.112-8.091c37.245,0.285,82.853,5.42,132.303,21.711c49.267,16.199,102.502,43.621,150.62,85.956
					c24.047,21.063,46.983,45.545,66.949,73.686c10.258,13.874,19.244,28.971,28.054,44.434c2.045,3.954,4.096,7.924,6.155,11.908
					l3.095,5.987l2.818,6.149c1.884,4.107,3.772,8.229,5.668,12.365c1.698,4.22,3.406,8.455,5.117,12.705
					c27.091,68.026,37.833,147.317,25.372,226.448c-12.18,79.005-47.687,157.237-103.273,220.297
					c-6.901,7.913-14.18,15.51-21.872,22.715c-7.578,7.316-15.052,14.78-23.204,21.519c-16.107,13.688-33.268,26.233-51.3,37.459
					c-18.071,11.136-36.843,21.339-56.572,29.396c-19.398,8.837-39.695,15.608-60.253,21.24
					c-41.179,11.044-83.998,16.314-126.455,14.633c-10.6-0.621-21.226-0.774-31.759-1.998c-10.539-1.099-21.025-2.601-31.428-4.468
					c-5.193-0.964-10.394-1.905-15.521-3.155l-15.318-3.94l-15.291-3.933c-5.078-1.357-10.063-3.027-15.045-4.677
					c-79.763-26.596-149.607-76.621-199.786-138.804c-25.293-30.995-45.4-65.193-60.849-100.419
					c-14.989-35.434-25.53-71.88-30.981-108.134c-11.092-72.598-2.584-143.376,18.117-203.812
					c20.578-60.682,52.664-111.201,87.261-149.879c4.43-4.753,8.787-9.431,13.073-14.031c4.414-4.472,8.968-8.655,13.326-12.882
					c8.622-8.556,17.562-16.133,26.304-23.202c17.557-14.064,34.758-25.605,50.847-35.048c7.992-4.826,15.936-8.696,23.329-12.49
					c7.39-3.797,14.289-7.416,20.998-10.179c3.332-1.423,6.472-2.958,9.608-4.134c3.14-1.172,6.148-2.296,9.026-3.372
					c5.755-2.15,10.982-4.103,15.664-5.853c4.644-1.861,8.883-3.101,12.542-4.174c3.65-1.098,6.72-2.021,9.192-2.765
					C633.205,332.728,635.759,331.96,635.759,331.96z M635.759,331.96c0,0-2.545,0.795-7.475,2.334
					c-2.465,0.769-5.527,1.724-9.165,2.861c-3.661,1.115-7.854,2.39-12.482,4.3c-4.664,1.798-9.871,3.806-15.604,6.017
					c-5.783,2.194-11.883,4.767-18.377,8.018c-3.207,1.61-6.803,3.092-10.032,4.972c-3.41,1.881-6.934,3.825-10.575,5.832
					c-3.639,2.01-7.409,4.048-11.214,6.296c-3.716,2.102-7.545,4.681-11.411,7.188c-7.746,5.105-15.718,10.742-23.821,16.958
					c-8.005,6.361-16.097,13.338-24.23,20.879c-4.009,3.813-8.202,7.673-12.077,11.832l-3.01,3.198l-1.522,1.628
					c-0.016,0.034-0.505,0.501-0.132,0.179l-0.366,0.423l-0.736,0.846c-1.962,2.259-3.942,4.541-5.94,6.842
					c-1.998,2.302-4.014,4.624-6.047,6.967l-3.066,3.53l-1.542,1.775l-0.386,0.446c-0.226,0.24,0.57-0.525,0.062,0.021l-0.722,0.936
					c-3.9,4.96-7.648,10.211-11.576,15.433c-28.912,40.551-52.697,94.268-60.429,152.912c-2.264,15.012-2.999,29.613-3.006,45.092
					c0.006,7.541,0.254,15.095,0.755,22.623c0.299,3.824,0.599,7.664,0.898,11.521c0.36,3.799,0.769,7.594,1.251,11.385
					c4.523,30.242,12.629,60.466,25.316,88.686c12.483,28.272,29.193,54.834,48.317,78.185c9.999,11.487,19.747,22.684,30.93,32.579
					c2.599,2.587,5.527,4.941,8.343,7.33c2.885,2.342,5.473,4.853,8.506,7.027l8.537,6.815c2.836,2.247,5.92,4.276,8.812,6.415
					l4.369,3.164l4.579,2.939c3.073,1.924,5.976,3.963,9.082,5.785c6.26,3.6,12.387,7.162,18.658,10.458
					c3.062,1.722,6.153,3.377,9.391,4.832c3.202,1.493,6.273,3.102,9.478,4.513l9.518,4.24c1.685,0.859,2.887,1.119,4.139,1.479
					l3.707,1.118l3.601,1.171l7.14,3.192l7.136,3.218l3.571,1.61c-3.035-1.876,8.056,4.769-6.582-4.104l0.916,0.352l1.83,0.705
					l14.66,5.647l7.319,2.874c1.214,0.623-7.028-3.928-3.269-1.93l0.599,0.167l1.194,0.335l2.389,0.654
					c6.378,1.719,12.81,3.192,19.278,4.42c6.4,1.39,12.835,2.579,19.313,3.509c0.753,0.093,1.747,0.284,2.295,0.301l1.705,0.092
					c0.109-0.031,1.046,0.174,1.62,0.276l1.947,0.37l0.974,0.184c-3.149-0.919,8.421,2.33-6.816-2l1.956,0.314l15.653,2.52
					l15.682,2.526l0.979,0.157c-2.818-0.69,7.697,1.768-6.072-1.507l1.207,0.064l2.404,0.117l4.771,0.27
					c6.334,0.353,12.604,0.476,18.818,0.35c0.695-0.03,1.745-0.01,2.107-0.079l0.744-0.072c0.049-0.016,0.329-0.016,0.708-0.008
					l0.997,0.012l0.996,0.301c-2.519-0.18,7.047-0.109-5.397-0.109h1.991l3.985-0.302l15.943-0.19l3.989-0.084l1.993-0.042
					c-10.709-0.384-2.637-0.152-4.878-0.25l0.574-0.056l4.592-0.399l9.163-0.893c6.103-0.604,12.193-1.398,18.258-2.464l9.103-1.595
					l4.557-0.84l3.902-0.796l5.882-1.271l0.977-0.214c1.571-0.347-10.191,2.288-4.751,1.055l1.937-0.492l3.875-0.984l7.753-1.965
					l3.877-0.977l1.947-0.45l0.974-0.226c-2.679,0.711,7.375-1.909-5.761,1.536l11.212-3.046c3.008-0.87,5.976-1.786,8.895-2.743
					l4.342-1.469l1.846-0.648l1.142-0.415l0.943-0.333c-2.152,0.89,6.15-2.458-4.588,1.91l14.899-5.802l7.447-2.901l3.723-1.449
					c-11.172,4.995-2.789,1.255-5.145,2.312l0.534-0.224l1.068-0.444c2.867-1.157,5.685-2.419,8.506-3.678
					c5.721-2.374,11.362-4.964,16.911-7.768c5.506-2.869,11.051-5.749,16.567-8.768c2.749-1.523,5.469-3.108,8.162-4.753
					l4.025-2.498c1.336-0.847,2.78-1.802,3.562-2.147l1.441-0.724l0.373-0.185l0.8-0.589l1.605-1.177l3.205-2.352
					c-2.204,2.09,6.068-5.511-4.74,4.539l0.776-0.622l1.548-1.244l12.39-9.939l6.186-4.965l3.107-2.463
					c-8.249,8.316-2.007,2.103-3.721,3.867l0.489-0.353l0.979-0.707c2.599-1.898,5.173-3.848,7.712-5.848
					c5.176-4.052,9.789-8.117,15.049-12.679c5.104-4.481,9.782-8.787,14.493-13.559l1.754-1.768c0.315-0.312,0.487-0.415,0.74-0.633
					c0.125-0.11,0.217-0.16,0.371-0.316l0.637-0.751l0.637-0.751c0.264-0.331,0.161-0.078,0.405-0.386l0.887-0.9l1.77-1.811
					c2.358-2.42,4.651-4.913,6.925-7.439c4.488-5.091,8.984-10.289,13.351-15.659c2.179-2.688,4.305-5.427,6.381-8.212
					c1.133-1.588,1.848-2.294,2.782-3.437l2.027-3.325l0.509-0.83c-0.371,1.106,0.119,0,0.134,0.108l0.767-1.068
					c4.107-5.702,8.049-11.565,11.748-17.597c3.755-6.011,7.518-12.127,10.953-18.432c1.73-3.148,3.397-6.338,5.02-9.56l2.375-4.865
					c0.767-1.615,1.58-3.399,2.229-4.516c24.607-53.738,35.877-115.224,28.554-177.742c-3.287-30.903-11.297-61.142-22.963-89.621
					c-11.949-28.242-27.224-55.017-45.677-78.313c-4.427-6.033-9.346-11.496-14.176-17.039c-4.834-5.5-9.637-10.288-14.468-15.509
					c-2.821-2.619-5.632-5.295-8.484-7.828l-4.246-3.825l-1.059-0.953l-0.528-0.476c0.07,0.001-0.903-0.676,0.022-0.116
					l-2.023-1.747c-5.388-4.657-10.857-9.119-16.372-13.414c-11.036-8.53-22.549-16.077-33.833-22.993
					c-11.596-6.906-23.137-12.742-34.671-18.101c-46.31-20.926-91.23-29.473-128.234-31.365c-37.104-1.874-66.47,1.888-86.038,5.596
					c-9.827,1.815-17.3,3.52-22.322,4.722C638.323,331.223,635.759,331.96,635.759,331.96z"/>
			</g>
		</g>
	</g>
	<g>
		<path fill="#C8C8C8" d="M593.808,345.445l-101.643-86.206C256.617,71.167,71.62-27.28,22.17,22.17
			C-52.813,97.153,212.262,483.8,614.232,885.769c401.97,401.97,788.616,667.045,863.599,592.062
			c49.45-49.45-48.997-234.448-237.07-469.997l-86.206-101.643l-16.137,37.107c144.413,184.773,217.753,331.691,175.715,373.729
			c-63.743,63.743-368.636-137.8-680.996-450.161S119.233,249.613,182.976,185.869c42.037-42.037,188.955,31.302,373.727,175.715
			L593.808,345.445z"/>
	</g>
</g>
</svg>
