<?xml version="1.0" encoding="iso-8859-1"?>
<!-- Generator: Adobe Illustrator 26.0.3, SVG Export Plug-In . SVG Version: 6.00 Build 0)  -->
<svg version="1.1" id="Layer_1" xmlns="http://www.w3.org/2000/svg" xmlns:xlink="http://www.w3.org/1999/xlink" x="0px" y="0px"
	 viewBox="0 0 1500 1500" enable-background="new 0 0 1500 1500" xml:space="preserve">
<g>
	<path fill="#6CD9BE" d="M1487.069,750.046c0,407.034-329.989,737.023-737.115,737.023c-311.666,0-578.167-193.486-685.904-466.858
		c-32.98-83.643-51.119-174.797-51.119-270.165c0-248.912,123.31-468.966,312.215-602.444
		c120.013-84.834,266.685-134.67,424.807-134.67C1157.08,12.932,1487.069,342.918,1487.069,750.046z"/>
	<path fill="#A1EDDA" d="M676.206,404.025c0,291.784-191.104,340.89-197.151,350.234
		c-86.848,133.113-215.93,271.905-362.053,271.905c-17.223,0-35.088-1.923-52.952-5.954
		c-32.98-83.643-51.119-174.797-51.119-270.165c0-248.912,123.31-468.966,312.215-602.444c27.21-6.048,54.601-9.437,81.535-9.437
		C546.94,138.165,676.206,236.741,676.206,404.025z"/>
	<g opacity="0.3">
		<path fill="#32C0BE" d="M228.844,228.78c0,0,3.281-3.115,9.63-9.154c6.469-5.907,15.454-15.348,28.545-26.152
			c25.438-22.33,64.527-53.658,119.725-84.801c54.964-31.108,126.305-62.434,212.85-80.152
			c86.168-17.881,187.569-22.534,294.24-1.428c53.199,10.668,107.484,27.646,160.841,51.681
			c53.405,23.924,105.285,55.919,154.066,94.442c12.303,9.506,23.86,20.101,35.848,30.312c5.709,5.427,11.437,10.871,17.18,16.334
			c5.824,5.389,11.513,10.937,16.797,16.924c10.816,11.724,21.698,23.523,32.644,35.387c10.013,12.66,20.088,25.393,30.214,38.195
			c38.802,52.497,71.604,111.221,95.975,174.516c49.059,126.378,63.197,271.414,34.853,411.19
			c-14.143,69.762-38.17,138.27-72.278,201.781c-34.001,63.559-77.646,122.251-128.853,173.387
			c-51.382,50.964-110.08,94.484-173.526,128.676c-63.292,34.591-132.032,57.976-201.703,72.38
			c-69.767,14.543-141.118,17.613-210.622,11.645c-69.571-5.898-137.369-21.811-200.661-46.203
			c-126.973-48.571-234.19-131.829-311.44-229.062c-38.516-48.788-70.513-100.668-94.426-154.082
			c-24.032-53.357-41.001-107.642-51.665-160.846c-21.086-106.673-16.42-208.07,1.473-294.241
			c17.729-86.538,49.063-157.876,80.182-212.838c31.142-55.195,62.476-94.284,84.805-119.72
			c10.806-13.089,20.25-22.076,26.155-28.543C225.731,232.059,228.844,228.78,228.844,228.78z M228.844,228.78
			c0,0-3.07,3.322-9.028,9.75c-5.819,6.548-15.138,15.65-25.762,28.872c-5.346,6.57-11.691,13.602-17.984,21.897
			c-6.22,8.351-12.775,17.641-19.791,27.692c-6.527,10.4-13.9,21.316-21.072,33.375c-6.933,12.212-14.412,25.113-20.872,39.486
			c-3.351,7.099-6.789,14.388-10.314,21.864c-3.155,7.629-6.383,15.447-9.692,23.453c-3.276,8.002-5.906,16.492-8.731,25.072
			c-2.755,8.607-5.891,17.24-8.182,26.382c-2.362,9.109-5.288,18.184-7.306,27.736c-1.865,9.551-3.767,19.286-5.704,29.198
			c-1.707,9.929-2.989,20.121-4.533,30.358c-1.745,10.194-1.755,20.931-2.73,31.534c-5.651,85.138,8.65,182.179,51.401,272.179
			c10.711,22.428,22.904,44.406,37.248,65.325c3.506,5.203,7.029,10.429,10.567,15.679c3.793,5.049,7.608,10.123,11.433,15.22
			c7.296,10.225,15.889,19.812,23.899,29.514c8.516,9.472,17.763,18.462,26.638,27.453c9.687,8.557,18.418,17.497,28.55,25.44
			c19.275,16.479,40.212,31.189,61.873,44.344c5.446,3.765,10.352,5.747,15.253,8.141c5.039,2.468,9.348,4.399,14.698,7.235
			c7.029,4.186,14.082,8.384,21.159,12.594l10.629,6.328c-1.128-1.357,4.409,4.156-2.195-2.84l1.095,0.459l2.181,0.917l4.351,1.834
			c22.942,9.982,46.4,18.046,70.05,24.085c23.625,6.061,46.925,10.901,70.331,13.56l17.476,1.71l17.424,0.961
			c11.509,0.569,22.794,1.043,34.107,0.844c11.294-0.189,22.444-0.634,33.546-1.755c5.49-0.363,11.022-1.073,16.501-1.843
			c2.735-0.366,5.446-0.72,8.109-0.923c2.037-0.533,3.735-1.176,5.571-1.714l5.293-1.585c0.282-0.325,3.118-0.31,5.231-0.395
			l6.636-0.208l13.292-0.416l3.324-0.103c1.893,0.234-9.917-2.053-4.475-1.209l0.989-0.247l3.926-0.942
			c10.414-2.336,20.508-3.877,30.592-7.129c40.046-10.342,76.964-24.773,110.501-41.446c4.179-2.168,8.282-4.464,12.461-6.29
			c4.14-1.965,8.09-4.505,12.121-6.594c3.954-2.342,8.138-3.885,11.881-6.639c3.831-2.483,7.603-5.006,11.529-7.026
			c3.969-1.906,7.617-4.573,11.313-7.01c3.701-2.433,7.406-4.779,11.126-7.039c6.78-5.915,14.555-9.517,21.302-15.044
			c6.875-5.269,13.765-10.293,20.374-15.758l10.189-7.672c3.155-2.919,6.349-5.757,9.592-8.519l4.891-4.083
			c1.009-0.786,1.405-1.164,1.626-1.48l0.98-1.042c1.329-1.348,2.773-2.532,4.351-3.574l1.21-0.756
			c-0.043,0.156,0.942-0.818,1.755-1.606l2.443-2.355l9.759-9.422c6.555-6.235,12.91-12.68,19.661-18.705
			c-17.089,16.577-4.409,4.268-8.071,7.819l0.573-0.571l1.162-1.136l2.334-2.254c1.602-1.465,3.045-3.055,4.566-4.581
			c3.093-3.014,5.92-6.225,8.898-9.322c5.618-6.45,11.423-12.695,17.185-19.021c5.704-6.364,10.964-13.062,16.243-19.788
			c5.623-6.512,10.873-13.336,15.97-20.322c2.582-3.359,5.026-7.308,7.426-10.403c0.761-0.719,1.569-1.43,2.425-2.127
			c0.373-0.211,0.579-0.522,0.904-1.141l1.664-2.951l3.319-5.902l1.659-2.951l0.828-1.476c1.879-4.095-1.583,3.849-1.119,2.843
			l1.65-2.835l3.394-5.659c2.358-3.752,4.596-7.567,7.301-11.251c5.112-7.488,8.903-15.598,13.967-23.42
			c4.505-8.004,8.263-16.382,13.145-24.647c16.644-33.71,31.481-70.783,42.164-111.092l2.309-7.628l1.496-7.615
			c0.971-5.099,2.023-10.261,3.342-15.523c3.09-10.627,3.639-20.988,5.518-31.847c2.3-10.99,2.95-21.773,4.065-32.947
			c0.425-5.542,1.43-11.358,1.468-16.895l0.138-16.812l0.287-17.264c-0.516-5.551-0.861-11.244-1.052-17.074l-0.708-17.661
			c-0.158-6.003-1.391-11.519-2.017-17.419c-1.779-11.507-2.391-24.015-5.495-35.307l-3.835-17.651l-3.48-17.003
			c-2.004-10.189-3.997-20.324-5.982-30.398c-6.923-14.369-15.052-29.598-22.449-44.217l-2.83-5.523l-1.415-2.759l-0.703-1.38
			c10.141,10.312,2.515,2.254,4.648,4.284l-4.122-8.451c-2.788-5.731-5.566-11.445-8.334-17.142
			c-6.139-10.864-12.02-22.397-18.801-33.069c-6.79-10.658-13.47-21.806-21.168-31.811c-3.806-5.064-7.459-10.436-11.457-15.354
			c-4.059-4.936-8.104-9.854-12.13-14.755c-7.995-10.156-16.999-18.902-25.61-28.608c-4.451-4.593-9.075-8.927-13.641-13.445
			c-4.609-4.433-9.109-9.195-14.067-13.035c-9.759-8.001-19.389-16.618-29.665-23.917c-5.122-3.832-10.219-7.645-15.297-11.442
			c-5.273-3.544-10.524-7.067-15.745-10.577c-10.471-7.301-21.34-13.606-32.251-19.963c-10.917-6.345-22.234-11.32-33.395-17.079
			C787.752,63.89,690.492,49.935,605.275,55.912c-21.493,0.918-41.944,4.461-61.93,7.502c-9.917,1.958-19.657,3.883-29.215,5.769
			c-9.453,2.334-18.615,5.039-27.709,7.476c-36.129,10.364-68.711,22.957-96.758,37.16c-56.589,27.702-96.764,57.945-122.249,80.09
			c-13.221,10.625-22.34,19.953-28.885,25.775C232.144,225.685,228.844,228.78,228.844,228.78z"/>
	</g>
</g>
</svg>
