<?xml version="1.0" encoding="utf-8"?>
<!-- Generator: Adobe Illustrator 26.0.3, SVG Export Plug-In . SVG Version: 6.00 Build 0)  -->
<svg version="1.1" id="Layer_1" xmlns="http://www.w3.org/2000/svg" xmlns:xlink="http://www.w3.org/1999/xlink" x="0px" y="0px"
	 viewBox="0 0 1500 1500" style="enable-background:new 0 0 1500 1500;" xml:space="preserve">
<style type="text/css">
	.st0{fill:#EA5D0B;}
	.st1{fill:#E53D11;}
	.st2{opacity:0.5;}
	.st3{fill:#AF2A10;}
</style>
<g>
	<path class="st0" d="M228.9,228.8c28.8-28.8,59.3-54.6,91.3-77.7c77.1-55.5,162.5-94.3,251.3-116.4c27.7-6.9,55.9-12.1,84.2-15.8
		c210.9-27.1,431.2,37,597.2,192.4c6.2,5.6,12.2,11.5,18.2,17.4c33.1,33.1,62.5,68.7,88,106.3c29.7,43.2,54.1,88.8,73.4,136
		c67.4,165.3,72.4,350.4,14.7,518.6c-21.1,61.4-50.5,120.6-88.3,175.8c-25.4,37.2-54.6,72.5-87.7,105.6
		c-30.6,30.6-63.3,58.1-97.6,82.2c-17.3,12.1-35,23.4-53,33.9c-55.2,32.3-113.9,56.7-174.2,73.2c-247.3,68.1-523.3,5.1-717.7-189.3
		c-78.8-78.8-136-170.9-171.7-269.2c-5.2-14.5-10-28.9-14.2-43.5C22.4,888.7,12.4,816.4,13,744.2c0-19.5,1-38.9,2.8-58.3
		c6.4-75.2,24.4-149.4,54-220.1C105.7,379.7,158.7,298.9,228.9,228.8z"/>
	<path class="st1" d="M1487.1,750.1c0,40.7-3.3,80.5-9.7,119.5c-19.3-5.9-42.9-11.4-64.9-11.4c-80.1,0-406.9,264.6-505,264.6
		c-62.1,0-121.3-57.1-191.4-57.1c-150,0-184.5,211.3-251.5,364.2c-164.6-69.2-298.9-196.6-377.2-356.3c7.8-1.1,15.9-1.6,24.4-1.6
		c55.9,0,113.4,21.1,171.1,21.1c82.2,0,67.2-78.2,146.5-78.2c26.2,0,53,8.9,79.4,8.9c125.4,0,49.1-168.8,191.3-168.8
		c80.8,0,144.8,102.7,227,102.7c88.7,0,114-138.6,186.9-169.8c159.1-68.3,258.7-222.6,317.7-317.9
		C1467.4,556.3,1487.1,650.9,1487.1,750.1z"/>
	<path class="st1" d="M1102.6,102.6C701,367.6,279.4,497.7,37.3,561.5c16.2-61.9,40.5-120.6,71.4-175
		c332.7-10.6,643.1-178.8,953.1-304.7C1075.7,88.4,1089.3,95.3,1102.6,102.6z"/>
	<path class="st1" d="M1314.4,276.2C949.9,589.2,501.3,820.9,25.6,886.7c-8.3-44.3-12.7-91.4-12.7-138.1c0-43.3,3.7-99.4,10.9-128.6
		h12.4c411.6,0,964.1-259.9,1239-388.5C1288.9,245.3,1302,261.2,1314.4,276.2z"/>
	<path class="st1" d="M1382,1129.6c-14.7,24.5-30.9,48.1-48.4,70.7c-468.7,175.6-525.3,217.7-558.4,286.3
		c-8.3,0.4-16.8,0.5-25.2,0.5c-46.9,0-92.8-4.4-137.3-12.9C774.7,1242.1,1088.2,1174.9,1382,1129.6z"/>
	<g class="st2">
		<path class="st3" d="M228.9,228.8c0,0,12.5-13.1,38-35.5c25.6-22.2,64.7-53.5,119.8-84.7c55-31.2,126.4-62.3,212.9-80.2
			C685.8,10.9,787.1,5.6,893.8,27c106.4,20.9,217.5,68.6,314.8,146.4c97.6,76.8,180.6,184.5,229.1,311.4
			c48.9,126.5,63.1,271.5,34.8,411.3c-27.5,139.9-98.6,273-201.3,375.1c-102.1,102.8-235.3,173.7-375.2,201.2
			c-139.8,28-284.8,14.1-411.3-34.8c-63.3-24.3-122.1-57.1-174.5-96.2c-52.2-39.2-98.4-84.1-137.2-132.6
			c-38.7-48.7-70.3-100.8-94.4-154.1c-12.1-26.6-22.3-53.6-30.6-80.6c-9.1-26.7-15.5-53.8-21-80.3C16.6,840.5,12.2,788.4,13.3,739
			c1.5-24.7,1.5-48.8,4.4-72.1c2.6-23.3,6.2-45.8,10.7-67.4c17.9-86.5,49.1-157.9,80.2-212.9c31.4-55.1,62.6-94.2,84.8-119.8
			c11.2-12.8,20.1-22.3,26.2-28.5C225.7,232,228.9,228.8,228.9,228.8z M228.9,228.8c0,0-3.1,3.3-9.2,9.6c-6,6.4-14.8,15.9-25.8,28.8
			c-21.6,26-53.2,64.9-82.6,120.9c-14.5,28-28.8,59.8-41.4,95.6C57.1,519.3,48,559.4,41.4,602.2c-3.1,21.4-5.7,43.8-6.2,66.5
			c-0.1,5.8-0.2,11.7-0.4,17.6c0.2,5.7,0.4,11.4,0.5,17.1c0.4,12.1,0.7,24.3,1.1,36.7c2.4,46.5,12,97.3,27,146.5
			c3.8,12.4,7.9,24.8,12.5,37c2.5,6.2,4.9,12.3,7.4,18.6c2.7,5.9,5.4,11.9,8.1,17.9c2.9,6.5,5.9,13,8.8,19.5l2.2,4.9l0.6,1.2
			c-0.1-0.3,0.9,2.5,0-0.5l1.2,2.2l4.7,9c6.2,11.9,13,23.7,20,35.4c28.9,46.3,64.1,89.8,104.7,128.6c20.6,19.5,41.4,37.1,65.1,54.2
			c11.8,8,22.9,16.7,35.1,24.1c12.3,7.2,24.1,15,36.7,21.7c49.8,27.6,103.9,47.1,159,60.6c55.3,12.8,112,19.1,168.5,17.4l21.1-0.5
			l21.1-1.6c14-0.6,28-3,41.9-4.9c13.9-1.4,27.6-5.3,41.3-7.8c7.3-1.1,12.7-2.9,18.6-4.3l17.4-4.3c2.3-0.4,7.7-2.2,11.6-3.3
			l12.8-3.9l12.8-3.9l6.4-1.9l3.2-1c-1.7,0.4,6.2-1.6-3.5,0.8l1.2-0.4c13.1-4.6,25.9-10.1,38.7-15.3c25.6-10.4,50.3-22.9,73.9-36.9
			l7.6-4.7l5.5-3.4l2.9-1.8l1.4-0.9c2-1.2-12.6,7.6-5.7,3.4c7.4-5.2,14.9-10.3,22.4-15.1l22.6-14.9l5.7-3.7c6-4-6.5,4.4-4.9,3.3
			l1-0.8l2.1-1.5l8.2-6.2c10.9-8.3,21.5-17.2,31.8-26.4c5.2-4.6,10.3-9.3,15.3-14.1l15.6-15.3l14-14.1c4.8-5,9.5-10.1,14.1-15.3
			c9.2-10.3,18-21,26.4-32l6.1-8.1l6.5-9l11.5-16.7c7.9-11.3,15.4-22.9,22.5-34.7c7.1-11.9,13.7-24,19.9-36.4
			c6.1-12.1,12.1-25.8,17-37c11.4-26.9,20.9-52.1,28.4-79.3c30.9-107.7,33.6-224.1,7.4-335.6c-6.2-27-14.7-54.7-24.7-81.2
			c-5.1-13.3-10.6-26.4-16.5-39.3c-1.5-3.2-2.3-5.4-4.5-9.5l-5.2-10.4c-3.2-6.3-6.4-12.6-9.8-18.9c-13.4-24.8-29.1-49.2-45.4-71.6
			l-3.4-4.5l-1.8-2.4l-0.9-1.2c-0.7-0.8,2.9,2.7,0.9,0.7l-7.6-9.3l-7.6-9.3c-1.3-1.8-4.3-5.1-6.4-7.6c-9.3-10.6-18.2-21.7-28.2-31.5
			c-38.9-40.7-82.4-76-128.8-104.8c-46.7-28.1-95.7-50.9-145.4-65.6c-49.6-15.2-99.4-24.3-147.5-27c-11.9-0.8-23.6-0.9-35.2-1.4
			c-11.6-0.5-23.9,0.3-35.5,0.4c-22.6,0.4-45.1,3.3-66.5,6.3c-86.3,12-158.3,41-214.1,70.1c-55.8,29.6-94.9,61.1-120.8,82.7
			C241.4,215.7,228.9,228.8,228.9,228.8z"/>
	</g>
</g>
</svg>
